<svg width="202" height="247" viewBox="0 0 202 247" fill="none" xmlns="http://www.w3.org/2000/svg">
<rect x="0.5" y="0.5" width="201" height="246" fill="#BCCCBF"/>
<rect width="158" height="245" transform="translate(43 1)" fill="white"/>
<path fill-rule="evenodd" clip-rule="evenodd" d="M148 208H96V222H148V208ZM112 212V216.932H113.767C114.308 216.932 114.727 216.806 115.023 216.553C115.319 216.3 115.467 215.952 115.467 215.509C115.467 215.22 115.387 214.972 115.226 214.764C115.067 214.554 114.85 214.412 114.575 214.337C114.808 214.24 114.993 214.104 115.128 213.928C115.263 213.749 115.331 213.545 115.331 213.314C115.331 212.881 115.191 212.553 114.911 212.332C114.634 212.111 114.218 212 113.666 212H112ZM112.672 216.4V214.625H113.791C114.459 214.625 114.792 214.922 114.792 215.516C114.792 215.792 114.701 216.009 114.519 216.167C114.34 216.322 114.094 216.4 113.781 216.4H112.672ZM113.686 214.104H112.672V212.535H113.666C113.999 212.535 114.247 212.597 114.411 212.722C114.574 212.843 114.656 213.04 114.656 213.311C114.656 213.555 114.567 213.748 114.39 213.89C114.215 214.033 113.98 214.104 113.686 214.104ZM117.591 217C118.079 217 118.449 216.857 118.7 216.57L118.714 216.932H119.33V213.267H118.683V215.933C118.52 216.29 118.191 216.468 117.696 216.468C117.23 216.468 116.997 216.19 116.997 215.635V213.267H116.349V215.652C116.352 216.097 116.458 216.433 116.668 216.661C116.88 216.887 117.188 217 117.591 217ZM121.195 212.379V213.267H121.902V213.751H121.195V216.024C121.195 216.171 121.227 216.282 121.29 216.356C121.353 216.429 121.46 216.465 121.612 216.465C121.686 216.465 121.789 216.451 121.92 216.424V216.932C121.749 216.977 121.584 217 121.423 217C121.133 217 120.915 216.915 120.768 216.746C120.621 216.577 120.548 216.336 120.548 216.024V213.751H119.859V213.267H120.548V212.379H121.195ZM123.54 213.267V212.379H122.892V213.267H122.203V213.751H122.892V216.024C122.892 216.336 122.966 216.577 123.113 216.746C123.26 216.915 123.478 217 123.767 217C123.928 217 124.094 216.977 124.264 216.932V216.424C124.133 216.451 124.031 216.465 123.956 216.465C123.804 216.465 123.697 216.429 123.634 216.356C123.571 216.282 123.54 216.171 123.54 216.024V213.751H124.246V213.267H123.54ZM124.764 215.066C124.764 214.707 124.836 214.384 124.981 214.097C125.128 213.81 125.331 213.589 125.59 213.433C125.851 213.277 126.149 213.199 126.482 213.199C126.998 213.199 127.414 213.372 127.731 213.717C128.051 214.063 128.211 214.523 128.211 215.096V215.14C128.211 215.497 128.139 215.818 127.997 216.102C127.857 216.385 127.655 216.605 127.392 216.763C127.131 216.921 126.83 217 126.489 217C125.976 217 125.56 216.827 125.24 216.482C124.923 216.136 124.764 215.679 124.764 215.11V215.066ZM125.415 215.14C125.415 215.547 125.512 215.873 125.705 216.119C125.901 216.365 126.163 216.488 126.489 216.488C126.818 216.488 127.079 216.364 127.273 216.116C127.467 215.865 127.563 215.515 127.563 215.066C127.563 214.664 127.464 214.339 127.266 214.09C127.07 213.839 126.809 213.714 126.482 213.714C126.163 213.714 125.905 213.837 125.709 214.083C125.513 214.329 125.415 214.682 125.415 215.14ZM129.656 213.728L129.635 213.267H129.022V216.932H129.67V214.32C129.758 214.144 129.882 214.002 130.041 213.894C130.199 213.785 130.383 213.731 130.593 213.731C130.852 213.731 131.042 213.794 131.164 213.921C131.287 214.047 131.35 214.243 131.353 214.507V216.932H132V214.51C131.993 213.636 131.589 213.199 130.789 213.199C130.323 213.199 129.945 213.375 129.656 213.728Z" fill="#C4C4C4"/>
<g clip-path="url(#clip0)">
<path d="M90.6068 191.04C90.5373 191.053 90.5069 191.086 90.5156 191.138C90.5243 191.19 90.5634 191.207 90.6328 191.19C90.7023 191.173 90.7327 191.142 90.724 191.099C90.7153 191.051 90.6763 191.032 90.6068 191.04Z" fill="#C4C4C4"/>
<path d="M90.2357 191.093C90.1663 191.093 90.1315 191.116 90.1315 191.164C90.1315 191.221 90.1685 191.244 90.2422 191.236C90.3117 191.236 90.3464 191.212 90.3464 191.164C90.3464 191.108 90.3095 191.084 90.2357 191.093Z" fill="#C4C4C4"/>
<path d="M89.7279 191.073C89.7106 191.121 89.7388 191.153 89.8125 191.17C89.8776 191.196 89.9189 191.183 89.9362 191.131C89.9493 191.084 89.921 191.049 89.8516 191.027C89.7865 191.01 89.7453 191.025 89.7279 191.073Z" fill="#C4C4C4"/>
<path d="M96.4499 183.55C96.0831 183.183 95.6416 183 95.125 183H88.875C88.3585 183 87.9169 183.183 87.5501 183.55C87.1834 183.917 87 184.359 87 184.875V191.125C87 191.642 87.1834 192.083 87.5501 192.45C87.9168 192.817 88.3585 193 88.875 193H90.3333C90.4287 193 90.5004 192.997 90.5481 192.99C90.5958 192.984 90.6435 192.956 90.6913 192.906C90.7391 192.856 90.7629 192.783 90.7629 192.688C90.7629 192.675 90.7618 192.527 90.7596 192.245C90.7574 191.963 90.7563 191.739 90.7563 191.574L90.6066 191.6C90.5111 191.618 90.3907 191.625 90.2453 191.623C90.0999 191.621 89.949 191.606 89.7928 191.577C89.6365 191.549 89.4912 191.484 89.3566 191.382C89.2221 191.28 89.1266 191.147 89.0702 190.982L89.0051 190.832C88.9617 190.732 88.8933 190.621 88.8 190.5C88.7067 190.378 88.6123 190.296 88.5168 190.253L88.4712 190.22C88.4409 190.198 88.4127 190.172 88.3866 190.142C88.3606 190.111 88.3411 190.081 88.3281 190.051C88.315 190.02 88.3258 189.995 88.3606 189.976C88.3953 189.956 88.4582 189.947 88.5494 189.947L88.6796 189.966C88.7664 189.983 88.8738 190.035 89.0019 190.122C89.1299 190.209 89.2351 190.322 89.3176 190.461C89.4175 190.639 89.5378 190.774 89.6789 190.868C89.82 190.961 89.9621 191.008 90.1053 191.008C90.2485 191.008 90.3722 190.997 90.4764 190.975C90.5805 190.953 90.6782 190.921 90.7694 190.877C90.8084 190.587 90.9148 190.363 91.0884 190.207C90.841 190.181 90.6186 190.142 90.421 190.09C90.2236 190.037 90.0196 189.953 89.8091 189.836C89.5985 189.718 89.4239 189.573 89.285 189.399C89.1461 189.226 89.0321 188.998 88.9432 188.716C88.8543 188.434 88.8098 188.108 88.8098 187.739C88.8098 187.214 88.9813 186.767 89.3241 186.398C89.1635 186.003 89.1787 185.56 89.3697 185.07C89.4956 185.031 89.6822 185.06 89.9296 185.158C90.177 185.256 90.3582 185.339 90.4732 185.409C90.5883 185.478 90.6805 185.537 90.7499 185.584C91.1537 185.471 91.5703 185.415 92 185.415C92.4296 185.415 92.8463 185.471 93.25 185.584L93.4974 185.428C93.6668 185.324 93.8664 185.228 94.0965 185.142C94.3265 185.055 94.5022 185.031 94.6238 185.07C94.8191 185.561 94.8365 186.003 94.6758 186.398C95.0187 186.767 95.1902 187.214 95.1902 187.739C95.1902 188.108 95.1457 188.435 95.0568 188.719C94.9679 189.003 94.8529 189.231 94.7117 189.403C94.5707 189.574 94.3949 189.718 94.1844 189.836C93.9739 189.953 93.7699 190.038 93.5724 190.09C93.3749 190.142 93.1525 190.181 92.9051 190.207C93.1307 190.402 93.2435 190.71 93.2435 191.131V192.687C93.2435 192.761 93.2543 192.821 93.276 192.866C93.2978 192.912 93.3325 192.943 93.3802 192.961C93.4281 192.978 93.4703 192.989 93.5072 192.993C93.5442 192.998 93.5973 193 93.6667 193H95.1251C95.6415 193 96.0832 192.816 96.4498 192.45C96.8166 192.083 97 191.641 97 191.125V184.875C96.9999 184.359 96.8165 183.917 96.4499 183.55Z" fill="#C4C4C4"/>
<path d="M88.9791 190.279C88.9488 190.3 88.9531 190.335 88.9922 190.383C89.0356 190.426 89.0703 190.433 89.0964 190.402C89.1267 190.381 89.1224 190.346 89.0833 190.298C89.0399 190.259 89.0052 190.253 88.9791 190.279Z" fill="#C4C4C4"/>
<path d="M88.7644 190.116C88.7514 190.146 88.7666 190.172 88.81 190.194C88.8446 190.216 88.8729 190.212 88.8946 190.181C88.9076 190.151 88.8924 190.125 88.849 190.103C88.8056 190.09 88.7774 190.094 88.7644 190.116Z" fill="#C4C4C4"/>
<path d="M89.181 190.533C89.1419 190.554 89.1419 190.593 89.181 190.65C89.2201 190.706 89.2569 190.721 89.2917 190.695C89.3308 190.665 89.3308 190.624 89.2917 190.572C89.257 190.515 89.2201 190.502 89.181 190.533Z" fill="#C4C4C4"/>
<path d="M89.409 190.825C89.3699 190.86 89.3785 190.901 89.435 190.949C89.487 191.001 89.5304 191.008 89.5652 190.969C89.5999 190.934 89.5912 190.893 89.5391 190.845C89.4871 190.793 89.4437 190.786 89.409 190.825Z" fill="#C4C4C4"/>
</g>
<path d="M125.535 183H118.465C117.657 183 117 183.657 117 184.465V191.535C117 192.343 117.657 193 118.465 193H121.414V189.465H120.242V187.707H121.414V186.516C121.414 185.546 122.203 184.758 123.172 184.758H124.949V186.516H123.172V187.707H124.949L124.656 189.465H123.172V193H125.535C126.343 193 127 192.343 127 191.535V184.465C127 183.657 126.343 183 125.535 183Z" fill="#C4C4C4"/>
<path d="M152.879 188C152.879 188.485 152.485 188.879 152 188.879C151.515 188.879 151.121 188.485 151.121 188C151.121 187.515 151.515 187.121 152 187.121C152.485 187.121 152.879 187.515 152.879 188Z" fill="#C4C4C4"/>
<path d="M153.484 185.344H150.516C149.869 185.344 149.344 185.869 149.344 186.516V189.484C149.344 190.131 149.869 190.656 150.516 190.656H153.484C154.131 190.656 154.656 190.131 154.656 189.484V186.516C154.656 185.869 154.131 185.344 153.484 185.344ZM152 189.465C151.192 189.465 150.535 188.808 150.535 188C150.535 187.192 151.192 186.535 152 186.535C152.808 186.535 153.465 187.192 153.465 188C153.465 188.808 152.808 189.465 152 189.465ZM153.68 186.613C153.518 186.613 153.387 186.482 153.387 186.32C153.387 186.158 153.518 186.027 153.68 186.027C153.842 186.027 153.973 186.158 153.973 186.32C153.973 186.482 153.842 186.613 153.68 186.613Z" fill="#C4C4C4"/>
<path d="M154.363 183H149.637C148.183 183 147 184.183 147 185.637V190.363C147 191.817 148.183 193 149.637 193H154.363C155.817 193 157 191.817 157 190.363V185.637C157 184.183 155.817 183 154.363 183ZM155.242 189.484C155.242 190.454 154.454 191.242 153.484 191.242H150.516C149.546 191.242 148.758 190.454 148.758 189.484V186.516C148.758 185.546 149.546 184.758 150.516 184.758H153.484C154.454 184.758 155.242 185.546 155.242 186.516V189.484Z" fill="#C4C4C4"/>
<path d="M94.938 69C94.802 68.64 94.674 68.288 94.554 67.944C94.434 67.592 94.31 67.236 94.182 66.876H90.414L89.658 69H88.446C88.766 68.12 89.066 67.308 89.346 66.564C89.626 65.812 89.898 65.1 90.162 64.428C90.434 63.756 90.702 63.116 90.966 62.508C91.23 61.892 91.506 61.284 91.794 60.684H92.862C93.15 61.284 93.426 61.892 93.69 62.508C93.954 63.116 94.218 63.756 94.482 64.428C94.754 65.1 95.03 65.812 95.31 66.564C95.59 67.308 95.89 68.12 96.21 69H94.938ZM93.846 65.916C93.59 65.22 93.334 64.548 93.078 63.9C92.83 63.244 92.57 62.616 92.298 62.016C92.018 62.616 91.75 63.244 91.494 63.9C91.246 64.548 90.998 65.22 90.75 65.916H93.846Z" fill="#ADADAD"/>
<path d="M104.239 69C104.063 68.704 103.859 68.372 103.627 68.004C103.403 67.636 103.159 67.256 102.895 66.864C102.631 66.464 102.355 66.06 102.067 65.652C101.787 65.244 101.507 64.852 101.227 64.476C100.947 64.092 100.675 63.732 100.411 63.396C100.147 63.06 99.903 62.764 99.679 62.508V69H98.539V60.684H99.463C99.839 61.084 100.239 61.552 100.663 62.088C101.095 62.616 101.519 63.164 101.935 63.732C102.359 64.292 102.755 64.844 103.123 65.388C103.499 65.932 103.815 66.416 104.071 66.84V60.684H105.211V69H104.239Z" fill="#ADADAD"/>
<path d="M114.026 69C113.89 68.64 113.762 68.288 113.642 67.944C113.522 67.592 113.398 67.236 113.27 66.876H109.502L108.746 69H107.534C107.854 68.12 108.154 67.308 108.434 66.564C108.714 65.812 108.986 65.1 109.25 64.428C109.522 63.756 109.79 63.116 110.054 62.508C110.318 61.892 110.594 61.284 110.882 60.684H111.95C112.238 61.284 112.514 61.892 112.778 62.508C113.042 63.116 113.306 63.756 113.57 64.428C113.842 65.1 114.118 65.812 114.398 66.564C114.678 67.308 114.978 68.12 115.298 69H114.026ZM112.934 65.916C112.678 65.22 112.422 64.548 112.166 63.9C111.918 63.244 111.658 62.616 111.386 62.016C111.106 62.616 110.838 63.244 110.582 63.9C110.334 64.548 110.086 65.22 109.838 65.916H112.934Z" fill="#ADADAD"/>
<path d="M119.746 68.172C120.962 68.172 121.57 67.756 121.57 66.924C121.57 66.668 121.514 66.452 121.402 66.276C121.298 66.092 121.154 65.936 120.97 65.808C120.786 65.672 120.574 65.556 120.334 65.46C120.102 65.364 119.854 65.268 119.59 65.172C119.286 65.068 118.998 64.952 118.726 64.824C118.454 64.688 118.218 64.532 118.018 64.356C117.818 64.172 117.658 63.956 117.538 63.708C117.426 63.46 117.37 63.16 117.37 62.808C117.37 62.08 117.618 61.512 118.114 61.104C118.61 60.696 119.294 60.492 120.166 60.492C120.67 60.492 121.126 60.548 121.534 60.66C121.95 60.764 122.254 60.88 122.446 61.008L122.074 61.956C121.906 61.852 121.654 61.752 121.318 61.656C120.99 61.552 120.606 61.5 120.166 61.5C119.942 61.5 119.734 61.524 119.542 61.572C119.35 61.62 119.182 61.692 119.038 61.788C118.894 61.884 118.778 62.008 118.69 62.16C118.61 62.304 118.57 62.476 118.57 62.676C118.57 62.9 118.614 63.088 118.702 63.24C118.79 63.392 118.914 63.528 119.074 63.648C119.234 63.76 119.418 63.864 119.626 63.96C119.842 64.056 120.078 64.152 120.334 64.248C120.694 64.392 121.022 64.536 121.318 64.68C121.622 64.824 121.882 64.996 122.098 65.196C122.322 65.396 122.494 65.636 122.614 65.916C122.734 66.188 122.794 66.52 122.794 66.912C122.794 67.64 122.526 68.2 121.99 68.592C121.462 68.984 120.714 69.18 119.746 69.18C119.418 69.18 119.114 69.156 118.834 69.108C118.562 69.068 118.318 69.02 118.102 68.964C117.886 68.9 117.698 68.836 117.538 68.772C117.386 68.7 117.266 68.64 117.178 68.592L117.526 67.632C117.71 67.736 117.99 67.852 118.366 67.98C118.742 68.108 119.202 68.172 119.746 68.172Z" fill="#ADADAD"/>
<path d="M130.957 69C130.821 68.64 130.693 68.288 130.573 67.944C130.453 67.592 130.329 67.236 130.201 66.876H126.433L125.677 69H124.465C124.785 68.12 125.085 67.308 125.365 66.564C125.645 65.812 125.917 65.1 126.181 64.428C126.453 63.756 126.721 63.116 126.985 62.508C127.249 61.892 127.525 61.284 127.813 60.684H128.881C129.169 61.284 129.445 61.892 129.709 62.508C129.973 63.116 130.237 63.756 130.501 64.428C130.773 65.1 131.049 65.812 131.329 66.564C131.609 67.308 131.909 68.12 132.229 69H130.957ZM129.865 65.916C129.609 65.22 129.353 64.548 129.097 63.9C128.849 63.244 128.589 62.616 128.317 62.016C128.037 62.616 127.769 63.244 127.513 63.9C127.265 64.548 127.017 65.22 126.769 65.916H129.865Z" fill="#ADADAD"/>
<path d="M135.589 69V65.664C135.037 64.808 134.517 63.964 134.029 63.132C133.541 62.3 133.081 61.484 132.649 60.684H134.017C134.321 61.34 134.661 62.008 135.037 62.688C135.413 63.36 135.801 64.008 136.201 64.632C136.593 64.008 136.977 63.36 137.353 62.688C137.729 62.008 138.073 61.34 138.385 60.684H139.681C139.249 61.484 138.789 62.3 138.301 63.132C137.813 63.956 137.297 64.792 136.753 65.64V69H135.589Z" fill="#ADADAD"/>
<path d="M141.98 69V60.684H146.996V61.68H143.144V64.188H146.564V65.172H143.144V69H141.98Z" fill="#ADADAD"/>
<path d="M154.631 69C154.495 68.64 154.367 68.288 154.247 67.944C154.127 67.592 154.003 67.236 153.875 66.876H150.107L149.351 69H148.139C148.459 68.12 148.759 67.308 149.039 66.564C149.319 65.812 149.591 65.1 149.855 64.428C150.127 63.756 150.395 63.116 150.659 62.508C150.923 61.892 151.199 61.284 151.487 60.684H152.555C152.843 61.284 153.119 61.892 153.383 62.508C153.647 63.116 153.911 63.756 154.175 64.428C154.447 65.1 154.723 65.812 155.003 66.564C155.283 67.308 155.583 68.12 155.903 69H154.631ZM153.539 65.916C153.283 65.22 153.027 64.548 152.771 63.9C152.523 63.244 152.263 62.616 151.991 62.016C151.711 62.616 151.443 63.244 151.187 63.9C150.939 64.548 150.691 65.22 150.443 65.916H153.539Z" fill="#ADADAD"/>
<path d="M88.35 70.944H155.999V71.892H88.35V70.944Z" fill="#ADADAD"/>
<path d="M79.0283 84.6C80.1963 84.6 81.0923 84.824 81.7163 85.272C82.3483 85.712 82.6643 86.372 82.6643 87.252C82.6643 87.732 82.5763 88.144 82.4003 88.488C82.2323 88.824 81.9843 89.1 81.6563 89.316C81.3363 89.524 80.9443 89.676 80.4803 89.772C80.0163 89.868 79.4923 89.916 78.9083 89.916H77.9843V93H76.8203V84.804C77.1483 84.724 77.5123 84.672 77.9123 84.648C78.3203 84.616 78.6923 84.6 79.0283 84.6ZM79.1243 85.62C78.6283 85.62 78.2483 85.632 77.9843 85.656V88.92H78.8603C79.2603 88.92 79.6203 88.896 79.9403 88.848C80.2603 88.792 80.5283 88.704 80.7443 88.584C80.9683 88.456 81.1403 88.284 81.2603 88.068C81.3803 87.852 81.4403 87.576 81.4403 87.24C81.4403 86.92 81.3763 86.656 81.2483 86.448C81.1283 86.24 80.9603 86.076 80.7443 85.956C80.5363 85.828 80.2923 85.74 80.0123 85.692C79.7323 85.644 79.4363 85.62 79.1243 85.62Z" fill="#ADADAD"/>
<path d="M89.3891 89.52C89.5171 89.68 89.6771 89.892 89.8691 90.156C90.0691 90.412 90.2731 90.7 90.4811 91.02C90.6891 91.332 90.8931 91.66 91.0931 92.004C91.3011 92.348 91.4771 92.68 91.6211 93H90.3491C90.1891 92.696 90.0131 92.388 89.8211 92.076C89.6371 91.764 89.4491 91.468 89.2571 91.188C89.0651 90.9 88.8731 90.632 88.6811 90.384C88.4971 90.136 88.3291 89.92 88.1771 89.736C88.0731 89.744 87.9651 89.748 87.8531 89.748C87.7491 89.748 87.6411 89.748 87.5291 89.748H86.4851V93H85.3211V84.804C85.6491 84.724 86.0131 84.672 86.4131 84.648C86.8211 84.616 87.1931 84.6 87.5291 84.6C88.6971 84.6 89.5851 84.82 90.1931 85.26C90.8091 85.7 91.1171 86.356 91.1171 87.228C91.1171 87.78 90.9691 88.252 90.6731 88.644C90.3851 89.036 89.9571 89.328 89.3891 89.52ZM87.6251 85.62C87.1291 85.62 86.7491 85.632 86.4851 85.656V88.788H87.3131C87.7131 88.788 88.0731 88.768 88.3931 88.728C88.7131 88.688 88.9811 88.612 89.1971 88.5C89.4211 88.388 89.5931 88.232 89.7131 88.032C89.8331 87.824 89.8931 87.552 89.8931 87.216C89.8931 86.904 89.8331 86.644 89.7131 86.436C89.5931 86.228 89.4291 86.064 89.2211 85.944C89.0211 85.824 88.7811 85.74 88.5011 85.692C88.2291 85.644 87.9371 85.62 87.6251 85.62Z" fill="#ADADAD"/>
<path d="M93.603 88.836C93.603 88.124 93.707 87.496 93.915 86.952C94.131 86.408 94.419 85.956 94.779 85.596C95.147 85.228 95.571 84.952 96.051 84.768C96.539 84.584 97.055 84.492 97.599 84.492C98.135 84.492 98.639 84.584 99.111 84.768C99.591 84.952 100.011 85.228 100.371 85.596C100.731 85.956 101.015 86.408 101.223 86.952C101.439 87.496 101.547 88.124 101.547 88.836C101.547 89.548 101.439 90.176 101.223 90.72C101.015 91.264 100.731 91.72 100.371 92.088C100.011 92.448 99.591 92.72 99.111 92.904C98.639 93.088 98.135 93.18 97.599 93.18C97.055 93.18 96.539 93.088 96.051 92.904C95.571 92.72 95.147 92.448 94.779 92.088C94.419 91.72 94.131 91.264 93.915 90.72C93.707 90.176 93.603 89.548 93.603 88.836ZM94.827 88.836C94.827 89.34 94.891 89.8 95.019 90.216C95.147 90.624 95.327 90.972 95.559 91.26C95.799 91.548 96.087 91.772 96.423 91.932C96.767 92.084 97.151 92.16 97.575 92.16C97.999 92.16 98.379 92.084 98.715 91.932C99.051 91.772 99.335 91.548 99.567 91.26C99.807 90.972 99.991 90.624 100.119 90.216C100.247 89.8 100.311 89.34 100.311 88.836C100.311 88.332 100.247 87.876 100.119 87.468C99.991 87.052 99.807 86.7 99.567 86.412C99.335 86.124 99.051 85.904 98.715 85.752C98.379 85.592 97.999 85.512 97.575 85.512C97.151 85.512 96.767 85.592 96.423 85.752C96.087 85.904 95.799 86.124 95.559 86.412C95.327 86.7 95.147 87.052 95.019 87.468C94.891 87.876 94.827 88.332 94.827 88.836Z" fill="#ADADAD"/>
<path d="M108.17 90.324C108.17 90.724 108.126 91.096 108.038 91.44C107.958 91.784 107.81 92.088 107.594 92.352C107.386 92.608 107.102 92.812 106.742 92.964C106.39 93.108 105.946 93.18 105.41 93.18C105.138 93.18 104.886 93.156 104.654 93.108C104.43 93.068 104.226 93.016 104.042 92.952C103.858 92.88 103.698 92.808 103.562 92.736C103.426 92.656 103.318 92.58 103.238 92.508L103.694 91.584C103.862 91.704 104.078 91.832 104.342 91.968C104.614 92.096 104.95 92.16 105.35 92.16C105.926 92.16 106.346 92.016 106.61 91.728C106.874 91.432 107.006 90.928 107.006 90.216V84.684H108.17V90.324Z" fill="#ADADAD"/>
<path d="M111.374 93V84.684H116.45V85.68H112.538V88.152H116.018V89.124H112.538V92.004H116.75V93H111.374Z" fill="#ADADAD"/>
<path d="M124.434 91.992V93H119.43V84.684H120.594V91.992H124.434Z" fill="#ADADAD"/>
<path d="M126.852 93V84.684H131.928V85.68H128.016V88.152H131.496V89.124H128.016V92.004H132.228V93H126.852Z" fill="#ADADAD"/>
<path d="M138.976 89.52C139.104 89.68 139.264 89.892 139.456 90.156C139.656 90.412 139.86 90.7 140.068 91.02C140.276 91.332 140.48 91.66 140.68 92.004C140.888 92.348 141.064 92.68 141.208 93H139.936C139.776 92.696 139.6 92.388 139.408 92.076C139.224 91.764 139.036 91.468 138.844 91.188C138.652 90.9 138.46 90.632 138.268 90.384C138.084 90.136 137.916 89.92 137.764 89.736C137.66 89.744 137.552 89.748 137.44 89.748C137.336 89.748 137.228 89.748 137.116 89.748H136.072V93H134.908V84.804C135.236 84.724 135.6 84.672 136 84.648C136.408 84.616 136.78 84.6 137.116 84.6C138.284 84.6 139.172 84.82 139.78 85.26C140.396 85.7 140.704 86.356 140.704 87.228C140.704 87.78 140.556 88.252 140.26 88.644C139.972 89.036 139.544 89.328 138.976 89.52ZM137.212 85.62C136.716 85.62 136.336 85.632 136.072 85.656V88.788H136.9C137.3 88.788 137.66 88.768 137.98 88.728C138.3 88.688 138.568 88.612 138.784 88.5C139.008 88.388 139.18 88.232 139.3 88.032C139.42 87.824 139.48 87.552 139.48 87.216C139.48 86.904 139.42 86.644 139.3 86.436C139.18 86.228 139.016 86.064 138.808 85.944C138.608 85.824 138.368 85.74 138.088 85.692C137.816 85.644 137.524 85.62 137.212 85.62Z" fill="#ADADAD"/>
<path d="M143.655 84.684H144.819V93H143.655V84.684Z" fill="#ADADAD"/>
<path d="M151.809 91.848C151.729 91.656 151.621 91.412 151.485 91.116C151.357 90.82 151.217 90.5 151.065 90.156C150.913 89.812 150.749 89.46 150.573 89.1C150.405 88.732 150.245 88.388 150.093 88.068C149.941 87.74 149.797 87.448 149.661 87.192C149.533 86.936 149.429 86.74 149.349 86.604C149.261 87.548 149.189 88.572 149.133 89.676C149.077 90.772 149.029 91.88 148.989 93H147.849C147.881 92.28 147.917 91.556 147.957 90.828C147.997 90.092 148.041 89.372 148.089 88.668C148.145 87.956 148.201 87.264 148.257 86.592C148.321 85.92 148.389 85.284 148.461 84.684H149.481C149.697 85.036 149.929 85.452 150.177 85.932C150.425 86.412 150.673 86.916 150.921 87.444C151.169 87.964 151.409 88.488 151.641 89.016C151.873 89.536 152.085 90.012 152.277 90.444C152.469 90.012 152.681 89.536 152.913 89.016C153.145 88.488 153.385 87.964 153.633 87.444C153.881 86.916 154.129 86.412 154.377 85.932C154.625 85.452 154.857 85.036 155.073 84.684H156.093C156.365 87.364 156.569 90.136 156.705 93H155.565C155.525 91.88 155.477 90.772 155.421 89.676C155.365 88.572 155.293 87.548 155.205 86.604C155.125 86.74 155.017 86.936 154.881 87.192C154.753 87.448 154.613 87.74 154.461 88.068C154.309 88.388 154.145 88.732 153.969 89.1C153.801 89.46 153.641 89.812 153.489 90.156C153.337 90.5 153.193 90.82 153.057 91.116C152.929 91.412 152.825 91.656 152.745 91.848H151.809Z" fill="#ADADAD"/>
<path d="M159.73 84.684H160.894V93H159.73V84.684Z" fill="#ADADAD"/>
<path d="M169.433 85.608C169.249 85.816 169.033 86.068 168.785 86.364C168.545 86.652 168.289 86.976 168.017 87.336C167.745 87.688 167.465 88.064 167.177 88.464C166.889 88.856 166.605 89.256 166.325 89.664C166.053 90.064 165.793 90.464 165.545 90.864C165.297 91.264 165.073 91.644 164.873 92.004H169.553V93H163.517V92.22C163.685 91.9 163.881 91.548 164.105 91.164C164.337 90.78 164.581 90.388 164.837 89.988C165.101 89.588 165.373 89.184 165.653 88.776C165.933 88.368 166.209 87.976 166.481 87.6C166.761 87.224 167.029 86.872 167.285 86.544C167.549 86.216 167.789 85.928 168.005 85.68H163.733V84.684H169.433V85.608Z" fill="#ADADAD"/>
<path d="M77.8054 108.684H78.9694V117H77.8054V113.16H73.7374V117H72.5734V108.684H73.7374V112.152H77.8054V108.684Z" fill="#ADADAD"/>
<path d="M82.2343 108.684H83.3983V117H82.2343V108.684Z" fill="#ADADAD"/>
<path d="M91.937 109.608C91.753 109.816 91.537 110.068 91.289 110.364C91.049 110.652 90.793 110.976 90.521 111.336C90.249 111.688 89.969 112.064 89.681 112.464C89.393 112.856 89.109 113.256 88.829 113.664C88.557 114.064 88.297 114.464 88.049 114.864C87.801 115.264 87.577 115.644 87.377 116.004H92.057V117H86.021V116.22C86.189 115.9 86.385 115.548 86.609 115.164C86.841 114.78 87.085 114.388 87.341 113.988C87.605 113.588 87.877 113.184 88.157 112.776C88.437 112.368 88.713 111.976 88.985 111.6C89.265 111.224 89.533 110.872 89.789 110.544C90.053 110.216 90.293 109.928 90.509 109.68H86.237V108.684H91.937V109.608Z" fill="#ADADAD"/>
<path d="M98.4679 115.848C98.3879 115.656 98.2799 115.412 98.1439 115.116C98.0159 114.82 97.8759 114.5 97.7239 114.156C97.5719 113.812 97.4079 113.46 97.2319 113.1C97.0639 112.732 96.9039 112.388 96.7519 112.068C96.5999 111.74 96.4559 111.448 96.3199 111.192C96.1919 110.936 96.0879 110.74 96.0079 110.604C95.9199 111.548 95.8479 112.572 95.7919 113.676C95.7359 114.772 95.6879 115.88 95.6479 117H94.5079C94.5399 116.28 94.5759 115.556 94.6159 114.828C94.6559 114.092 94.6999 113.372 94.7479 112.668C94.8039 111.956 94.8599 111.264 94.9159 110.592C94.9799 109.92 95.0479 109.284 95.1199 108.684H96.1399C96.3559 109.036 96.5879 109.452 96.8359 109.932C97.0839 110.412 97.3319 110.916 97.5799 111.444C97.8279 111.964 98.0679 112.488 98.2999 113.016C98.5319 113.536 98.7439 114.012 98.9359 114.444C99.1279 114.012 99.3399 113.536 99.5719 113.016C99.8039 112.488 100.044 111.964 100.292 111.444C100.54 110.916 100.788 110.412 101.036 109.932C101.284 109.452 101.516 109.036 101.732 108.684H102.752C103.024 111.364 103.228 114.136 103.364 117H102.224C102.184 115.88 102.136 114.772 102.08 113.676C102.024 112.572 101.952 111.548 101.864 110.604C101.784 110.74 101.676 110.936 101.54 111.192C101.412 111.448 101.272 111.74 101.12 112.068C100.968 112.388 100.804 112.732 100.628 113.1C100.46 113.46 100.3 113.812 100.148 114.156C99.9959 114.5 99.8519 114.82 99.7159 115.116C99.5879 115.412 99.4839 115.656 99.4039 115.848H98.4679Z" fill="#ADADAD"/>
<path d="M106.389 117V108.684H111.465V109.68H107.553V112.152H111.033V113.124H107.553V116.004H111.765V117H106.389Z" fill="#ADADAD"/>
<path d="M120.001 108.684V109.692H117.385V117H116.221V109.692H113.605V108.684H120.001Z" fill="#ADADAD"/>
<path d="M127.434 115.992V117H122.43V108.684H123.594V115.992H127.434Z" fill="#ADADAD"/>
<path d="M129.852 117V108.684H134.928V109.68H131.016V112.152H134.496V113.124H131.016V116.004H135.228V117H129.852Z" fill="#ADADAD"/>
<path d="M141.976 113.52C142.104 113.68 142.264 113.892 142.456 114.156C142.656 114.412 142.86 114.7 143.068 115.02C143.276 115.332 143.48 115.66 143.68 116.004C143.888 116.348 144.064 116.68 144.208 117H142.936C142.776 116.696 142.6 116.388 142.408 116.076C142.224 115.764 142.036 115.468 141.844 115.188C141.652 114.9 141.46 114.632 141.268 114.384C141.084 114.136 140.916 113.92 140.764 113.736C140.66 113.744 140.552 113.748 140.44 113.748C140.336 113.748 140.228 113.748 140.116 113.748H139.072V117H137.908V108.804C138.236 108.724 138.6 108.672 139 108.648C139.408 108.616 139.78 108.6 140.116 108.6C141.284 108.6 142.172 108.82 142.78 109.26C143.396 109.7 143.704 110.356 143.704 111.228C143.704 111.78 143.556 112.252 143.26 112.644C142.972 113.036 142.544 113.328 141.976 113.52ZM140.212 109.62C139.716 109.62 139.336 109.632 139.072 109.656V112.788H139.9C140.3 112.788 140.66 112.768 140.98 112.728C141.3 112.688 141.568 112.612 141.784 112.5C142.008 112.388 142.18 112.232 142.3 112.032C142.42 111.824 142.48 111.552 142.48 111.216C142.48 110.904 142.42 110.644 142.3 110.436C142.18 110.228 142.016 110.064 141.808 109.944C141.608 109.824 141.368 109.74 141.088 109.692C140.816 109.644 140.524 109.62 140.212 109.62Z" fill="#ADADAD"/>
<path d="M146.655 108.684H147.819V117H146.655V108.684Z" fill="#ADADAD"/>
<path d="M154.809 115.848C154.729 115.656 154.621 115.412 154.485 115.116C154.357 114.82 154.217 114.5 154.065 114.156C153.913 113.812 153.749 113.46 153.573 113.1C153.405 112.732 153.245 112.388 153.093 112.068C152.941 111.74 152.797 111.448 152.661 111.192C152.533 110.936 152.429 110.74 152.349 110.604C152.261 111.548 152.189 112.572 152.133 113.676C152.077 114.772 152.029 115.88 151.989 117H150.849C150.881 116.28 150.917 115.556 150.957 114.828C150.997 114.092 151.041 113.372 151.089 112.668C151.145 111.956 151.201 111.264 151.257 110.592C151.321 109.92 151.389 109.284 151.461 108.684H152.481C152.697 109.036 152.929 109.452 153.177 109.932C153.425 110.412 153.673 110.916 153.921 111.444C154.169 111.964 154.409 112.488 154.641 113.016C154.873 113.536 155.085 114.012 155.277 114.444C155.469 114.012 155.681 113.536 155.913 113.016C156.145 112.488 156.385 111.964 156.633 111.444C156.881 110.916 157.129 110.412 157.377 109.932C157.625 109.452 157.857 109.036 158.073 108.684H159.093C159.365 111.364 159.569 114.136 159.705 117H158.565C158.525 115.88 158.477 114.772 158.421 113.676C158.365 112.572 158.293 111.548 158.205 110.604C158.125 110.74 158.017 110.936 157.881 111.192C157.753 111.448 157.613 111.74 157.461 112.068C157.309 112.388 157.145 112.732 156.969 113.1C156.801 113.46 156.641 113.812 156.489 114.156C156.337 114.5 156.193 114.82 156.057 115.116C155.929 115.412 155.825 115.656 155.745 115.848H154.809Z" fill="#ADADAD"/>
<path d="M162.73 108.684H163.894V117H162.73V108.684Z" fill="#ADADAD"/>
<path d="M172.433 109.608C172.249 109.816 172.033 110.068 171.785 110.364C171.545 110.652 171.289 110.976 171.017 111.336C170.745 111.688 170.465 112.064 170.177 112.464C169.889 112.856 169.605 113.256 169.325 113.664C169.053 114.064 168.793 114.464 168.545 114.864C168.297 115.264 168.073 115.644 167.873 116.004H172.553V117H166.517V116.22C166.685 115.9 166.881 115.548 167.105 115.164C167.337 114.78 167.581 114.388 167.837 113.988C168.101 113.588 168.373 113.184 168.653 112.776C168.933 112.368 169.209 111.976 169.481 111.6C169.761 111.224 170.029 110.872 170.285 110.544C170.549 110.216 170.789 109.928 171.005 109.68H166.733V108.684H172.433V109.608Z" fill="#ADADAD"/>
<path d="M87.8859 132.684H89.0499V141H87.8859V137.16H83.8179V141H82.6539V132.684H83.8179V136.152H87.8859V132.684Z" fill="#ADADAD"/>
<path d="M97.8708 141C97.7348 140.64 97.6068 140.288 97.4868 139.944C97.3668 139.592 97.2428 139.236 97.1148 138.876H93.3468L92.5908 141H91.3788C91.6988 140.12 91.9988 139.308 92.2788 138.564C92.5588 137.812 92.8308 137.1 93.0948 136.428C93.3668 135.756 93.6348 135.116 93.8988 134.508C94.1628 133.892 94.4388 133.284 94.7268 132.684H95.7948C96.0828 133.284 96.3588 133.892 96.6228 134.508C96.8868 135.116 97.1508 135.756 97.4148 136.428C97.6868 137.1 97.9628 137.812 98.2428 138.564C98.5228 139.308 98.8228 140.12 99.1428 141H97.8708ZM96.7788 137.916C96.5228 137.22 96.2668 136.548 96.0108 135.9C95.7628 135.244 95.5028 134.616 95.2308 134.016C94.9508 134.616 94.6828 135.244 94.4268 135.9C94.1788 136.548 93.9308 137.22 93.6828 137.916H96.7788Z" fill="#ADADAD"/>
<path d="M107.628 132.684C107.38 132.956 107.1 133.26 106.788 133.596C106.476 133.924 106.148 134.264 105.804 134.616C105.468 134.96 105.132 135.3 104.796 135.636C104.46 135.972 104.144 136.284 103.848 136.572C104.192 136.812 104.556 137.108 104.94 137.46C105.324 137.812 105.7 138.188 106.068 138.588C106.436 138.988 106.78 139.396 107.1 139.812C107.428 140.228 107.7 140.624 107.916 141H106.548C106.308 140.624 106.032 140.248 105.72 139.872C105.408 139.488 105.076 139.124 104.724 138.78C104.38 138.428 104.028 138.104 103.668 137.808C103.316 137.512 102.972 137.26 102.636 137.052V141H101.472V132.684H102.636V136.356C102.916 136.092 103.224 135.796 103.56 135.468C103.896 135.132 104.228 134.796 104.556 134.46C104.884 134.124 105.192 133.804 105.48 133.5C105.776 133.188 106.024 132.916 106.224 132.684H107.628Z" fill="#ADADAD"/>
<path d="M116.375 132.684C116.127 132.956 115.847 133.26 115.535 133.596C115.223 133.924 114.895 134.264 114.551 134.616C114.215 134.96 113.879 135.3 113.543 135.636C113.207 135.972 112.891 136.284 112.595 136.572C112.939 136.812 113.303 137.108 113.687 137.46C114.071 137.812 114.447 138.188 114.815 138.588C115.183 138.988 115.527 139.396 115.847 139.812C116.175 140.228 116.447 140.624 116.663 141H115.295C115.055 140.624 114.779 140.248 114.467 139.872C114.155 139.488 113.823 139.124 113.471 138.78C113.127 138.428 112.775 138.104 112.415 137.808C112.063 137.512 111.719 137.26 111.383 137.052V141H110.219V132.684H111.383V136.356C111.663 136.092 111.971 135.796 112.307 135.468C112.643 135.132 112.975 134.796 113.303 134.46C113.631 134.124 113.939 133.804 114.227 133.5C114.523 133.188 114.771 132.916 114.971 132.684H116.375Z" fill="#ADADAD"/>
<path d="M118.966 132.684H120.13V141H118.966V132.684Z" fill="#ADADAD"/>
<path d="M127.12 139.848C127.04 139.656 126.932 139.412 126.796 139.116C126.668 138.82 126.528 138.5 126.376 138.156C126.224 137.812 126.06 137.46 125.884 137.1C125.716 136.732 125.556 136.388 125.404 136.068C125.252 135.74 125.108 135.448 124.972 135.192C124.844 134.936 124.74 134.74 124.66 134.604C124.572 135.548 124.5 136.572 124.444 137.676C124.388 138.772 124.34 139.88 124.3 141H123.16C123.192 140.28 123.228 139.556 123.268 138.828C123.308 138.092 123.352 137.372 123.4 136.668C123.456 135.956 123.512 135.264 123.568 134.592C123.632 133.92 123.7 133.284 123.772 132.684H124.792C125.008 133.036 125.24 133.452 125.488 133.932C125.736 134.412 125.984 134.916 126.232 135.444C126.48 135.964 126.72 136.488 126.952 137.016C127.184 137.536 127.396 138.012 127.588 138.444C127.78 138.012 127.992 137.536 128.224 137.016C128.456 136.488 128.696 135.964 128.944 135.444C129.192 134.916 129.44 134.412 129.688 133.932C129.936 133.452 130.168 133.036 130.384 132.684H131.404C131.676 135.364 131.88 138.136 132.016 141H130.876C130.836 139.88 130.788 138.772 130.732 137.676C130.676 136.572 130.604 135.548 130.516 134.604C130.436 134.74 130.328 134.936 130.192 135.192C130.064 135.448 129.924 135.74 129.772 136.068C129.62 136.388 129.456 136.732 129.28 137.1C129.112 137.46 128.952 137.812 128.8 138.156C128.648 138.5 128.504 138.82 128.368 139.116C128.24 139.412 128.136 139.656 128.056 139.848H127.12Z" fill="#ADADAD"/>
<path d="M135.041 132.684H136.205V141H135.041V132.684Z" fill="#ADADAD"/>
<path d="M144.744 133.608C144.56 133.816 144.344 134.068 144.096 134.364C143.856 134.652 143.6 134.976 143.328 135.336C143.056 135.688 142.776 136.064 142.488 136.464C142.2 136.856 141.916 137.256 141.636 137.664C141.364 138.064 141.104 138.464 140.856 138.864C140.608 139.264 140.384 139.644 140.184 140.004H144.864V141H138.828V140.22C138.996 139.9 139.192 139.548 139.416 139.164C139.648 138.78 139.892 138.388 140.148 137.988C140.412 137.588 140.684 137.184 140.964 136.776C141.244 136.368 141.52 135.976 141.792 135.6C142.072 135.224 142.34 134.872 142.596 134.544C142.86 134.216 143.1 133.928 143.316 133.68H139.044V132.684H144.744V133.608Z" fill="#ADADAD"/>
<path d="M154.371 136.836C154.371 137.556 154.259 138.184 154.035 138.72C153.811 139.248 153.495 139.688 153.087 140.04C152.679 140.384 152.191 140.644 151.623 140.82C151.055 140.988 150.431 141.072 149.751 141.072C149.415 141.072 149.043 141.056 148.635 141.024C148.235 141 147.871 140.948 147.543 140.868V132.804C147.871 132.724 148.235 132.672 148.635 132.648C149.043 132.616 149.415 132.6 149.751 132.6C150.431 132.6 151.055 132.688 151.623 132.864C152.191 133.032 152.679 133.292 153.087 133.644C153.495 133.988 153.811 134.428 154.035 134.964C154.259 135.492 154.371 136.116 154.371 136.836ZM149.847 140.052C150.951 140.052 151.775 139.772 152.319 139.212C152.863 138.644 153.135 137.852 153.135 136.836C153.135 135.82 152.863 135.032 152.319 134.472C151.775 133.904 150.951 133.62 149.847 133.62C149.519 133.62 149.263 133.624 149.079 133.632C148.903 133.64 148.779 133.648 148.707 133.656V140.016C148.779 140.024 148.903 140.032 149.079 140.04C149.263 140.048 149.519 140.052 149.847 140.052Z" fill="#ADADAD"/>
<path d="M162.631 141C162.495 140.64 162.367 140.288 162.247 139.944C162.127 139.592 162.003 139.236 161.875 138.876H158.107L157.351 141H156.139C156.459 140.12 156.759 139.308 157.039 138.564C157.319 137.812 157.591 137.1 157.855 136.428C158.127 135.756 158.395 135.116 158.659 134.508C158.923 133.892 159.199 133.284 159.487 132.684H160.555C160.843 133.284 161.119 133.892 161.383 134.508C161.647 135.116 161.911 135.756 162.175 136.428C162.447 137.1 162.723 137.812 163.003 138.564C163.283 139.308 163.583 140.12 163.903 141H162.631ZM161.539 137.916C161.283 137.22 161.027 136.548 160.771 135.9C160.523 135.244 160.263 134.616 159.991 134.016C159.711 134.616 159.443 135.244 159.187 135.9C158.939 136.548 158.691 137.22 158.443 137.916H161.539Z" fill="#ADADAD"/>
<path d="M96.2609 156.684H97.4249V165H96.2609V156.684Z" fill="#ADADAD"/>
<path d="M105.688 163.992V165H100.684V156.684H101.848V163.992H105.688Z" fill="#ADADAD"/>
<path d="M108.106 165V156.684H113.182V157.68H109.27V160.152H112.75V161.124H109.27V164.004H113.482V165H108.106Z" fill="#ADADAD"/>
<path d="M121.718 156.684V157.692H119.102V165H117.938V157.692H115.322V156.684H121.718Z" fill="#ADADAD"/>
<path d="M124.147 156.684H125.311V165H124.147V156.684Z" fill="#ADADAD"/>
<path d="M130.502 164.172C131.718 164.172 132.326 163.756 132.326 162.924C132.326 162.668 132.27 162.452 132.158 162.276C132.054 162.092 131.91 161.936 131.726 161.808C131.542 161.672 131.33 161.556 131.09 161.46C130.858 161.364 130.61 161.268 130.346 161.172C130.042 161.068 129.754 160.952 129.482 160.824C129.21 160.688 128.974 160.532 128.774 160.356C128.574 160.172 128.414 159.956 128.294 159.708C128.182 159.46 128.126 159.16 128.126 158.808C128.126 158.08 128.374 157.512 128.87 157.104C129.366 156.696 130.05 156.492 130.922 156.492C131.426 156.492 131.882 156.548 132.29 156.66C132.706 156.764 133.01 156.88 133.202 157.008L132.83 157.956C132.662 157.852 132.41 157.752 132.074 157.656C131.746 157.552 131.362 157.5 130.922 157.5C130.698 157.5 130.49 157.524 130.298 157.572C130.106 157.62 129.938 157.692 129.794 157.788C129.65 157.884 129.534 158.008 129.446 158.16C129.366 158.304 129.326 158.476 129.326 158.676C129.326 158.9 129.37 159.088 129.458 159.24C129.546 159.392 129.67 159.528 129.83 159.648C129.99 159.76 130.174 159.864 130.382 159.96C130.598 160.056 130.834 160.152 131.09 160.248C131.45 160.392 131.778 160.536 132.074 160.68C132.378 160.824 132.638 160.996 132.854 161.196C133.078 161.396 133.25 161.636 133.37 161.916C133.49 162.188 133.55 162.52 133.55 162.912C133.55 163.56 133.334 164.076 132.902 164.46C132.478 164.844 131.866 165.076 131.066 165.156L130.934 165.444C131.166 165.556 131.334 165.676 131.438 165.804C131.542 165.94 131.594 166.136 131.594 166.392C131.594 166.48 131.574 166.576 131.534 166.68C131.494 166.784 131.426 166.88 131.33 166.968C131.234 167.056 131.106 167.128 130.946 167.184C130.786 167.24 130.59 167.268 130.358 167.268C130.15 167.268 129.958 167.252 129.782 167.22C129.614 167.188 129.478 167.152 129.374 167.112L129.506 166.428C129.602 166.46 129.702 166.488 129.806 166.512C129.918 166.536 130.042 166.548 130.178 166.548C130.466 166.548 130.61 166.456 130.61 166.272C130.61 166.184 130.566 166.108 130.478 166.044C130.39 165.988 130.266 165.928 130.106 165.864L130.022 165.828C130.054 165.74 130.094 165.636 130.142 165.516C130.19 165.404 130.242 165.292 130.298 165.18C129.994 165.172 129.714 165.144 129.458 165.096C129.21 165.056 128.986 165.008 128.786 164.952C128.586 164.888 128.414 164.824 128.27 164.76C128.126 164.696 128.014 164.64 127.934 164.592L128.282 163.632C128.466 163.736 128.746 163.852 129.122 163.98C129.498 164.108 129.958 164.172 130.502 164.172Z" fill="#ADADAD"/>
<path d="M136.156 156.684H137.32V165H136.156V156.684Z" fill="#ADADAD"/>
<path d="M144.311 163.848C144.231 163.656 144.123 163.412 143.987 163.116C143.859 162.82 143.719 162.5 143.567 162.156C143.415 161.812 143.251 161.46 143.075 161.1C142.907 160.732 142.747 160.388 142.595 160.068C142.443 159.74 142.299 159.448 142.163 159.192C142.035 158.936 141.931 158.74 141.851 158.604C141.763 159.548 141.691 160.572 141.635 161.676C141.579 162.772 141.531 163.88 141.491 165H140.351C140.383 164.28 140.419 163.556 140.459 162.828C140.499 162.092 140.543 161.372 140.591 160.668C140.647 159.956 140.703 159.264 140.759 158.592C140.823 157.92 140.891 157.284 140.963 156.684H141.983C142.199 157.036 142.431 157.452 142.679 157.932C142.927 158.412 143.175 158.916 143.423 159.444C143.671 159.964 143.911 160.488 144.143 161.016C144.375 161.536 144.587 162.012 144.779 162.444C144.971 162.012 145.183 161.536 145.415 161.016C145.647 160.488 145.887 159.964 146.135 159.444C146.383 158.916 146.631 158.412 146.879 157.932C147.127 157.452 147.359 157.036 147.575 156.684H148.595C148.867 159.364 149.071 162.136 149.207 165H148.067C148.027 163.88 147.979 162.772 147.923 161.676C147.867 160.572 147.795 159.548 147.707 158.604C147.627 158.74 147.519 158.936 147.383 159.192C147.255 159.448 147.115 159.74 146.963 160.068C146.811 160.388 146.647 160.732 146.471 161.1C146.303 161.46 146.143 161.812 145.991 162.156C145.839 162.5 145.695 162.82 145.559 163.116C145.431 163.412 145.327 163.656 145.247 163.848H144.311Z" fill="#ADADAD"/>
<path d="M64.004 26.5V27.508H59V19.192H60.164V26.5H64.004Z" fill="#C4C4C4"/>
<path d="M64.3476 23.344C64.3476 22.632 64.4516 22.004 64.6596 21.46C64.8756 20.916 65.1636 20.464 65.5236 20.104C65.8916 19.736 66.3156 19.46 66.7956 19.276C67.2836 19.092 67.7996 19 68.3436 19C68.8796 19 69.3836 19.092 69.8556 19.276C70.3356 19.46 70.7556 19.736 71.1156 20.104C71.4756 20.464 71.7596 20.916 71.9676 21.46C72.1836 22.004 72.2916 22.632 72.2916 23.344C72.2916 24.056 72.1836 24.684 71.9676 25.228C71.7596 25.772 71.4756 26.228 71.1156 26.596C70.7556 26.956 70.3356 27.228 69.8556 27.412C69.3836 27.596 68.8796 27.688 68.3436 27.688C67.7996 27.688 67.2836 27.596 66.7956 27.412C66.3156 27.228 65.8916 26.956 65.5236 26.596C65.1636 26.228 64.8756 25.772 64.6596 25.228C64.4516 24.684 64.3476 24.056 64.3476 23.344ZM65.5716 23.344C65.5716 23.848 65.6356 24.308 65.7636 24.724C65.8916 25.132 66.0716 25.48 66.3036 25.768C66.5436 26.056 66.8316 26.28 67.1676 26.44C67.5116 26.592 67.8956 26.668 68.3196 26.668C68.7436 26.668 69.1236 26.592 69.4596 26.44C69.7956 26.28 70.0796 26.056 70.3116 25.768C70.5516 25.48 70.7356 25.132 70.8636 24.724C70.9916 24.308 71.0556 23.848 71.0556 23.344C71.0556 22.84 70.9916 22.384 70.8636 21.976C70.7356 21.56 70.5516 21.208 70.3116 20.92C70.0796 20.632 69.7956 20.412 69.4596 20.26C69.1236 20.1 68.7436 20.02 68.3196 20.02C67.8956 20.02 67.5116 20.1 67.1676 20.26C66.8316 20.412 66.5436 20.632 66.3036 20.92C66.0716 21.208 65.8916 21.56 65.7636 21.976C65.6356 22.384 65.5716 22.84 65.5716 23.344Z" fill="#C4C4C4"/>
<path d="M79.0994 23.416H80.2634V27.304C80.1674 27.336 80.0274 27.372 79.8434 27.412C79.6674 27.452 79.4594 27.492 79.2194 27.532C78.9874 27.572 78.7314 27.604 78.4514 27.628C78.1714 27.66 77.8874 27.676 77.5994 27.676C77.0154 27.676 76.4834 27.58 76.0034 27.388C75.5234 27.196 75.1114 26.916 74.7674 26.548C74.4234 26.18 74.1554 25.728 73.9634 25.192C73.7794 24.656 73.6874 24.04 73.6874 23.344C73.6874 22.648 73.7914 22.032 73.9994 21.496C74.2154 20.952 74.5034 20.496 74.8634 20.128C75.2234 19.76 75.6434 19.48 76.1234 19.288C76.6114 19.096 77.1314 19 77.6834 19C78.0594 19 78.3914 19.024 78.6794 19.072C78.9754 19.12 79.2274 19.176 79.4354 19.24C79.6434 19.304 79.8114 19.368 79.9394 19.432C80.0754 19.496 80.1674 19.544 80.2154 19.576L79.8434 20.548C79.6114 20.396 79.3034 20.272 78.9194 20.176C78.5354 20.072 78.1434 20.02 77.7434 20.02C77.3194 20.02 76.9314 20.096 76.5794 20.248C76.2354 20.4 75.9394 20.62 75.6914 20.908C75.4514 21.196 75.2634 21.548 75.1274 21.964C74.9914 22.372 74.9234 22.832 74.9234 23.344C74.9234 23.84 74.9794 24.292 75.0914 24.7C75.2114 25.108 75.3874 25.46 75.6194 25.756C75.8594 26.044 76.1514 26.268 76.4954 26.428C76.8474 26.588 77.2594 26.668 77.7314 26.668C78.0674 26.668 78.3514 26.652 78.5834 26.62C78.8234 26.58 78.9954 26.544 79.0994 26.512V23.416Z" fill="#C4C4C4"/>
<path d="M81.7499 23.344C81.7499 22.632 81.8539 22.004 82.0619 21.46C82.2779 20.916 82.5659 20.464 82.9259 20.104C83.2939 19.736 83.7179 19.46 84.1979 19.276C84.6859 19.092 85.2019 19 85.7459 19C86.2819 19 86.7859 19.092 87.2579 19.276C87.7379 19.46 88.1579 19.736 88.5179 20.104C88.8779 20.464 89.1619 20.916 89.3699 21.46C89.5859 22.004 89.6939 22.632 89.6939 23.344C89.6939 24.056 89.5859 24.684 89.3699 25.228C89.1619 25.772 88.8779 26.228 88.5179 26.596C88.1579 26.956 87.7379 27.228 87.2579 27.412C86.7859 27.596 86.2819 27.688 85.7459 27.688C85.2019 27.688 84.6859 27.596 84.1979 27.412C83.7179 27.228 83.2939 26.956 82.9259 26.596C82.5659 26.228 82.2779 25.772 82.0619 25.228C81.8539 24.684 81.7499 24.056 81.7499 23.344ZM82.9739 23.344C82.9739 23.848 83.0379 24.308 83.1659 24.724C83.2939 25.132 83.4739 25.48 83.7059 25.768C83.9459 26.056 84.2339 26.28 84.5699 26.44C84.9139 26.592 85.2979 26.668 85.7219 26.668C86.1459 26.668 86.5259 26.592 86.8619 26.44C87.1979 26.28 87.4819 26.056 87.7139 25.768C87.9539 25.48 88.1379 25.132 88.2659 24.724C88.3939 24.308 88.4579 23.848 88.4579 23.344C88.4579 22.84 88.3939 22.384 88.2659 21.976C88.1379 21.56 87.9539 21.208 87.7139 20.92C87.4819 20.632 87.1979 20.412 86.8619 20.26C86.5259 20.1 86.1459 20.02 85.7219 20.02C85.2979 20.02 84.9139 20.1 84.5699 20.26C84.2339 20.412 83.9459 20.632 83.7059 20.92C83.4739 21.208 83.2939 21.56 83.1659 21.976C83.0379 22.384 82.9739 22.84 82.9739 23.344Z" fill="#C4C4C4"/>
<g clip-path="url(#clip1)">
<path d="M177.099 23.0105L181.772 18.3378C182.076 18.0339 182.076 17.5425 181.772 17.2385C181.468 16.9346 180.977 16.9346 180.673 17.2385L176 21.9112L171.327 17.2385C171.023 16.9346 170.532 16.9346 170.228 17.2385C169.924 17.5425 169.924 18.0339 170.228 18.3378L174.901 23.0105L170.228 27.6832C169.924 27.9872 169.924 28.4786 170.228 28.7826C170.38 28.9342 170.579 29.0103 170.778 29.0103C170.977 29.0103 171.176 28.9342 171.327 28.7826L176 24.1098L180.673 28.7826C180.824 28.9342 181.023 29.0103 181.222 29.0103C181.421 29.0103 181.62 28.9342 181.772 28.7826C182.076 28.4786 182.076 27.9872 181.772 27.6832L177.099 23.0105Z" fill="#C4C4C4"/>
</g>
<rect x="0.5" y="0.5" width="201" height="246" stroke="#E5E5E5"/>
<defs>
<clipPath id="clip0">
<rect width="10" height="10" fill="white" transform="translate(87 183)"/>
</clipPath>
<clipPath id="clip1">
<rect width="12" height="12" fill="white" transform="translate(170 17)"/>
</clipPath>
</defs>
</svg>
