<svg width="202" height="247" viewBox="0 0 202 247" fill="none" xmlns="http://www.w3.org/2000/svg">
<rect x="0.5" y="0.5" width="201" height="246" fill="#BCCCBF"/>
<rect width="158" height="245" transform="translate(43 1)" fill="white"/>
<path fill-rule="evenodd" clip-rule="evenodd" d="M173 189H121V203H173V189ZM137 193V197.932H138.767C139.308 197.932 139.727 197.806 140.023 197.553C140.319 197.3 140.467 196.952 140.467 196.509C140.467 196.22 140.387 195.972 140.226 195.764C140.067 195.554 139.85 195.412 139.575 195.337C139.808 195.24 139.993 195.104 140.128 194.928C140.263 194.749 140.331 194.545 140.331 194.314C140.331 193.881 140.191 193.553 139.911 193.332C139.634 193.111 139.218 193 138.666 193H137ZM137.672 197.4V195.625H138.791C139.459 195.625 139.792 195.922 139.792 196.516C139.792 196.792 139.701 197.009 139.519 197.167C139.34 197.322 139.094 197.4 138.781 197.4H137.672ZM138.686 195.104H137.672V193.535H138.666C138.999 193.535 139.247 193.597 139.411 193.722C139.574 193.843 139.656 194.04 139.656 194.311C139.656 194.555 139.567 194.748 139.39 194.89C139.215 195.033 138.98 195.104 138.686 195.104ZM142.591 198C143.079 198 143.449 197.857 143.7 197.57L143.714 197.932H144.33V194.267H143.683V196.933C143.52 197.29 143.191 197.468 142.696 197.468C142.23 197.468 141.997 197.19 141.997 196.635V194.267H141.349V196.652C141.352 197.097 141.458 197.433 141.668 197.661C141.88 197.887 142.188 198 142.591 198ZM146.195 193.379V194.267H146.902V194.751H146.195V197.024C146.195 197.171 146.227 197.282 146.29 197.356C146.353 197.429 146.46 197.465 146.612 197.465C146.686 197.465 146.789 197.451 146.92 197.424V197.932C146.749 197.977 146.584 198 146.423 198C146.133 198 145.915 197.915 145.768 197.746C145.621 197.577 145.548 197.336 145.548 197.024V194.751H144.859V194.267H145.548V193.379H146.195ZM148.54 194.267V193.379H147.892V194.267H147.203V194.751H147.892V197.024C147.892 197.336 147.966 197.577 148.113 197.746C148.26 197.915 148.478 198 148.767 198C148.928 198 149.094 197.977 149.264 197.932V197.424C149.133 197.451 149.031 197.465 148.956 197.465C148.804 197.465 148.697 197.429 148.634 197.356C148.571 197.282 148.54 197.171 148.54 197.024V194.751H149.246V194.267H148.54ZM149.764 196.066C149.764 195.707 149.836 195.384 149.981 195.097C150.128 194.81 150.331 194.589 150.59 194.433C150.851 194.277 151.149 194.199 151.482 194.199C151.998 194.199 152.414 194.372 152.731 194.717C153.051 195.063 153.211 195.523 153.211 196.096V196.14C153.211 196.497 153.139 196.818 152.997 197.102C152.857 197.385 152.655 197.605 152.392 197.763C152.131 197.921 151.83 198 151.489 198C150.976 198 150.56 197.827 150.24 197.482C149.923 197.136 149.764 196.679 149.764 196.11V196.066ZM150.415 196.14C150.415 196.547 150.512 196.873 150.705 197.119C150.901 197.365 151.163 197.488 151.489 197.488C151.818 197.488 152.079 197.364 152.273 197.116C152.467 196.865 152.563 196.515 152.563 196.066C152.563 195.664 152.464 195.339 152.266 195.09C152.07 194.839 151.809 194.714 151.482 194.714C151.163 194.714 150.905 194.837 150.709 195.083C150.513 195.329 150.415 195.682 150.415 196.14ZM154.656 194.728L154.635 194.267H154.022V197.932H154.67V195.32C154.758 195.144 154.882 195.002 155.041 194.894C155.199 194.785 155.383 194.731 155.593 194.731C155.852 194.731 156.042 194.794 156.164 194.921C156.287 195.047 156.35 195.243 156.353 195.507V197.932H157V195.51C156.993 194.636 156.589 194.199 155.789 194.199C155.323 194.199 154.945 194.375 154.656 194.728Z" fill="#C4C4C4"/>
<g clip-path="url(#clip0)">
<path d="M106.607 173.04C106.537 173.053 106.507 173.086 106.516 173.138C106.524 173.19 106.563 173.207 106.633 173.19C106.702 173.173 106.733 173.142 106.724 173.099C106.715 173.051 106.676 173.032 106.607 173.04Z" fill="#C4C4C4"/>
<path d="M106.236 173.093C106.166 173.093 106.132 173.116 106.132 173.164C106.132 173.221 106.168 173.244 106.242 173.236C106.312 173.236 106.346 173.212 106.346 173.164C106.346 173.108 106.309 173.084 106.236 173.093Z" fill="#C4C4C4"/>
<path d="M105.728 173.073C105.711 173.121 105.739 173.153 105.813 173.17C105.878 173.196 105.919 173.183 105.936 173.131C105.949 173.084 105.921 173.049 105.852 173.027C105.786 173.01 105.745 173.025 105.728 173.073Z" fill="#C4C4C4"/>
<path d="M112.45 165.55C112.083 165.183 111.642 165 111.125 165H104.875C104.359 165 103.917 165.183 103.55 165.55C103.183 165.917 103 166.359 103 166.875V173.125C103 173.642 103.183 174.083 103.55 174.45C103.917 174.817 104.359 175 104.875 175H106.333C106.429 175 106.5 174.997 106.548 174.99C106.596 174.984 106.644 174.956 106.691 174.906C106.739 174.856 106.763 174.783 106.763 174.688C106.763 174.675 106.762 174.527 106.76 174.245C106.757 173.963 106.756 173.739 106.756 173.574L106.607 173.6C106.511 173.618 106.391 173.625 106.245 173.623C106.1 173.621 105.949 173.606 105.793 173.577C105.636 173.549 105.491 173.484 105.357 173.382C105.222 173.28 105.127 173.147 105.07 172.982L105.005 172.832C104.962 172.732 104.893 172.621 104.8 172.5C104.707 172.378 104.612 172.296 104.517 172.253L104.471 172.22C104.441 172.198 104.413 172.172 104.387 172.142C104.361 172.111 104.341 172.081 104.328 172.051C104.315 172.02 104.326 171.995 104.361 171.976C104.395 171.956 104.458 171.947 104.549 171.947L104.68 171.966C104.766 171.983 104.874 172.035 105.002 172.122C105.13 172.209 105.235 172.322 105.318 172.461C105.417 172.639 105.538 172.774 105.679 172.868C105.82 172.961 105.962 173.008 106.105 173.008C106.249 173.008 106.372 172.997 106.476 172.975C106.581 172.953 106.678 172.921 106.769 172.877C106.808 172.587 106.915 172.363 107.088 172.207C106.841 172.181 106.619 172.142 106.421 172.09C106.224 172.037 106.02 171.953 105.809 171.836C105.599 171.718 105.424 171.573 105.285 171.399C105.146 171.226 105.032 170.998 104.943 170.716C104.854 170.434 104.81 170.108 104.81 169.739C104.81 169.214 104.981 168.767 105.324 168.398C105.164 168.003 105.179 167.56 105.37 167.07C105.496 167.031 105.682 167.06 105.93 167.158C106.177 167.256 106.358 167.339 106.473 167.409C106.588 167.478 106.68 167.537 106.75 167.584C107.154 167.471 107.57 167.415 108 167.415C108.43 167.415 108.846 167.471 109.25 167.584L109.497 167.428C109.667 167.324 109.866 167.228 110.096 167.142C110.326 167.055 110.502 167.031 110.624 167.07C110.819 167.561 110.837 168.003 110.676 168.398C111.019 168.767 111.19 169.214 111.19 169.739C111.19 170.108 111.146 170.435 111.057 170.719C110.968 171.003 110.853 171.231 110.712 171.403C110.571 171.574 110.395 171.718 110.184 171.836C109.974 171.953 109.77 172.038 109.572 172.09C109.375 172.142 109.153 172.181 108.905 172.207C109.131 172.402 109.244 172.71 109.244 173.131V174.687C109.244 174.761 109.254 174.821 109.276 174.866C109.298 174.912 109.332 174.943 109.38 174.961C109.428 174.978 109.47 174.989 109.507 174.993C109.544 174.998 109.597 175 109.667 175H111.125C111.642 175 112.083 174.816 112.45 174.45C112.817 174.083 113 173.641 113 173.125V166.875C113 166.359 112.817 165.917 112.45 165.55Z" fill="#C4C4C4"/>
<path d="M104.979 172.279C104.949 172.3 104.953 172.335 104.992 172.383C105.036 172.426 105.07 172.433 105.096 172.402C105.127 172.381 105.122 172.346 105.083 172.298C105.04 172.259 105.005 172.253 104.979 172.279Z" fill="#C4C4C4"/>
<path d="M104.764 172.116C104.751 172.146 104.767 172.172 104.81 172.194C104.845 172.216 104.873 172.212 104.895 172.181C104.908 172.151 104.892 172.125 104.849 172.103C104.806 172.09 104.777 172.094 104.764 172.116Z" fill="#C4C4C4"/>
<path d="M105.181 172.533C105.142 172.554 105.142 172.593 105.181 172.65C105.22 172.706 105.257 172.721 105.292 172.695C105.331 172.665 105.331 172.624 105.292 172.572C105.257 172.515 105.22 172.502 105.181 172.533Z" fill="#C4C4C4"/>
<path d="M105.409 172.825C105.37 172.86 105.378 172.901 105.435 172.949C105.487 173.001 105.53 173.008 105.565 172.969C105.6 172.934 105.591 172.893 105.539 172.845C105.487 172.793 105.444 172.786 105.409 172.825Z" fill="#C4C4C4"/>
</g>
<path d="M141.535 165H134.465C133.657 165 133 165.657 133 166.465V173.535C133 174.343 133.657 175 134.465 175H137.414V171.465H136.242V169.707H137.414V168.516C137.414 167.546 138.203 166.758 139.172 166.758H140.949V168.516H139.172V169.707H140.949L140.656 171.465H139.172V175H141.535C142.343 175 143 174.343 143 173.535V166.465C143 165.657 142.343 165 141.535 165Z" fill="#C4C4C4"/>
<path d="M168.879 170C168.879 170.485 168.485 170.879 168 170.879C167.515 170.879 167.121 170.485 167.121 170C167.121 169.515 167.515 169.121 168 169.121C168.485 169.121 168.879 169.515 168.879 170Z" fill="#C4C4C4"/>
<path d="M169.484 167.344H166.516C165.869 167.344 165.344 167.869 165.344 168.516V171.484C165.344 172.131 165.869 172.656 166.516 172.656H169.484C170.131 172.656 170.656 172.131 170.656 171.484V168.516C170.656 167.869 170.131 167.344 169.484 167.344ZM168 171.465C167.192 171.465 166.535 170.808 166.535 170C166.535 169.192 167.192 168.535 168 168.535C168.808 168.535 169.465 169.192 169.465 170C169.465 170.808 168.808 171.465 168 171.465ZM169.68 168.613C169.518 168.613 169.387 168.482 169.387 168.32C169.387 168.158 169.518 168.027 169.68 168.027C169.842 168.027 169.973 168.158 169.973 168.32C169.973 168.482 169.842 168.613 169.68 168.613Z" fill="#C4C4C4"/>
<path d="M170.363 165H165.637C164.183 165 163 166.183 163 167.637V172.363C163 173.817 164.183 175 165.637 175H170.363C171.817 175 173 173.817 173 172.363V167.637C173 166.183 171.817 165 170.363 165ZM171.242 171.484C171.242 172.454 170.454 173.242 169.484 173.242H166.516C165.546 173.242 164.758 172.454 164.758 171.484V168.516C164.758 167.546 165.546 166.758 166.516 166.758H169.484C170.454 166.758 171.242 167.546 171.242 168.516V171.484Z" fill="#C4C4C4"/>
<path d="M134.569 68C134.467 67.73 134.371 67.466 134.281 67.208C134.191 66.944 134.098 66.677 134.002 66.407H131.176L130.609 68H129.7C129.94 67.34 130.165 66.731 130.375 66.173C130.585 65.609 130.789 65.075 130.987 64.571C131.191 64.067 131.392 63.587 131.59 63.131C131.788 62.669 131.995 62.213 132.211 61.763H133.012C133.228 62.213 133.435 62.669 133.633 63.131C133.831 63.587 134.029 64.067 134.227 64.571C134.431 65.075 134.638 65.609 134.848 66.173C135.058 66.731 135.283 67.34 135.523 68H134.569ZM133.75 65.687C133.558 65.165 133.366 64.661 133.174 64.175C132.988 63.683 132.793 63.212 132.589 62.762C132.379 63.212 132.178 63.683 131.986 64.175C131.8 64.661 131.614 65.165 131.428 65.687H133.75Z" fill="#ADADAD"/>
<path d="M137.216 63.455C137.408 63.407 137.663 63.356 137.981 63.302C138.299 63.248 138.665 63.221 139.079 63.221C139.451 63.221 139.76 63.275 140.006 63.383C140.252 63.485 140.447 63.632 140.591 63.824C140.741 64.01 140.846 64.235 140.906 64.499C140.966 64.763 140.996 65.054 140.996 65.372V68H140.159V65.552C140.159 65.264 140.138 65.018 140.096 64.814C140.06 64.61 139.997 64.445 139.907 64.319C139.817 64.193 139.697 64.103 139.547 64.049C139.397 63.989 139.211 63.959 138.989 63.959C138.899 63.959 138.806 63.962 138.71 63.968C138.614 63.974 138.521 63.983 138.431 63.995C138.347 64.001 138.269 64.01 138.197 64.022C138.131 64.034 138.083 64.043 138.053 64.049V68H137.216V63.455Z" fill="#ADADAD"/>
<path d="M144.867 67.397C145.065 67.397 145.239 67.394 145.389 67.388C145.545 67.376 145.674 67.358 145.776 67.334V65.939C145.716 65.909 145.617 65.885 145.479 65.867C145.347 65.843 145.185 65.831 144.993 65.831C144.867 65.831 144.732 65.84 144.588 65.858C144.45 65.876 144.321 65.915 144.201 65.975C144.087 66.029 143.991 66.107 143.913 66.209C143.835 66.305 143.796 66.434 143.796 66.596C143.796 66.896 143.892 67.106 144.084 67.226C144.276 67.34 144.537 67.397 144.867 67.397ZM144.795 63.203C145.131 63.203 145.413 63.248 145.641 63.338C145.875 63.422 146.061 63.545 146.199 63.707C146.343 63.863 146.445 64.052 146.505 64.274C146.565 64.49 146.595 64.73 146.595 64.994V67.919C146.523 67.931 146.421 67.949 146.289 67.973C146.163 67.991 146.019 68.009 145.857 68.027C145.695 68.045 145.518 68.06 145.326 68.072C145.14 68.09 144.954 68.099 144.768 68.099C144.504 68.099 144.261 68.072 144.039 68.018C143.817 67.964 143.625 67.88 143.463 67.766C143.301 67.646 143.175 67.49 143.085 67.298C142.995 67.106 142.95 66.875 142.95 66.605C142.95 66.347 143.001 66.125 143.103 65.939C143.211 65.753 143.355 65.603 143.535 65.489C143.715 65.375 143.925 65.291 144.165 65.237C144.405 65.183 144.657 65.156 144.921 65.156C145.005 65.156 145.092 65.162 145.182 65.174C145.272 65.18 145.356 65.192 145.434 65.21C145.518 65.222 145.59 65.234 145.65 65.246C145.71 65.258 145.752 65.267 145.776 65.273V65.039C145.776 64.901 145.761 64.766 145.731 64.634C145.701 64.496 145.647 64.376 145.569 64.274C145.491 64.166 145.383 64.082 145.245 64.022C145.113 63.956 144.939 63.923 144.723 63.923C144.447 63.923 144.204 63.944 143.994 63.986C143.79 64.022 143.637 64.061 143.535 64.103L143.436 63.41C143.544 63.362 143.724 63.317 143.976 63.275C144.228 63.227 144.501 63.203 144.795 63.203Z" fill="#ADADAD"/>
<path d="M149.975 67.397C150.317 67.397 150.569 67.352 150.731 67.262C150.899 67.172 150.983 67.028 150.983 66.83C150.983 66.626 150.902 66.464 150.74 66.344C150.578 66.224 150.311 66.089 149.939 65.939C149.759 65.867 149.585 65.795 149.417 65.723C149.255 65.645 149.114 65.555 148.994 65.453C148.874 65.351 148.778 65.228 148.706 65.084C148.634 64.94 148.598 64.763 148.598 64.553C148.598 64.139 148.751 63.812 149.057 63.572C149.363 63.326 149.78 63.203 150.308 63.203C150.44 63.203 150.572 63.212 150.704 63.23C150.836 63.242 150.959 63.26 151.073 63.284C151.187 63.302 151.286 63.323 151.37 63.347C151.46 63.371 151.529 63.392 151.577 63.41L151.424 64.13C151.334 64.082 151.193 64.034 151.001 63.986C150.809 63.932 150.578 63.905 150.308 63.905C150.074 63.905 149.87 63.953 149.696 64.049C149.522 64.139 149.435 64.283 149.435 64.481C149.435 64.583 149.453 64.673 149.489 64.751C149.531 64.829 149.591 64.901 149.669 64.967C149.753 65.027 149.855 65.084 149.975 65.138C150.095 65.192 150.239 65.249 150.407 65.309C150.629 65.393 150.827 65.477 151.001 65.561C151.175 65.639 151.322 65.732 151.442 65.84C151.568 65.948 151.664 66.08 151.73 66.236C151.796 66.386 151.829 66.572 151.829 66.794C151.829 67.226 151.667 67.553 151.343 67.775C151.025 67.997 150.569 68.108 149.975 68.108C149.561 68.108 149.237 68.072 149.003 68C148.769 67.934 148.61 67.883 148.526 67.847L148.679 67.127C148.775 67.163 148.928 67.217 149.138 67.289C149.348 67.361 149.627 67.397 149.975 67.397Z" fill="#ADADAD"/>
<path d="M155.386 67.397C155.584 67.397 155.758 67.394 155.908 67.388C156.064 67.376 156.193 67.358 156.295 67.334V65.939C156.235 65.909 156.136 65.885 155.998 65.867C155.866 65.843 155.704 65.831 155.512 65.831C155.386 65.831 155.251 65.84 155.107 65.858C154.969 65.876 154.84 65.915 154.72 65.975C154.606 66.029 154.51 66.107 154.432 66.209C154.354 66.305 154.315 66.434 154.315 66.596C154.315 66.896 154.411 67.106 154.603 67.226C154.795 67.34 155.056 67.397 155.386 67.397ZM155.314 63.203C155.65 63.203 155.932 63.248 156.16 63.338C156.394 63.422 156.58 63.545 156.718 63.707C156.862 63.863 156.964 64.052 157.024 64.274C157.084 64.49 157.114 64.73 157.114 64.994V67.919C157.042 67.931 156.94 67.949 156.808 67.973C156.682 67.991 156.538 68.009 156.376 68.027C156.214 68.045 156.037 68.06 155.845 68.072C155.659 68.09 155.473 68.099 155.287 68.099C155.023 68.099 154.78 68.072 154.558 68.018C154.336 67.964 154.144 67.88 153.982 67.766C153.82 67.646 153.694 67.49 153.604 67.298C153.514 67.106 153.469 66.875 153.469 66.605C153.469 66.347 153.52 66.125 153.622 65.939C153.73 65.753 153.874 65.603 154.054 65.489C154.234 65.375 154.444 65.291 154.684 65.237C154.924 65.183 155.176 65.156 155.44 65.156C155.524 65.156 155.611 65.162 155.701 65.174C155.791 65.18 155.875 65.192 155.953 65.21C156.037 65.222 156.109 65.234 156.169 65.246C156.229 65.258 156.271 65.267 156.295 65.273V65.039C156.295 64.901 156.28 64.766 156.25 64.634C156.22 64.496 156.166 64.376 156.088 64.274C156.01 64.166 155.902 64.082 155.764 64.022C155.632 63.956 155.458 63.923 155.242 63.923C154.966 63.923 154.723 63.944 154.513 63.986C154.309 64.022 154.156 64.061 154.054 64.103L153.955 63.41C154.063 63.362 154.243 63.317 154.495 63.275C154.747 63.227 155.02 63.203 155.314 63.203Z" fill="#ADADAD"/>
<path d="M158.724 68.873C158.79 68.903 158.874 68.93 158.976 68.954C159.084 68.984 159.189 68.999 159.291 68.999C159.621 68.999 159.879 68.924 160.065 68.774C160.251 68.63 160.419 68.393 160.569 68.063C160.191 67.343 159.837 66.581 159.507 65.777C159.183 64.967 158.913 64.148 158.697 63.32H159.597C159.663 63.59 159.741 63.881 159.831 64.193C159.927 64.505 160.032 64.826 160.146 65.156C160.26 65.486 160.383 65.816 160.515 66.146C160.647 66.476 160.785 66.794 160.929 67.1C161.157 66.47 161.355 65.846 161.523 65.228C161.691 64.61 161.85 63.974 162 63.32H162.864C162.648 64.202 162.408 65.051 162.144 65.867C161.88 66.677 161.595 67.436 161.289 68.144C161.169 68.414 161.043 68.645 160.911 68.837C160.785 69.035 160.644 69.197 160.488 69.323C160.332 69.449 160.155 69.542 159.957 69.602C159.765 69.662 159.546 69.692 159.3 69.692C159.234 69.692 159.165 69.686 159.093 69.674C159.021 69.668 158.949 69.656 158.877 69.638C158.811 69.626 158.748 69.611 158.688 69.593C158.634 69.575 158.595 69.56 158.571 69.548L158.724 68.873Z" fill="#ADADAD"/>
<path d="M166.473 61.016C166.719 61.016 166.929 61.034 167.103 61.07C167.283 61.106 167.409 61.139 167.481 61.169L167.328 61.889C167.256 61.853 167.154 61.82 167.022 61.79C166.89 61.754 166.728 61.736 166.536 61.736C166.146 61.736 165.873 61.844 165.717 62.06C165.561 62.27 165.483 62.555 165.483 62.915V63.32H167.283V64.022H165.483V68H164.646V62.897C164.646 62.297 164.793 61.835 165.087 61.511C165.381 61.181 165.843 61.016 166.473 61.016Z" fill="#ADADAD"/>
<path d="M170.602 67.397C170.8 67.397 170.974 67.394 171.124 67.388C171.28 67.376 171.409 67.358 171.511 67.334V65.939C171.451 65.909 171.352 65.885 171.214 65.867C171.082 65.843 170.92 65.831 170.728 65.831C170.602 65.831 170.467 65.84 170.323 65.858C170.185 65.876 170.056 65.915 169.936 65.975C169.822 66.029 169.726 66.107 169.648 66.209C169.57 66.305 169.531 66.434 169.531 66.596C169.531 66.896 169.627 67.106 169.819 67.226C170.011 67.34 170.272 67.397 170.602 67.397ZM170.53 63.203C170.866 63.203 171.148 63.248 171.376 63.338C171.61 63.422 171.796 63.545 171.934 63.707C172.078 63.863 172.18 64.052 172.24 64.274C172.3 64.49 172.33 64.73 172.33 64.994V67.919C172.258 67.931 172.156 67.949 172.024 67.973C171.898 67.991 171.754 68.009 171.592 68.027C171.43 68.045 171.253 68.06 171.061 68.072C170.875 68.09 170.689 68.099 170.503 68.099C170.239 68.099 169.996 68.072 169.774 68.018C169.552 67.964 169.36 67.88 169.198 67.766C169.036 67.646 168.91 67.49 168.82 67.298C168.73 67.106 168.685 66.875 168.685 66.605C168.685 66.347 168.736 66.125 168.838 65.939C168.946 65.753 169.09 65.603 169.27 65.489C169.45 65.375 169.66 65.291 169.9 65.237C170.14 65.183 170.392 65.156 170.656 65.156C170.74 65.156 170.827 65.162 170.917 65.174C171.007 65.18 171.091 65.192 171.169 65.21C171.253 65.222 171.325 65.234 171.385 65.246C171.445 65.258 171.487 65.267 171.511 65.273V65.039C171.511 64.901 171.496 64.766 171.466 64.634C171.436 64.496 171.382 64.376 171.304 64.274C171.226 64.166 171.118 64.082 170.98 64.022C170.848 63.956 170.674 63.923 170.458 63.923C170.182 63.923 169.939 63.944 169.729 63.986C169.525 64.022 169.372 64.061 169.27 64.103L169.171 63.41C169.279 63.362 169.459 63.317 169.711 63.275C169.963 63.227 170.236 63.203 170.53 63.203Z" fill="#ADADAD"/>
<path d="M129.628 69.458H172.996V70.169H129.628V69.458Z" fill="#ADADAD"/>
<path d="M116.469 81.7C117.345 81.7 118.017 81.868 118.485 82.204C118.959 82.534 119.196 83.029 119.196 83.689C119.196 84.049 119.13 84.358 118.998 84.616C118.872 84.868 118.686 85.075 118.44 85.237C118.2 85.393 117.906 85.507 117.558 85.579C117.21 85.651 116.817 85.687 116.379 85.687H115.686V88H114.813V81.853C115.059 81.793 115.332 81.754 115.632 81.736C115.938 81.712 116.217 81.7 116.469 81.7ZM116.541 82.465C116.169 82.465 115.884 82.474 115.686 82.492V84.94H116.343C116.643 84.94 116.913 84.922 117.153 84.886C117.393 84.844 117.594 84.778 117.756 84.688C117.924 84.592 118.053 84.463 118.143 84.301C118.233 84.139 118.278 83.932 118.278 83.68C118.278 83.44 118.23 83.242 118.134 83.086C118.044 82.93 117.918 82.807 117.756 82.717C117.6 82.621 117.417 82.555 117.207 82.519C116.997 82.483 116.775 82.465 116.541 82.465Z" fill="#ADADAD"/>
<path d="M122.863 83.221C122.935 83.221 123.016 83.227 123.106 83.239C123.202 83.245 123.295 83.257 123.385 83.275C123.475 83.287 123.556 83.302 123.628 83.32C123.706 83.332 123.763 83.344 123.799 83.356L123.655 84.085C123.589 84.061 123.478 84.034 123.322 84.004C123.172 83.968 122.977 83.95 122.737 83.95C122.581 83.95 122.425 83.968 122.269 84.004C122.119 84.034 122.02 84.055 121.972 84.067V88H121.135V83.518C121.333 83.446 121.579 83.38 121.873 83.32C122.167 83.254 122.497 83.221 122.863 83.221Z" fill="#ADADAD"/>
<path d="M129.638 85.66C129.638 86.032 129.584 86.368 129.476 86.668C129.368 86.968 129.215 87.226 129.017 87.442C128.825 87.658 128.594 87.826 128.324 87.946C128.054 88.06 127.76 88.117 127.442 88.117C127.124 88.117 126.83 88.06 126.56 87.946C126.29 87.826 126.056 87.658 125.858 87.442C125.666 87.226 125.516 86.968 125.408 86.668C125.3 86.368 125.246 86.032 125.246 85.66C125.246 85.294 125.3 84.961 125.408 84.661C125.516 84.355 125.666 84.094 125.858 83.878C126.056 83.662 126.29 83.497 126.56 83.383C126.83 83.263 127.124 83.203 127.442 83.203C127.76 83.203 128.054 83.263 128.324 83.383C128.594 83.497 128.825 83.662 129.017 83.878C129.215 84.094 129.368 84.355 129.476 84.661C129.584 84.961 129.638 85.294 129.638 85.66ZM128.765 85.66C128.765 85.132 128.645 84.715 128.405 84.409C128.171 84.097 127.85 83.941 127.442 83.941C127.034 83.941 126.71 84.097 126.47 84.409C126.236 84.715 126.119 85.132 126.119 85.66C126.119 86.188 126.236 86.608 126.47 86.92C126.71 87.226 127.034 87.379 127.442 87.379C127.85 87.379 128.171 87.226 128.405 86.92C128.645 86.608 128.765 86.188 128.765 85.66Z" fill="#ADADAD"/>
<path d="M130.95 89.683C130.878 89.683 130.785 89.674 130.671 89.656C130.557 89.638 130.461 89.614 130.383 89.584L130.491 88.9C130.551 88.918 130.62 88.933 130.698 88.945C130.776 88.957 130.848 88.963 130.914 88.963C131.202 88.963 131.406 88.873 131.526 88.693C131.652 88.519 131.715 88.261 131.715 87.919V83.32H132.552V87.91C132.552 88.51 132.414 88.954 132.138 89.242C131.868 89.536 131.472 89.683 130.95 89.683ZM132.129 82.474C131.979 82.474 131.85 82.426 131.742 82.33C131.64 82.228 131.589 82.093 131.589 81.925C131.589 81.757 131.64 81.625 131.742 81.529C131.85 81.427 131.979 81.376 132.129 81.376C132.279 81.376 132.405 81.427 132.507 81.529C132.615 81.625 132.669 81.757 132.669 81.925C132.669 82.093 132.615 82.228 132.507 82.33C132.405 82.426 132.279 82.474 132.129 82.474Z" fill="#ADADAD"/>
<path d="M134.631 85.669C134.631 85.255 134.691 84.895 134.811 84.589C134.931 84.277 135.09 84.019 135.288 83.815C135.486 83.611 135.714 83.458 135.972 83.356C136.23 83.254 136.494 83.203 136.764 83.203C137.394 83.203 137.877 83.401 138.213 83.797C138.549 84.187 138.717 84.784 138.717 85.588C138.717 85.624 138.717 85.672 138.717 85.732C138.717 85.786 138.714 85.837 138.708 85.885H135.504C135.54 86.371 135.681 86.74 135.927 86.992C136.173 87.244 136.557 87.37 137.079 87.37C137.373 87.37 137.619 87.346 137.817 87.298C138.021 87.244 138.174 87.193 138.276 87.145L138.393 87.847C138.291 87.901 138.111 87.958 137.853 88.018C137.601 88.078 137.313 88.108 136.989 88.108C136.581 88.108 136.227 88.048 135.927 87.928C135.633 87.802 135.39 87.631 135.198 87.415C135.006 87.199 134.862 86.944 134.766 86.65C134.676 86.35 134.631 86.023 134.631 85.669ZM137.844 85.21C137.85 84.832 137.754 84.523 137.556 84.283C137.364 84.037 137.097 83.914 136.755 83.914C136.563 83.914 136.392 83.953 136.242 84.031C136.098 84.103 135.975 84.199 135.873 84.319C135.771 84.439 135.69 84.577 135.63 84.733C135.576 84.889 135.54 85.048 135.522 85.21H137.844Z" fill="#ADADAD"/>
<path d="M142.223 88.09C141.707 88.078 141.341 87.967 141.125 87.757C140.909 87.547 140.801 87.22 140.801 86.776V81.16L141.638 81.016V86.641C141.638 86.779 141.65 86.893 141.674 86.983C141.698 87.073 141.737 87.145 141.791 87.199C141.845 87.253 141.917 87.295 142.007 87.325C142.097 87.349 142.208 87.37 142.34 87.388L142.223 88.09Z" fill="#ADADAD"/>
<path d="M143.919 85.669C143.919 85.255 143.979 84.895 144.099 84.589C144.219 84.277 144.378 84.019 144.576 83.815C144.774 83.611 145.002 83.458 145.26 83.356C145.518 83.254 145.782 83.203 146.052 83.203C146.682 83.203 147.165 83.401 147.501 83.797C147.837 84.187 148.005 84.784 148.005 85.588C148.005 85.624 148.005 85.672 148.005 85.732C148.005 85.786 148.002 85.837 147.996 85.885H144.792C144.828 86.371 144.969 86.74 145.215 86.992C145.461 87.244 145.845 87.37 146.367 87.37C146.661 87.37 146.907 87.346 147.105 87.298C147.309 87.244 147.462 87.193 147.564 87.145L147.681 87.847C147.579 87.901 147.399 87.958 147.141 88.018C146.889 88.078 146.601 88.108 146.277 88.108C145.869 88.108 145.515 88.048 145.215 87.928C144.921 87.802 144.678 87.631 144.486 87.415C144.294 87.199 144.15 86.944 144.054 86.65C143.964 86.35 143.919 86.023 143.919 85.669ZM147.132 85.21C147.138 84.832 147.042 84.523 146.844 84.283C146.652 84.037 146.385 83.914 146.043 83.914C145.851 83.914 145.68 83.953 145.53 84.031C145.386 84.103 145.263 84.199 145.161 84.319C145.059 84.439 144.978 84.577 144.918 84.733C144.864 84.889 144.828 85.048 144.81 85.21H147.132Z" fill="#ADADAD"/>
<path d="M151.835 83.221C151.907 83.221 151.988 83.227 152.078 83.239C152.174 83.245 152.267 83.257 152.357 83.275C152.447 83.287 152.528 83.302 152.6 83.32C152.678 83.332 152.735 83.344 152.771 83.356L152.627 84.085C152.561 84.061 152.45 84.034 152.294 84.004C152.144 83.968 151.949 83.95 151.709 83.95C151.553 83.95 151.397 83.968 151.241 84.004C151.091 84.034 150.992 84.055 150.944 84.067V88H150.107V83.518C150.305 83.446 150.551 83.38 150.845 83.32C151.139 83.254 151.469 83.221 151.835 83.221Z" fill="#ADADAD"/>
<path d="M155.316 88H154.479V83.32H155.316V88ZM154.893 82.474C154.743 82.474 154.614 82.426 154.506 82.33C154.404 82.228 154.353 82.093 154.353 81.925C154.353 81.757 154.404 81.625 154.506 81.529C154.614 81.427 154.743 81.376 154.893 81.376C155.043 81.376 155.169 81.427 155.271 81.529C155.379 81.625 155.433 81.757 155.433 81.925C155.433 82.093 155.379 82.228 155.271 82.33C155.169 82.426 155.043 82.474 154.893 82.474Z" fill="#ADADAD"/>
<path d="M157.655 83.455C157.847 83.407 158.099 83.356 158.411 83.302C158.729 83.248 159.095 83.221 159.509 83.221C159.809 83.221 160.061 83.263 160.265 83.347C160.469 83.425 160.64 83.542 160.778 83.698C160.82 83.668 160.886 83.626 160.976 83.572C161.066 83.518 161.177 83.467 161.309 83.419C161.441 83.365 161.588 83.32 161.75 83.284C161.912 83.242 162.086 83.221 162.272 83.221C162.632 83.221 162.926 83.275 163.154 83.383C163.382 83.485 163.559 83.632 163.685 83.824C163.817 84.016 163.904 84.244 163.946 84.508C163.994 84.772 164.018 85.06 164.018 85.372V88H163.181V85.552C163.181 85.276 163.166 85.039 163.136 84.841C163.112 84.643 163.061 84.478 162.983 84.346C162.911 84.214 162.809 84.118 162.677 84.058C162.551 83.992 162.386 83.959 162.182 83.959C161.9 83.959 161.666 83.998 161.48 84.076C161.3 84.148 161.177 84.214 161.111 84.274C161.159 84.43 161.195 84.601 161.219 84.787C161.243 84.973 161.255 85.168 161.255 85.372V88H160.418V85.552C160.418 85.276 160.403 85.039 160.373 84.841C160.343 84.643 160.289 84.478 160.211 84.346C160.139 84.214 160.037 84.118 159.905 84.058C159.779 83.992 159.617 83.959 159.419 83.959C159.335 83.959 159.245 83.962 159.149 83.968C159.053 83.974 158.96 83.983 158.87 83.995C158.786 84.001 158.708 84.01 158.636 84.022C158.564 84.034 158.516 84.043 158.492 84.049V88H157.655V83.455Z" fill="#ADADAD"/>
<path d="M167.144 88H166.307V83.32H167.144V88ZM166.721 82.474C166.571 82.474 166.442 82.426 166.334 82.33C166.232 82.228 166.181 82.093 166.181 81.925C166.181 81.757 166.232 81.625 166.334 81.529C166.442 81.427 166.571 81.376 166.721 81.376C166.871 81.376 166.997 81.427 167.099 81.529C167.207 81.625 167.261 81.757 167.261 81.925C167.261 82.093 167.207 82.228 167.099 82.33C166.997 82.426 166.871 82.474 166.721 82.474Z" fill="#ADADAD"/>
<path d="M172.589 83.95C172.463 84.088 172.295 84.283 172.085 84.535C171.881 84.787 171.659 85.066 171.419 85.372C171.185 85.678 170.948 85.999 170.708 86.335C170.474 86.671 170.267 86.992 170.087 87.298H172.661V88H169.088V87.442C169.232 87.178 169.409 86.887 169.619 86.569C169.829 86.251 170.048 85.936 170.276 85.624C170.51 85.306 170.735 85.009 170.951 84.733C171.173 84.451 171.365 84.214 171.527 84.022H169.214V83.32H172.589V83.95Z" fill="#ADADAD"/>
<path d="M110.138 101.763H111.011V108H110.138V105.12H107.087V108H106.214V101.763H107.087V104.364H110.138V101.763Z" fill="#ADADAD"/>
<path d="M114.243 108H113.406V103.32H114.243V108ZM113.82 102.474C113.67 102.474 113.541 102.426 113.433 102.33C113.331 102.228 113.28 102.093 113.28 101.925C113.28 101.757 113.331 101.625 113.433 101.529C113.541 101.427 113.67 101.376 113.82 101.376C113.97 101.376 114.096 101.427 114.198 101.529C114.306 101.625 114.36 101.757 114.36 101.925C114.36 102.093 114.306 102.228 114.198 102.33C114.096 102.426 113.97 102.474 113.82 102.474Z" fill="#ADADAD"/>
<path d="M119.687 103.95C119.561 104.088 119.393 104.283 119.183 104.535C118.979 104.787 118.757 105.066 118.517 105.372C118.283 105.678 118.046 105.999 117.806 106.335C117.572 106.671 117.365 106.992 117.185 107.298H119.759V108H116.186V107.442C116.33 107.178 116.507 106.887 116.717 106.569C116.927 106.251 117.146 105.936 117.374 105.624C117.608 105.306 117.833 105.009 118.049 104.733C118.271 104.451 118.463 104.214 118.625 104.022H116.312V103.32H119.687V103.95Z" fill="#ADADAD"/>
<path d="M121.719 103.455C121.911 103.407 122.163 103.356 122.475 103.302C122.793 103.248 123.159 103.221 123.573 103.221C123.873 103.221 124.125 103.263 124.329 103.347C124.533 103.425 124.704 103.542 124.842 103.698C124.884 103.668 124.95 103.626 125.04 103.572C125.13 103.518 125.241 103.467 125.373 103.419C125.505 103.365 125.652 103.32 125.814 103.284C125.976 103.242 126.15 103.221 126.336 103.221C126.696 103.221 126.99 103.275 127.218 103.383C127.446 103.485 127.623 103.632 127.749 103.824C127.881 104.016 127.968 104.244 128.01 104.508C128.058 104.772 128.082 105.06 128.082 105.372V108H127.245V105.552C127.245 105.276 127.23 105.039 127.2 104.841C127.176 104.643 127.125 104.478 127.047 104.346C126.975 104.214 126.873 104.118 126.741 104.058C126.615 103.992 126.45 103.959 126.246 103.959C125.964 103.959 125.73 103.998 125.544 104.076C125.364 104.148 125.241 104.214 125.175 104.274C125.223 104.43 125.259 104.601 125.283 104.787C125.307 104.973 125.319 105.168 125.319 105.372V108H124.482V105.552C124.482 105.276 124.467 105.039 124.437 104.841C124.407 104.643 124.353 104.478 124.275 104.346C124.203 104.214 124.101 104.118 123.969 104.058C123.843 103.992 123.681 103.959 123.483 103.959C123.399 103.959 123.309 103.962 123.213 103.968C123.117 103.974 123.024 103.983 122.934 103.995C122.85 104.001 122.772 104.01 122.7 104.022C122.628 104.034 122.58 104.043 122.556 104.049V108H121.719V103.455Z" fill="#ADADAD"/>
<path d="M130.11 105.669C130.11 105.255 130.17 104.895 130.29 104.589C130.41 104.277 130.569 104.019 130.767 103.815C130.965 103.611 131.193 103.458 131.451 103.356C131.709 103.254 131.973 103.203 132.243 103.203C132.873 103.203 133.356 103.401 133.692 103.797C134.028 104.187 134.196 104.784 134.196 105.588C134.196 105.624 134.196 105.672 134.196 105.732C134.196 105.786 134.193 105.837 134.187 105.885H130.983C131.019 106.371 131.16 106.74 131.406 106.992C131.652 107.244 132.036 107.37 132.558 107.37C132.852 107.37 133.098 107.346 133.296 107.298C133.5 107.244 133.653 107.193 133.755 107.145L133.872 107.847C133.77 107.901 133.59 107.958 133.332 108.018C133.08 108.078 132.792 108.108 132.468 108.108C132.06 108.108 131.706 108.048 131.406 107.928C131.112 107.802 130.869 107.631 130.677 107.415C130.485 107.199 130.341 106.944 130.245 106.65C130.155 106.35 130.11 106.023 130.11 105.669ZM133.323 105.21C133.329 104.832 133.233 104.523 133.035 104.283C132.843 104.037 132.576 103.914 132.234 103.914C132.042 103.914 131.871 103.953 131.721 104.031C131.577 104.103 131.454 104.199 131.352 104.319C131.25 104.439 131.169 104.577 131.109 104.733C131.055 104.889 131.019 105.048 131.001 105.21H133.323Z" fill="#ADADAD"/>
<path d="M137.081 103.32H138.854V104.022H137.081V106.182C137.081 106.416 137.099 106.611 137.135 106.767C137.171 106.917 137.225 107.037 137.297 107.127C137.369 107.211 137.459 107.271 137.567 107.307C137.675 107.343 137.801 107.361 137.945 107.361C138.197 107.361 138.398 107.334 138.548 107.28C138.704 107.22 138.812 107.178 138.872 107.154L139.034 107.847C138.95 107.889 138.803 107.94 138.593 108C138.383 108.066 138.143 108.099 137.873 108.099C137.555 108.099 137.291 108.06 137.081 107.982C136.877 107.898 136.712 107.775 136.586 107.613C136.46 107.451 136.37 107.253 136.316 107.019C136.268 106.779 136.244 106.503 136.244 106.191V102.015L137.081 101.871V103.32Z" fill="#ADADAD"/>
<path d="M142.223 108.09C141.707 108.078 141.341 107.967 141.125 107.757C140.909 107.547 140.801 107.22 140.801 106.776V101.16L141.638 101.016V106.641C141.638 106.779 141.65 106.893 141.674 106.983C141.698 107.073 141.737 107.145 141.791 107.199C141.845 107.253 141.917 107.295 142.007 107.325C142.097 107.349 142.208 107.37 142.34 107.388L142.223 108.09Z" fill="#ADADAD"/>
<path d="M143.919 105.669C143.919 105.255 143.979 104.895 144.099 104.589C144.219 104.277 144.378 104.019 144.576 103.815C144.774 103.611 145.002 103.458 145.26 103.356C145.518 103.254 145.782 103.203 146.052 103.203C146.682 103.203 147.165 103.401 147.501 103.797C147.837 104.187 148.005 104.784 148.005 105.588C148.005 105.624 148.005 105.672 148.005 105.732C148.005 105.786 148.002 105.837 147.996 105.885H144.792C144.828 106.371 144.969 106.74 145.215 106.992C145.461 107.244 145.845 107.37 146.367 107.37C146.661 107.37 146.907 107.346 147.105 107.298C147.309 107.244 147.462 107.193 147.564 107.145L147.681 107.847C147.579 107.901 147.399 107.958 147.141 108.018C146.889 108.078 146.601 108.108 146.277 108.108C145.869 108.108 145.515 108.048 145.215 107.928C144.921 107.802 144.678 107.631 144.486 107.415C144.294 107.199 144.15 106.944 144.054 106.65C143.964 106.35 143.919 106.023 143.919 105.669ZM147.132 105.21C147.138 104.832 147.042 104.523 146.844 104.283C146.652 104.037 146.385 103.914 146.043 103.914C145.851 103.914 145.68 103.953 145.53 104.031C145.386 104.103 145.263 104.199 145.161 104.319C145.059 104.439 144.978 104.577 144.918 104.733C144.864 104.889 144.828 105.048 144.81 105.21H147.132Z" fill="#ADADAD"/>
<path d="M151.835 103.221C151.907 103.221 151.988 103.227 152.078 103.239C152.174 103.245 152.267 103.257 152.357 103.275C152.447 103.287 152.528 103.302 152.6 103.32C152.678 103.332 152.735 103.344 152.771 103.356L152.627 104.085C152.561 104.061 152.45 104.034 152.294 104.004C152.144 103.968 151.949 103.95 151.709 103.95C151.553 103.95 151.397 103.968 151.241 104.004C151.091 104.034 150.992 104.055 150.944 104.067V108H150.107V103.518C150.305 103.446 150.551 103.38 150.845 103.32C151.139 103.254 151.469 103.221 151.835 103.221Z" fill="#ADADAD"/>
<path d="M155.316 108H154.479V103.32H155.316V108ZM154.893 102.474C154.743 102.474 154.614 102.426 154.506 102.33C154.404 102.228 154.353 102.093 154.353 101.925C154.353 101.757 154.404 101.625 154.506 101.529C154.614 101.427 154.743 101.376 154.893 101.376C155.043 101.376 155.169 101.427 155.271 101.529C155.379 101.625 155.433 101.757 155.433 101.925C155.433 102.093 155.379 102.228 155.271 102.33C155.169 102.426 155.043 102.474 154.893 102.474Z" fill="#ADADAD"/>
<path d="M157.655 103.455C157.847 103.407 158.099 103.356 158.411 103.302C158.729 103.248 159.095 103.221 159.509 103.221C159.809 103.221 160.061 103.263 160.265 103.347C160.469 103.425 160.64 103.542 160.778 103.698C160.82 103.668 160.886 103.626 160.976 103.572C161.066 103.518 161.177 103.467 161.309 103.419C161.441 103.365 161.588 103.32 161.75 103.284C161.912 103.242 162.086 103.221 162.272 103.221C162.632 103.221 162.926 103.275 163.154 103.383C163.382 103.485 163.559 103.632 163.685 103.824C163.817 104.016 163.904 104.244 163.946 104.508C163.994 104.772 164.018 105.06 164.018 105.372V108H163.181V105.552C163.181 105.276 163.166 105.039 163.136 104.841C163.112 104.643 163.061 104.478 162.983 104.346C162.911 104.214 162.809 104.118 162.677 104.058C162.551 103.992 162.386 103.959 162.182 103.959C161.9 103.959 161.666 103.998 161.48 104.076C161.3 104.148 161.177 104.214 161.111 104.274C161.159 104.43 161.195 104.601 161.219 104.787C161.243 104.973 161.255 105.168 161.255 105.372V108H160.418V105.552C160.418 105.276 160.403 105.039 160.373 104.841C160.343 104.643 160.289 104.478 160.211 104.346C160.139 104.214 160.037 104.118 159.905 104.058C159.779 103.992 159.617 103.959 159.419 103.959C159.335 103.959 159.245 103.962 159.149 103.968C159.053 103.974 158.96 103.983 158.87 103.995C158.786 104.001 158.708 104.01 158.636 104.022C158.564 104.034 158.516 104.043 158.492 104.049V108H157.655V103.455Z" fill="#ADADAD"/>
<path d="M167.144 108H166.307V103.32H167.144V108ZM166.721 102.474C166.571 102.474 166.442 102.426 166.334 102.33C166.232 102.228 166.181 102.093 166.181 101.925C166.181 101.757 166.232 101.625 166.334 101.529C166.442 101.427 166.571 101.376 166.721 101.376C166.871 101.376 166.997 101.427 167.099 101.529C167.207 101.625 167.261 101.757 167.261 101.925C167.261 102.093 167.207 102.228 167.099 102.33C166.997 102.426 166.871 102.474 166.721 102.474Z" fill="#ADADAD"/>
<path d="M172.589 103.95C172.463 104.088 172.295 104.283 172.085 104.535C171.881 104.787 171.659 105.066 171.419 105.372C171.185 105.678 170.948 105.999 170.708 106.335C170.474 106.671 170.267 106.992 170.087 107.298H172.661V108H169.088V107.442C169.232 107.178 169.409 106.887 169.619 106.569C169.829 106.251 170.048 105.936 170.276 105.624C170.51 105.306 170.735 105.009 170.951 104.733C171.173 104.451 171.365 104.214 171.527 104.022H169.214V103.32H172.589V103.95Z" fill="#ADADAD"/>
<path d="M122.779 121.763H123.652V128H122.779V125.12H119.728V128H118.855V121.763H119.728V124.364H122.779V121.763Z" fill="#ADADAD"/>
<path d="M127.63 127.397C127.828 127.397 128.002 127.394 128.152 127.388C128.308 127.376 128.437 127.358 128.539 127.334V125.939C128.479 125.909 128.38 125.885 128.242 125.867C128.11 125.843 127.948 125.831 127.756 125.831C127.63 125.831 127.495 125.84 127.351 125.858C127.213 125.876 127.084 125.915 126.964 125.975C126.85 126.029 126.754 126.107 126.676 126.209C126.598 126.305 126.559 126.434 126.559 126.596C126.559 126.896 126.655 127.106 126.847 127.226C127.039 127.34 127.3 127.397 127.63 127.397ZM127.558 123.203C127.894 123.203 128.176 123.248 128.404 123.338C128.638 123.422 128.824 123.545 128.962 123.707C129.106 123.863 129.208 124.052 129.268 124.274C129.328 124.49 129.358 124.73 129.358 124.994V127.919C129.286 127.931 129.184 127.949 129.052 127.973C128.926 127.991 128.782 128.009 128.62 128.027C128.458 128.045 128.281 128.06 128.089 128.072C127.903 128.09 127.717 128.099 127.531 128.099C127.267 128.099 127.024 128.072 126.802 128.018C126.58 127.964 126.388 127.88 126.226 127.766C126.064 127.646 125.938 127.49 125.848 127.298C125.758 127.106 125.713 126.875 125.713 126.605C125.713 126.347 125.764 126.125 125.866 125.939C125.974 125.753 126.118 125.603 126.298 125.489C126.478 125.375 126.688 125.291 126.928 125.237C127.168 125.183 127.42 125.156 127.684 125.156C127.768 125.156 127.855 125.162 127.945 125.174C128.035 125.18 128.119 125.192 128.197 125.21C128.281 125.222 128.353 125.234 128.413 125.246C128.473 125.258 128.515 125.267 128.539 125.273V125.039C128.539 124.901 128.524 124.766 128.494 124.634C128.464 124.496 128.41 124.376 128.332 124.274C128.254 124.166 128.146 124.082 128.008 124.022C127.876 123.956 127.702 123.923 127.486 123.923C127.21 123.923 126.967 123.944 126.757 123.986C126.553 124.022 126.4 124.061 126.298 124.103L126.199 123.41C126.307 123.362 126.487 123.317 126.739 123.275C126.991 123.227 127.264 123.203 127.558 123.203Z" fill="#ADADAD"/>
<path d="M133.341 125.426C133.521 125.564 133.71 125.735 133.908 125.939C134.112 126.143 134.31 126.365 134.502 126.605C134.7 126.839 134.886 127.079 135.06 127.325C135.234 127.565 135.381 127.79 135.501 128H134.52C134.394 127.79 134.247 127.577 134.079 127.361C133.917 127.139 133.746 126.929 133.566 126.731C133.386 126.527 133.203 126.341 133.017 126.173C132.831 126.005 132.654 125.864 132.486 125.75V128H131.649V121.16L132.486 121.016V125.282C132.63 125.138 132.789 124.979 132.963 124.805C133.137 124.631 133.308 124.454 133.476 124.274C133.644 124.094 133.803 123.923 133.953 123.761C134.103 123.593 134.232 123.446 134.34 123.32H135.321C135.183 123.47 135.033 123.635 134.871 123.815C134.709 123.995 134.541 124.178 134.367 124.364C134.193 124.544 134.016 124.727 133.836 124.913C133.662 125.093 133.497 125.264 133.341 125.426Z" fill="#ADADAD"/>
<path d="M138.943 125.426C139.123 125.564 139.312 125.735 139.51 125.939C139.714 126.143 139.912 126.365 140.104 126.605C140.302 126.839 140.488 127.079 140.662 127.325C140.836 127.565 140.983 127.79 141.103 128H140.122C139.996 127.79 139.849 127.577 139.681 127.361C139.519 127.139 139.348 126.929 139.168 126.731C138.988 126.527 138.805 126.341 138.619 126.173C138.433 126.005 138.256 125.864 138.088 125.75V128H137.251V121.16L138.088 121.016V125.282C138.232 125.138 138.391 124.979 138.565 124.805C138.739 124.631 138.91 124.454 139.078 124.274C139.246 124.094 139.405 123.923 139.555 123.761C139.705 123.593 139.834 123.446 139.942 123.32H140.923C140.785 123.47 140.635 123.635 140.473 123.815C140.311 123.995 140.143 124.178 139.969 124.364C139.795 124.544 139.618 124.727 139.438 124.913C139.264 125.093 139.099 125.264 138.943 125.426Z" fill="#ADADAD"/>
<path d="M143.69 128H142.853V123.32H143.69V128Z" fill="#ADADAD"/>
<path d="M146.029 123.455C146.221 123.407 146.473 123.356 146.785 123.302C147.103 123.248 147.469 123.221 147.883 123.221C148.183 123.221 148.435 123.263 148.639 123.347C148.843 123.425 149.014 123.542 149.152 123.698C149.194 123.668 149.26 123.626 149.35 123.572C149.44 123.518 149.551 123.467 149.683 123.419C149.815 123.365 149.962 123.32 150.124 123.284C150.286 123.242 150.46 123.221 150.646 123.221C151.006 123.221 151.3 123.275 151.528 123.383C151.756 123.485 151.933 123.632 152.059 123.824C152.191 124.016 152.278 124.244 152.32 124.508C152.368 124.772 152.392 125.06 152.392 125.372V128H151.555V125.552C151.555 125.276 151.54 125.039 151.51 124.841C151.486 124.643 151.435 124.478 151.357 124.346C151.285 124.214 151.183 124.118 151.051 124.058C150.925 123.992 150.76 123.959 150.556 123.959C150.274 123.959 150.04 123.998 149.854 124.076C149.674 124.148 149.551 124.214 149.485 124.274C149.533 124.43 149.569 124.601 149.593 124.787C149.617 124.973 149.629 125.168 149.629 125.372V128H148.792V125.552C148.792 125.276 148.777 125.039 148.747 124.841C148.717 124.643 148.663 124.478 148.585 124.346C148.513 124.214 148.411 124.118 148.279 124.058C148.153 123.992 147.991 123.959 147.793 123.959C147.709 123.959 147.619 123.962 147.523 123.968C147.427 123.974 147.334 123.983 147.244 123.995C147.16 124.001 147.082 124.01 147.01 124.022C146.938 124.034 146.89 124.043 146.866 124.049V128H146.029V123.455Z" fill="#ADADAD"/>
<path d="M155.518 128H154.681V123.32H155.518V128Z" fill="#ADADAD"/>
<path d="M160.963 123.95C160.837 124.088 160.669 124.283 160.459 124.535C160.255 124.787 160.033 125.066 159.793 125.372C159.559 125.678 159.322 125.999 159.082 126.335C158.848 126.671 158.641 126.992 158.461 127.298H161.035V128H157.462V127.442C157.606 127.178 157.783 126.887 157.993 126.569C158.203 126.251 158.422 125.936 158.65 125.624C158.884 125.306 159.109 125.009 159.325 124.733C159.547 124.451 159.739 124.214 159.901 124.022H157.588V123.32H160.963V123.95Z" fill="#ADADAD"/>
<path d="M165.842 124.31C165.74 124.226 165.593 124.145 165.401 124.067C165.209 123.989 164.999 123.95 164.771 123.95C164.531 123.95 164.324 123.995 164.15 124.085C163.982 124.169 163.844 124.289 163.736 124.445C163.628 124.595 163.55 124.775 163.502 124.985C163.454 125.195 163.43 125.42 163.43 125.66C163.43 126.206 163.565 126.629 163.835 126.929C164.105 127.223 164.465 127.37 164.915 127.37C165.143 127.37 165.332 127.361 165.482 127.343C165.638 127.319 165.758 127.295 165.842 127.271V124.31ZM165.842 121.16L166.679 121.016V127.865C166.487 127.919 166.241 127.973 165.941 128.027C165.641 128.081 165.296 128.108 164.906 128.108C164.546 128.108 164.222 128.051 163.934 127.937C163.646 127.823 163.4 127.661 163.196 127.451C162.992 127.241 162.833 126.986 162.719 126.686C162.611 126.38 162.557 126.038 162.557 125.66C162.557 125.3 162.602 124.97 162.692 124.67C162.788 124.37 162.926 124.112 163.106 123.896C163.286 123.68 163.505 123.512 163.763 123.392C164.027 123.272 164.327 123.212 164.663 123.212C164.933 123.212 165.17 123.248 165.374 123.32C165.584 123.392 165.74 123.461 165.842 123.527V121.16Z" fill="#ADADAD"/>
<path d="M170.602 127.397C170.8 127.397 170.974 127.394 171.124 127.388C171.28 127.376 171.409 127.358 171.511 127.334V125.939C171.451 125.909 171.352 125.885 171.214 125.867C171.082 125.843 170.92 125.831 170.728 125.831C170.602 125.831 170.467 125.84 170.323 125.858C170.185 125.876 170.056 125.915 169.936 125.975C169.822 126.029 169.726 126.107 169.648 126.209C169.57 126.305 169.531 126.434 169.531 126.596C169.531 126.896 169.627 127.106 169.819 127.226C170.011 127.34 170.272 127.397 170.602 127.397ZM170.53 123.203C170.866 123.203 171.148 123.248 171.376 123.338C171.61 123.422 171.796 123.545 171.934 123.707C172.078 123.863 172.18 124.052 172.24 124.274C172.3 124.49 172.33 124.73 172.33 124.994V127.919C172.258 127.931 172.156 127.949 172.024 127.973C171.898 127.991 171.754 128.009 171.592 128.027C171.43 128.045 171.253 128.06 171.061 128.072C170.875 128.09 170.689 128.099 170.503 128.099C170.239 128.099 169.996 128.072 169.774 128.018C169.552 127.964 169.36 127.88 169.198 127.766C169.036 127.646 168.91 127.49 168.82 127.298C168.73 127.106 168.685 126.875 168.685 126.605C168.685 126.347 168.736 126.125 168.838 125.939C168.946 125.753 169.09 125.603 169.27 125.489C169.45 125.375 169.66 125.291 169.9 125.237C170.14 125.183 170.392 125.156 170.656 125.156C170.74 125.156 170.827 125.162 170.917 125.174C171.007 125.18 171.091 125.192 171.169 125.21C171.253 125.222 171.325 125.234 171.385 125.246C171.445 125.258 171.487 125.267 171.511 125.273V125.039C171.511 124.901 171.496 124.766 171.466 124.634C171.436 124.496 171.382 124.376 171.304 124.274C171.226 124.166 171.118 124.082 170.98 124.022C170.848 123.956 170.674 123.923 170.458 123.923C170.182 123.923 169.939 123.944 169.729 123.986C169.525 124.022 169.372 124.061 169.27 124.103L169.171 123.41C169.279 123.362 169.459 123.317 169.711 123.275C169.963 123.227 170.236 123.203 170.53 123.203Z" fill="#ADADAD"/>
<path d="M137.626 141.763H138.499V148H137.626V141.763Z" fill="#ADADAD"/>
<path d="M142.293 148.09C141.777 148.078 141.411 147.967 141.195 147.757C140.979 147.547 140.871 147.22 140.871 146.776V141.16L141.708 141.016V146.641C141.708 146.779 141.72 146.893 141.744 146.983C141.768 147.073 141.807 147.145 141.861 147.199C141.915 147.253 141.987 147.295 142.077 147.325C142.167 147.349 142.278 147.37 142.41 147.388L142.293 148.09Z" fill="#ADADAD"/>
<path d="M143.989 145.669C143.989 145.255 144.049 144.895 144.169 144.589C144.289 144.277 144.448 144.019 144.646 143.815C144.844 143.611 145.072 143.458 145.33 143.356C145.588 143.254 145.852 143.203 146.122 143.203C146.752 143.203 147.235 143.401 147.571 143.797C147.907 144.187 148.075 144.784 148.075 145.588C148.075 145.624 148.075 145.672 148.075 145.732C148.075 145.786 148.072 145.837 148.066 145.885H144.862C144.898 146.371 145.039 146.74 145.285 146.992C145.531 147.244 145.915 147.37 146.437 147.37C146.731 147.37 146.977 147.346 147.175 147.298C147.379 147.244 147.532 147.193 147.634 147.145L147.751 147.847C147.649 147.901 147.469 147.958 147.211 148.018C146.959 148.078 146.671 148.108 146.347 148.108C145.939 148.108 145.585 148.048 145.285 147.928C144.991 147.802 144.748 147.631 144.556 147.415C144.364 147.199 144.22 146.944 144.124 146.65C144.034 146.35 143.989 146.023 143.989 145.669ZM147.202 145.21C147.208 144.832 147.112 144.523 146.914 144.283C146.722 144.037 146.455 143.914 146.113 143.914C145.921 143.914 145.75 143.953 145.6 144.031C145.456 144.103 145.333 144.199 145.231 144.319C145.129 144.439 145.048 144.577 144.988 144.733C144.934 144.889 144.898 145.048 144.88 145.21H147.202Z" fill="#ADADAD"/>
<path d="M150.961 143.32H152.734V144.022H150.961V146.182C150.961 146.416 150.979 146.611 151.015 146.767C151.051 146.917 151.105 147.037 151.177 147.127C151.249 147.211 151.339 147.271 151.447 147.307C151.555 147.343 151.681 147.361 151.825 147.361C152.077 147.361 152.278 147.334 152.428 147.28C152.584 147.22 152.692 147.178 152.752 147.154L152.914 147.847C152.83 147.889 152.683 147.94 152.473 148C152.263 148.066 152.023 148.099 151.753 148.099C151.435 148.099 151.171 148.06 150.961 147.982C150.757 147.898 150.592 147.775 150.466 147.613C150.34 147.451 150.25 147.253 150.196 147.019C150.148 146.779 150.124 146.503 150.124 146.191V142.015L150.961 141.871V143.32Z" fill="#ADADAD"/>
<path d="M155.536 148H154.699V143.32H155.536V148ZM155.113 142.474C154.963 142.474 154.834 142.426 154.726 142.33C154.624 142.228 154.573 142.093 154.573 141.925C154.573 141.757 154.624 141.625 154.726 141.529C154.834 141.427 154.963 141.376 155.113 141.376C155.263 141.376 155.389 141.427 155.491 141.529C155.599 141.625 155.653 141.757 155.653 141.925C155.653 142.093 155.599 142.228 155.491 142.33C155.389 142.426 155.263 142.474 155.113 142.474Z" fill="#ADADAD"/>
<path d="M158.964 147.397C159.306 147.397 159.558 147.352 159.72 147.262C159.888 147.172 159.972 147.028 159.972 146.83C159.972 146.626 159.891 146.464 159.729 146.344C159.567 146.224 159.3 146.089 158.928 145.939C158.748 145.867 158.574 145.795 158.406 145.723C158.244 145.645 158.103 145.555 157.983 145.453C157.863 145.351 157.767 145.228 157.695 145.084C157.623 144.94 157.587 144.763 157.587 144.553C157.587 144.139 157.74 143.812 158.046 143.572C158.352 143.326 158.769 143.203 159.297 143.203C159.429 143.203 159.561 143.212 159.693 143.23C159.825 143.242 159.948 143.26 160.062 143.284C160.176 143.302 160.275 143.323 160.359 143.347C160.449 143.371 160.518 143.392 160.566 143.41L160.413 144.13C160.323 144.082 160.182 144.034 159.99 143.986C159.798 143.932 159.567 143.905 159.297 143.905C159.063 143.905 158.859 143.953 158.685 144.049C158.511 144.139 158.424 144.283 158.424 144.481C158.424 144.589 158.442 144.682 158.478 144.76C158.52 144.832 158.58 144.898 158.658 144.958C158.742 145.018 158.844 145.078 158.964 145.138C159.084 145.192 159.228 145.249 159.396 145.309C159.612 145.393 159.807 145.477 159.981 145.561C160.155 145.639 160.305 145.732 160.431 145.84C160.557 145.948 160.653 146.08 160.719 146.236C160.785 146.386 160.818 146.572 160.818 146.794C160.818 147.166 160.698 147.46 160.458 147.676C160.218 147.892 159.873 148.027 159.423 148.081C159.399 148.129 159.375 148.174 159.351 148.216C159.333 148.258 159.318 148.297 159.306 148.333C159.48 148.417 159.606 148.507 159.684 148.603C159.762 148.705 159.801 148.852 159.801 149.044C159.801 149.11 159.786 149.182 159.756 149.26C159.726 149.338 159.675 149.41 159.603 149.476C159.531 149.542 159.435 149.596 159.315 149.638C159.195 149.68 159.048 149.701 158.874 149.701C158.718 149.701 158.574 149.689 158.442 149.665C158.316 149.641 158.214 149.614 158.136 149.584L158.235 149.071C158.307 149.095 158.382 149.116 158.46 149.134C158.544 149.152 158.637 149.161 158.739 149.161C158.955 149.161 159.063 149.092 159.063 148.954C159.063 148.888 159.03 148.831 158.964 148.783C158.898 148.741 158.805 148.696 158.685 148.648L158.622 148.621C158.646 148.549 158.676 148.465 158.712 148.369C158.754 148.279 158.796 148.192 158.838 148.108C158.46 148.096 158.163 148.06 157.947 148C157.737 147.934 157.593 147.883 157.515 147.847L157.668 147.127C157.764 147.163 157.917 147.217 158.127 147.289C158.337 147.361 158.616 147.397 158.964 147.397Z" fill="#ADADAD"/>
<path d="M163.629 148H162.792V143.32H163.629V148ZM163.206 142.474C163.056 142.474 162.927 142.426 162.819 142.33C162.717 142.228 162.666 142.093 162.666 141.925C162.666 141.757 162.717 141.625 162.819 141.529C162.927 141.427 163.056 141.376 163.206 141.376C163.356 141.376 163.482 141.427 163.584 141.529C163.692 141.625 163.746 141.757 163.746 141.925C163.746 142.093 163.692 142.228 163.584 142.33C163.482 142.426 163.356 142.474 163.206 142.474Z" fill="#ADADAD"/>
<path d="M165.968 143.455C166.16 143.407 166.412 143.356 166.724 143.302C167.042 143.248 167.408 143.221 167.822 143.221C168.122 143.221 168.374 143.263 168.578 143.347C168.782 143.425 168.953 143.542 169.091 143.698C169.133 143.668 169.199 143.626 169.289 143.572C169.379 143.518 169.49 143.467 169.622 143.419C169.754 143.365 169.901 143.32 170.063 143.284C170.225 143.242 170.399 143.221 170.585 143.221C170.945 143.221 171.239 143.275 171.467 143.383C171.695 143.485 171.872 143.632 171.998 143.824C172.13 144.016 172.217 144.244 172.259 144.508C172.307 144.772 172.331 145.06 172.331 145.372V148H171.494V145.552C171.494 145.276 171.479 145.039 171.449 144.841C171.425 144.643 171.374 144.478 171.296 144.346C171.224 144.214 171.122 144.118 170.99 144.058C170.864 143.992 170.699 143.959 170.495 143.959C170.213 143.959 169.979 143.998 169.793 144.076C169.613 144.148 169.49 144.214 169.424 144.274C169.472 144.43 169.508 144.601 169.532 144.787C169.556 144.973 169.568 145.168 169.568 145.372V148H168.731V145.552C168.731 145.276 168.716 145.039 168.686 144.841C168.656 144.643 168.602 144.478 168.524 144.346C168.452 144.214 168.35 144.118 168.218 144.058C168.092 143.992 167.93 143.959 167.732 143.959C167.648 143.959 167.558 143.962 167.462 143.968C167.366 143.974 167.273 143.983 167.183 143.995C167.099 144.001 167.021 144.01 166.949 144.022C166.877 144.034 166.829 144.043 166.805 144.049V148H165.968V143.455Z" fill="#ADADAD"/>
<path d="M64.004 26.5V27.508H59V19.192H60.164V26.5H64.004Z" fill="#C4C4C4"/>
<path d="M64.3476 23.344C64.3476 22.632 64.4516 22.004 64.6596 21.46C64.8756 20.916 65.1636 20.464 65.5236 20.104C65.8916 19.736 66.3156 19.46 66.7956 19.276C67.2836 19.092 67.7996 19 68.3436 19C68.8796 19 69.3836 19.092 69.8556 19.276C70.3356 19.46 70.7556 19.736 71.1156 20.104C71.4756 20.464 71.7596 20.916 71.9676 21.46C72.1836 22.004 72.2916 22.632 72.2916 23.344C72.2916 24.056 72.1836 24.684 71.9676 25.228C71.7596 25.772 71.4756 26.228 71.1156 26.596C70.7556 26.956 70.3356 27.228 69.8556 27.412C69.3836 27.596 68.8796 27.688 68.3436 27.688C67.7996 27.688 67.2836 27.596 66.7956 27.412C66.3156 27.228 65.8916 26.956 65.5236 26.596C65.1636 26.228 64.8756 25.772 64.6596 25.228C64.4516 24.684 64.3476 24.056 64.3476 23.344ZM65.5716 23.344C65.5716 23.848 65.6356 24.308 65.7636 24.724C65.8916 25.132 66.0716 25.48 66.3036 25.768C66.5436 26.056 66.8316 26.28 67.1676 26.44C67.5116 26.592 67.8956 26.668 68.3196 26.668C68.7436 26.668 69.1236 26.592 69.4596 26.44C69.7956 26.28 70.0796 26.056 70.3116 25.768C70.5516 25.48 70.7356 25.132 70.8636 24.724C70.9916 24.308 71.0556 23.848 71.0556 23.344C71.0556 22.84 70.9916 22.384 70.8636 21.976C70.7356 21.56 70.5516 21.208 70.3116 20.92C70.0796 20.632 69.7956 20.412 69.4596 20.26C69.1236 20.1 68.7436 20.02 68.3196 20.02C67.8956 20.02 67.5116 20.1 67.1676 20.26C66.8316 20.412 66.5436 20.632 66.3036 20.92C66.0716 21.208 65.8916 21.56 65.7636 21.976C65.6356 22.384 65.5716 22.84 65.5716 23.344Z" fill="#C4C4C4"/>
<path d="M79.0994 23.416H80.2634V27.304C80.1674 27.336 80.0274 27.372 79.8434 27.412C79.6674 27.452 79.4594 27.492 79.2194 27.532C78.9874 27.572 78.7314 27.604 78.4514 27.628C78.1714 27.66 77.8874 27.676 77.5994 27.676C77.0154 27.676 76.4834 27.58 76.0034 27.388C75.5234 27.196 75.1114 26.916 74.7674 26.548C74.4234 26.18 74.1554 25.728 73.9634 25.192C73.7794 24.656 73.6874 24.04 73.6874 23.344C73.6874 22.648 73.7914 22.032 73.9994 21.496C74.2154 20.952 74.5034 20.496 74.8634 20.128C75.2234 19.76 75.6434 19.48 76.1234 19.288C76.6114 19.096 77.1314 19 77.6834 19C78.0594 19 78.3914 19.024 78.6794 19.072C78.9754 19.12 79.2274 19.176 79.4354 19.24C79.6434 19.304 79.8114 19.368 79.9394 19.432C80.0754 19.496 80.1674 19.544 80.2154 19.576L79.8434 20.548C79.6114 20.396 79.3034 20.272 78.9194 20.176C78.5354 20.072 78.1434 20.02 77.7434 20.02C77.3194 20.02 76.9314 20.096 76.5794 20.248C76.2354 20.4 75.9394 20.62 75.6914 20.908C75.4514 21.196 75.2634 21.548 75.1274 21.964C74.9914 22.372 74.9234 22.832 74.9234 23.344C74.9234 23.84 74.9794 24.292 75.0914 24.7C75.2114 25.108 75.3874 25.46 75.6194 25.756C75.8594 26.044 76.1514 26.268 76.4954 26.428C76.8474 26.588 77.2594 26.668 77.7314 26.668C78.0674 26.668 78.3514 26.652 78.5834 26.62C78.8234 26.58 78.9954 26.544 79.0994 26.512V23.416Z" fill="#C4C4C4"/>
<path d="M81.7499 23.344C81.7499 22.632 81.8539 22.004 82.0619 21.46C82.2779 20.916 82.5659 20.464 82.9259 20.104C83.2939 19.736 83.7179 19.46 84.1979 19.276C84.6859 19.092 85.2019 19 85.7459 19C86.2819 19 86.7859 19.092 87.2579 19.276C87.7379 19.46 88.1579 19.736 88.5179 20.104C88.8779 20.464 89.1619 20.916 89.3699 21.46C89.5859 22.004 89.6939 22.632 89.6939 23.344C89.6939 24.056 89.5859 24.684 89.3699 25.228C89.1619 25.772 88.8779 26.228 88.5179 26.596C88.1579 26.956 87.7379 27.228 87.2579 27.412C86.7859 27.596 86.2819 27.688 85.7459 27.688C85.2019 27.688 84.6859 27.596 84.1979 27.412C83.7179 27.228 83.2939 26.956 82.9259 26.596C82.5659 26.228 82.2779 25.772 82.0619 25.228C81.8539 24.684 81.7499 24.056 81.7499 23.344ZM82.9739 23.344C82.9739 23.848 83.0379 24.308 83.1659 24.724C83.2939 25.132 83.4739 25.48 83.7059 25.768C83.9459 26.056 84.2339 26.28 84.5699 26.44C84.9139 26.592 85.2979 26.668 85.7219 26.668C86.1459 26.668 86.5259 26.592 86.8619 26.44C87.1979 26.28 87.4819 26.056 87.7139 25.768C87.9539 25.48 88.1379 25.132 88.2659 24.724C88.3939 24.308 88.4579 23.848 88.4579 23.344C88.4579 22.84 88.3939 22.384 88.2659 21.976C88.1379 21.56 87.9539 21.208 87.7139 20.92C87.4819 20.632 87.1979 20.412 86.8619 20.26C86.5259 20.1 86.1459 20.02 85.7219 20.02C85.2979 20.02 84.9139 20.1 84.5699 20.26C84.2339 20.412 83.9459 20.632 83.7059 20.92C83.4739 21.208 83.2939 21.56 83.1659 21.976C83.0379 22.384 82.9739 22.84 82.9739 23.344Z" fill="#C4C4C4"/>
<g clip-path="url(#clip1)">
<path d="M177.099 23.0105L181.772 18.3378C182.076 18.0339 182.076 17.5425 181.772 17.2385C181.468 16.9346 180.977 16.9346 180.673 17.2385L176 21.9112L171.327 17.2385C171.023 16.9346 170.532 16.9346 170.228 17.2385C169.924 17.5425 169.924 18.0339 170.228 18.3378L174.901 23.0105L170.228 27.6832C169.924 27.9872 169.924 28.4786 170.228 28.7826C170.38 28.9342 170.579 29.0103 170.778 29.0103C170.977 29.0103 171.176 28.9342 171.327 28.7826L176 24.1098L180.673 28.7826C180.824 28.9342 181.023 29.0103 181.222 29.0103C181.421 29.0103 181.62 28.9342 181.772 28.7826C182.076 28.4786 182.076 27.9872 181.772 27.6832L177.099 23.0105Z" fill="#C4C4C4"/>
</g>
<rect x="0.5" y="0.5" width="201" height="246" stroke="#E5E5E5"/>
<defs>
<clipPath id="clip0">
<rect width="10" height="10" fill="white" transform="translate(103 165)"/>
</clipPath>
<clipPath id="clip1">
<rect width="12" height="12" fill="white" transform="translate(170 17)"/>
</clipPath>
</defs>
</svg>
