<svg width="202" height="247" viewBox="0 0 202 247" fill="none" xmlns="http://www.w3.org/2000/svg">
<rect x="0.5" y="0.5" width="201" height="246" fill="white"/>
<path fill-rule="evenodd" clip-rule="evenodd" d="M127 208H75V222H127V208ZM91 212V216.932H92.767C93.3081 216.932 93.7268 216.806 94.0231 216.553C94.3193 216.3 94.4675 215.952 94.4675 215.509C94.4675 215.22 94.387 214.972 94.226 214.764C94.0674 214.554 93.8505 214.412 93.5752 214.337C93.8085 214.24 93.9928 214.104 94.1281 213.928C94.2634 213.749 94.331 213.545 94.331 213.314C94.331 212.881 94.191 212.553 93.9111 212.332C93.6335 212.111 93.2183 212 92.6655 212H91ZM91.6718 216.4V214.625H92.7915C93.4586 214.625 93.7922 214.922 93.7922 215.516C93.7922 215.792 93.7012 216.009 93.5192 216.167C93.3396 216.322 93.0935 216.4 92.781 216.4H91.6718ZM92.6865 214.104H91.6718V212.535H92.6655C92.9991 212.535 93.2475 212.597 93.4108 212.722C93.5741 212.843 93.6557 213.04 93.6557 213.311C93.6557 213.555 93.5671 213.748 93.3898 213.89C93.2148 214.033 92.9804 214.104 92.6865 214.104ZM96.5913 217C97.0788 217 97.4486 216.857 97.7005 216.57L97.7145 216.932H98.3303V213.267H97.683V215.933C97.5197 216.29 97.1908 216.468 96.6963 216.468C96.2298 216.468 95.9965 216.19 95.9965 215.635V213.267H95.3492V215.652C95.3515 216.097 95.4577 216.433 95.6676 216.661C95.8799 216.887 96.1878 217 96.5913 217ZM100.195 212.379V213.267H100.902V213.751H100.195V216.024C100.195 216.171 100.227 216.282 100.29 216.356C100.353 216.429 100.46 216.465 100.612 216.465C100.686 216.465 100.789 216.451 100.92 216.424V216.932C100.749 216.977 100.584 217 100.423 217C100.133 217 99.9153 216.915 99.7684 216.746C99.6214 216.577 99.5479 216.336 99.5479 216.024V213.751H98.8586V213.267H99.5479V212.379H100.195ZM102.54 213.267V212.379H101.892V213.267H101.203V213.751H101.892V216.024C101.892 216.336 101.966 216.577 102.113 216.746C102.26 216.915 102.478 217 102.767 217C102.928 217 103.094 216.977 103.264 216.932V216.424C103.133 216.451 103.031 216.465 102.956 216.465C102.804 216.465 102.697 216.429 102.634 216.356C102.571 216.282 102.54 216.171 102.54 216.024V213.751H103.246V213.267H102.54ZM103.764 215.066C103.764 214.707 103.836 214.384 103.981 214.097C104.128 213.81 104.331 213.589 104.59 213.433C104.851 213.277 105.149 213.199 105.482 213.199C105.998 213.199 106.414 213.372 106.731 213.717C107.051 214.063 107.211 214.523 107.211 215.096V215.14C107.211 215.497 107.139 215.818 106.997 216.102C106.857 216.385 106.655 216.605 106.392 216.763C106.131 216.921 105.83 217 105.489 217C104.976 217 104.56 216.827 104.24 216.482C103.923 216.136 103.764 215.679 103.764 215.11V215.066ZM104.415 215.14C104.415 215.547 104.512 215.873 104.705 216.119C104.901 216.365 105.163 216.488 105.489 216.488C105.818 216.488 106.079 216.364 106.273 216.116C106.467 215.865 106.563 215.515 106.563 215.066C106.563 214.664 106.464 214.339 106.266 214.09C106.07 213.839 105.809 213.714 105.482 213.714C105.163 213.714 104.905 213.837 104.709 214.083C104.513 214.329 104.415 214.682 104.415 215.14ZM108.656 213.728L108.635 213.267H108.022V216.932H108.67V214.32C108.758 214.144 108.882 214.002 109.041 213.894C109.199 213.785 109.383 213.731 109.593 213.731C109.852 213.731 110.042 213.794 110.164 213.921C110.287 214.047 110.35 214.243 110.353 214.507V216.932H111V214.51C110.993 213.636 110.589 213.199 109.789 213.199C109.323 213.199 108.945 213.375 108.656 213.728Z" fill="#C4C4C4"/>
<g clip-path="url(#clip0)">
<path d="M69.6068 191.04C69.5373 191.053 69.5069 191.086 69.5156 191.138C69.5243 191.19 69.5634 191.207 69.6328 191.19C69.7023 191.173 69.7327 191.142 69.7239 191.099C69.7153 191.051 69.6763 191.032 69.6068 191.04Z" fill="#C4C4C4"/>
<path d="M69.2357 191.093C69.1663 191.093 69.1315 191.116 69.1315 191.164C69.1315 191.221 69.1685 191.244 69.2422 191.236C69.3117 191.236 69.3464 191.212 69.3464 191.164C69.3464 191.108 69.3095 191.084 69.2357 191.093Z" fill="#C4C4C4"/>
<path d="M68.7279 191.073C68.7106 191.121 68.7388 191.153 68.8125 191.17C68.8776 191.196 68.9189 191.183 68.9362 191.131C68.9493 191.084 68.921 191.049 68.8516 191.027C68.7865 191.01 68.7453 191.025 68.7279 191.073Z" fill="#C4C4C4"/>
<path d="M75.4499 183.55C75.0831 183.183 74.6416 183 74.125 183H67.875C67.3585 183 66.9169 183.183 66.5501 183.55C66.1834 183.917 66 184.359 66 184.875V191.125C66 191.642 66.1834 192.083 66.5501 192.45C66.9168 192.817 67.3585 193 67.875 193H69.3333C69.4287 193 69.5004 192.997 69.5481 192.99C69.5958 192.984 69.6435 192.956 69.6913 192.906C69.7391 192.856 69.7629 192.783 69.7629 192.688C69.7629 192.675 69.7618 192.527 69.7596 192.245C69.7574 191.963 69.7563 191.739 69.7563 191.574L69.6066 191.6C69.5111 191.618 69.3907 191.625 69.2453 191.623C69.0999 191.621 68.949 191.606 68.7928 191.577C68.6365 191.549 68.4912 191.484 68.3566 191.382C68.2221 191.28 68.1266 191.147 68.0702 190.982L68.0051 190.832C67.9617 190.732 67.8933 190.621 67.8 190.5C67.7067 190.378 67.6123 190.296 67.5168 190.253L67.4712 190.22C67.4409 190.198 67.4127 190.172 67.3866 190.142C67.3606 190.111 67.3411 190.081 67.3281 190.051C67.315 190.02 67.3258 189.995 67.3606 189.976C67.3953 189.956 67.4582 189.947 67.5494 189.947L67.6796 189.966C67.7664 189.983 67.8738 190.035 68.0019 190.122C68.1299 190.209 68.2351 190.322 68.3176 190.461C68.4175 190.639 68.5378 190.774 68.6789 190.868C68.82 190.961 68.9621 191.008 69.1053 191.008C69.2485 191.008 69.3722 190.997 69.4764 190.975C69.5805 190.953 69.6782 190.921 69.7694 190.877C69.8084 190.587 69.9148 190.363 70.0884 190.207C69.841 190.181 69.6186 190.142 69.421 190.09C69.2236 190.037 69.0196 189.953 68.8091 189.836C68.5985 189.718 68.4239 189.573 68.285 189.399C68.1461 189.226 68.0321 188.998 67.9432 188.716C67.8543 188.434 67.8098 188.108 67.8098 187.739C67.8098 187.214 67.9813 186.767 68.3241 186.398C68.1635 186.003 68.1787 185.56 68.3697 185.07C68.4956 185.031 68.6822 185.06 68.9296 185.158C69.177 185.256 69.3582 185.339 69.4732 185.409C69.5883 185.478 69.6805 185.537 69.7499 185.584C70.1537 185.471 70.5703 185.415 71 185.415C71.4296 185.415 71.8463 185.471 72.25 185.584L72.4974 185.428C72.6668 185.324 72.8664 185.228 73.0965 185.142C73.3265 185.055 73.5022 185.031 73.6238 185.07C73.8191 185.561 73.8365 186.003 73.6758 186.398C74.0187 186.767 74.1902 187.214 74.1902 187.739C74.1902 188.108 74.1457 188.435 74.0568 188.719C73.9679 189.003 73.8529 189.231 73.7117 189.403C73.5707 189.574 73.3949 189.718 73.1844 189.836C72.9739 189.953 72.7699 190.038 72.5724 190.09C72.3749 190.142 72.1525 190.181 71.9051 190.207C72.1307 190.402 72.2435 190.71 72.2435 191.131V192.687C72.2435 192.761 72.2543 192.821 72.276 192.866C72.2978 192.912 72.3325 192.943 72.3802 192.961C72.4281 192.978 72.4703 192.989 72.5072 192.993C72.5442 192.998 72.5973 193 72.6667 193H74.1251C74.6415 193 75.0832 192.816 75.4498 192.45C75.8166 192.083 76 191.641 76 191.125V184.875C75.9999 184.359 75.8165 183.917 75.4499 183.55Z" fill="#C4C4C4"/>
<path d="M67.9791 190.279C67.9488 190.3 67.9531 190.335 67.9922 190.383C68.0357 190.426 68.0703 190.433 68.0964 190.402C68.1268 190.381 68.1224 190.346 68.0833 190.298C68.0399 190.259 68.0052 190.253 67.9791 190.279Z" fill="#C4C4C4"/>
<path d="M67.7644 190.116C67.7514 190.146 67.7666 190.172 67.81 190.194C67.8446 190.216 67.8729 190.212 67.8946 190.181C67.9076 190.151 67.8924 190.125 67.849 190.103C67.8056 190.09 67.7774 190.094 67.7644 190.116Z" fill="#C4C4C4"/>
<path d="M68.181 190.533C68.1419 190.554 68.1419 190.593 68.181 190.65C68.2201 190.706 68.2569 190.721 68.2917 190.695C68.3308 190.665 68.3308 190.624 68.2917 190.572C68.257 190.515 68.2201 190.502 68.181 190.533Z" fill="#C4C4C4"/>
<path d="M68.4089 190.825C68.3699 190.86 68.3785 190.901 68.435 190.949C68.487 191.001 68.5304 191.008 68.5651 190.969C68.5999 190.934 68.5912 190.893 68.5391 190.845C68.4871 190.793 68.4437 190.786 68.4089 190.825Z" fill="#C4C4C4"/>
</g>
<path d="M104.535 183H97.4648C96.6572 183 96 183.657 96 184.465V191.535C96 192.343 96.6572 193 97.4648 193H100.414V189.465H99.2422V187.707H100.414V186.516C100.414 185.546 101.203 184.758 102.172 184.758H103.949V186.516H102.172V187.707H103.949L103.656 189.465H102.172V193H104.535C105.343 193 106 192.343 106 191.535V184.465C106 183.657 105.343 183 104.535 183Z" fill="#C4C4C4"/>
<path d="M131.879 188C131.879 188.485 131.485 188.879 131 188.879C130.515 188.879 130.121 188.485 130.121 188C130.121 187.515 130.515 187.121 131 187.121C131.485 187.121 131.879 187.515 131.879 188Z" fill="#C4C4C4"/>
<path d="M132.484 185.344H129.516C128.869 185.344 128.344 185.869 128.344 186.516V189.484C128.344 190.131 128.869 190.656 129.516 190.656H132.484C133.131 190.656 133.656 190.131 133.656 189.484V186.516C133.656 185.869 133.131 185.344 132.484 185.344ZM131 189.465C130.192 189.465 129.535 188.808 129.535 188C129.535 187.192 130.192 186.535 131 186.535C131.808 186.535 132.465 187.192 132.465 188C132.465 188.808 131.808 189.465 131 189.465ZM132.68 186.613C132.518 186.613 132.387 186.482 132.387 186.32C132.387 186.158 132.518 186.027 132.68 186.027C132.842 186.027 132.973 186.158 132.973 186.32C132.973 186.482 132.842 186.613 132.68 186.613Z" fill="#C4C4C4"/>
<path d="M133.363 183H128.637C127.183 183 126 184.183 126 185.637V190.363C126 191.817 127.183 193 128.637 193H133.363C134.817 193 136 191.817 136 190.363V185.637C136 184.183 134.817 183 133.363 183ZM134.242 189.484C134.242 190.454 133.454 191.242 132.484 191.242H129.516C128.546 191.242 127.758 190.454 127.758 189.484V186.516C127.758 185.546 128.546 184.758 129.516 184.758H132.484C133.454 184.758 134.242 185.546 134.242 186.516V189.484Z" fill="#C4C4C4"/>
<path d="M72.763 69C72.627 68.64 72.499 68.288 72.379 67.944C72.259 67.592 72.135 67.236 72.007 66.876H68.239L67.483 69H66.271C66.591 68.12 66.891 67.308 67.171 66.564C67.451 65.812 67.723 65.1 67.987 64.428C68.259 63.756 68.527 63.116 68.791 62.508C69.055 61.892 69.331 61.284 69.619 60.684H70.687C70.975 61.284 71.251 61.892 71.515 62.508C71.779 63.116 72.043 63.756 72.307 64.428C72.579 65.1 72.855 65.812 73.135 66.564C73.415 67.308 73.715 68.12 74.035 69H72.763ZM71.671 65.916C71.415 65.22 71.159 64.548 70.903 63.9C70.655 63.244 70.395 62.616 70.123 62.016C69.843 62.616 69.575 63.244 69.319 63.9C69.071 64.548 68.823 65.22 68.575 65.916H71.671Z" fill="#ADADAD"/>
<path d="M82.064 69C81.888 68.704 81.684 68.372 81.452 68.004C81.228 67.636 80.984 67.256 80.72 66.864C80.456 66.464 80.18 66.06 79.892 65.652C79.612 65.244 79.332 64.852 79.052 64.476C78.772 64.092 78.5 63.732 78.236 63.396C77.972 63.06 77.728 62.764 77.504 62.508V69H76.364V60.684H77.288C77.664 61.084 78.064 61.552 78.488 62.088C78.92 62.616 79.344 63.164 79.76 63.732C80.184 64.292 80.58 64.844 80.948 65.388C81.324 65.932 81.64 66.416 81.896 66.84V60.684H83.036V69H82.064Z" fill="#ADADAD"/>
<path d="M91.8505 69C91.7145 68.64 91.5865 68.288 91.4665 67.944C91.3465 67.592 91.2225 67.236 91.0945 66.876H87.3265L86.5705 69H85.3585C85.6785 68.12 85.9785 67.308 86.2585 66.564C86.5385 65.812 86.8105 65.1 87.0745 64.428C87.3465 63.756 87.6145 63.116 87.8785 62.508C88.1425 61.892 88.4185 61.284 88.7065 60.684H89.7745C90.0625 61.284 90.3385 61.892 90.6025 62.508C90.8665 63.116 91.1305 63.756 91.3945 64.428C91.6665 65.1 91.9425 65.812 92.2225 66.564C92.5025 67.308 92.8025 68.12 93.1225 69H91.8505ZM90.7585 65.916C90.5025 65.22 90.2465 64.548 89.9905 63.9C89.7425 63.244 89.4825 62.616 89.2105 62.016C88.9305 62.616 88.6625 63.244 88.4065 63.9C88.1585 64.548 87.9105 65.22 87.6625 65.916H90.7585Z" fill="#ADADAD"/>
<path d="M97.571 68.172C98.787 68.172 99.395 67.756 99.395 66.924C99.395 66.668 99.339 66.452 99.227 66.276C99.123 66.092 98.979 65.936 98.795 65.808C98.611 65.672 98.399 65.556 98.159 65.46C97.927 65.364 97.679 65.268 97.415 65.172C97.111 65.068 96.823 64.952 96.551 64.824C96.279 64.688 96.043 64.532 95.843 64.356C95.643 64.172 95.483 63.956 95.363 63.708C95.251 63.46 95.195 63.16 95.195 62.808C95.195 62.08 95.443 61.512 95.939 61.104C96.435 60.696 97.119 60.492 97.991 60.492C98.495 60.492 98.951 60.548 99.359 60.66C99.775 60.764 100.079 60.88 100.271 61.008L99.899 61.956C99.731 61.852 99.479 61.752 99.143 61.656C98.815 61.552 98.431 61.5 97.991 61.5C97.767 61.5 97.559 61.524 97.367 61.572C97.175 61.62 97.007 61.692 96.863 61.788C96.719 61.884 96.603 62.008 96.515 62.16C96.435 62.304 96.395 62.476 96.395 62.676C96.395 62.9 96.439 63.088 96.527 63.24C96.615 63.392 96.739 63.528 96.899 63.648C97.059 63.76 97.243 63.864 97.451 63.96C97.667 64.056 97.903 64.152 98.159 64.248C98.519 64.392 98.847 64.536 99.143 64.68C99.447 64.824 99.707 64.996 99.923 65.196C100.147 65.396 100.319 65.636 100.439 65.916C100.559 66.188 100.619 66.52 100.619 66.912C100.619 67.64 100.351 68.2 99.815 68.592C99.287 68.984 98.539 69.18 97.571 69.18C97.243 69.18 96.939 69.156 96.659 69.108C96.387 69.068 96.143 69.02 95.927 68.964C95.711 68.9 95.523 68.836 95.363 68.772C95.211 68.7 95.091 68.64 95.003 68.592L95.351 67.632C95.535 67.736 95.815 67.852 96.191 67.98C96.567 68.108 97.027 68.172 97.571 68.172Z" fill="#ADADAD"/>
<path d="M108.782 69C108.646 68.64 108.518 68.288 108.398 67.944C108.278 67.592 108.154 67.236 108.026 66.876H104.258L103.502 69H102.29C102.61 68.12 102.91 67.308 103.19 66.564C103.47 65.812 103.742 65.1 104.006 64.428C104.278 63.756 104.546 63.116 104.81 62.508C105.074 61.892 105.35 61.284 105.638 60.684H106.706C106.994 61.284 107.27 61.892 107.534 62.508C107.798 63.116 108.062 63.756 108.326 64.428C108.598 65.1 108.874 65.812 109.154 66.564C109.434 67.308 109.734 68.12 110.054 69H108.782ZM107.69 65.916C107.434 65.22 107.178 64.548 106.922 63.9C106.674 63.244 106.414 62.616 106.142 62.016C105.862 62.616 105.594 63.244 105.338 63.9C105.09 64.548 104.842 65.22 104.594 65.916H107.69Z" fill="#ADADAD"/>
<path d="M113.414 69V65.664C112.862 64.808 112.342 63.964 111.854 63.132C111.366 62.3 110.906 61.484 110.474 60.684H111.842C112.146 61.34 112.486 62.008 112.862 62.688C113.238 63.36 113.626 64.008 114.026 64.632C114.418 64.008 114.802 63.36 115.178 62.688C115.554 62.008 115.898 61.34 116.21 60.684H117.506C117.074 61.484 116.614 62.3 116.126 63.132C115.638 63.956 115.122 64.792 114.578 65.64V69H113.414Z" fill="#ADADAD"/>
<path d="M119.805 69V60.684H124.821V61.68H120.969V64.188H124.389V65.172H120.969V69H119.805Z" fill="#ADADAD"/>
<path d="M132.456 69C132.32 68.64 132.192 68.288 132.072 67.944C131.952 67.592 131.828 67.236 131.7 66.876H127.932L127.176 69H125.964C126.284 68.12 126.584 67.308 126.864 66.564C127.144 65.812 127.416 65.1 127.68 64.428C127.952 63.756 128.22 63.116 128.484 62.508C128.748 61.892 129.024 61.284 129.312 60.684H130.38C130.668 61.284 130.944 61.892 131.208 62.508C131.472 63.116 131.736 63.756 132 64.428C132.272 65.1 132.548 65.812 132.828 66.564C133.108 67.308 133.408 68.12 133.728 69H132.456ZM131.364 65.916C131.108 65.22 130.852 64.548 130.596 63.9C130.348 63.244 130.088 62.616 129.816 62.016C129.536 62.616 129.268 63.244 129.012 63.9C128.764 64.548 128.516 65.22 128.268 65.916H131.364Z" fill="#ADADAD"/>
<path d="M66.175 70.944H133.824V71.892H66.175V70.944Z" fill="#ADADAD"/>
<path d="M56.6341 84.6C57.8021 84.6 58.6981 84.824 59.3221 85.272C59.9541 85.712 60.2701 86.372 60.2701 87.252C60.2701 87.732 60.1821 88.144 60.0061 88.488C59.8381 88.824 59.5901 89.1 59.2621 89.316C58.9421 89.524 58.5501 89.676 58.0861 89.772C57.6221 89.868 57.0981 89.916 56.5141 89.916H55.5901V93H54.4261V84.804C54.7541 84.724 55.1181 84.672 55.5181 84.648C55.9261 84.616 56.2981 84.6 56.6341 84.6ZM56.7301 85.62C56.2341 85.62 55.8541 85.632 55.5901 85.656V88.92H56.4661C56.8661 88.92 57.2261 88.896 57.5461 88.848C57.8661 88.792 58.1341 88.704 58.3501 88.584C58.5741 88.456 58.7461 88.284 58.8661 88.068C58.9861 87.852 59.0461 87.576 59.0461 87.24C59.0461 86.92 58.9821 86.656 58.8541 86.448C58.7341 86.24 58.5661 86.076 58.3501 85.956C58.1421 85.828 57.8981 85.74 57.6181 85.692C57.3381 85.644 57.0421 85.62 56.7301 85.62Z" fill="#ADADAD"/>
<path d="M66.9949 89.52C67.1229 89.68 67.2829 89.892 67.4749 90.156C67.6749 90.412 67.8789 90.7 68.0869 91.02C68.2949 91.332 68.4989 91.66 68.6989 92.004C68.9069 92.348 69.0829 92.68 69.2269 93H67.9549C67.7949 92.696 67.6189 92.388 67.4269 92.076C67.2429 91.764 67.0549 91.468 66.8629 91.188C66.6709 90.9 66.4789 90.632 66.2869 90.384C66.1029 90.136 65.9349 89.92 65.7829 89.736C65.6789 89.744 65.5709 89.748 65.4589 89.748C65.3549 89.748 65.2469 89.748 65.1349 89.748H64.0909V93H62.9269V84.804C63.2549 84.724 63.6189 84.672 64.0189 84.648C64.4269 84.616 64.7989 84.6 65.1349 84.6C66.3029 84.6 67.1909 84.82 67.7989 85.26C68.4149 85.7 68.7229 86.356 68.7229 87.228C68.7229 87.78 68.5749 88.252 68.2789 88.644C67.9909 89.036 67.5629 89.328 66.9949 89.52ZM65.2309 85.62C64.7349 85.62 64.3549 85.632 64.0909 85.656V88.788H64.9189C65.3189 88.788 65.6789 88.768 65.9989 88.728C66.3189 88.688 66.5869 88.612 66.8029 88.5C67.0269 88.388 67.1989 88.232 67.3189 88.032C67.4389 87.824 67.4989 87.552 67.4989 87.216C67.4989 86.904 67.4389 86.644 67.3189 86.436C67.1989 86.228 67.0349 86.064 66.8269 85.944C66.6269 85.824 66.3869 85.74 66.1069 85.692C65.8349 85.644 65.5429 85.62 65.2309 85.62Z" fill="#ADADAD"/>
<path d="M71.2089 88.836C71.2089 88.124 71.3129 87.496 71.5209 86.952C71.7369 86.408 72.0249 85.956 72.3849 85.596C72.7529 85.228 73.1769 84.952 73.6569 84.768C74.1449 84.584 74.6609 84.492 75.2049 84.492C75.7409 84.492 76.2449 84.584 76.7169 84.768C77.1969 84.952 77.6169 85.228 77.9769 85.596C78.3369 85.956 78.6209 86.408 78.8289 86.952C79.0449 87.496 79.1529 88.124 79.1529 88.836C79.1529 89.548 79.0449 90.176 78.8289 90.72C78.6209 91.264 78.3369 91.72 77.9769 92.088C77.6169 92.448 77.1969 92.72 76.7169 92.904C76.2449 93.088 75.7409 93.18 75.2049 93.18C74.6609 93.18 74.1449 93.088 73.6569 92.904C73.1769 92.72 72.7529 92.448 72.3849 92.088C72.0249 91.72 71.7369 91.264 71.5209 90.72C71.3129 90.176 71.2089 89.548 71.2089 88.836ZM72.4329 88.836C72.4329 89.34 72.4969 89.8 72.6249 90.216C72.7529 90.624 72.9329 90.972 73.1649 91.26C73.4049 91.548 73.6929 91.772 74.0289 91.932C74.3729 92.084 74.7569 92.16 75.1809 92.16C75.6049 92.16 75.9849 92.084 76.3209 91.932C76.6569 91.772 76.9409 91.548 77.1729 91.26C77.4129 90.972 77.5969 90.624 77.7249 90.216C77.8529 89.8 77.9169 89.34 77.9169 88.836C77.9169 88.332 77.8529 87.876 77.7249 87.468C77.5969 87.052 77.4129 86.7 77.1729 86.412C76.9409 86.124 76.6569 85.904 76.3209 85.752C75.9849 85.592 75.6049 85.512 75.1809 85.512C74.7569 85.512 74.3729 85.592 74.0289 85.752C73.6929 85.904 73.4049 86.124 73.1649 86.412C72.9329 86.7 72.7529 87.052 72.6249 87.468C72.4969 87.876 72.4329 88.332 72.4329 88.836Z" fill="#ADADAD"/>
<path d="M85.7761 90.324C85.7761 90.724 85.7321 91.096 85.6441 91.44C85.5641 91.784 85.4161 92.088 85.2001 92.352C84.9921 92.608 84.7081 92.812 84.3481 92.964C83.9961 93.108 83.5521 93.18 83.0161 93.18C82.7441 93.18 82.492 93.156 82.26 93.108C82.036 93.068 81.8321 93.016 81.6481 92.952C81.4641 92.88 81.3041 92.808 81.1681 92.736C81.0321 92.656 80.9241 92.58 80.8441 92.508L81.3001 91.584C81.4681 91.704 81.6841 91.832 81.9481 91.968C82.2201 92.096 82.5561 92.16 82.9561 92.16C83.5321 92.16 83.9521 92.016 84.2161 91.728C84.4801 91.432 84.6121 90.928 84.6121 90.216V84.684H85.7761V90.324Z" fill="#ADADAD"/>
<path d="M88.98 93V84.684H94.056V85.68H90.144V88.152H93.624V89.124H90.144V92.004H94.356V93H88.98Z" fill="#ADADAD"/>
<path d="M102.04 91.992V93H97.0355V84.684H98.1995V91.992H102.04Z" fill="#ADADAD"/>
<path d="M104.458 93V84.684H109.534V85.68H105.622V88.152H109.102V89.124H105.622V92.004H109.834V93H104.458Z" fill="#ADADAD"/>
<path d="M116.582 89.52C116.71 89.68 116.87 89.892 117.062 90.156C117.262 90.412 117.466 90.7 117.674 91.02C117.882 91.332 118.086 91.66 118.286 92.004C118.494 92.348 118.67 92.68 118.814 93H117.542C117.382 92.696 117.206 92.388 117.014 92.076C116.83 91.764 116.642 91.468 116.45 91.188C116.258 90.9 116.066 90.632 115.874 90.384C115.69 90.136 115.522 89.92 115.37 89.736C115.266 89.744 115.158 89.748 115.046 89.748C114.942 89.748 114.834 89.748 114.722 89.748H113.678V93H112.514V84.804C112.842 84.724 113.206 84.672 113.606 84.648C114.014 84.616 114.386 84.6 114.722 84.6C115.89 84.6 116.778 84.82 117.386 85.26C118.002 85.7 118.31 86.356 118.31 87.228C118.31 87.78 118.162 88.252 117.866 88.644C117.578 89.036 117.15 89.328 116.582 89.52ZM114.818 85.62C114.322 85.62 113.942 85.632 113.678 85.656V88.788H114.506C114.906 88.788 115.266 88.768 115.586 88.728C115.906 88.688 116.174 88.612 116.39 88.5C116.614 88.388 116.786 88.232 116.906 88.032C117.026 87.824 117.086 87.552 117.086 87.216C117.086 86.904 117.026 86.644 116.906 86.436C116.786 86.228 116.622 86.064 116.414 85.944C116.214 85.824 115.974 85.74 115.694 85.692C115.422 85.644 115.13 85.62 114.818 85.62Z" fill="#ADADAD"/>
<path d="M121.261 84.684H122.425V93H121.261V84.684Z" fill="#ADADAD"/>
<path d="M129.415 91.848C129.335 91.656 129.227 91.412 129.091 91.116C128.963 90.82 128.823 90.5 128.671 90.156C128.519 89.812 128.355 89.46 128.179 89.1C128.011 88.732 127.851 88.388 127.699 88.068C127.547 87.74 127.403 87.448 127.267 87.192C127.139 86.936 127.035 86.74 126.955 86.604C126.867 87.548 126.795 88.572 126.739 89.676C126.683 90.772 126.635 91.88 126.595 93H125.455C125.487 92.28 125.523 91.556 125.563 90.828C125.603 90.092 125.647 89.372 125.695 88.668C125.751 87.956 125.807 87.264 125.863 86.592C125.927 85.92 125.995 85.284 126.067 84.684H127.087C127.303 85.036 127.535 85.452 127.783 85.932C128.031 86.412 128.279 86.916 128.527 87.444C128.775 87.964 129.015 88.488 129.247 89.016C129.479 89.536 129.691 90.012 129.883 90.444C130.075 90.012 130.287 89.536 130.519 89.016C130.751 88.488 130.991 87.964 131.239 87.444C131.487 86.916 131.735 86.412 131.983 85.932C132.231 85.452 132.463 85.036 132.679 84.684H133.699C133.971 87.364 134.175 90.136 134.311 93H133.171C133.131 91.88 133.083 90.772 133.027 89.676C132.971 88.572 132.899 87.548 132.811 86.604C132.731 86.74 132.623 86.936 132.487 87.192C132.359 87.448 132.219 87.74 132.067 88.068C131.915 88.388 131.751 88.732 131.575 89.1C131.407 89.46 131.247 89.812 131.095 90.156C130.943 90.5 130.799 90.82 130.663 91.116C130.535 91.412 130.431 91.656 130.351 91.848H129.415Z" fill="#ADADAD"/>
<path d="M137.336 84.684H138.5V93H137.336V84.684Z" fill="#ADADAD"/>
<path d="M147.039 85.608C146.855 85.816 146.639 86.068 146.391 86.364C146.151 86.652 145.895 86.976 145.623 87.336C145.351 87.688 145.071 88.064 144.783 88.464C144.495 88.856 144.211 89.256 143.931 89.664C143.659 90.064 143.399 90.464 143.151 90.864C142.903 91.264 142.679 91.644 142.479 92.004H147.159V93H141.123V92.22C141.291 91.9 141.487 91.548 141.711 91.164C141.943 90.78 142.187 90.388 142.443 89.988C142.707 89.588 142.979 89.184 143.259 88.776C143.539 88.368 143.815 87.976 144.087 87.6C144.367 87.224 144.635 86.872 144.891 86.544C145.155 86.216 145.395 85.928 145.611 85.68H141.339V84.684H147.039V85.608Z" fill="#ADADAD"/>
<path d="M55.5347 108.684H56.6987V117H55.5347V113.16H51.4667V117H50.3027V108.684H51.4667V112.152H55.5347V108.684Z" fill="#ADADAD"/>
<path d="M59.9636 108.684H61.1276V117H59.9636V108.684Z" fill="#ADADAD"/>
<path d="M69.6663 109.608C69.4823 109.816 69.2663 110.068 69.0183 110.364C68.7783 110.652 68.5223 110.976 68.2503 111.336C67.9783 111.688 67.6983 112.064 67.4103 112.464C67.1223 112.856 66.8383 113.256 66.5583 113.664C66.2863 114.064 66.0263 114.464 65.7783 114.864C65.5303 115.264 65.3063 115.644 65.1063 116.004H69.7863V117H63.7503V116.22C63.9183 115.9 64.1143 115.548 64.3383 115.164C64.5703 114.78 64.8143 114.388 65.0703 113.988C65.3343 113.588 65.6063 113.184 65.8863 112.776C66.1663 112.368 66.4423 111.976 66.7143 111.6C66.9943 111.224 67.2623 110.872 67.5183 110.544C67.7823 110.216 68.0223 109.928 68.2383 109.68H63.9663V108.684H69.6663V109.608Z" fill="#ADADAD"/>
<path d="M76.1972 115.848C76.1172 115.656 76.0092 115.412 75.8732 115.116C75.7452 114.82 75.6052 114.5 75.4532 114.156C75.3012 113.812 75.1372 113.46 74.9612 113.1C74.7932 112.732 74.6332 112.388 74.4812 112.068C74.3292 111.74 74.1852 111.448 74.0492 111.192C73.9212 110.936 73.8172 110.74 73.7372 110.604C73.6492 111.548 73.5772 112.572 73.5212 113.676C73.4652 114.772 73.4172 115.88 73.3772 117H72.2372C72.2692 116.28 72.3052 115.556 72.3452 114.828C72.3852 114.092 72.4292 113.372 72.4772 112.668C72.5332 111.956 72.5892 111.264 72.6452 110.592C72.7092 109.92 72.7772 109.284 72.8492 108.684H73.8692C74.0852 109.036 74.3172 109.452 74.5652 109.932C74.8132 110.412 75.0612 110.916 75.3092 111.444C75.5572 111.964 75.7972 112.488 76.0292 113.016C76.2612 113.536 76.4732 114.012 76.6652 114.444C76.8572 114.012 77.0692 113.536 77.3012 113.016C77.5332 112.488 77.7732 111.964 78.0212 111.444C78.2692 110.916 78.5172 110.412 78.7652 109.932C79.0132 109.452 79.2452 109.036 79.4612 108.684H80.4812C80.7532 111.364 80.9572 114.136 81.0932 117H79.9532C79.9132 115.88 79.8652 114.772 79.8092 113.676C79.7532 112.572 79.6812 111.548 79.5932 110.604C79.5132 110.74 79.4052 110.936 79.2692 111.192C79.1412 111.448 79.0012 111.74 78.8492 112.068C78.6972 112.388 78.5332 112.732 78.3572 113.1C78.1892 113.46 78.0292 113.812 77.8772 114.156C77.7252 114.5 77.5812 114.82 77.4452 115.116C77.3172 115.412 77.2132 115.656 77.1332 115.848H76.1972Z" fill="#ADADAD"/>
<path d="M84.1183 117V108.684H89.1943V109.68H85.2823V112.152H88.7623V113.124H85.2823V116.004H89.4943V117H84.1183Z" fill="#ADADAD"/>
<path d="M97.7298 108.684V109.692H95.1138V117H93.9498V109.692H91.3338V108.684H97.7298Z" fill="#ADADAD"/>
<path d="M105.163 115.992V117H100.159V108.684H101.323V115.992H105.163Z" fill="#ADADAD"/>
<path d="M107.582 117V108.684H112.658V109.68H108.746V112.152H112.226V113.124H108.746V116.004H112.958V117H107.582Z" fill="#ADADAD"/>
<path d="M119.705 113.52C119.833 113.68 119.993 113.892 120.185 114.156C120.385 114.412 120.589 114.7 120.797 115.02C121.005 115.332 121.209 115.66 121.409 116.004C121.617 116.348 121.793 116.68 121.937 117H120.665C120.505 116.696 120.329 116.388 120.137 116.076C119.953 115.764 119.765 115.468 119.573 115.188C119.381 114.9 119.189 114.632 118.997 114.384C118.813 114.136 118.645 113.92 118.493 113.736C118.389 113.744 118.281 113.748 118.169 113.748C118.065 113.748 117.957 113.748 117.845 113.748H116.801V117H115.637V108.804C115.965 108.724 116.329 108.672 116.729 108.648C117.137 108.616 117.509 108.6 117.845 108.6C119.013 108.6 119.901 108.82 120.509 109.26C121.125 109.7 121.433 110.356 121.433 111.228C121.433 111.78 121.285 112.252 120.989 112.644C120.701 113.036 120.273 113.328 119.705 113.52ZM117.941 109.62C117.445 109.62 117.065 109.632 116.801 109.656V112.788H117.629C118.029 112.788 118.389 112.768 118.709 112.728C119.029 112.688 119.297 112.612 119.513 112.5C119.737 112.388 119.909 112.232 120.029 112.032C120.149 111.824 120.209 111.552 120.209 111.216C120.209 110.904 120.149 110.644 120.029 110.436C119.909 110.228 119.745 110.064 119.537 109.944C119.337 109.824 119.097 109.74 118.817 109.692C118.545 109.644 118.253 109.62 117.941 109.62Z" fill="#ADADAD"/>
<path d="M124.384 108.684H125.548V117H124.384V108.684Z" fill="#ADADAD"/>
<path d="M132.539 115.848C132.459 115.656 132.351 115.412 132.215 115.116C132.087 114.82 131.947 114.5 131.795 114.156C131.643 113.812 131.479 113.46 131.303 113.1C131.135 112.732 130.975 112.388 130.823 112.068C130.671 111.74 130.527 111.448 130.391 111.192C130.263 110.936 130.159 110.74 130.079 110.604C129.991 111.548 129.919 112.572 129.863 113.676C129.807 114.772 129.759 115.88 129.719 117H128.579C128.611 116.28 128.647 115.556 128.687 114.828C128.727 114.092 128.771 113.372 128.819 112.668C128.875 111.956 128.931 111.264 128.987 110.592C129.051 109.92 129.119 109.284 129.191 108.684H130.211C130.427 109.036 130.659 109.452 130.907 109.932C131.155 110.412 131.403 110.916 131.651 111.444C131.899 111.964 132.139 112.488 132.371 113.016C132.603 113.536 132.815 114.012 133.007 114.444C133.199 114.012 133.411 113.536 133.643 113.016C133.875 112.488 134.115 111.964 134.363 111.444C134.611 110.916 134.859 110.412 135.107 109.932C135.355 109.452 135.587 109.036 135.803 108.684H136.823C137.095 111.364 137.299 114.136 137.435 117H136.295C136.255 115.88 136.207 114.772 136.151 113.676C136.095 112.572 136.023 111.548 135.935 110.604C135.855 110.74 135.747 110.936 135.611 111.192C135.483 111.448 135.343 111.74 135.191 112.068C135.039 112.388 134.875 112.732 134.699 113.1C134.531 113.46 134.371 113.812 134.219 114.156C134.067 114.5 133.923 114.82 133.787 115.116C133.659 115.412 133.555 115.656 133.475 115.848H132.539Z" fill="#ADADAD"/>
<path d="M140.46 108.684H141.624V117H140.46V108.684Z" fill="#ADADAD"/>
<path d="M150.162 109.608C149.978 109.816 149.762 110.068 149.514 110.364C149.274 110.652 149.018 110.976 148.746 111.336C148.474 111.688 148.194 112.064 147.906 112.464C147.618 112.856 147.334 113.256 147.054 113.664C146.782 114.064 146.522 114.464 146.274 114.864C146.026 115.264 145.802 115.644 145.602 116.004H150.282V117H144.246V116.22C144.414 115.9 144.61 115.548 144.834 115.164C145.066 114.78 145.31 114.388 145.566 113.988C145.83 113.588 146.102 113.184 146.382 112.776C146.662 112.368 146.938 111.976 147.21 111.6C147.49 111.224 147.758 110.872 148.014 110.544C148.278 110.216 148.518 109.928 148.734 109.68H144.462V108.684H150.162V109.608Z" fill="#ADADAD"/>
<path d="M65.5749 132.684H66.7389V141H65.5749V137.16H61.5069V141H60.3429V132.684H61.5069V136.152H65.5749V132.684Z" fill="#ADADAD"/>
<path d="M75.5599 141C75.4239 140.64 75.2959 140.288 75.1759 139.944C75.0559 139.592 74.9319 139.236 74.8039 138.876H71.0359L70.2799 141H69.0679C69.3879 140.12 69.6879 139.308 69.9679 138.564C70.2479 137.812 70.5199 137.1 70.7839 136.428C71.0559 135.756 71.3239 135.116 71.5879 134.508C71.8519 133.892 72.1279 133.284 72.4159 132.684H73.4839C73.7719 133.284 74.0479 133.892 74.3119 134.508C74.5759 135.116 74.8399 135.756 75.1039 136.428C75.3759 137.1 75.6519 137.812 75.9319 138.564C76.2119 139.308 76.5119 140.12 76.8319 141H75.5599ZM74.4679 137.916C74.2119 137.22 73.9559 136.548 73.6999 135.9C73.4519 135.244 73.1919 134.616 72.9199 134.016C72.6399 134.616 72.3719 135.244 72.1159 135.9C71.8679 136.548 71.6199 137.22 71.3719 137.916H74.4679Z" fill="#ADADAD"/>
<path d="M85.3169 132.684C85.0689 132.956 84.7889 133.26 84.4769 133.596C84.1649 133.924 83.8369 134.264 83.4929 134.616C83.1569 134.96 82.8209 135.3 82.4849 135.636C82.1489 135.972 81.8329 136.284 81.5369 136.572C81.8809 136.812 82.2449 137.108 82.6289 137.46C83.0129 137.812 83.3889 138.188 83.7569 138.588C84.1249 138.988 84.4689 139.396 84.7889 139.812C85.1169 140.228 85.3889 140.624 85.6049 141H84.2369C83.9969 140.624 83.7209 140.248 83.4089 139.872C83.0969 139.488 82.7649 139.124 82.4129 138.78C82.0689 138.428 81.7169 138.104 81.3569 137.808C81.0049 137.512 80.6609 137.26 80.3249 137.052V141H79.1609V132.684H80.3249V136.356C80.6049 136.092 80.9129 135.796 81.2489 135.468C81.5849 135.132 81.9169 134.796 82.2449 134.46C82.5729 134.124 82.8809 133.804 83.1689 133.5C83.4649 133.188 83.7129 132.916 83.9129 132.684H85.3169Z" fill="#ADADAD"/>
<path d="M94.0638 132.684C93.8158 132.956 93.5358 133.26 93.2238 133.596C92.9118 133.924 92.5838 134.264 92.2398 134.616C91.9038 134.96 91.5678 135.3 91.2318 135.636C90.8958 135.972 90.5798 136.284 90.2838 136.572C90.6278 136.812 90.9918 137.108 91.3758 137.46C91.7598 137.812 92.1358 138.188 92.5038 138.588C92.8718 138.988 93.2158 139.396 93.5358 139.812C93.8638 140.228 94.1358 140.624 94.3518 141H92.9838C92.7438 140.624 92.4678 140.248 92.1558 139.872C91.8438 139.488 91.5118 139.124 91.1598 138.78C90.8158 138.428 90.4638 138.104 90.1038 137.808C89.7518 137.512 89.4078 137.26 89.0718 137.052V141H87.9078V132.684H89.0718V136.356C89.3518 136.092 89.6598 135.796 89.9958 135.468C90.3318 135.132 90.6638 134.796 90.9918 134.46C91.3198 134.124 91.6278 133.804 91.9158 133.5C92.2118 133.188 92.4598 132.916 92.6598 132.684H94.0638Z" fill="#ADADAD"/>
<path d="M96.6547 132.684H97.8187V141H96.6547V132.684Z" fill="#ADADAD"/>
<path d="M104.809 139.848C104.729 139.656 104.621 139.412 104.485 139.116C104.357 138.82 104.217 138.5 104.065 138.156C103.913 137.812 103.749 137.46 103.573 137.1C103.405 136.732 103.245 136.388 103.093 136.068C102.941 135.74 102.797 135.448 102.661 135.192C102.533 134.936 102.429 134.74 102.349 134.604C102.261 135.548 102.189 136.572 102.133 137.676C102.077 138.772 102.029 139.88 101.989 141H100.849C100.881 140.28 100.917 139.556 100.957 138.828C100.997 138.092 101.041 137.372 101.089 136.668C101.145 135.956 101.201 135.264 101.257 134.592C101.321 133.92 101.389 133.284 101.461 132.684H102.481C102.697 133.036 102.929 133.452 103.177 133.932C103.425 134.412 103.673 134.916 103.921 135.444C104.169 135.964 104.409 136.488 104.641 137.016C104.873 137.536 105.085 138.012 105.277 138.444C105.469 138.012 105.681 137.536 105.913 137.016C106.145 136.488 106.385 135.964 106.633 135.444C106.881 134.916 107.129 134.412 107.377 133.932C107.625 133.452 107.857 133.036 108.073 132.684H109.093C109.365 135.364 109.569 138.136 109.705 141H108.565C108.525 139.88 108.477 138.772 108.421 137.676C108.365 136.572 108.293 135.548 108.205 134.604C108.125 134.74 108.017 134.936 107.881 135.192C107.753 135.448 107.613 135.74 107.461 136.068C107.309 136.388 107.145 136.732 106.969 137.1C106.801 137.46 106.641 137.812 106.489 138.156C106.337 138.5 106.193 138.82 106.057 139.116C105.929 139.412 105.825 139.656 105.745 139.848H104.809Z" fill="#ADADAD"/>
<path d="M112.73 132.684H113.894V141H112.73V132.684Z" fill="#ADADAD"/>
<path d="M122.433 133.608C122.249 133.816 122.033 134.068 121.785 134.364C121.545 134.652 121.289 134.976 121.017 135.336C120.745 135.688 120.465 136.064 120.177 136.464C119.889 136.856 119.605 137.256 119.325 137.664C119.053 138.064 118.793 138.464 118.545 138.864C118.297 139.264 118.073 139.644 117.873 140.004H122.553V141H116.517V140.22C116.685 139.9 116.881 139.548 117.105 139.164C117.337 138.78 117.581 138.388 117.837 137.988C118.101 137.588 118.373 137.184 118.653 136.776C118.933 136.368 119.209 135.976 119.481 135.6C119.761 135.224 120.029 134.872 120.285 134.544C120.549 134.216 120.789 133.928 121.005 133.68H116.733V132.684H122.433V133.608Z" fill="#ADADAD"/>
<path d="M132.06 136.836C132.06 137.556 131.948 138.184 131.724 138.72C131.5 139.248 131.184 139.688 130.776 140.04C130.368 140.384 129.88 140.644 129.312 140.82C128.744 140.988 128.12 141.072 127.44 141.072C127.104 141.072 126.732 141.056 126.324 141.024C125.924 141 125.56 140.948 125.232 140.868V132.804C125.56 132.724 125.924 132.672 126.324 132.648C126.732 132.616 127.104 132.6 127.44 132.6C128.12 132.6 128.744 132.688 129.312 132.864C129.88 133.032 130.368 133.292 130.776 133.644C131.184 133.988 131.5 134.428 131.724 134.964C131.948 135.492 132.06 136.116 132.06 136.836ZM127.536 140.052C128.64 140.052 129.464 139.772 130.008 139.212C130.552 138.644 130.824 137.852 130.824 136.836C130.824 135.82 130.552 135.032 130.008 134.472C129.464 133.904 128.64 133.62 127.536 133.62C127.208 133.62 126.952 133.624 126.768 133.632C126.592 133.64 126.468 133.648 126.396 133.656V140.016C126.468 140.024 126.592 140.032 126.768 140.04C126.952 140.048 127.208 140.052 127.536 140.052Z" fill="#ADADAD"/>
<path d="M140.32 141C140.184 140.64 140.056 140.288 139.936 139.944C139.816 139.592 139.692 139.236 139.564 138.876H135.796L135.04 141H133.828C134.148 140.12 134.448 139.308 134.728 138.564C135.008 137.812 135.28 137.1 135.544 136.428C135.816 135.756 136.084 135.116 136.348 134.508C136.612 133.892 136.888 133.284 137.176 132.684H138.244C138.532 133.284 138.808 133.892 139.072 134.508C139.336 135.116 139.6 135.756 139.864 136.428C140.136 137.1 140.412 137.812 140.692 138.564C140.972 139.308 141.272 140.12 141.592 141H140.32ZM139.228 137.916C138.972 137.22 138.716 136.548 138.46 135.9C138.212 135.244 137.952 134.616 137.68 134.016C137.4 134.616 137.132 135.244 136.876 135.9C136.628 136.548 136.38 137.22 136.132 137.916H139.228Z" fill="#ADADAD"/>
<path d="M74.1465 156.684H75.3105V165H74.1465V156.684Z" fill="#ADADAD"/>
<path d="M83.5731 163.992V165H78.5691V156.684H79.7331V163.992H83.5731Z" fill="#ADADAD"/>
<path d="M85.9918 165V156.684H91.0678V157.68H87.1558V160.152H90.6358V161.124H87.1558V164.004H91.3678V165H85.9918Z" fill="#ADADAD"/>
<path d="M99.6032 156.684V157.692H96.9872V165H95.8232V157.692H93.2072V156.684H99.6032Z" fill="#ADADAD"/>
<path d="M102.032 156.684H103.196V165H102.032V156.684Z" fill="#ADADAD"/>
<path d="M108.387 164.172C109.603 164.172 110.211 163.756 110.211 162.924C110.211 162.668 110.155 162.452 110.043 162.276C109.939 162.092 109.795 161.936 109.611 161.808C109.427 161.672 109.215 161.556 108.975 161.46C108.743 161.364 108.495 161.268 108.231 161.172C107.927 161.068 107.639 160.952 107.367 160.824C107.095 160.688 106.859 160.532 106.659 160.356C106.459 160.172 106.299 159.956 106.179 159.708C106.067 159.46 106.011 159.16 106.011 158.808C106.011 158.08 106.259 157.512 106.755 157.104C107.251 156.696 107.935 156.492 108.807 156.492C109.311 156.492 109.767 156.548 110.175 156.66C110.591 156.764 110.895 156.88 111.087 157.008L110.715 157.956C110.547 157.852 110.295 157.752 109.959 157.656C109.631 157.552 109.247 157.5 108.807 157.5C108.583 157.5 108.375 157.524 108.183 157.572C107.991 157.62 107.823 157.692 107.679 157.788C107.535 157.884 107.419 158.008 107.331 158.16C107.251 158.304 107.211 158.476 107.211 158.676C107.211 158.9 107.255 159.088 107.343 159.24C107.431 159.392 107.555 159.528 107.715 159.648C107.875 159.76 108.059 159.864 108.267 159.96C108.483 160.056 108.719 160.152 108.975 160.248C109.335 160.392 109.663 160.536 109.959 160.68C110.263 160.824 110.523 160.996 110.739 161.196C110.963 161.396 111.135 161.636 111.255 161.916C111.375 162.188 111.435 162.52 111.435 162.912C111.435 163.56 111.219 164.076 110.787 164.46C110.363 164.844 109.751 165.076 108.951 165.156L108.819 165.444C109.051 165.556 109.219 165.676 109.323 165.804C109.427 165.94 109.479 166.136 109.479 166.392C109.479 166.48 109.459 166.576 109.419 166.68C109.379 166.784 109.311 166.88 109.215 166.968C109.119 167.056 108.991 167.128 108.831 167.184C108.671 167.24 108.475 167.268 108.243 167.268C108.035 167.268 107.843 167.252 107.667 167.22C107.499 167.188 107.363 167.152 107.259 167.112L107.391 166.428C107.487 166.46 107.587 166.488 107.691 166.512C107.803 166.536 107.927 166.548 108.063 166.548C108.351 166.548 108.495 166.456 108.495 166.272C108.495 166.184 108.451 166.108 108.363 166.044C108.275 165.988 108.151 165.928 107.991 165.864L107.907 165.828C107.939 165.74 107.979 165.636 108.027 165.516C108.075 165.404 108.127 165.292 108.183 165.18C107.879 165.172 107.599 165.144 107.343 165.096C107.095 165.056 106.871 165.008 106.671 164.952C106.471 164.888 106.299 164.824 106.155 164.76C106.011 164.696 105.899 164.64 105.819 164.592L106.167 163.632C106.351 163.736 106.631 163.852 107.007 163.98C107.383 164.108 107.843 164.172 108.387 164.172Z" fill="#ADADAD"/>
<path d="M114.042 156.684H115.206V165H114.042V156.684Z" fill="#ADADAD"/>
<path d="M122.196 163.848C122.116 163.656 122.008 163.412 121.872 163.116C121.744 162.82 121.604 162.5 121.452 162.156C121.3 161.812 121.136 161.46 120.96 161.1C120.792 160.732 120.632 160.388 120.48 160.068C120.328 159.74 120.184 159.448 120.048 159.192C119.92 158.936 119.816 158.74 119.736 158.604C119.648 159.548 119.576 160.572 119.52 161.676C119.464 162.772 119.416 163.88 119.376 165H118.236C118.268 164.28 118.304 163.556 118.344 162.828C118.384 162.092 118.428 161.372 118.476 160.668C118.532 159.956 118.588 159.264 118.644 158.592C118.708 157.92 118.776 157.284 118.848 156.684H119.868C120.084 157.036 120.316 157.452 120.564 157.932C120.812 158.412 121.06 158.916 121.308 159.444C121.556 159.964 121.796 160.488 122.028 161.016C122.26 161.536 122.472 162.012 122.664 162.444C122.856 162.012 123.068 161.536 123.3 161.016C123.532 160.488 123.772 159.964 124.02 159.444C124.268 158.916 124.516 158.412 124.764 157.932C125.012 157.452 125.244 157.036 125.46 156.684H126.48C126.752 159.364 126.956 162.136 127.092 165H125.952C125.912 163.88 125.864 162.772 125.808 161.676C125.752 160.572 125.68 159.548 125.592 158.604C125.512 158.74 125.404 158.936 125.268 159.192C125.14 159.448 125 159.74 124.848 160.068C124.696 160.388 124.532 160.732 124.356 161.1C124.188 161.46 124.028 161.812 123.876 162.156C123.724 162.5 123.58 162.82 123.444 163.116C123.316 163.412 123.212 163.656 123.132 163.848H122.196Z" fill="#ADADAD"/>
<path d="M23.004 26.5V27.508H18V19.192H19.164V26.5H23.004Z" fill="#C4C4C4"/>
<path d="M23.3476 23.344C23.3476 22.632 23.4516 22.004 23.6596 21.46C23.8756 20.916 24.1636 20.464 24.5236 20.104C24.8916 19.736 25.3156 19.46 25.7956 19.276C26.2836 19.092 26.7996 19 27.3436 19C27.8796 19 28.3836 19.092 28.8556 19.276C29.3356 19.46 29.7556 19.736 30.1156 20.104C30.4756 20.464 30.7596 20.916 30.9676 21.46C31.1836 22.004 31.2916 22.632 31.2916 23.344C31.2916 24.056 31.1836 24.684 30.9676 25.228C30.7596 25.772 30.4756 26.228 30.1156 26.596C29.7556 26.956 29.3356 27.228 28.8556 27.412C28.3836 27.596 27.8796 27.688 27.3436 27.688C26.7996 27.688 26.2836 27.596 25.7956 27.412C25.3156 27.228 24.8916 26.956 24.5236 26.596C24.1636 26.228 23.8756 25.772 23.6596 25.228C23.4516 24.684 23.3476 24.056 23.3476 23.344ZM24.5716 23.344C24.5716 23.848 24.6356 24.308 24.7636 24.724C24.8916 25.132 25.0716 25.48 25.3036 25.768C25.5436 26.056 25.8316 26.28 26.1676 26.44C26.5116 26.592 26.8956 26.668 27.3196 26.668C27.7436 26.668 28.1236 26.592 28.4596 26.44C28.7956 26.28 29.0796 26.056 29.3116 25.768C29.5516 25.48 29.7356 25.132 29.8636 24.724C29.9916 24.308 30.0556 23.848 30.0556 23.344C30.0556 22.84 29.9916 22.384 29.8636 21.976C29.7356 21.56 29.5516 21.208 29.3116 20.92C29.0796 20.632 28.7956 20.412 28.4596 20.26C28.1236 20.1 27.7436 20.02 27.3196 20.02C26.8956 20.02 26.5116 20.1 26.1676 20.26C25.8316 20.412 25.5436 20.632 25.3036 20.92C25.0716 21.208 24.8916 21.56 24.7636 21.976C24.6356 22.384 24.5716 22.84 24.5716 23.344Z" fill="#C4C4C4"/>
<path d="M38.0994 23.416H39.2634V27.304C39.1674 27.336 39.0274 27.372 38.8434 27.412C38.6674 27.452 38.4594 27.492 38.2194 27.532C37.9874 27.572 37.7314 27.604 37.4514 27.628C37.1714 27.66 36.8874 27.676 36.5994 27.676C36.0154 27.676 35.4834 27.58 35.0034 27.388C34.5234 27.196 34.1114 26.916 33.7674 26.548C33.4234 26.18 33.1554 25.728 32.9634 25.192C32.7794 24.656 32.6874 24.04 32.6874 23.344C32.6874 22.648 32.7914 22.032 32.9994 21.496C33.2154 20.952 33.5034 20.496 33.8634 20.128C34.2234 19.76 34.6434 19.48 35.1234 19.288C35.6114 19.096 36.1314 19 36.6834 19C37.0594 19 37.3914 19.024 37.6794 19.072C37.9754 19.12 38.2274 19.176 38.4354 19.24C38.6434 19.304 38.8114 19.368 38.9394 19.432C39.0754 19.496 39.1674 19.544 39.2154 19.576L38.8434 20.548C38.6114 20.396 38.3034 20.272 37.9194 20.176C37.5354 20.072 37.1434 20.02 36.7434 20.02C36.3194 20.02 35.9314 20.096 35.5794 20.248C35.2354 20.4 34.9394 20.62 34.6914 20.908C34.4514 21.196 34.2634 21.548 34.1274 21.964C33.9914 22.372 33.9234 22.832 33.9234 23.344C33.9234 23.84 33.9794 24.292 34.0914 24.7C34.2114 25.108 34.3874 25.46 34.6194 25.756C34.8594 26.044 35.1514 26.268 35.4954 26.428C35.8474 26.588 36.2594 26.668 36.7314 26.668C37.0674 26.668 37.3514 26.652 37.5834 26.62C37.8234 26.58 37.9954 26.544 38.0994 26.512V23.416Z" fill="#C4C4C4"/>
<path d="M40.7499 23.344C40.7499 22.632 40.8539 22.004 41.0619 21.46C41.2779 20.916 41.5659 20.464 41.9259 20.104C42.2939 19.736 42.7179 19.46 43.1979 19.276C43.6859 19.092 44.2019 19 44.7459 19C45.2819 19 45.7859 19.092 46.2579 19.276C46.7379 19.46 47.1579 19.736 47.5179 20.104C47.8779 20.464 48.1619 20.916 48.3699 21.46C48.5859 22.004 48.6939 22.632 48.6939 23.344C48.6939 24.056 48.5859 24.684 48.3699 25.228C48.1619 25.772 47.8779 26.228 47.5179 26.596C47.1579 26.956 46.7379 27.228 46.2579 27.412C45.7859 27.596 45.2819 27.688 44.7459 27.688C44.2019 27.688 43.6859 27.596 43.1979 27.412C42.7179 27.228 42.2939 26.956 41.9259 26.596C41.5659 26.228 41.2779 25.772 41.0619 25.228C40.8539 24.684 40.7499 24.056 40.7499 23.344ZM41.9739 23.344C41.9739 23.848 42.0379 24.308 42.1659 24.724C42.2939 25.132 42.4739 25.48 42.7059 25.768C42.9459 26.056 43.2339 26.28 43.5699 26.44C43.9139 26.592 44.2979 26.668 44.7219 26.668C45.1459 26.668 45.5259 26.592 45.8619 26.44C46.1979 26.28 46.4819 26.056 46.7139 25.768C46.9539 25.48 47.1379 25.132 47.2659 24.724C47.3939 24.308 47.4579 23.848 47.4579 23.344C47.4579 22.84 47.3939 22.384 47.2659 21.976C47.1379 21.56 46.9539 21.208 46.7139 20.92C46.4819 20.632 46.1979 20.412 45.8619 20.26C45.5259 20.1 45.1459 20.02 44.7219 20.02C44.2979 20.02 43.9139 20.1 43.5699 20.26C43.2339 20.412 42.9459 20.632 42.7059 20.92C42.4739 21.208 42.2939 21.56 42.1659 21.976C42.0379 22.384 41.9739 22.84 41.9739 23.344Z" fill="#C4C4C4"/>
<g clip-path="url(#clip1)">
<path d="M176.099 23.0105L180.772 18.3378C181.076 18.0339 181.076 17.5425 180.772 17.2385C180.468 16.9346 179.977 16.9346 179.673 17.2385L175 21.9112L170.327 17.2385C170.023 16.9346 169.532 16.9346 169.228 17.2385C168.924 17.5425 168.924 18.0339 169.228 18.3378L173.901 23.0105L169.228 27.6832C168.924 27.9872 168.924 28.4786 169.228 28.7826C169.38 28.9342 169.579 29.0103 169.778 29.0103C169.977 29.0103 170.176 28.9342 170.327 28.7826L175 24.1098L179.673 28.7826C179.824 28.9342 180.023 29.0103 180.222 29.0103C180.421 29.0103 180.62 28.9342 180.772 28.7826C181.076 28.4786 181.076 27.9872 180.772 27.6832L176.099 23.0105Z" fill="#C4C4C4"/>
</g>
<rect x="0.5" y="0.5" width="201" height="246" stroke="#E5E5E5"/>
<defs>
<clipPath id="clip0">
<rect width="10" height="10" fill="white" transform="translate(66 183)"/>
</clipPath>
<clipPath id="clip1">
<rect width="12" height="12" fill="white" transform="translate(169 17)"/>
</clipPath>
</defs>
</svg>
