<svg width="202" height="247" viewBox="0 0 202 247" fill="none" xmlns="http://www.w3.org/2000/svg">
<rect x="0.5" y="0.5" width="201" height="246" fill="#BCCCBF"/>
<rect width="158" height="245" transform="translate(43 1)" fill="white"/>
<path fill-rule="evenodd" clip-rule="evenodd" d="M173 208H121V222H173V208ZM137 212V216.932H138.767C139.308 216.932 139.727 216.806 140.023 216.553C140.319 216.3 140.467 215.952 140.467 215.509C140.467 215.22 140.387 214.972 140.226 214.764C140.067 214.554 139.85 214.412 139.575 214.337C139.808 214.24 139.993 214.104 140.128 213.928C140.263 213.749 140.331 213.545 140.331 213.314C140.331 212.881 140.191 212.553 139.911 212.332C139.634 212.111 139.218 212 138.666 212H137ZM137.672 216.4V214.625H138.791C139.459 214.625 139.792 214.922 139.792 215.516C139.792 215.792 139.701 216.009 139.519 216.167C139.34 216.322 139.094 216.4 138.781 216.4H137.672ZM138.686 214.104H137.672V212.535H138.666C138.999 212.535 139.247 212.597 139.411 212.722C139.574 212.843 139.656 213.04 139.656 213.311C139.656 213.555 139.567 213.748 139.39 213.89C139.215 214.033 138.98 214.104 138.686 214.104ZM142.591 217C143.079 217 143.449 216.857 143.7 216.57L143.714 216.932H144.33V213.267H143.683V215.933C143.52 216.29 143.191 216.468 142.696 216.468C142.23 216.468 141.997 216.19 141.997 215.635V213.267H141.349V215.652C141.352 216.097 141.458 216.433 141.668 216.661C141.88 216.887 142.188 217 142.591 217ZM146.195 212.379V213.267H146.902V213.751H146.195V216.024C146.195 216.171 146.227 216.282 146.29 216.356C146.353 216.429 146.46 216.465 146.612 216.465C146.686 216.465 146.789 216.451 146.92 216.424V216.932C146.749 216.977 146.584 217 146.423 217C146.133 217 145.915 216.915 145.768 216.746C145.621 216.577 145.548 216.336 145.548 216.024V213.751H144.859V213.267H145.548V212.379H146.195ZM148.54 213.267V212.379H147.892V213.267H147.203V213.751H147.892V216.024C147.892 216.336 147.966 216.577 148.113 216.746C148.26 216.915 148.478 217 148.767 217C148.928 217 149.094 216.977 149.264 216.932V216.424C149.133 216.451 149.031 216.465 148.956 216.465C148.804 216.465 148.697 216.429 148.634 216.356C148.571 216.282 148.54 216.171 148.54 216.024V213.751H149.246V213.267H148.54ZM149.764 215.066C149.764 214.707 149.836 214.384 149.981 214.097C150.128 213.81 150.331 213.589 150.59 213.433C150.851 213.277 151.149 213.199 151.482 213.199C151.998 213.199 152.414 213.372 152.731 213.717C153.051 214.063 153.211 214.523 153.211 215.096V215.14C153.211 215.497 153.139 215.818 152.997 216.102C152.857 216.385 152.655 216.605 152.392 216.763C152.131 216.921 151.83 217 151.489 217C150.976 217 150.56 216.827 150.24 216.482C149.923 216.136 149.764 215.679 149.764 215.11V215.066ZM150.415 215.14C150.415 215.547 150.512 215.873 150.705 216.119C150.901 216.365 151.163 216.488 151.489 216.488C151.818 216.488 152.079 216.364 152.273 216.116C152.467 215.865 152.563 215.515 152.563 215.066C152.563 214.664 152.464 214.339 152.266 214.09C152.07 213.839 151.809 213.714 151.482 213.714C151.163 213.714 150.905 213.837 150.709 214.083C150.513 214.329 150.415 214.682 150.415 215.14ZM154.656 213.728L154.635 213.267H154.022V216.932H154.67V214.32C154.758 214.144 154.882 214.002 155.041 213.894C155.199 213.785 155.383 213.731 155.593 213.731C155.852 213.731 156.042 213.794 156.164 213.921C156.287 214.047 156.35 214.243 156.353 214.507V216.932H157V214.51C156.993 213.636 156.589 213.199 155.789 213.199C155.323 213.199 154.945 213.375 154.656 213.728Z" fill="#C4C4C4"/>
<g clip-path="url(#clip0)">
<path d="M106.607 191.04C106.537 191.053 106.507 191.086 106.516 191.138C106.524 191.19 106.563 191.207 106.633 191.19C106.702 191.173 106.733 191.142 106.724 191.099C106.715 191.051 106.676 191.032 106.607 191.04Z" fill="#C4C4C4"/>
<path d="M106.236 191.093C106.166 191.093 106.132 191.116 106.132 191.164C106.132 191.221 106.168 191.244 106.242 191.236C106.312 191.236 106.346 191.212 106.346 191.164C106.346 191.108 106.31 191.084 106.236 191.093Z" fill="#C4C4C4"/>
<path d="M105.728 191.073C105.711 191.121 105.739 191.153 105.813 191.17C105.878 191.196 105.919 191.183 105.936 191.131C105.949 191.084 105.921 191.049 105.852 191.027C105.786 191.01 105.745 191.025 105.728 191.073Z" fill="#C4C4C4"/>
<path d="M112.45 183.55C112.083 183.183 111.642 183 111.125 183H104.875C104.359 183 103.917 183.183 103.55 183.55C103.183 183.917 103 184.359 103 184.875V191.125C103 191.642 103.183 192.083 103.55 192.45C103.917 192.817 104.359 193 104.875 193H106.333C106.429 193 106.5 192.997 106.548 192.99C106.596 192.984 106.644 192.956 106.691 192.906C106.739 192.856 106.763 192.783 106.763 192.688C106.763 192.675 106.762 192.527 106.76 192.245C106.757 191.963 106.756 191.739 106.756 191.574L106.607 191.6C106.511 191.618 106.391 191.625 106.245 191.623C106.1 191.621 105.949 191.606 105.793 191.577C105.636 191.549 105.491 191.484 105.357 191.382C105.222 191.28 105.127 191.147 105.07 190.982L105.005 190.832C104.962 190.732 104.893 190.621 104.8 190.5C104.707 190.378 104.612 190.296 104.517 190.253L104.471 190.22C104.441 190.198 104.413 190.172 104.387 190.142C104.361 190.111 104.341 190.081 104.328 190.051C104.315 190.02 104.326 189.995 104.361 189.976C104.395 189.956 104.458 189.947 104.549 189.947L104.68 189.966C104.766 189.983 104.874 190.035 105.002 190.122C105.13 190.209 105.235 190.322 105.318 190.461C105.417 190.639 105.538 190.774 105.679 190.868C105.82 190.961 105.962 191.008 106.105 191.008C106.249 191.008 106.372 190.997 106.476 190.975C106.581 190.953 106.678 190.921 106.769 190.877C106.808 190.587 106.915 190.363 107.088 190.207C106.841 190.181 106.619 190.142 106.421 190.09C106.224 190.037 106.02 189.953 105.809 189.836C105.599 189.718 105.424 189.573 105.285 189.399C105.146 189.226 105.032 188.998 104.943 188.716C104.854 188.434 104.81 188.108 104.81 187.739C104.81 187.214 104.981 186.767 105.324 186.398C105.164 186.003 105.179 185.56 105.37 185.07C105.496 185.031 105.682 185.06 105.93 185.158C106.177 185.256 106.358 185.339 106.473 185.409C106.588 185.478 106.68 185.537 106.75 185.584C107.154 185.471 107.57 185.415 108 185.415C108.43 185.415 108.846 185.471 109.25 185.584L109.497 185.428C109.667 185.324 109.866 185.228 110.096 185.142C110.326 185.055 110.502 185.031 110.624 185.07C110.819 185.561 110.837 186.003 110.676 186.398C111.019 186.767 111.19 187.214 111.19 187.739C111.19 188.108 111.146 188.435 111.057 188.719C110.968 189.003 110.853 189.231 110.712 189.403C110.571 189.574 110.395 189.718 110.184 189.836C109.974 189.953 109.77 190.038 109.572 190.09C109.375 190.142 109.153 190.181 108.905 190.207C109.131 190.402 109.244 190.71 109.244 191.131V192.687C109.244 192.761 109.254 192.821 109.276 192.866C109.298 192.912 109.332 192.943 109.38 192.961C109.428 192.978 109.47 192.989 109.507 192.993C109.544 192.998 109.597 193 109.667 193H111.125C111.642 193 112.083 192.816 112.45 192.45C112.817 192.083 113 191.641 113 191.125V184.875C113 184.359 112.817 183.917 112.45 183.55Z" fill="#C4C4C4"/>
<path d="M104.979 190.279C104.949 190.3 104.953 190.335 104.992 190.383C105.036 190.426 105.07 190.433 105.096 190.402C105.127 190.381 105.122 190.346 105.083 190.298C105.04 190.259 105.005 190.253 104.979 190.279Z" fill="#C4C4C4"/>
<path d="M104.764 190.116C104.751 190.146 104.767 190.172 104.81 190.194C104.845 190.216 104.873 190.212 104.895 190.181C104.908 190.151 104.892 190.125 104.849 190.103C104.806 190.09 104.777 190.094 104.764 190.116Z" fill="#C4C4C4"/>
<path d="M105.181 190.533C105.142 190.554 105.142 190.593 105.181 190.65C105.22 190.706 105.257 190.721 105.292 190.695C105.331 190.665 105.331 190.624 105.292 190.572C105.257 190.515 105.22 190.502 105.181 190.533Z" fill="#C4C4C4"/>
<path d="M105.409 190.825C105.37 190.86 105.378 190.901 105.435 190.949C105.487 191.001 105.53 191.008 105.565 190.969C105.6 190.934 105.591 190.893 105.539 190.845C105.487 190.793 105.444 190.786 105.409 190.825Z" fill="#C4C4C4"/>
</g>
<path d="M141.535 183H134.465C133.657 183 133 183.657 133 184.465V191.535C133 192.343 133.657 193 134.465 193H137.414V189.465H136.242V187.707H137.414V186.516C137.414 185.546 138.203 184.758 139.172 184.758H140.949V186.516H139.172V187.707H140.949L140.656 189.465H139.172V193H141.535C142.343 193 143 192.343 143 191.535V184.465C143 183.657 142.343 183 141.535 183Z" fill="#C4C4C4"/>
<path d="M168.879 188C168.879 188.485 168.485 188.879 168 188.879C167.515 188.879 167.121 188.485 167.121 188C167.121 187.515 167.515 187.121 168 187.121C168.485 187.121 168.879 187.515 168.879 188Z" fill="#C4C4C4"/>
<path d="M169.484 185.344H166.516C165.869 185.344 165.344 185.869 165.344 186.516V189.484C165.344 190.131 165.869 190.656 166.516 190.656H169.484C170.131 190.656 170.656 190.131 170.656 189.484V186.516C170.656 185.869 170.131 185.344 169.484 185.344ZM168 189.465C167.192 189.465 166.535 188.808 166.535 188C166.535 187.192 167.192 186.535 168 186.535C168.808 186.535 169.465 187.192 169.465 188C169.465 188.808 168.808 189.465 168 189.465ZM169.68 186.613C169.518 186.613 169.387 186.482 169.387 186.32C169.387 186.158 169.518 186.027 169.68 186.027C169.842 186.027 169.973 186.158 169.973 186.32C169.973 186.482 169.842 186.613 169.68 186.613Z" fill="#C4C4C4"/>
<path d="M170.363 183H165.637C164.183 183 163 184.183 163 185.637V190.363C163 191.817 164.183 193 165.637 193H170.363C171.817 193 173 191.817 173 190.363V185.637C173 184.183 171.817 183 170.363 183ZM171.242 189.484C171.242 190.454 170.454 191.242 169.484 191.242H166.516C165.546 191.242 164.758 190.454 164.758 189.484V186.516C164.758 185.546 165.546 184.758 166.516 184.758H169.484C170.454 184.758 171.242 185.546 171.242 186.516V189.484Z" fill="#C4C4C4"/>
<path d="M111.938 69C111.802 68.64 111.674 68.288 111.554 67.944C111.434 67.592 111.31 67.236 111.182 66.876H107.414L106.658 69H105.446C105.766 68.12 106.066 67.308 106.346 66.564C106.626 65.812 106.898 65.1 107.162 64.428C107.434 63.756 107.702 63.116 107.966 62.508C108.23 61.892 108.506 61.284 108.794 60.684H109.862C110.15 61.284 110.426 61.892 110.69 62.508C110.954 63.116 111.218 63.756 111.482 64.428C111.754 65.1 112.03 65.812 112.31 66.564C112.59 67.308 112.89 68.12 113.21 69H111.938ZM110.846 65.916C110.59 65.22 110.334 64.548 110.078 63.9C109.83 63.244 109.57 62.616 109.298 62.016C109.018 62.616 108.75 63.244 108.494 63.9C108.246 64.548 107.998 65.22 107.75 65.916H110.846Z" fill="#ADADAD"/>
<path d="M121.239 69C121.063 68.704 120.859 68.372 120.627 68.004C120.403 67.636 120.159 67.256 119.895 66.864C119.631 66.464 119.355 66.06 119.067 65.652C118.787 65.244 118.507 64.852 118.227 64.476C117.947 64.092 117.675 63.732 117.411 63.396C117.147 63.06 116.903 62.764 116.679 62.508V69H115.539V60.684H116.463C116.839 61.084 117.239 61.552 117.663 62.088C118.095 62.616 118.519 63.164 118.935 63.732C119.359 64.292 119.755 64.844 120.123 65.388C120.499 65.932 120.815 66.416 121.071 66.84V60.684H122.211V69H121.239Z" fill="#ADADAD"/>
<path d="M131.025 69C130.889 68.64 130.761 68.288 130.641 67.944C130.521 67.592 130.397 67.236 130.269 66.876H126.501L125.745 69H124.533C124.853 68.12 125.153 67.308 125.433 66.564C125.713 65.812 125.985 65.1 126.249 64.428C126.521 63.756 126.789 63.116 127.053 62.508C127.317 61.892 127.593 61.284 127.881 60.684H128.949C129.237 61.284 129.513 61.892 129.777 62.508C130.041 63.116 130.305 63.756 130.569 64.428C130.841 65.1 131.117 65.812 131.397 66.564C131.677 67.308 131.977 68.12 132.297 69H131.025ZM129.933 65.916C129.677 65.22 129.421 64.548 129.165 63.9C128.917 63.244 128.657 62.616 128.385 62.016C128.105 62.616 127.837 63.244 127.581 63.9C127.333 64.548 127.085 65.22 126.837 65.916H129.933Z" fill="#ADADAD"/>
<path d="M136.746 68.172C137.962 68.172 138.57 67.756 138.57 66.924C138.57 66.668 138.514 66.452 138.402 66.276C138.298 66.092 138.154 65.936 137.97 65.808C137.786 65.672 137.574 65.556 137.334 65.46C137.102 65.364 136.854 65.268 136.59 65.172C136.286 65.068 135.998 64.952 135.726 64.824C135.454 64.688 135.218 64.532 135.018 64.356C134.818 64.172 134.658 63.956 134.538 63.708C134.426 63.46 134.37 63.16 134.37 62.808C134.37 62.08 134.618 61.512 135.114 61.104C135.61 60.696 136.294 60.492 137.166 60.492C137.67 60.492 138.126 60.548 138.534 60.66C138.95 60.764 139.254 60.88 139.446 61.008L139.074 61.956C138.906 61.852 138.654 61.752 138.318 61.656C137.99 61.552 137.606 61.5 137.166 61.5C136.942 61.5 136.734 61.524 136.542 61.572C136.35 61.62 136.182 61.692 136.038 61.788C135.894 61.884 135.778 62.008 135.69 62.16C135.61 62.304 135.57 62.476 135.57 62.676C135.57 62.9 135.614 63.088 135.702 63.24C135.79 63.392 135.914 63.528 136.074 63.648C136.234 63.76 136.418 63.864 136.626 63.96C136.842 64.056 137.078 64.152 137.334 64.248C137.694 64.392 138.022 64.536 138.318 64.68C138.622 64.824 138.882 64.996 139.098 65.196C139.322 65.396 139.494 65.636 139.614 65.916C139.734 66.188 139.794 66.52 139.794 66.912C139.794 67.64 139.526 68.2 138.99 68.592C138.462 68.984 137.714 69.18 136.746 69.18C136.418 69.18 136.114 69.156 135.834 69.108C135.562 69.068 135.318 69.02 135.102 68.964C134.886 68.9 134.698 68.836 134.538 68.772C134.386 68.7 134.266 68.64 134.178 68.592L134.526 67.632C134.71 67.736 134.99 67.852 135.366 67.98C135.742 68.108 136.202 68.172 136.746 68.172Z" fill="#ADADAD"/>
<path d="M147.957 69C147.821 68.64 147.693 68.288 147.573 67.944C147.453 67.592 147.329 67.236 147.201 66.876H143.433L142.677 69H141.465C141.785 68.12 142.085 67.308 142.365 66.564C142.645 65.812 142.917 65.1 143.181 64.428C143.453 63.756 143.721 63.116 143.985 62.508C144.249 61.892 144.525 61.284 144.813 60.684H145.881C146.169 61.284 146.445 61.892 146.709 62.508C146.973 63.116 147.237 63.756 147.501 64.428C147.773 65.1 148.049 65.812 148.329 66.564C148.609 67.308 148.909 68.12 149.229 69H147.957ZM146.865 65.916C146.609 65.22 146.353 64.548 146.097 63.9C145.849 63.244 145.589 62.616 145.317 62.016C145.037 62.616 144.769 63.244 144.513 63.9C144.265 64.548 144.017 65.22 143.769 65.916H146.865Z" fill="#ADADAD"/>
<path d="M152.589 69V65.664C152.037 64.808 151.517 63.964 151.029 63.132C150.541 62.3 150.081 61.484 149.649 60.684H151.017C151.321 61.34 151.661 62.008 152.037 62.688C152.413 63.36 152.801 64.008 153.201 64.632C153.593 64.008 153.977 63.36 154.353 62.688C154.729 62.008 155.073 61.34 155.385 60.684H156.681C156.249 61.484 155.789 62.3 155.301 63.132C154.813 63.956 154.297 64.792 153.753 65.64V69H152.589Z" fill="#ADADAD"/>
<path d="M158.98 69V60.684H163.996V61.68H160.144V64.188H163.564V65.172H160.144V69H158.98Z" fill="#ADADAD"/>
<path d="M171.631 69C171.495 68.64 171.367 68.288 171.247 67.944C171.127 67.592 171.003 67.236 170.875 66.876H167.107L166.351 69H165.139C165.459 68.12 165.759 67.308 166.039 66.564C166.319 65.812 166.591 65.1 166.855 64.428C167.127 63.756 167.395 63.116 167.659 62.508C167.923 61.892 168.199 61.284 168.487 60.684H169.555C169.843 61.284 170.119 61.892 170.383 62.508C170.647 63.116 170.911 63.756 171.175 64.428C171.447 65.1 171.723 65.812 172.003 66.564C172.283 67.308 172.583 68.12 172.903 69H171.631ZM170.539 65.916C170.283 65.22 170.027 64.548 169.771 63.9C169.523 63.244 169.263 62.616 168.991 62.016C168.711 62.616 168.443 63.244 168.187 63.9C167.939 64.548 167.691 65.22 167.443 65.916H170.539Z" fill="#ADADAD"/>
<path d="M105.35 70.944H172.999V71.892H105.35V70.944Z" fill="#ADADAD"/>
<path d="M82.0283 84.6C83.1963 84.6 84.0923 84.824 84.7163 85.272C85.3483 85.712 85.6643 86.372 85.6643 87.252C85.6643 87.732 85.5763 88.144 85.4003 88.488C85.2323 88.824 84.9843 89.1 84.6563 89.316C84.3363 89.524 83.9443 89.676 83.4803 89.772C83.0163 89.868 82.4923 89.916 81.9083 89.916H80.9843V93H79.8203V84.804C80.1483 84.724 80.5123 84.672 80.9123 84.648C81.3203 84.616 81.6923 84.6 82.0283 84.6ZM82.1243 85.62C81.6283 85.62 81.2483 85.632 80.9843 85.656V88.92H81.8603C82.2603 88.92 82.6203 88.896 82.9403 88.848C83.2603 88.792 83.5283 88.704 83.7443 88.584C83.9683 88.456 84.1403 88.284 84.2603 88.068C84.3803 87.852 84.4403 87.576 84.4403 87.24C84.4403 86.92 84.3763 86.656 84.2483 86.448C84.1283 86.24 83.9603 86.076 83.7443 85.956C83.5363 85.828 83.2923 85.74 83.0123 85.692C82.7323 85.644 82.4363 85.62 82.1243 85.62Z" fill="#ADADAD"/>
<path d="M92.3891 89.52C92.5171 89.68 92.6771 89.892 92.8691 90.156C93.0691 90.412 93.2731 90.7 93.4811 91.02C93.6891 91.332 93.8931 91.66 94.0931 92.004C94.3011 92.348 94.4771 92.68 94.6211 93H93.3491C93.1891 92.696 93.0131 92.388 92.8211 92.076C92.6371 91.764 92.4491 91.468 92.2571 91.188C92.0651 90.9 91.8731 90.632 91.6811 90.384C91.4971 90.136 91.3291 89.92 91.1771 89.736C91.0731 89.744 90.9651 89.748 90.8531 89.748C90.7491 89.748 90.6411 89.748 90.5291 89.748H89.4851V93H88.3211V84.804C88.6491 84.724 89.0131 84.672 89.4131 84.648C89.8211 84.616 90.1931 84.6 90.5291 84.6C91.6971 84.6 92.5851 84.82 93.1931 85.26C93.8091 85.7 94.1171 86.356 94.1171 87.228C94.1171 87.78 93.9691 88.252 93.6731 88.644C93.3851 89.036 92.9571 89.328 92.3891 89.52ZM90.6251 85.62C90.1291 85.62 89.7491 85.632 89.4851 85.656V88.788H90.3131C90.7131 88.788 91.0731 88.768 91.3931 88.728C91.7131 88.688 91.9811 88.612 92.1971 88.5C92.4211 88.388 92.5931 88.232 92.7131 88.032C92.8331 87.824 92.8931 87.552 92.8931 87.216C92.8931 86.904 92.8331 86.644 92.7131 86.436C92.5931 86.228 92.4291 86.064 92.2211 85.944C92.0211 85.824 91.7811 85.74 91.5011 85.692C91.2291 85.644 90.9371 85.62 90.6251 85.62Z" fill="#ADADAD"/>
<path d="M96.603 88.836C96.603 88.124 96.707 87.496 96.915 86.952C97.131 86.408 97.419 85.956 97.779 85.596C98.147 85.228 98.571 84.952 99.051 84.768C99.539 84.584 100.055 84.492 100.599 84.492C101.135 84.492 101.639 84.584 102.111 84.768C102.591 84.952 103.011 85.228 103.371 85.596C103.731 85.956 104.015 86.408 104.223 86.952C104.439 87.496 104.547 88.124 104.547 88.836C104.547 89.548 104.439 90.176 104.223 90.72C104.015 91.264 103.731 91.72 103.371 92.088C103.011 92.448 102.591 92.72 102.111 92.904C101.639 93.088 101.135 93.18 100.599 93.18C100.055 93.18 99.539 93.088 99.051 92.904C98.571 92.72 98.147 92.448 97.779 92.088C97.419 91.72 97.131 91.264 96.915 90.72C96.707 90.176 96.603 89.548 96.603 88.836ZM97.827 88.836C97.827 89.34 97.891 89.8 98.019 90.216C98.147 90.624 98.327 90.972 98.559 91.26C98.799 91.548 99.087 91.772 99.423 91.932C99.767 92.084 100.151 92.16 100.575 92.16C100.999 92.16 101.379 92.084 101.715 91.932C102.051 91.772 102.335 91.548 102.567 91.26C102.807 90.972 102.991 90.624 103.119 90.216C103.247 89.8 103.311 89.34 103.311 88.836C103.311 88.332 103.247 87.876 103.119 87.468C102.991 87.052 102.807 86.7 102.567 86.412C102.335 86.124 102.051 85.904 101.715 85.752C101.379 85.592 100.999 85.512 100.575 85.512C100.151 85.512 99.767 85.592 99.423 85.752C99.087 85.904 98.799 86.124 98.559 86.412C98.327 86.7 98.147 87.052 98.019 87.468C97.891 87.876 97.827 88.332 97.827 88.836Z" fill="#ADADAD"/>
<path d="M111.17 90.324C111.17 90.724 111.126 91.096 111.038 91.44C110.958 91.784 110.81 92.088 110.594 92.352C110.386 92.608 110.102 92.812 109.742 92.964C109.39 93.108 108.946 93.18 108.41 93.18C108.138 93.18 107.886 93.156 107.654 93.108C107.43 93.068 107.226 93.016 107.042 92.952C106.858 92.88 106.698 92.808 106.562 92.736C106.426 92.656 106.318 92.58 106.238 92.508L106.694 91.584C106.862 91.704 107.078 91.832 107.342 91.968C107.614 92.096 107.95 92.16 108.35 92.16C108.926 92.16 109.346 92.016 109.61 91.728C109.874 91.432 110.006 90.928 110.006 90.216V84.684H111.17V90.324Z" fill="#ADADAD"/>
<path d="M114.374 93V84.684H119.45V85.68H115.538V88.152H119.018V89.124H115.538V92.004H119.75V93H114.374Z" fill="#ADADAD"/>
<path d="M127.434 91.992V93H122.43V84.684H123.594V91.992H127.434Z" fill="#ADADAD"/>
<path d="M129.852 93V84.684H134.928V85.68H131.016V88.152H134.496V89.124H131.016V92.004H135.228V93H129.852Z" fill="#ADADAD"/>
<path d="M141.976 89.52C142.104 89.68 142.264 89.892 142.456 90.156C142.656 90.412 142.86 90.7 143.068 91.02C143.276 91.332 143.48 91.66 143.68 92.004C143.888 92.348 144.064 92.68 144.208 93H142.936C142.776 92.696 142.6 92.388 142.408 92.076C142.224 91.764 142.036 91.468 141.844 91.188C141.652 90.9 141.46 90.632 141.268 90.384C141.084 90.136 140.916 89.92 140.764 89.736C140.66 89.744 140.552 89.748 140.44 89.748C140.336 89.748 140.228 89.748 140.116 89.748H139.072V93H137.908V84.804C138.236 84.724 138.6 84.672 139 84.648C139.408 84.616 139.78 84.6 140.116 84.6C141.284 84.6 142.172 84.82 142.78 85.26C143.396 85.7 143.704 86.356 143.704 87.228C143.704 87.78 143.556 88.252 143.26 88.644C142.972 89.036 142.544 89.328 141.976 89.52ZM140.212 85.62C139.716 85.62 139.336 85.632 139.072 85.656V88.788H139.9C140.3 88.788 140.66 88.768 140.98 88.728C141.3 88.688 141.568 88.612 141.784 88.5C142.008 88.388 142.18 88.232 142.3 88.032C142.42 87.824 142.48 87.552 142.48 87.216C142.48 86.904 142.42 86.644 142.3 86.436C142.18 86.228 142.016 86.064 141.808 85.944C141.608 85.824 141.368 85.74 141.088 85.692C140.816 85.644 140.524 85.62 140.212 85.62Z" fill="#ADADAD"/>
<path d="M146.655 84.684H147.819V93H146.655V84.684Z" fill="#ADADAD"/>
<path d="M154.809 91.848C154.729 91.656 154.621 91.412 154.485 91.116C154.357 90.82 154.217 90.5 154.065 90.156C153.913 89.812 153.749 89.46 153.573 89.1C153.405 88.732 153.245 88.388 153.093 88.068C152.941 87.74 152.797 87.448 152.661 87.192C152.533 86.936 152.429 86.74 152.349 86.604C152.261 87.548 152.189 88.572 152.133 89.676C152.077 90.772 152.029 91.88 151.989 93H150.849C150.881 92.28 150.917 91.556 150.957 90.828C150.997 90.092 151.041 89.372 151.089 88.668C151.145 87.956 151.201 87.264 151.257 86.592C151.321 85.92 151.389 85.284 151.461 84.684H152.481C152.697 85.036 152.929 85.452 153.177 85.932C153.425 86.412 153.673 86.916 153.921 87.444C154.169 87.964 154.409 88.488 154.641 89.016C154.873 89.536 155.085 90.012 155.277 90.444C155.469 90.012 155.681 89.536 155.913 89.016C156.145 88.488 156.385 87.964 156.633 87.444C156.881 86.916 157.129 86.412 157.377 85.932C157.625 85.452 157.857 85.036 158.073 84.684H159.093C159.365 87.364 159.569 90.136 159.705 93H158.565C158.525 91.88 158.477 90.772 158.421 89.676C158.365 88.572 158.293 87.548 158.205 86.604C158.125 86.74 158.017 86.936 157.881 87.192C157.753 87.448 157.613 87.74 157.461 88.068C157.309 88.388 157.145 88.732 156.969 89.1C156.801 89.46 156.641 89.812 156.489 90.156C156.337 90.5 156.193 90.82 156.057 91.116C155.929 91.412 155.825 91.656 155.745 91.848H154.809Z" fill="#ADADAD"/>
<path d="M162.73 84.684H163.894V93H162.73V84.684Z" fill="#ADADAD"/>
<path d="M172.433 85.608C172.249 85.816 172.033 86.068 171.785 86.364C171.545 86.652 171.289 86.976 171.017 87.336C170.745 87.688 170.465 88.064 170.177 88.464C169.889 88.856 169.605 89.256 169.325 89.664C169.053 90.064 168.793 90.464 168.545 90.864C168.297 91.264 168.073 91.644 167.873 92.004H172.553V93H166.517V92.22C166.685 91.9 166.881 91.548 167.105 91.164C167.337 90.78 167.581 90.388 167.837 89.988C168.101 89.588 168.373 89.184 168.653 88.776C168.933 88.368 169.209 87.976 169.481 87.6C169.761 87.224 170.029 86.872 170.285 86.544C170.549 86.216 170.789 85.928 171.005 85.68H166.733V84.684H172.433V85.608Z" fill="#ADADAD"/>
<path d="M77.8054 108.684H78.9694V117H77.8054V113.16H73.7374V117H72.5734V108.684H73.7374V112.152H77.8054V108.684Z" fill="#ADADAD"/>
<path d="M82.2343 108.684H83.3983V117H82.2343V108.684Z" fill="#ADADAD"/>
<path d="M91.937 109.608C91.753 109.816 91.537 110.068 91.289 110.364C91.049 110.652 90.793 110.976 90.521 111.336C90.249 111.688 89.969 112.064 89.681 112.464C89.393 112.856 89.109 113.256 88.829 113.664C88.557 114.064 88.297 114.464 88.049 114.864C87.801 115.264 87.577 115.644 87.377 116.004H92.057V117H86.021V116.22C86.189 115.9 86.385 115.548 86.609 115.164C86.841 114.78 87.085 114.388 87.341 113.988C87.605 113.588 87.877 113.184 88.157 112.776C88.437 112.368 88.713 111.976 88.985 111.6C89.265 111.224 89.533 110.872 89.789 110.544C90.053 110.216 90.293 109.928 90.509 109.68H86.237V108.684H91.937V109.608Z" fill="#ADADAD"/>
<path d="M98.4679 115.848C98.3879 115.656 98.2799 115.412 98.1439 115.116C98.0159 114.82 97.8759 114.5 97.7239 114.156C97.5719 113.812 97.4079 113.46 97.2319 113.1C97.0639 112.732 96.9039 112.388 96.7519 112.068C96.5999 111.74 96.4559 111.448 96.3199 111.192C96.1919 110.936 96.0879 110.74 96.0079 110.604C95.9199 111.548 95.8479 112.572 95.7919 113.676C95.7359 114.772 95.6879 115.88 95.6479 117H94.5079C94.5399 116.28 94.5759 115.556 94.6159 114.828C94.6559 114.092 94.6999 113.372 94.7479 112.668C94.8039 111.956 94.8599 111.264 94.9159 110.592C94.9799 109.92 95.0479 109.284 95.1199 108.684H96.1399C96.3559 109.036 96.5879 109.452 96.8359 109.932C97.0839 110.412 97.3319 110.916 97.5799 111.444C97.8279 111.964 98.0679 112.488 98.2999 113.016C98.5319 113.536 98.7439 114.012 98.9359 114.444C99.1279 114.012 99.3399 113.536 99.5719 113.016C99.8039 112.488 100.044 111.964 100.292 111.444C100.54 110.916 100.788 110.412 101.036 109.932C101.284 109.452 101.516 109.036 101.732 108.684H102.752C103.024 111.364 103.228 114.136 103.364 117H102.224C102.184 115.88 102.136 114.772 102.08 113.676C102.024 112.572 101.952 111.548 101.864 110.604C101.784 110.74 101.676 110.936 101.54 111.192C101.412 111.448 101.272 111.74 101.12 112.068C100.968 112.388 100.804 112.732 100.628 113.1C100.46 113.46 100.3 113.812 100.148 114.156C99.9959 114.5 99.8519 114.82 99.7159 115.116C99.5879 115.412 99.4839 115.656 99.4039 115.848H98.4679Z" fill="#ADADAD"/>
<path d="M106.389 117V108.684H111.465V109.68H107.553V112.152H111.033V113.124H107.553V116.004H111.765V117H106.389Z" fill="#ADADAD"/>
<path d="M120 108.684V109.692H117.384V117H116.22V109.692H113.604V108.684H120Z" fill="#ADADAD"/>
<path d="M127.434 115.992V117H122.43V108.684H123.594V115.992H127.434Z" fill="#ADADAD"/>
<path d="M129.852 117V108.684H134.928V109.68H131.016V112.152H134.496V113.124H131.016V116.004H135.228V117H129.852Z" fill="#ADADAD"/>
<path d="M141.976 113.52C142.104 113.68 142.264 113.892 142.456 114.156C142.656 114.412 142.86 114.7 143.068 115.02C143.276 115.332 143.48 115.66 143.68 116.004C143.888 116.348 144.064 116.68 144.208 117H142.936C142.776 116.696 142.6 116.388 142.408 116.076C142.224 115.764 142.036 115.468 141.844 115.188C141.652 114.9 141.46 114.632 141.268 114.384C141.084 114.136 140.916 113.92 140.764 113.736C140.66 113.744 140.552 113.748 140.44 113.748C140.336 113.748 140.228 113.748 140.116 113.748H139.072V117H137.908V108.804C138.236 108.724 138.6 108.672 139 108.648C139.408 108.616 139.78 108.6 140.116 108.6C141.284 108.6 142.172 108.82 142.78 109.26C143.396 109.7 143.704 110.356 143.704 111.228C143.704 111.78 143.556 112.252 143.26 112.644C142.972 113.036 142.544 113.328 141.976 113.52ZM140.212 109.62C139.716 109.62 139.336 109.632 139.072 109.656V112.788H139.9C140.3 112.788 140.66 112.768 140.98 112.728C141.3 112.688 141.568 112.612 141.784 112.5C142.008 112.388 142.18 112.232 142.3 112.032C142.42 111.824 142.48 111.552 142.48 111.216C142.48 110.904 142.42 110.644 142.3 110.436C142.18 110.228 142.016 110.064 141.808 109.944C141.608 109.824 141.368 109.74 141.088 109.692C140.816 109.644 140.524 109.62 140.212 109.62Z" fill="#ADADAD"/>
<path d="M146.655 108.684H147.819V117H146.655V108.684Z" fill="#ADADAD"/>
<path d="M154.809 115.848C154.729 115.656 154.621 115.412 154.485 115.116C154.357 114.82 154.217 114.5 154.065 114.156C153.913 113.812 153.749 113.46 153.573 113.1C153.405 112.732 153.245 112.388 153.093 112.068C152.941 111.74 152.797 111.448 152.661 111.192C152.533 110.936 152.429 110.74 152.349 110.604C152.261 111.548 152.189 112.572 152.133 113.676C152.077 114.772 152.029 115.88 151.989 117H150.849C150.881 116.28 150.917 115.556 150.957 114.828C150.997 114.092 151.041 113.372 151.089 112.668C151.145 111.956 151.201 111.264 151.257 110.592C151.321 109.92 151.389 109.284 151.461 108.684H152.481C152.697 109.036 152.929 109.452 153.177 109.932C153.425 110.412 153.673 110.916 153.921 111.444C154.169 111.964 154.409 112.488 154.641 113.016C154.873 113.536 155.085 114.012 155.277 114.444C155.469 114.012 155.681 113.536 155.913 113.016C156.145 112.488 156.385 111.964 156.633 111.444C156.881 110.916 157.129 110.412 157.377 109.932C157.625 109.452 157.857 109.036 158.073 108.684H159.093C159.365 111.364 159.569 114.136 159.705 117H158.565C158.525 115.88 158.477 114.772 158.421 113.676C158.365 112.572 158.293 111.548 158.205 110.604C158.125 110.74 158.017 110.936 157.881 111.192C157.753 111.448 157.613 111.74 157.461 112.068C157.309 112.388 157.145 112.732 156.969 113.1C156.801 113.46 156.641 113.812 156.489 114.156C156.337 114.5 156.193 114.82 156.057 115.116C155.929 115.412 155.825 115.656 155.745 115.848H154.809Z" fill="#ADADAD"/>
<path d="M162.73 108.684H163.894V117H162.73V108.684Z" fill="#ADADAD"/>
<path d="M172.433 109.608C172.249 109.816 172.033 110.068 171.785 110.364C171.545 110.652 171.289 110.976 171.017 111.336C170.745 111.688 170.465 112.064 170.177 112.464C169.889 112.856 169.605 113.256 169.325 113.664C169.053 114.064 168.793 114.464 168.545 114.864C168.297 115.264 168.073 115.644 167.873 116.004H172.553V117H166.517V116.22C166.685 115.9 166.881 115.548 167.105 115.164C167.337 114.78 167.581 114.388 167.837 113.988C168.101 113.588 168.373 113.184 168.653 112.776C168.933 112.368 169.209 111.976 169.481 111.6C169.761 111.224 170.029 110.872 170.285 110.544C170.549 110.216 170.789 109.928 171.005 109.68H166.733V108.684H172.433V109.608Z" fill="#ADADAD"/>
<path d="M96.8859 132.684H98.0499V141H96.8859V137.16H92.8179V141H91.6539V132.684H92.8179V136.152H96.8859V132.684Z" fill="#ADADAD"/>
<path d="M106.871 141C106.735 140.64 106.607 140.288 106.487 139.944C106.367 139.592 106.243 139.236 106.115 138.876H102.347L101.591 141H100.379C100.699 140.12 100.999 139.308 101.279 138.564C101.559 137.812 101.831 137.1 102.095 136.428C102.367 135.756 102.635 135.116 102.899 134.508C103.163 133.892 103.439 133.284 103.727 132.684H104.795C105.083 133.284 105.359 133.892 105.623 134.508C105.887 135.116 106.151 135.756 106.415 136.428C106.687 137.1 106.963 137.812 107.243 138.564C107.523 139.308 107.823 140.12 108.143 141H106.871ZM105.779 137.916C105.523 137.22 105.267 136.548 105.011 135.9C104.763 135.244 104.503 134.616 104.231 134.016C103.951 134.616 103.683 135.244 103.427 135.9C103.179 136.548 102.931 137.22 102.683 137.916H105.779Z" fill="#ADADAD"/>
<path d="M116.628 132.684C116.38 132.956 116.1 133.26 115.788 133.596C115.476 133.924 115.148 134.264 114.804 134.616C114.468 134.96 114.132 135.3 113.796 135.636C113.46 135.972 113.144 136.284 112.848 136.572C113.192 136.812 113.556 137.108 113.94 137.46C114.324 137.812 114.7 138.188 115.068 138.588C115.436 138.988 115.78 139.396 116.1 139.812C116.428 140.228 116.7 140.624 116.916 141H115.548C115.308 140.624 115.032 140.248 114.72 139.872C114.408 139.488 114.076 139.124 113.724 138.78C113.38 138.428 113.028 138.104 112.668 137.808C112.316 137.512 111.972 137.26 111.636 137.052V141H110.472V132.684H111.636V136.356C111.916 136.092 112.224 135.796 112.56 135.468C112.896 135.132 113.228 134.796 113.556 134.46C113.884 134.124 114.192 133.804 114.48 133.5C114.776 133.188 115.024 132.916 115.224 132.684H116.628Z" fill="#ADADAD"/>
<path d="M125.375 132.684C125.127 132.956 124.847 133.26 124.535 133.596C124.223 133.924 123.895 134.264 123.551 134.616C123.215 134.96 122.879 135.3 122.543 135.636C122.207 135.972 121.891 136.284 121.595 136.572C121.939 136.812 122.303 137.108 122.687 137.46C123.071 137.812 123.447 138.188 123.815 138.588C124.183 138.988 124.527 139.396 124.847 139.812C125.175 140.228 125.447 140.624 125.663 141H124.295C124.055 140.624 123.779 140.248 123.467 139.872C123.155 139.488 122.823 139.124 122.471 138.78C122.127 138.428 121.775 138.104 121.415 137.808C121.063 137.512 120.719 137.26 120.383 137.052V141H119.219V132.684H120.383V136.356C120.663 136.092 120.971 135.796 121.307 135.468C121.643 135.132 121.975 134.796 122.303 134.46C122.631 134.124 122.939 133.804 123.227 133.5C123.523 133.188 123.771 132.916 123.971 132.684H125.375Z" fill="#ADADAD"/>
<path d="M127.966 132.684H129.13V141H127.966V132.684Z" fill="#ADADAD"/>
<path d="M136.12 139.848C136.04 139.656 135.932 139.412 135.796 139.116C135.668 138.82 135.528 138.5 135.376 138.156C135.224 137.812 135.06 137.46 134.884 137.1C134.716 136.732 134.556 136.388 134.404 136.068C134.252 135.74 134.108 135.448 133.972 135.192C133.844 134.936 133.74 134.74 133.66 134.604C133.572 135.548 133.5 136.572 133.444 137.676C133.388 138.772 133.34 139.88 133.3 141H132.16C132.192 140.28 132.228 139.556 132.268 138.828C132.308 138.092 132.352 137.372 132.4 136.668C132.456 135.956 132.512 135.264 132.568 134.592C132.632 133.92 132.7 133.284 132.772 132.684H133.792C134.008 133.036 134.24 133.452 134.488 133.932C134.736 134.412 134.984 134.916 135.232 135.444C135.48 135.964 135.72 136.488 135.952 137.016C136.184 137.536 136.396 138.012 136.588 138.444C136.78 138.012 136.992 137.536 137.224 137.016C137.456 136.488 137.696 135.964 137.944 135.444C138.192 134.916 138.44 134.412 138.688 133.932C138.936 133.452 139.168 133.036 139.384 132.684H140.404C140.676 135.364 140.88 138.136 141.016 141H139.876C139.836 139.88 139.788 138.772 139.732 137.676C139.676 136.572 139.604 135.548 139.516 134.604C139.436 134.74 139.328 134.936 139.192 135.192C139.064 135.448 138.924 135.74 138.772 136.068C138.62 136.388 138.456 136.732 138.28 137.1C138.112 137.46 137.952 137.812 137.8 138.156C137.648 138.5 137.504 138.82 137.368 139.116C137.24 139.412 137.136 139.656 137.056 139.848H136.12Z" fill="#ADADAD"/>
<path d="M144.041 132.684H145.205V141H144.041V132.684Z" fill="#ADADAD"/>
<path d="M153.744 133.608C153.56 133.816 153.344 134.068 153.096 134.364C152.856 134.652 152.6 134.976 152.328 135.336C152.056 135.688 151.776 136.064 151.488 136.464C151.2 136.856 150.916 137.256 150.636 137.664C150.364 138.064 150.104 138.464 149.856 138.864C149.608 139.264 149.384 139.644 149.184 140.004H153.864V141H147.828V140.22C147.996 139.9 148.192 139.548 148.416 139.164C148.648 138.78 148.892 138.388 149.148 137.988C149.412 137.588 149.684 137.184 149.964 136.776C150.244 136.368 150.52 135.976 150.792 135.6C151.072 135.224 151.34 134.872 151.596 134.544C151.86 134.216 152.1 133.928 152.316 133.68H148.044V132.684H153.744V133.608Z" fill="#ADADAD"/>
<path d="M163.371 136.836C163.371 137.556 163.259 138.184 163.035 138.72C162.811 139.248 162.495 139.688 162.087 140.04C161.679 140.384 161.191 140.644 160.623 140.82C160.055 140.988 159.431 141.072 158.751 141.072C158.415 141.072 158.043 141.056 157.635 141.024C157.235 141 156.871 140.948 156.543 140.868V132.804C156.871 132.724 157.235 132.672 157.635 132.648C158.043 132.616 158.415 132.6 158.751 132.6C159.431 132.6 160.055 132.688 160.623 132.864C161.191 133.032 161.679 133.292 162.087 133.644C162.495 133.988 162.811 134.428 163.035 134.964C163.259 135.492 163.371 136.116 163.371 136.836ZM158.847 140.052C159.951 140.052 160.775 139.772 161.319 139.212C161.863 138.644 162.135 137.852 162.135 136.836C162.135 135.82 161.863 135.032 161.319 134.472C160.775 133.904 159.951 133.62 158.847 133.62C158.519 133.62 158.263 133.624 158.079 133.632C157.903 133.64 157.779 133.648 157.707 133.656V140.016C157.779 140.024 157.903 140.032 158.079 140.04C158.263 140.048 158.519 140.052 158.847 140.052Z" fill="#ADADAD"/>
<path d="M171.631 141C171.495 140.64 171.367 140.288 171.247 139.944C171.127 139.592 171.003 139.236 170.875 138.876H167.107L166.351 141H165.139C165.459 140.12 165.759 139.308 166.039 138.564C166.319 137.812 166.591 137.1 166.855 136.428C167.127 135.756 167.395 135.116 167.659 134.508C167.923 133.892 168.199 133.284 168.487 132.684H169.555C169.843 133.284 170.119 133.892 170.383 134.508C170.647 135.116 170.911 135.756 171.175 136.428C171.447 137.1 171.723 137.812 172.003 138.564C172.283 139.308 172.583 140.12 172.903 141H171.631ZM170.539 137.916C170.283 137.22 170.027 136.548 169.771 135.9C169.523 135.244 169.263 134.616 168.991 134.016C168.711 134.616 168.443 135.244 168.187 135.9C167.939 136.548 167.691 137.22 167.443 137.916H170.539Z" fill="#ADADAD"/>
<path d="M119.261 156.684H120.425V165H119.261V156.684Z" fill="#ADADAD"/>
<path d="M128.688 163.992V165H123.684V156.684H124.848V163.992H128.688Z" fill="#ADADAD"/>
<path d="M131.106 165V156.684H136.182V157.68H132.27V160.152H135.75V161.124H132.27V164.004H136.482V165H131.106Z" fill="#ADADAD"/>
<path d="M144.718 156.684V157.692H142.102V165H140.938V157.692H138.322V156.684H144.718Z" fill="#ADADAD"/>
<path d="M147.147 156.684H148.311V165H147.147V156.684Z" fill="#ADADAD"/>
<path d="M153.501 164.172C154.717 164.172 155.325 163.756 155.325 162.924C155.325 162.668 155.269 162.452 155.157 162.276C155.053 162.092 154.909 161.936 154.725 161.808C154.541 161.672 154.329 161.556 154.089 161.46C153.857 161.364 153.609 161.268 153.345 161.172C153.041 161.068 152.753 160.952 152.481 160.824C152.209 160.688 151.973 160.532 151.773 160.356C151.573 160.172 151.413 159.956 151.293 159.708C151.181 159.46 151.125 159.16 151.125 158.808C151.125 158.08 151.373 157.512 151.869 157.104C152.365 156.696 153.049 156.492 153.921 156.492C154.425 156.492 154.881 156.548 155.289 156.66C155.705 156.764 156.009 156.88 156.201 157.008L155.829 157.956C155.661 157.852 155.409 157.752 155.073 157.656C154.745 157.552 154.361 157.5 153.921 157.5C153.697 157.5 153.489 157.524 153.297 157.572C153.105 157.62 152.937 157.692 152.793 157.788C152.649 157.884 152.533 158.008 152.445 158.16C152.365 158.304 152.325 158.476 152.325 158.676C152.325 158.9 152.369 159.088 152.457 159.24C152.545 159.392 152.669 159.528 152.829 159.648C152.989 159.76 153.173 159.864 153.381 159.96C153.597 160.056 153.833 160.152 154.089 160.248C154.449 160.392 154.777 160.536 155.073 160.68C155.377 160.824 155.637 160.996 155.853 161.196C156.077 161.396 156.249 161.636 156.369 161.916C156.489 162.188 156.549 162.52 156.549 162.912C156.549 163.56 156.333 164.076 155.901 164.46C155.477 164.844 154.865 165.076 154.065 165.156L153.933 165.444C154.165 165.556 154.333 165.676 154.437 165.804C154.541 165.94 154.593 166.136 154.593 166.392C154.593 166.48 154.573 166.576 154.533 166.68C154.493 166.784 154.425 166.88 154.329 166.968C154.233 167.056 154.105 167.128 153.945 167.184C153.785 167.24 153.589 167.268 153.357 167.268C153.149 167.268 152.957 167.252 152.781 167.22C152.613 167.188 152.477 167.152 152.373 167.112L152.505 166.428C152.601 166.46 152.701 166.488 152.805 166.512C152.917 166.536 153.041 166.548 153.177 166.548C153.465 166.548 153.609 166.456 153.609 166.272C153.609 166.184 153.565 166.108 153.477 166.044C153.389 165.988 153.265 165.928 153.105 165.864L153.021 165.828C153.053 165.74 153.093 165.636 153.141 165.516C153.189 165.404 153.241 165.292 153.297 165.18C152.993 165.172 152.713 165.144 152.457 165.096C152.209 165.056 151.985 165.008 151.785 164.952C151.585 164.888 151.413 164.824 151.269 164.76C151.125 164.696 151.013 164.64 150.933 164.592L151.281 163.632C151.465 163.736 151.745 163.852 152.121 163.98C152.497 164.108 152.957 164.172 153.501 164.172Z" fill="#ADADAD"/>
<path d="M159.156 156.684H160.32V165H159.156V156.684Z" fill="#ADADAD"/>
<path d="M167.311 163.848C167.231 163.656 167.123 163.412 166.987 163.116C166.859 162.82 166.719 162.5 166.567 162.156C166.415 161.812 166.251 161.46 166.075 161.1C165.907 160.732 165.747 160.388 165.595 160.068C165.443 159.74 165.299 159.448 165.163 159.192C165.035 158.936 164.931 158.74 164.851 158.604C164.763 159.548 164.691 160.572 164.635 161.676C164.579 162.772 164.531 163.88 164.491 165H163.351C163.383 164.28 163.419 163.556 163.459 162.828C163.499 162.092 163.543 161.372 163.591 160.668C163.647 159.956 163.703 159.264 163.759 158.592C163.823 157.92 163.891 157.284 163.963 156.684H164.983C165.199 157.036 165.431 157.452 165.679 157.932C165.927 158.412 166.175 158.916 166.423 159.444C166.671 159.964 166.911 160.488 167.143 161.016C167.375 161.536 167.587 162.012 167.779 162.444C167.971 162.012 168.183 161.536 168.415 161.016C168.647 160.488 168.887 159.964 169.135 159.444C169.383 158.916 169.631 158.412 169.879 157.932C170.127 157.452 170.359 157.036 170.575 156.684H171.595C171.867 159.364 172.071 162.136 172.207 165H171.067C171.027 163.88 170.979 162.772 170.923 161.676C170.867 160.572 170.795 159.548 170.707 158.604C170.627 158.74 170.519 158.936 170.383 159.192C170.255 159.448 170.115 159.74 169.963 160.068C169.811 160.388 169.647 160.732 169.471 161.1C169.303 161.46 169.143 161.812 168.991 162.156C168.839 162.5 168.695 162.82 168.559 163.116C168.431 163.412 168.327 163.656 168.247 163.848H167.311Z" fill="#ADADAD"/>
<path d="M64.004 26.5V27.508H59V19.192H60.164V26.5H64.004Z" fill="#C4C4C4"/>
<path d="M64.3476 23.344C64.3476 22.632 64.4516 22.004 64.6596 21.46C64.8756 20.916 65.1636 20.464 65.5236 20.104C65.8916 19.736 66.3156 19.46 66.7956 19.276C67.2836 19.092 67.7996 19 68.3436 19C68.8796 19 69.3836 19.092 69.8556 19.276C70.3356 19.46 70.7556 19.736 71.1156 20.104C71.4756 20.464 71.7596 20.916 71.9676 21.46C72.1836 22.004 72.2916 22.632 72.2916 23.344C72.2916 24.056 72.1836 24.684 71.9676 25.228C71.7596 25.772 71.4756 26.228 71.1156 26.596C70.7556 26.956 70.3356 27.228 69.8556 27.412C69.3836 27.596 68.8796 27.688 68.3436 27.688C67.7996 27.688 67.2836 27.596 66.7956 27.412C66.3156 27.228 65.8916 26.956 65.5236 26.596C65.1636 26.228 64.8756 25.772 64.6596 25.228C64.4516 24.684 64.3476 24.056 64.3476 23.344ZM65.5716 23.344C65.5716 23.848 65.6356 24.308 65.7636 24.724C65.8916 25.132 66.0716 25.48 66.3036 25.768C66.5436 26.056 66.8316 26.28 67.1676 26.44C67.5116 26.592 67.8956 26.668 68.3196 26.668C68.7436 26.668 69.1236 26.592 69.4596 26.44C69.7956 26.28 70.0796 26.056 70.3116 25.768C70.5516 25.48 70.7356 25.132 70.8636 24.724C70.9916 24.308 71.0556 23.848 71.0556 23.344C71.0556 22.84 70.9916 22.384 70.8636 21.976C70.7356 21.56 70.5516 21.208 70.3116 20.92C70.0796 20.632 69.7956 20.412 69.4596 20.26C69.1236 20.1 68.7436 20.02 68.3196 20.02C67.8956 20.02 67.5116 20.1 67.1676 20.26C66.8316 20.412 66.5436 20.632 66.3036 20.92C66.0716 21.208 65.8916 21.56 65.7636 21.976C65.6356 22.384 65.5716 22.84 65.5716 23.344Z" fill="#C4C4C4"/>
<path d="M79.0994 23.416H80.2634V27.304C80.1674 27.336 80.0274 27.372 79.8434 27.412C79.6674 27.452 79.4594 27.492 79.2194 27.532C78.9874 27.572 78.7314 27.604 78.4514 27.628C78.1714 27.66 77.8874 27.676 77.5994 27.676C77.0154 27.676 76.4834 27.58 76.0034 27.388C75.5234 27.196 75.1114 26.916 74.7674 26.548C74.4234 26.18 74.1554 25.728 73.9634 25.192C73.7794 24.656 73.6874 24.04 73.6874 23.344C73.6874 22.648 73.7914 22.032 73.9994 21.496C74.2154 20.952 74.5034 20.496 74.8634 20.128C75.2234 19.76 75.6434 19.48 76.1234 19.288C76.6114 19.096 77.1314 19 77.6834 19C78.0594 19 78.3914 19.024 78.6794 19.072C78.9754 19.12 79.2274 19.176 79.4354 19.24C79.6434 19.304 79.8114 19.368 79.9394 19.432C80.0754 19.496 80.1674 19.544 80.2154 19.576L79.8434 20.548C79.6114 20.396 79.3034 20.272 78.9194 20.176C78.5354 20.072 78.1434 20.02 77.7434 20.02C77.3194 20.02 76.9314 20.096 76.5794 20.248C76.2354 20.4 75.9394 20.62 75.6914 20.908C75.4514 21.196 75.2634 21.548 75.1274 21.964C74.9914 22.372 74.9234 22.832 74.9234 23.344C74.9234 23.84 74.9794 24.292 75.0914 24.7C75.2114 25.108 75.3874 25.46 75.6194 25.756C75.8594 26.044 76.1514 26.268 76.4954 26.428C76.8474 26.588 77.2594 26.668 77.7314 26.668C78.0674 26.668 78.3514 26.652 78.5834 26.62C78.8234 26.58 78.9954 26.544 79.0994 26.512V23.416Z" fill="#C4C4C4"/>
<path d="M81.7499 23.344C81.7499 22.632 81.8539 22.004 82.0619 21.46C82.2779 20.916 82.5659 20.464 82.9259 20.104C83.2939 19.736 83.7179 19.46 84.1979 19.276C84.6859 19.092 85.2019 19 85.7459 19C86.2819 19 86.7859 19.092 87.2579 19.276C87.7379 19.46 88.1579 19.736 88.5179 20.104C88.8779 20.464 89.1619 20.916 89.3699 21.46C89.5859 22.004 89.6939 22.632 89.6939 23.344C89.6939 24.056 89.5859 24.684 89.3699 25.228C89.1619 25.772 88.8779 26.228 88.5179 26.596C88.1579 26.956 87.7379 27.228 87.2579 27.412C86.7859 27.596 86.2819 27.688 85.7459 27.688C85.2019 27.688 84.6859 27.596 84.1979 27.412C83.7179 27.228 83.2939 26.956 82.9259 26.596C82.5659 26.228 82.2779 25.772 82.0619 25.228C81.8539 24.684 81.7499 24.056 81.7499 23.344ZM82.9739 23.344C82.9739 23.848 83.0379 24.308 83.1659 24.724C83.2939 25.132 83.4739 25.48 83.7059 25.768C83.9459 26.056 84.2339 26.28 84.5699 26.44C84.9139 26.592 85.2979 26.668 85.7219 26.668C86.1459 26.668 86.5259 26.592 86.8619 26.44C87.1979 26.28 87.4819 26.056 87.7139 25.768C87.9539 25.48 88.1379 25.132 88.2659 24.724C88.3939 24.308 88.4579 23.848 88.4579 23.344C88.4579 22.84 88.3939 22.384 88.2659 21.976C88.1379 21.56 87.9539 21.208 87.7139 20.92C87.4819 20.632 87.1979 20.412 86.8619 20.26C86.5259 20.1 86.1459 20.02 85.7219 20.02C85.2979 20.02 84.9139 20.1 84.5699 20.26C84.2339 20.412 83.9459 20.632 83.7059 20.92C83.4739 21.208 83.2939 21.56 83.1659 21.976C83.0379 22.384 82.9739 22.84 82.9739 23.344Z" fill="#C4C4C4"/>
<g clip-path="url(#clip1)">
<path d="M177.099 23.0105L181.772 18.3378C182.076 18.0339 182.076 17.5425 181.772 17.2385C181.468 16.9346 180.977 16.9346 180.673 17.2385L176 21.9112L171.327 17.2385C171.023 16.9346 170.532 16.9346 170.228 17.2385C169.924 17.5425 169.924 18.0339 170.228 18.3378L174.901 23.0105L170.228 27.6832C169.924 27.9872 169.924 28.4786 170.228 28.7826C170.38 28.9342 170.579 29.0103 170.778 29.0103C170.977 29.0103 171.176 28.9342 171.327 28.7826L176 24.1098L180.673 28.7826C180.824 28.9342 181.023 29.0103 181.222 29.0103C181.421 29.0103 181.62 28.9342 181.772 28.7826C182.076 28.4786 182.076 27.9872 181.772 27.6832L177.099 23.0105Z" fill="#C4C4C4"/>
</g>
<rect x="0.5" y="0.5" width="201" height="246" stroke="#E5E5E5"/>
<defs>
<clipPath id="clip0">
<rect width="10" height="10" fill="white" transform="translate(103 183)"/>
</clipPath>
<clipPath id="clip1">
<rect width="12" height="12" fill="white" transform="translate(170 17)"/>
</clipPath>
</defs>
</svg>
