<svg width="400" height="40" viewBox="0 0 400 40" fill="none" xmlns="http://www.w3.org/2000/svg">
<rect width="400" height="40" fill="white"/>
<path fill-rule="evenodd" clip-rule="evenodd" d="M392.073 15H352V25.789H392.073V15ZM364.33 18.0826V21.8836H365.692C366.109 21.8836 366.432 21.7861 366.66 21.5912C366.888 21.3963 367.002 21.1282 367.002 20.7871C367.002 20.5644 366.94 20.3729 366.816 20.2128C366.694 20.0509 366.527 19.9413 366.315 19.8839C366.495 19.809 366.637 19.7037 366.741 19.568C366.845 19.4305 366.897 19.273 366.897 19.0955C366.897 18.7613 366.789 18.509 366.574 18.3384C366.36 18.1678 366.04 18.0826 365.614 18.0826H364.33ZM364.848 21.4737V20.1058H365.711C366.225 20.1058 366.482 20.3346 366.482 20.7923C366.482 21.0047 366.412 21.1718 366.272 21.2936C366.133 21.4137 365.944 21.4737 365.703 21.4737H364.848ZM365.63 19.7037H364.848V18.495H365.614C365.871 18.495 366.062 18.5429 366.188 18.6386C366.314 18.7326 366.377 18.884 366.377 19.0929C366.377 19.2808 366.309 19.4296 366.172 19.5393C366.037 19.6489 365.856 19.7037 365.63 19.7037ZM368.639 21.9358C369.015 21.9358 369.3 21.8253 369.494 21.6042L369.505 21.8836H369.979V19.0589H369.48V21.1134C369.355 21.3884 369.101 21.5259 368.72 21.5259C368.361 21.5259 368.181 21.3119 368.181 20.8837V19.0589H367.682V20.8968C367.684 21.2396 367.766 21.4989 367.927 21.6747C368.091 21.8488 368.328 21.9358 368.639 21.9358ZM371.417 18.375V19.0589H371.961V19.4322H371.417V21.1839C371.417 21.2971 371.441 21.3823 371.489 21.4398C371.538 21.4955 371.621 21.5233 371.737 21.5233C371.795 21.5233 371.874 21.5129 371.975 21.492V21.8836C371.843 21.9184 371.716 21.9358 371.592 21.9358C371.369 21.9358 371.201 21.8705 371.088 21.74C370.974 21.6095 370.918 21.4241 370.918 21.1839V19.4322H370.386V19.0589H370.918V18.375H371.417ZM373.223 19.0589V18.375H372.724V19.0589H372.193V19.4322H372.724V21.1839C372.724 21.4241 372.781 21.6095 372.894 21.74C373.007 21.8705 373.175 21.9358 373.398 21.9358C373.522 21.9358 373.65 21.9184 373.781 21.8836V21.492C373.681 21.5129 373.602 21.5233 373.544 21.5233C373.427 21.5233 373.344 21.4955 373.296 21.4398C373.247 21.3823 373.223 21.2971 373.223 21.1839V19.4322H373.768V19.0589H373.223ZM374.167 20.4451C374.167 20.1684 374.223 19.9195 374.334 19.6985C374.447 19.4775 374.604 19.3069 374.803 19.1868C375.005 19.0668 375.234 19.0067 375.491 19.0067C375.888 19.0067 376.209 19.1399 376.453 19.4061C376.7 19.6724 376.823 20.0266 376.823 20.4686V20.5026C376.823 20.7776 376.768 21.0247 376.658 21.244C376.551 21.4615 376.395 21.6312 376.192 21.753C375.991 21.8749 375.759 21.9358 375.496 21.9358C375.101 21.9358 374.78 21.8026 374.534 21.5364C374.289 21.2701 374.167 20.9177 374.167 20.4791V20.4451ZM374.668 20.5026C374.668 20.8158 374.743 21.0673 374.892 21.257C375.043 21.4467 375.245 21.5416 375.496 21.5416C375.75 21.5416 375.951 21.4459 376.1 21.2544C376.249 21.0612 376.324 20.7915 376.324 20.4451C376.324 20.1354 376.248 19.8847 376.095 19.6933C375.944 19.5001 375.743 19.4035 375.491 19.4035C375.245 19.4035 375.046 19.4984 374.895 19.6881C374.744 19.8778 374.668 20.1493 374.668 20.5026ZM377.937 19.414L377.92 19.0589H377.448V21.8836H377.947V19.8708C378.016 19.7351 378.111 19.6254 378.233 19.5419C378.355 19.4583 378.497 19.4166 378.659 19.4166C378.859 19.4166 379.005 19.4653 379.099 19.5628C379.194 19.6602 379.242 19.8108 379.244 20.0144V21.8836H379.743V20.017C379.738 19.3435 379.427 19.0067 378.81 19.0067C378.451 19.0067 378.159 19.1425 377.937 19.414Z" fill="#C4C4C4"/>
<g clip-path="url(#clip0)">
<path d="M13.5776 17H8.12887C7.50646 17 7 17.5065 7 18.1289V23.5776C7 24.2 7.50646 24.7064 8.12887 24.7064H10.4017V21.9821H9.49857V20.6274H10.4017V19.7093C10.4017 18.9623 11.0093 18.3546 11.7563 18.3546H13.126V19.7093H11.7563V20.6274H13.126L12.9002 21.9821H11.7563V24.7064H13.5776C14.2 24.7064 14.7064 24.2 14.7064 23.5776V18.1289C14.7064 17.5065 14.2 17 13.5776 17Z" fill="#C4C4C4"/>
</g>
<g clip-path="url(#clip1)">
<path d="M34.6498 20.8532C34.6498 21.2273 34.3465 21.5305 33.9725 21.5305C33.5984 21.5305 33.2952 21.2273 33.2952 20.8532C33.2952 20.4792 33.5984 20.1759 33.9725 20.1759C34.3465 20.1759 34.6498 20.4792 34.6498 20.8532Z" fill="#C4C4C4"/>
<path d="M35.1164 18.8062H32.8285C32.3305 18.8062 31.9254 19.2113 31.9254 19.7093V21.9971C31.9254 22.4951 32.3305 22.9002 32.8285 22.9002H35.1164C35.6144 22.9002 36.0195 22.4951 36.0195 21.9971V19.7093C36.0195 19.2113 35.6144 18.8062 35.1164 18.8062ZM33.9725 21.9821C33.35 21.9821 32.8436 21.4757 32.8436 20.8532C32.8436 20.2307 33.35 19.7243 33.9725 19.7243C34.5949 19.7243 35.1013 20.2307 35.1013 20.8532C35.1013 21.4757 34.5949 21.9821 33.9725 21.9821ZM35.2669 19.7845C35.1422 19.7845 35.0411 19.6835 35.0411 19.5588C35.0411 19.4341 35.1422 19.333 35.2669 19.333C35.3916 19.333 35.4927 19.4341 35.4927 19.5588C35.4927 19.6835 35.3916 19.7845 35.2669 19.7845Z" fill="#C4C4C4"/>
<path d="M35.7937 17H32.1512C31.0308 17 30.1193 17.9116 30.1193 19.032V22.6745C30.1193 23.7949 31.0308 24.7064 32.1512 24.7064H35.7937C36.9141 24.7064 37.8257 23.7949 37.8257 22.6745V19.032C37.8257 17.9116 36.9141 17 35.7937 17ZM36.471 21.9971C36.471 22.7441 35.8633 23.3518 35.1164 23.3518H32.8286C32.0816 23.3518 31.4739 22.7441 31.4739 21.9971V19.7093C31.4739 18.9624 32.0816 18.3546 32.8286 18.3546H35.1164C35.8633 18.3546 36.471 18.9624 36.471 19.7093V21.9971Z" fill="#C4C4C4"/>
</g>
<path d="M64.941 21.984C64.839 21.714 64.743 21.45 64.653 21.192C64.563 20.928 64.47 20.661 64.374 20.391H61.548L60.981 21.984H60.072C60.312 21.324 60.537 20.715 60.747 20.157C60.957 19.593 61.161 19.059 61.359 18.555C61.563 18.051 61.764 17.571 61.962 17.115C62.16 16.653 62.367 16.197 62.583 15.747H63.384C63.6 16.197 63.807 16.653 64.005 17.115C64.203 17.571 64.401 18.051 64.599 18.555C64.803 19.059 65.01 19.593 65.22 20.157C65.43 20.715 65.655 21.324 65.895 21.984H64.941ZM64.122 19.671C63.93 19.149 63.738 18.645 63.546 18.159C63.36 17.667 63.165 17.196 62.961 16.746C62.751 17.196 62.55 17.667 62.358 18.159C62.172 18.645 61.986 19.149 61.8 19.671H64.122Z" fill="#ADADAD"/>
<path d="M67.5878 17.439C67.7798 17.391 68.0348 17.34 68.3528 17.286C68.6708 17.232 69.0368 17.205 69.4508 17.205C69.8228 17.205 70.1318 17.259 70.3778 17.367C70.6238 17.469 70.8188 17.616 70.9628 17.808C71.1128 17.994 71.2178 18.219 71.2778 18.483C71.3378 18.747 71.3678 19.038 71.3678 19.356V21.984H70.5308V19.536C70.5308 19.248 70.5098 19.002 70.4678 18.798C70.4318 18.594 70.3688 18.429 70.2788 18.303C70.1888 18.177 70.0688 18.087 69.9188 18.033C69.7688 17.973 69.5828 17.943 69.3608 17.943C69.2708 17.943 69.1778 17.946 69.0818 17.952C68.9858 17.958 68.8928 17.967 68.8028 17.979C68.7188 17.985 68.6408 17.994 68.5688 18.006C68.5028 18.018 68.4548 18.027 68.4248 18.033V21.984H67.5878V17.439Z" fill="#ADADAD"/>
<path d="M75.2397 21.381C75.4377 21.381 75.6117 21.378 75.7617 21.372C75.9177 21.36 76.0467 21.342 76.1487 21.318V19.923C76.0887 19.893 75.9897 19.869 75.8517 19.851C75.7197 19.827 75.5577 19.815 75.3657 19.815C75.2397 19.815 75.1047 19.824 74.9607 19.842C74.8227 19.86 74.6937 19.899 74.5737 19.959C74.4597 20.013 74.3637 20.091 74.2857 20.193C74.2077 20.289 74.1687 20.418 74.1687 20.58C74.1687 20.88 74.2647 21.09 74.4567 21.21C74.6487 21.324 74.9097 21.381 75.2397 21.381ZM75.1677 17.187C75.5037 17.187 75.7857 17.232 76.0137 17.322C76.2477 17.406 76.4337 17.529 76.5717 17.691C76.7157 17.847 76.8177 18.036 76.8777 18.258C76.9377 18.474 76.9677 18.714 76.9677 18.978V21.903C76.8957 21.915 76.7937 21.933 76.6617 21.957C76.5357 21.975 76.3917 21.993 76.2297 22.011C76.0677 22.029 75.8907 22.044 75.6987 22.056C75.5127 22.074 75.3267 22.083 75.1407 22.083C74.8767 22.083 74.6337 22.056 74.4117 22.002C74.1897 21.948 73.9977 21.864 73.8357 21.75C73.6737 21.63 73.5477 21.474 73.4577 21.282C73.3677 21.09 73.3227 20.859 73.3227 20.589C73.3227 20.331 73.3737 20.109 73.4757 19.923C73.5837 19.737 73.7277 19.587 73.9077 19.473C74.0877 19.359 74.2977 19.275 74.5377 19.221C74.7777 19.167 75.0297 19.14 75.2937 19.14C75.3777 19.14 75.4647 19.146 75.5547 19.158C75.6447 19.164 75.7287 19.176 75.8067 19.194C75.8907 19.206 75.9627 19.218 76.0227 19.23C76.0827 19.242 76.1247 19.251 76.1487 19.257V19.023C76.1487 18.885 76.1337 18.75 76.1037 18.618C76.0737 18.48 76.0197 18.36 75.9417 18.258C75.8637 18.15 75.7557 18.066 75.6177 18.006C75.4857 17.94 75.3117 17.907 75.0957 17.907C74.8197 17.907 74.5767 17.928 74.3667 17.97C74.1627 18.006 74.0097 18.045 73.9077 18.087L73.8087 17.394C73.9167 17.346 74.0967 17.301 74.3487 17.259C74.6007 17.211 74.8737 17.187 75.1677 17.187Z" fill="#ADADAD"/>
<path d="M80.3469 21.381C80.6889 21.381 80.9409 21.336 81.1029 21.246C81.2709 21.156 81.3549 21.012 81.3549 20.814C81.3549 20.61 81.2739 20.448 81.1119 20.328C80.9499 20.208 80.6829 20.073 80.3109 19.923C80.1309 19.851 79.9569 19.779 79.7889 19.707C79.6269 19.629 79.4859 19.539 79.3659 19.437C79.2459 19.335 79.1499 19.212 79.0779 19.068C79.0059 18.924 78.9699 18.747 78.9699 18.537C78.9699 18.123 79.1229 17.796 79.4289 17.556C79.7349 17.31 80.1519 17.187 80.6799 17.187C80.8119 17.187 80.9439 17.196 81.0759 17.214C81.2079 17.226 81.3309 17.244 81.4449 17.268C81.5589 17.286 81.6579 17.307 81.7419 17.331C81.8319 17.355 81.9009 17.376 81.9489 17.394L81.7959 18.114C81.7059 18.066 81.5649 18.018 81.3729 17.97C81.1809 17.916 80.9499 17.889 80.6799 17.889C80.4459 17.889 80.2419 17.937 80.0679 18.033C79.8939 18.123 79.8069 18.267 79.8069 18.465C79.8069 18.567 79.8249 18.657 79.8609 18.735C79.9029 18.813 79.9629 18.885 80.0409 18.951C80.1249 19.011 80.2269 19.068 80.3469 19.122C80.4669 19.176 80.6109 19.233 80.7789 19.293C81.0009 19.377 81.1989 19.461 81.3729 19.545C81.5469 19.623 81.6939 19.716 81.8139 19.824C81.9399 19.932 82.0359 20.064 82.1019 20.22C82.1679 20.37 82.2009 20.556 82.2009 20.778C82.2009 21.21 82.0389 21.537 81.7149 21.759C81.3969 21.981 80.9409 22.092 80.3469 22.092C79.9329 22.092 79.6089 22.056 79.3749 21.984C79.1409 21.918 78.9819 21.867 78.8979 21.831L79.0509 21.111C79.1469 21.147 79.2999 21.201 79.5099 21.273C79.7199 21.345 79.9989 21.381 80.3469 21.381Z" fill="#ADADAD"/>
<path d="M85.7585 21.381C85.9565 21.381 86.1305 21.378 86.2805 21.372C86.4365 21.36 86.5655 21.342 86.6675 21.318V19.923C86.6075 19.893 86.5085 19.869 86.3705 19.851C86.2385 19.827 86.0765 19.815 85.8845 19.815C85.7585 19.815 85.6235 19.824 85.4795 19.842C85.3415 19.86 85.2125 19.899 85.0925 19.959C84.9785 20.013 84.8825 20.091 84.8045 20.193C84.7265 20.289 84.6875 20.418 84.6875 20.58C84.6875 20.88 84.7835 21.09 84.9755 21.21C85.1675 21.324 85.4285 21.381 85.7585 21.381ZM85.6865 17.187C86.0225 17.187 86.3045 17.232 86.5325 17.322C86.7665 17.406 86.9525 17.529 87.0905 17.691C87.2345 17.847 87.3365 18.036 87.3965 18.258C87.4565 18.474 87.4865 18.714 87.4865 18.978V21.903C87.4145 21.915 87.3125 21.933 87.1805 21.957C87.0545 21.975 86.9105 21.993 86.7485 22.011C86.5865 22.029 86.4095 22.044 86.2175 22.056C86.0315 22.074 85.8455 22.083 85.6595 22.083C85.3955 22.083 85.1525 22.056 84.9305 22.002C84.7085 21.948 84.5165 21.864 84.3545 21.75C84.1925 21.63 84.0665 21.474 83.9765 21.282C83.8865 21.09 83.8415 20.859 83.8415 20.589C83.8415 20.331 83.8925 20.109 83.9945 19.923C84.1025 19.737 84.2465 19.587 84.4265 19.473C84.6065 19.359 84.8165 19.275 85.0565 19.221C85.2965 19.167 85.5485 19.14 85.8125 19.14C85.8965 19.14 85.9835 19.146 86.0735 19.158C86.1635 19.164 86.2475 19.176 86.3255 19.194C86.4095 19.206 86.4815 19.218 86.5415 19.23C86.6015 19.242 86.6435 19.251 86.6675 19.257V19.023C86.6675 18.885 86.6525 18.75 86.6225 18.618C86.5925 18.48 86.5385 18.36 86.4605 18.258C86.3825 18.15 86.2745 18.066 86.1365 18.006C86.0045 17.94 85.8305 17.907 85.6145 17.907C85.3385 17.907 85.0955 17.928 84.8855 17.97C84.6815 18.006 84.5285 18.045 84.4265 18.087L84.3275 17.394C84.4355 17.346 84.6155 17.301 84.8675 17.259C85.1195 17.211 85.3925 17.187 85.6865 17.187Z" fill="#ADADAD"/>
<path d="M89.0958 22.857C89.1618 22.887 89.2458 22.914 89.3478 22.938C89.4558 22.968 89.5608 22.983 89.6628 22.983C89.9928 22.983 90.2508 22.908 90.4368 22.758C90.6228 22.614 90.7908 22.377 90.9408 22.047C90.5628 21.327 90.2088 20.565 89.8788 19.761C89.5548 18.951 89.2848 18.132 89.0688 17.304H89.9688C90.0348 17.574 90.1128 17.865 90.2028 18.177C90.2988 18.489 90.4038 18.81 90.5178 19.14C90.6318 19.47 90.7548 19.8 90.8868 20.13C91.0188 20.46 91.1568 20.778 91.3008 21.084C91.5288 20.454 91.7268 19.83 91.8948 19.212C92.0628 18.594 92.2218 17.958 92.3718 17.304H93.2358C93.0198 18.186 92.7798 19.035 92.5158 19.851C92.2518 20.661 91.9668 21.42 91.6608 22.128C91.5408 22.398 91.4148 22.629 91.2828 22.821C91.1568 23.019 91.0158 23.181 90.8598 23.307C90.7038 23.433 90.5268 23.526 90.3288 23.586C90.1368 23.646 89.9178 23.676 89.6718 23.676C89.6058 23.676 89.5368 23.67 89.4648 23.658C89.3928 23.652 89.3208 23.64 89.2488 23.622C89.1828 23.61 89.1198 23.595 89.0598 23.577C89.0058 23.559 88.9668 23.544 88.9428 23.532L89.0958 22.857Z" fill="#ADADAD"/>
<path d="M96.8454 15C97.0914 15 97.3014 15.018 97.4754 15.054C97.6554 15.09 97.7814 15.123 97.8534 15.153L97.7004 15.873C97.6284 15.837 97.5264 15.804 97.3944 15.774C97.2624 15.738 97.1004 15.72 96.9084 15.72C96.5184 15.72 96.2454 15.828 96.0894 16.044C95.9334 16.254 95.8554 16.539 95.8554 16.899V17.304H97.6554V18.006H95.8554V21.984H95.0184V16.881C95.0184 16.281 95.1654 15.819 95.4594 15.495C95.7534 15.165 96.2154 15 96.8454 15Z" fill="#ADADAD"/>
<path d="M100.974 21.381C101.172 21.381 101.346 21.378 101.496 21.372C101.652 21.36 101.781 21.342 101.883 21.318V19.923C101.823 19.893 101.724 19.869 101.586 19.851C101.454 19.827 101.292 19.815 101.1 19.815C100.974 19.815 100.839 19.824 100.695 19.842C100.557 19.86 100.428 19.899 100.308 19.959C100.194 20.013 100.098 20.091 100.02 20.193C99.9421 20.289 99.9031 20.418 99.9031 20.58C99.9031 20.88 99.9991 21.09 100.191 21.21C100.383 21.324 100.644 21.381 100.974 21.381ZM100.902 17.187C101.238 17.187 101.52 17.232 101.748 17.322C101.982 17.406 102.168 17.529 102.306 17.691C102.45 17.847 102.552 18.036 102.612 18.258C102.672 18.474 102.702 18.714 102.702 18.978V21.903C102.63 21.915 102.528 21.933 102.396 21.957C102.27 21.975 102.126 21.993 101.964 22.011C101.802 22.029 101.625 22.044 101.433 22.056C101.247 22.074 101.061 22.083 100.875 22.083C100.611 22.083 100.368 22.056 100.146 22.002C99.9241 21.948 99.7321 21.864 99.5701 21.75C99.4081 21.63 99.2821 21.474 99.1921 21.282C99.1021 21.09 99.0571 20.859 99.0571 20.589C99.0571 20.331 99.1081 20.109 99.2101 19.923C99.3181 19.737 99.4621 19.587 99.6421 19.473C99.8221 19.359 100.032 19.275 100.272 19.221C100.512 19.167 100.764 19.14 101.028 19.14C101.112 19.14 101.199 19.146 101.289 19.158C101.379 19.164 101.463 19.176 101.541 19.194C101.625 19.206 101.697 19.218 101.757 19.23C101.817 19.242 101.859 19.251 101.883 19.257V19.023C101.883 18.885 101.868 18.75 101.838 18.618C101.808 18.48 101.754 18.36 101.676 18.258C101.598 18.15 101.49 18.066 101.352 18.006C101.22 17.94 101.046 17.907 100.83 17.907C100.554 17.907 100.311 17.928 100.101 17.97C99.8971 18.006 99.7441 18.045 99.6421 18.087L99.5431 17.394C99.6511 17.346 99.8311 17.301 100.083 17.259C100.335 17.211 100.608 17.187 100.902 17.187Z" fill="#ADADAD"/>
<path d="M60 23.442H103.368V24.153H60V23.442Z" fill="#ADADAD"/>
<path d="M120.024 15.927C120.9 15.927 121.572 16.095 122.04 16.431C122.514 16.761 122.751 17.256 122.751 17.916C122.751 18.276 122.685 18.585 122.553 18.843C122.427 19.095 122.241 19.302 121.995 19.464C121.755 19.62 121.461 19.734 121.113 19.806C120.765 19.878 120.372 19.914 119.934 19.914H119.241V22.227H118.368V16.08C118.614 16.02 118.887 15.981 119.187 15.963C119.493 15.939 119.772 15.927 120.024 15.927ZM120.096 16.692C119.724 16.692 119.439 16.701 119.241 16.719V19.167H119.898C120.198 19.167 120.468 19.149 120.708 19.113C120.948 19.071 121.149 19.005 121.311 18.915C121.479 18.819 121.608 18.69 121.698 18.528C121.788 18.366 121.833 18.159 121.833 17.907C121.833 17.667 121.785 17.469 121.689 17.313C121.599 17.157 121.473 17.034 121.311 16.944C121.155 16.848 120.972 16.782 120.762 16.746C120.552 16.71 120.33 16.692 120.096 16.692Z" fill="#ADADAD"/>
<path d="M126.418 17.448C126.49 17.448 126.571 17.454 126.661 17.466C126.757 17.472 126.85 17.484 126.94 17.502C127.03 17.514 127.111 17.529 127.183 17.547C127.261 17.559 127.318 17.571 127.354 17.583L127.21 18.312C127.144 18.288 127.033 18.261 126.877 18.231C126.727 18.195 126.532 18.177 126.292 18.177C126.136 18.177 125.98 18.195 125.824 18.231C125.674 18.261 125.575 18.282 125.527 18.294V22.227H124.69V17.745C124.888 17.673 125.134 17.607 125.428 17.547C125.722 17.481 126.052 17.448 126.418 17.448Z" fill="#ADADAD"/>
<path d="M133.192 19.887C133.192 20.259 133.138 20.595 133.03 20.895C132.922 21.195 132.769 21.453 132.571 21.669C132.379 21.885 132.148 22.053 131.878 22.173C131.608 22.287 131.314 22.344 130.996 22.344C130.678 22.344 130.384 22.287 130.114 22.173C129.844 22.053 129.61 21.885 129.412 21.669C129.22 21.453 129.07 21.195 128.962 20.895C128.854 20.595 128.8 20.259 128.8 19.887C128.8 19.521 128.854 19.188 128.962 18.888C129.07 18.582 129.22 18.321 129.412 18.105C129.61 17.889 129.844 17.724 130.114 17.61C130.384 17.49 130.678 17.43 130.996 17.43C131.314 17.43 131.608 17.49 131.878 17.61C132.148 17.724 132.379 17.889 132.571 18.105C132.769 18.321 132.922 18.582 133.03 18.888C133.138 19.188 133.192 19.521 133.192 19.887ZM132.319 19.887C132.319 19.359 132.199 18.942 131.959 18.636C131.725 18.324 131.404 18.168 130.996 18.168C130.588 18.168 130.264 18.324 130.024 18.636C129.79 18.942 129.673 19.359 129.673 19.887C129.673 20.415 129.79 20.835 130.024 21.147C130.264 21.453 130.588 21.606 130.996 21.606C131.404 21.606 131.725 21.453 131.959 21.147C132.199 20.835 132.319 20.415 132.319 19.887Z" fill="#ADADAD"/>
<path d="M134.505 23.91C134.433 23.91 134.34 23.901 134.226 23.883C134.112 23.865 134.016 23.841 133.938 23.811L134.046 23.127C134.106 23.145 134.175 23.16 134.253 23.172C134.331 23.184 134.403 23.19 134.469 23.19C134.757 23.19 134.961 23.1 135.081 22.92C135.207 22.746 135.27 22.488 135.27 22.146V17.547H136.107V22.137C136.107 22.737 135.969 23.181 135.693 23.469C135.423 23.763 135.027 23.91 134.505 23.91ZM135.684 16.701C135.534 16.701 135.405 16.653 135.297 16.557C135.195 16.455 135.144 16.32 135.144 16.152C135.144 15.984 135.195 15.852 135.297 15.756C135.405 15.654 135.534 15.603 135.684 15.603C135.834 15.603 135.96 15.654 136.062 15.756C136.17 15.852 136.224 15.984 136.224 16.152C136.224 16.32 136.17 16.455 136.062 16.557C135.96 16.653 135.834 16.701 135.684 16.701Z" fill="#ADADAD"/>
<path d="M138.185 19.896C138.185 19.482 138.245 19.122 138.365 18.816C138.485 18.504 138.644 18.246 138.842 18.042C139.04 17.838 139.268 17.685 139.526 17.583C139.784 17.481 140.048 17.43 140.318 17.43C140.948 17.43 141.431 17.628 141.767 18.024C142.103 18.414 142.271 19.011 142.271 19.815C142.271 19.851 142.271 19.899 142.271 19.959C142.271 20.013 142.268 20.064 142.262 20.112H139.058C139.094 20.598 139.235 20.967 139.481 21.219C139.727 21.471 140.111 21.597 140.633 21.597C140.927 21.597 141.173 21.573 141.371 21.525C141.575 21.471 141.728 21.42 141.83 21.372L141.947 22.074C141.845 22.128 141.665 22.185 141.407 22.245C141.155 22.305 140.867 22.335 140.543 22.335C140.135 22.335 139.781 22.275 139.481 22.155C139.187 22.029 138.944 21.858 138.752 21.642C138.56 21.426 138.416 21.171 138.32 20.877C138.23 20.577 138.185 20.25 138.185 19.896ZM141.398 19.437C141.404 19.059 141.308 18.75 141.11 18.51C140.918 18.264 140.651 18.141 140.309 18.141C140.117 18.141 139.946 18.18 139.796 18.258C139.652 18.33 139.529 18.426 139.427 18.546C139.325 18.666 139.244 18.804 139.184 18.96C139.13 19.116 139.094 19.275 139.076 19.437H141.398Z" fill="#ADADAD"/>
<path d="M145.778 22.317C145.262 22.305 144.896 22.194 144.68 21.984C144.464 21.774 144.356 21.447 144.356 21.003V15.387L145.193 15.243V20.868C145.193 21.006 145.205 21.12 145.229 21.21C145.253 21.3 145.292 21.372 145.346 21.426C145.4 21.48 145.472 21.522 145.562 21.552C145.652 21.576 145.763 21.597 145.895 21.615L145.778 22.317Z" fill="#ADADAD"/>
<path d="M147.474 19.896C147.474 19.482 147.534 19.122 147.654 18.816C147.774 18.504 147.933 18.246 148.131 18.042C148.329 17.838 148.557 17.685 148.815 17.583C149.073 17.481 149.337 17.43 149.607 17.43C150.237 17.43 150.72 17.628 151.056 18.024C151.392 18.414 151.56 19.011 151.56 19.815C151.56 19.851 151.56 19.899 151.56 19.959C151.56 20.013 151.557 20.064 151.551 20.112H148.347C148.383 20.598 148.524 20.967 148.77 21.219C149.016 21.471 149.4 21.597 149.922 21.597C150.216 21.597 150.462 21.573 150.66 21.525C150.864 21.471 151.017 21.42 151.119 21.372L151.236 22.074C151.134 22.128 150.954 22.185 150.696 22.245C150.444 22.305 150.156 22.335 149.832 22.335C149.424 22.335 149.07 22.275 148.77 22.155C148.476 22.029 148.233 21.858 148.041 21.642C147.849 21.426 147.705 21.171 147.609 20.877C147.519 20.577 147.474 20.25 147.474 19.896ZM150.687 19.437C150.693 19.059 150.597 18.75 150.399 18.51C150.207 18.264 149.94 18.141 149.598 18.141C149.406 18.141 149.235 18.18 149.085 18.258C148.941 18.33 148.818 18.426 148.716 18.546C148.614 18.666 148.533 18.804 148.473 18.96C148.419 19.116 148.383 19.275 148.365 19.437H150.687Z" fill="#ADADAD"/>
<path d="M155.39 17.448C155.462 17.448 155.543 17.454 155.633 17.466C155.729 17.472 155.822 17.484 155.912 17.502C156.002 17.514 156.083 17.529 156.155 17.547C156.233 17.559 156.29 17.571 156.326 17.583L156.182 18.312C156.116 18.288 156.005 18.261 155.849 18.231C155.699 18.195 155.504 18.177 155.264 18.177C155.108 18.177 154.952 18.195 154.796 18.231C154.646 18.261 154.547 18.282 154.499 18.294V22.227H153.662V17.745C153.86 17.673 154.106 17.607 154.4 17.547C154.694 17.481 155.024 17.448 155.39 17.448Z" fill="#ADADAD"/>
<path d="M158.871 22.227H158.034V17.547H158.871V22.227ZM158.448 16.701C158.298 16.701 158.169 16.653 158.061 16.557C157.959 16.455 157.908 16.32 157.908 16.152C157.908 15.984 157.959 15.852 158.061 15.756C158.169 15.654 158.298 15.603 158.448 15.603C158.598 15.603 158.724 15.654 158.826 15.756C158.934 15.852 158.988 15.984 158.988 16.152C158.988 16.32 158.934 16.455 158.826 16.557C158.724 16.653 158.598 16.701 158.448 16.701Z" fill="#ADADAD"/>
<path d="M161.21 17.682C161.402 17.634 161.654 17.583 161.966 17.529C162.284 17.475 162.65 17.448 163.064 17.448C163.364 17.448 163.616 17.49 163.82 17.574C164.024 17.652 164.195 17.769 164.333 17.925C164.375 17.895 164.441 17.853 164.531 17.799C164.621 17.745 164.732 17.694 164.864 17.646C164.996 17.592 165.143 17.547 165.305 17.511C165.467 17.469 165.641 17.448 165.827 17.448C166.187 17.448 166.481 17.502 166.709 17.61C166.937 17.712 167.114 17.859 167.24 18.051C167.372 18.243 167.459 18.471 167.501 18.735C167.549 18.999 167.573 19.287 167.573 19.599V22.227H166.736V19.779C166.736 19.503 166.721 19.266 166.691 19.068C166.667 18.87 166.616 18.705 166.538 18.573C166.466 18.441 166.364 18.345 166.232 18.285C166.106 18.219 165.941 18.186 165.737 18.186C165.455 18.186 165.221 18.225 165.035 18.303C164.855 18.375 164.732 18.441 164.666 18.501C164.714 18.657 164.75 18.828 164.774 19.014C164.798 19.2 164.81 19.395 164.81 19.599V22.227H163.973V19.779C163.973 19.503 163.958 19.266 163.928 19.068C163.898 18.87 163.844 18.705 163.766 18.573C163.694 18.441 163.592 18.345 163.46 18.285C163.334 18.219 163.172 18.186 162.974 18.186C162.89 18.186 162.8 18.189 162.704 18.195C162.608 18.201 162.515 18.21 162.425 18.222C162.341 18.228 162.263 18.237 162.191 18.249C162.119 18.261 162.071 18.27 162.047 18.276V22.227H161.21V17.682Z" fill="#ADADAD"/>
<path d="M170.699 22.227H169.862V17.547H170.699V22.227ZM170.276 16.701C170.126 16.701 169.997 16.653 169.889 16.557C169.787 16.455 169.736 16.32 169.736 16.152C169.736 15.984 169.787 15.852 169.889 15.756C169.997 15.654 170.126 15.603 170.276 15.603C170.426 15.603 170.552 15.654 170.654 15.756C170.762 15.852 170.816 15.984 170.816 16.152C170.816 16.32 170.762 16.455 170.654 16.557C170.552 16.653 170.426 16.701 170.276 16.701Z" fill="#ADADAD"/>
<path d="M176.143 18.177C176.017 18.315 175.849 18.51 175.639 18.762C175.435 19.014 175.213 19.293 174.973 19.599C174.739 19.905 174.502 20.226 174.262 20.562C174.028 20.898 173.821 21.219 173.641 21.525H176.215V22.227H172.642V21.669C172.786 21.405 172.963 21.114 173.173 20.796C173.383 20.478 173.602 20.163 173.83 19.851C174.064 19.533 174.289 19.236 174.505 18.96C174.727 18.678 174.919 18.441 175.081 18.249H172.768V17.547H176.143V18.177Z" fill="#ADADAD"/>
<path d="M196.219 22.7325V23.7405H191.215V15.4245H192.379V22.7325H196.219Z" fill="#C4C4C4"/>
<path d="M196.563 19.5765C196.563 18.8645 196.667 18.2365 196.875 17.6925C197.091 17.1485 197.379 16.6965 197.739 16.3365C198.107 15.9685 198.531 15.6925 199.011 15.5085C199.499 15.3245 200.015 15.2325 200.559 15.2325C201.095 15.2325 201.599 15.3245 202.071 15.5085C202.551 15.6925 202.971 15.9685 203.331 16.3365C203.691 16.6965 203.975 17.1485 204.183 17.6925C204.399 18.2365 204.507 18.8645 204.507 19.5765C204.507 20.2885 204.399 20.9165 204.183 21.4605C203.975 22.0045 203.691 22.4605 203.331 22.8285C202.971 23.1885 202.551 23.4605 202.071 23.6445C201.599 23.8285 201.095 23.9205 200.559 23.9205C200.015 23.9205 199.499 23.8285 199.011 23.6445C198.531 23.4605 198.107 23.1885 197.739 22.8285C197.379 22.4605 197.091 22.0045 196.875 21.4605C196.667 20.9165 196.563 20.2885 196.563 19.5765ZM197.787 19.5765C197.787 20.0805 197.851 20.5405 197.979 20.9565C198.107 21.3645 198.287 21.7125 198.519 22.0005C198.759 22.2885 199.047 22.5125 199.383 22.6725C199.727 22.8245 200.111 22.9005 200.535 22.9005C200.959 22.9005 201.339 22.8245 201.675 22.6725C202.011 22.5125 202.295 22.2885 202.527 22.0005C202.767 21.7125 202.951 21.3645 203.079 20.9565C203.207 20.5405 203.271 20.0805 203.271 19.5765C203.271 19.0725 203.207 18.6165 203.079 18.2085C202.951 17.7925 202.767 17.4405 202.527 17.1525C202.295 16.8645 202.011 16.6445 201.675 16.4925C201.339 16.3325 200.959 16.2525 200.535 16.2525C200.111 16.2525 199.727 16.3325 199.383 16.4925C199.047 16.6445 198.759 16.8645 198.519 17.1525C198.287 17.4405 198.107 17.7925 197.979 18.2085C197.851 18.6165 197.787 19.0725 197.787 19.5765Z" fill="#C4C4C4"/>
<path d="M211.315 19.6485H212.479V23.5365C212.383 23.5685 212.243 23.6045 212.059 23.6445C211.883 23.6845 211.675 23.7245 211.435 23.7645C211.203 23.8045 210.947 23.8365 210.667 23.8605C210.387 23.8925 210.103 23.9085 209.815 23.9085C209.231 23.9085 208.699 23.8125 208.219 23.6205C207.739 23.4285 207.327 23.1485 206.983 22.7805C206.639 22.4125 206.371 21.9605 206.179 21.4245C205.995 20.8885 205.903 20.2725 205.903 19.5765C205.903 18.8805 206.007 18.2645 206.215 17.7285C206.431 17.1845 206.719 16.7285 207.079 16.3605C207.439 15.9925 207.859 15.7125 208.339 15.5205C208.827 15.3285 209.347 15.2325 209.899 15.2325C210.275 15.2325 210.607 15.2565 210.895 15.3045C211.191 15.3525 211.443 15.4085 211.651 15.4725C211.859 15.5365 212.027 15.6005 212.155 15.6645C212.291 15.7285 212.383 15.7765 212.431 15.8085L212.059 16.7805C211.827 16.6285 211.519 16.5045 211.135 16.4085C210.751 16.3045 210.359 16.2525 209.959 16.2525C209.535 16.2525 209.147 16.3285 208.795 16.4805C208.451 16.6325 208.155 16.8525 207.907 17.1405C207.667 17.4285 207.479 17.7805 207.343 18.1965C207.207 18.6045 207.139 19.0645 207.139 19.5765C207.139 20.0725 207.195 20.5245 207.307 20.9325C207.427 21.3405 207.603 21.6925 207.835 21.9885C208.075 22.2765 208.367 22.5005 208.711 22.6605C209.063 22.8205 209.475 22.9005 209.947 22.9005C210.283 22.9005 210.567 22.8845 210.799 22.8525C211.039 22.8125 211.211 22.7765 211.315 22.7445V19.6485Z" fill="#C4C4C4"/>
<path d="M213.965 19.5765C213.965 18.8645 214.069 18.2365 214.277 17.6925C214.493 17.1485 214.781 16.6965 215.141 16.3365C215.509 15.9685 215.933 15.6925 216.413 15.5085C216.901 15.3245 217.417 15.2325 217.961 15.2325C218.497 15.2325 219.001 15.3245 219.473 15.5085C219.953 15.6925 220.373 15.9685 220.733 16.3365C221.093 16.6965 221.377 17.1485 221.585 17.6925C221.801 18.2365 221.909 18.8645 221.909 19.5765C221.909 20.2885 221.801 20.9165 221.585 21.4605C221.377 22.0045 221.093 22.4605 220.733 22.8285C220.373 23.1885 219.953 23.4605 219.473 23.6445C219.001 23.8285 218.497 23.9205 217.961 23.9205C217.417 23.9205 216.901 23.8285 216.413 23.6445C215.933 23.4605 215.509 23.1885 215.141 22.8285C214.781 22.4605 214.493 22.0045 214.277 21.4605C214.069 20.9165 213.965 20.2885 213.965 19.5765ZM215.189 19.5765C215.189 20.0805 215.253 20.5405 215.381 20.9565C215.509 21.3645 215.689 21.7125 215.921 22.0005C216.161 22.2885 216.449 22.5125 216.785 22.6725C217.129 22.8245 217.513 22.9005 217.937 22.9005C218.361 22.9005 218.741 22.8245 219.077 22.6725C219.413 22.5125 219.697 22.2885 219.929 22.0005C220.169 21.7125 220.353 21.3645 220.481 20.9565C220.609 20.5405 220.673 20.0805 220.673 19.5765C220.673 19.0725 220.609 18.6165 220.481 18.2085C220.353 17.7925 220.169 17.4405 219.929 17.1525C219.697 16.8645 219.413 16.6445 219.077 16.4925C218.741 16.3325 218.361 16.2525 217.937 16.2525C217.513 16.2525 217.129 16.3325 216.785 16.4925C216.449 16.6445 216.161 16.8645 215.921 17.1525C215.689 17.4405 215.509 17.7925 215.381 18.2085C215.253 18.6165 215.189 19.0725 215.189 19.5765Z" fill="#C4C4C4"/>
<path d="M241.269 17.103H242.239V24.033H241.269V20.833H237.879V24.033H236.909V17.103H237.879V19.993H241.269V17.103Z" fill="#ADADAD"/>
<path d="M245.66 23.363C245.88 23.363 246.073 23.3597 246.24 23.353C246.413 23.3397 246.557 23.3197 246.67 23.293V21.743C246.603 21.7097 246.493 21.683 246.34 21.663C246.193 21.6363 246.013 21.623 245.8 21.623C245.66 21.623 245.51 21.633 245.35 21.653C245.197 21.673 245.053 21.7163 244.92 21.783C244.793 21.843 244.687 21.9297 244.6 22.043C244.513 22.1497 244.47 22.293 244.47 22.473C244.47 22.8063 244.577 23.0397 244.79 23.173C245.003 23.2997 245.293 23.363 245.66 23.363ZM245.58 18.703C245.953 18.703 246.267 18.753 246.52 18.853C246.78 18.9463 246.987 19.083 247.14 19.263C247.3 19.4363 247.413 19.6463 247.48 19.893C247.547 20.133 247.58 20.3997 247.58 20.693V23.943C247.5 23.9563 247.387 23.9763 247.24 24.003C247.1 24.023 246.94 24.043 246.76 24.063C246.58 24.083 246.383 24.0997 246.17 24.113C245.963 24.133 245.757 24.143 245.55 24.143C245.257 24.143 244.987 24.113 244.74 24.053C244.493 23.993 244.28 23.8997 244.1 23.773C243.92 23.6397 243.78 23.4663 243.68 23.253C243.58 23.0397 243.53 22.783 243.53 22.483C243.53 22.1963 243.587 21.9497 243.7 21.743C243.82 21.5363 243.98 21.3697 244.18 21.243C244.38 21.1163 244.613 21.023 244.88 20.963C245.147 20.903 245.427 20.873 245.72 20.873C245.813 20.873 245.91 20.8797 246.01 20.893C246.11 20.8997 246.203 20.913 246.29 20.933C246.383 20.9463 246.463 20.9597 246.53 20.973C246.597 20.9863 246.643 20.9963 246.67 21.003V20.743C246.67 20.5897 246.653 20.4397 246.62 20.293C246.587 20.1397 246.527 20.0063 246.44 19.893C246.353 19.773 246.233 19.6797 246.08 19.613C245.933 19.5397 245.74 19.503 245.5 19.503C245.193 19.503 244.923 19.5263 244.69 19.573C244.463 19.613 244.293 19.6563 244.18 19.703L244.07 18.933C244.19 18.8797 244.39 18.8297 244.67 18.783C244.95 18.7297 245.253 18.703 245.58 18.703Z" fill="#ADADAD"/>
<path d="M251.005 21.173C251.205 21.3263 251.415 21.5163 251.635 21.743C251.861 21.9697 252.081 22.2163 252.295 22.483C252.515 22.743 252.721 23.0097 252.915 23.283C253.108 23.5497 253.271 23.7997 253.405 24.033H252.315C252.175 23.7997 252.011 23.563 251.825 23.323C251.645 23.0763 251.455 22.843 251.255 22.623C251.055 22.3963 250.851 22.1897 250.645 22.003C250.438 21.8163 250.241 21.6597 250.055 21.533V24.033H249.125V16.433L250.055 16.273V21.013C250.215 20.853 250.391 20.6763 250.585 20.483C250.778 20.2897 250.968 20.093 251.155 19.893C251.341 19.693 251.518 19.503 251.685 19.323C251.851 19.1363 251.995 18.973 252.115 18.833H253.205C253.051 18.9997 252.885 19.183 252.705 19.383C252.525 19.583 252.338 19.7863 252.145 19.993C251.951 20.193 251.755 20.3963 251.555 20.603C251.361 20.803 251.178 20.993 251.005 21.173Z" fill="#ADADAD"/>
<path d="M256.229 21.173C256.429 21.3263 256.639 21.5163 256.859 21.743C257.086 21.9697 257.306 22.2163 257.519 22.483C257.739 22.743 257.946 23.0097 258.139 23.283C258.333 23.5497 258.496 23.7997 258.629 24.033H257.539C257.399 23.7997 257.236 23.563 257.049 23.323C256.869 23.0763 256.679 22.843 256.479 22.623C256.279 22.3963 256.076 22.1897 255.869 22.003C255.663 21.8163 255.466 21.6597 255.279 21.533V24.033H254.349V16.433L255.279 16.273V21.013C255.439 20.853 255.616 20.6763 255.809 20.483C256.003 20.2897 256.193 20.093 256.379 19.893C256.566 19.693 256.743 19.503 256.909 19.323C257.076 19.1363 257.219 18.973 257.339 18.833H258.429C258.276 18.9997 258.109 19.183 257.929 19.383C257.749 19.583 257.563 19.7863 257.369 19.993C257.176 20.193 256.979 20.3963 256.779 20.603C256.586 20.803 256.403 20.993 256.229 21.173Z" fill="#ADADAD"/>
<path d="M260.504 24.033H259.574V18.833H260.504V24.033Z" fill="#ADADAD"/>
<path d="M262.103 18.983C262.317 18.9297 262.597 18.873 262.943 18.813C263.297 18.753 263.703 18.723 264.163 18.723C264.497 18.723 264.777 18.7697 265.003 18.863C265.23 18.9497 265.42 19.0797 265.573 19.253C265.62 19.2197 265.693 19.173 265.793 19.113C265.893 19.053 266.017 18.9963 266.163 18.943C266.31 18.883 266.473 18.833 266.653 18.793C266.833 18.7463 267.027 18.723 267.233 18.723C267.633 18.723 267.96 18.783 268.213 18.903C268.467 19.0163 268.663 19.1797 268.803 19.393C268.95 19.6063 269.047 19.8597 269.093 20.153C269.147 20.4463 269.173 20.7663 269.173 21.113V24.033H268.243V21.313C268.243 21.0063 268.227 20.743 268.193 20.523C268.167 20.303 268.11 20.1197 268.023 19.973C267.943 19.8263 267.83 19.7197 267.683 19.653C267.543 19.5797 267.36 19.543 267.133 19.543C266.82 19.543 266.56 19.5863 266.353 19.673C266.153 19.753 266.017 19.8263 265.943 19.893C265.997 20.0663 266.037 20.2563 266.063 20.463C266.09 20.6697 266.103 20.8863 266.103 21.113V24.033H265.173V21.313C265.173 21.0063 265.157 20.743 265.123 20.523C265.09 20.303 265.03 20.1197 264.943 19.973C264.863 19.8263 264.75 19.7197 264.603 19.653C264.463 19.5797 264.283 19.543 264.063 19.543C263.97 19.543 263.87 19.5463 263.763 19.553C263.657 19.5597 263.553 19.5697 263.453 19.583C263.36 19.5897 263.273 19.5997 263.193 19.613C263.113 19.6263 263.06 19.6363 263.033 19.643V24.033H262.103V18.983Z" fill="#ADADAD"/>
<path d="M271.646 24.033H270.716V18.833H271.646V24.033Z" fill="#ADADAD"/>
<path d="M276.696 19.533C276.556 19.6863 276.369 19.903 276.136 20.183C275.909 20.463 275.662 20.773 275.396 21.113C275.136 21.453 274.872 21.8097 274.606 22.183C274.346 22.5563 274.116 22.913 273.916 23.253H276.776V24.033H272.806V23.413C272.966 23.1197 273.162 22.7963 273.396 22.443C273.629 22.0897 273.872 21.7397 274.126 21.393C274.386 21.0397 274.636 20.7097 274.876 20.403C275.122 20.0897 275.336 19.8263 275.516 19.613H272.946V18.833H276.696V19.533Z" fill="#ADADAD"/>
<path d="M281.118 19.933C281.004 19.8397 280.841 19.7497 280.628 19.663C280.414 19.5763 280.181 19.533 279.928 19.533C279.661 19.533 279.431 19.583 279.238 19.683C279.051 19.7763 278.898 19.9097 278.778 20.083C278.658 20.2497 278.571 20.4497 278.518 20.683C278.464 20.9163 278.438 21.1663 278.438 21.433C278.438 22.0397 278.588 22.5097 278.888 22.843C279.188 23.1697 279.588 23.333 280.088 23.333C280.341 23.333 280.551 23.323 280.718 23.303C280.891 23.2763 281.024 23.2497 281.118 23.223V19.933ZM281.118 16.433L282.048 16.273V23.883C281.834 23.943 281.561 24.003 281.228 24.063C280.894 24.123 280.511 24.153 280.078 24.153C279.678 24.153 279.318 24.0897 278.998 23.963C278.678 23.8363 278.404 23.6563 278.178 23.423C277.951 23.1897 277.774 22.9063 277.648 22.573C277.528 22.233 277.468 21.853 277.468 21.433C277.468 21.033 277.518 20.6663 277.618 20.333C277.724 19.9997 277.878 19.713 278.078 19.473C278.278 19.233 278.521 19.0463 278.808 18.913C279.101 18.7797 279.434 18.713 279.808 18.713C280.108 18.713 280.371 18.753 280.598 18.833C280.831 18.913 281.004 18.9897 281.118 19.063V16.433Z" fill="#ADADAD"/>
<path d="M285.406 23.363C285.626 23.363 285.82 23.3597 285.986 23.353C286.16 23.3397 286.303 23.3197 286.416 23.293V21.743C286.35 21.7097 286.24 21.683 286.086 21.663C285.94 21.6363 285.76 21.623 285.546 21.623C285.406 21.623 285.256 21.633 285.096 21.653C284.943 21.673 284.8 21.7163 284.666 21.783C284.54 21.843 284.433 21.9297 284.346 22.043C284.26 22.1497 284.216 22.293 284.216 22.473C284.216 22.8063 284.323 23.0397 284.536 23.173C284.75 23.2997 285.04 23.363 285.406 23.363ZM285.326 18.703C285.7 18.703 286.013 18.753 286.266 18.853C286.526 18.9463 286.733 19.083 286.886 19.263C287.046 19.4363 287.16 19.6463 287.226 19.893C287.293 20.133 287.326 20.3997 287.326 20.693V23.943C287.246 23.9563 287.133 23.9763 286.986 24.003C286.846 24.023 286.686 24.043 286.506 24.063C286.326 24.083 286.13 24.0997 285.916 24.113C285.71 24.133 285.503 24.143 285.296 24.143C285.003 24.143 284.733 24.113 284.486 24.053C284.24 23.993 284.026 23.8997 283.846 23.773C283.666 23.6397 283.526 23.4663 283.426 23.253C283.326 23.0397 283.276 22.783 283.276 22.483C283.276 22.1963 283.333 21.9497 283.446 21.743C283.566 21.5363 283.726 21.3697 283.926 21.243C284.126 21.1163 284.36 21.023 284.626 20.963C284.893 20.903 285.173 20.873 285.466 20.873C285.56 20.873 285.656 20.8797 285.756 20.893C285.856 20.8997 285.95 20.913 286.036 20.933C286.13 20.9463 286.21 20.9597 286.276 20.973C286.343 20.9863 286.39 20.9963 286.416 21.003V20.743C286.416 20.5897 286.4 20.4397 286.366 20.293C286.333 20.1397 286.273 20.0063 286.186 19.893C286.1 19.773 285.98 19.6797 285.826 19.613C285.68 19.5397 285.486 19.503 285.246 19.503C284.94 19.503 284.67 19.5263 284.436 19.573C284.21 19.613 284.04 19.6563 283.926 19.703L283.816 18.933C283.936 18.8797 284.136 18.8297 284.416 18.783C284.696 18.7297 285 18.703 285.326 18.703Z" fill="#ADADAD"/>
<path d="M302.326 15.981H303.199V22.218H302.326V15.981Z" fill="#ADADAD"/>
<path d="M306.993 22.308C306.477 22.296 306.111 22.185 305.895 21.975C305.679 21.765 305.571 21.438 305.571 20.994V15.378L306.408 15.234V20.859C306.408 20.997 306.42 21.111 306.444 21.201C306.468 21.291 306.507 21.363 306.561 21.417C306.615 21.471 306.687 21.513 306.777 21.543C306.867 21.567 306.978 21.588 307.11 21.606L306.993 22.308Z" fill="#ADADAD"/>
<path d="M308.689 19.887C308.689 19.473 308.749 19.113 308.869 18.807C308.989 18.495 309.148 18.237 309.346 18.033C309.544 17.829 309.772 17.676 310.03 17.574C310.288 17.472 310.552 17.421 310.822 17.421C311.452 17.421 311.935 17.619 312.271 18.015C312.607 18.405 312.775 19.002 312.775 19.806C312.775 19.842 312.775 19.89 312.775 19.95C312.775 20.004 312.772 20.055 312.766 20.103H309.562C309.598 20.589 309.739 20.958 309.985 21.21C310.231 21.462 310.615 21.588 311.137 21.588C311.431 21.588 311.677 21.564 311.875 21.516C312.079 21.462 312.232 21.411 312.334 21.363L312.451 22.065C312.349 22.119 312.169 22.176 311.911 22.236C311.659 22.296 311.371 22.326 311.047 22.326C310.639 22.326 310.285 22.266 309.985 22.146C309.691 22.02 309.448 21.849 309.256 21.633C309.064 21.417 308.92 21.162 308.824 20.868C308.734 20.568 308.689 20.241 308.689 19.887ZM311.902 19.428C311.908 19.05 311.812 18.741 311.614 18.501C311.422 18.255 311.155 18.132 310.813 18.132C310.621 18.132 310.45 18.171 310.3 18.249C310.156 18.321 310.033 18.417 309.931 18.537C309.829 18.657 309.748 18.795 309.688 18.951C309.634 19.107 309.598 19.266 309.58 19.428H311.902Z" fill="#ADADAD"/>
<path d="M315.66 17.538H317.433V18.24H315.66V20.4C315.66 20.634 315.678 20.829 315.714 20.985C315.75 21.135 315.804 21.255 315.876 21.345C315.948 21.429 316.038 21.489 316.146 21.525C316.254 21.561 316.38 21.579 316.524 21.579C316.776 21.579 316.977 21.552 317.127 21.498C317.283 21.438 317.391 21.396 317.451 21.372L317.613 22.065C317.529 22.107 317.382 22.158 317.172 22.218C316.962 22.284 316.722 22.317 316.452 22.317C316.134 22.317 315.87 22.278 315.66 22.2C315.456 22.116 315.291 21.993 315.165 21.831C315.039 21.669 314.949 21.471 314.895 21.237C314.847 20.997 314.823 20.721 314.823 20.409V16.233L315.66 16.089V17.538Z" fill="#ADADAD"/>
<path d="M320.236 22.218H319.399V17.538H320.236V22.218ZM319.813 16.692C319.663 16.692 319.534 16.644 319.426 16.548C319.324 16.446 319.273 16.311 319.273 16.143C319.273 15.975 319.324 15.843 319.426 15.747C319.534 15.645 319.663 15.594 319.813 15.594C319.963 15.594 320.089 15.645 320.191 15.747C320.299 15.843 320.353 15.975 320.353 16.143C320.353 16.311 320.299 16.446 320.191 16.548C320.089 16.644 319.963 16.692 319.813 16.692Z" fill="#ADADAD"/>
<path d="M323.664 21.615C324.006 21.615 324.258 21.57 324.42 21.48C324.588 21.39 324.672 21.246 324.672 21.048C324.672 20.844 324.591 20.682 324.429 20.562C324.267 20.442 324 20.307 323.628 20.157C323.448 20.085 323.274 20.013 323.106 19.941C322.944 19.863 322.803 19.773 322.683 19.671C322.563 19.569 322.467 19.446 322.395 19.302C322.323 19.158 322.287 18.981 322.287 18.771C322.287 18.357 322.44 18.03 322.746 17.79C323.052 17.544 323.469 17.421 323.997 17.421C324.129 17.421 324.261 17.43 324.393 17.448C324.525 17.46 324.648 17.478 324.762 17.502C324.876 17.52 324.975 17.541 325.059 17.565C325.149 17.589 325.218 17.61 325.266 17.628L325.113 18.348C325.023 18.3 324.882 18.252 324.69 18.204C324.498 18.15 324.267 18.123 323.997 18.123C323.763 18.123 323.559 18.171 323.385 18.267C323.211 18.357 323.124 18.501 323.124 18.699C323.124 18.807 323.142 18.9 323.178 18.978C323.22 19.05 323.28 19.116 323.358 19.176C323.442 19.236 323.544 19.296 323.664 19.356C323.784 19.41 323.928 19.467 324.096 19.527C324.312 19.611 324.507 19.695 324.681 19.779C324.855 19.857 325.005 19.95 325.131 20.058C325.257 20.166 325.353 20.298 325.419 20.454C325.485 20.604 325.518 20.79 325.518 21.012C325.518 21.384 325.398 21.678 325.158 21.894C324.918 22.11 324.573 22.245 324.123 22.299C324.099 22.347 324.075 22.392 324.051 22.434C324.033 22.476 324.018 22.515 324.006 22.551C324.18 22.635 324.306 22.725 324.384 22.821C324.462 22.923 324.501 23.07 324.501 23.262C324.501 23.328 324.486 23.4 324.456 23.478C324.426 23.556 324.375 23.628 324.303 23.694C324.231 23.76 324.135 23.814 324.015 23.856C323.895 23.898 323.748 23.919 323.574 23.919C323.418 23.919 323.274 23.907 323.142 23.883C323.016 23.859 322.914 23.832 322.836 23.802L322.935 23.289C323.007 23.313 323.082 23.334 323.16 23.352C323.244 23.37 323.337 23.379 323.439 23.379C323.655 23.379 323.763 23.31 323.763 23.172C323.763 23.106 323.73 23.049 323.664 23.001C323.598 22.959 323.505 22.914 323.385 22.866L323.322 22.839C323.346 22.767 323.376 22.683 323.412 22.587C323.454 22.497 323.496 22.41 323.538 22.326C323.16 22.314 322.863 22.278 322.647 22.218C322.437 22.152 322.293 22.101 322.215 22.065L322.368 21.345C322.464 21.381 322.617 21.435 322.827 21.507C323.037 21.579 323.316 21.615 323.664 21.615Z" fill="#ADADAD"/>
<path d="M328.329 22.218H327.492V17.538H328.329V22.218ZM327.906 16.692C327.756 16.692 327.627 16.644 327.519 16.548C327.417 16.446 327.366 16.311 327.366 16.143C327.366 15.975 327.417 15.843 327.519 15.747C327.627 15.645 327.756 15.594 327.906 15.594C328.056 15.594 328.182 15.645 328.284 15.747C328.392 15.843 328.446 15.975 328.446 16.143C328.446 16.311 328.392 16.446 328.284 16.548C328.182 16.644 328.056 16.692 327.906 16.692Z" fill="#ADADAD"/>
<path d="M330.668 17.673C330.86 17.625 331.112 17.574 331.424 17.52C331.742 17.466 332.108 17.439 332.522 17.439C332.822 17.439 333.074 17.481 333.278 17.565C333.482 17.643 333.653 17.76 333.791 17.916C333.833 17.886 333.899 17.844 333.989 17.79C334.079 17.736 334.19 17.685 334.322 17.637C334.454 17.583 334.601 17.538 334.763 17.502C334.925 17.46 335.099 17.439 335.285 17.439C335.645 17.439 335.939 17.493 336.167 17.601C336.395 17.703 336.572 17.85 336.698 18.042C336.83 18.234 336.917 18.462 336.959 18.726C337.007 18.99 337.031 19.278 337.031 19.59V22.218H336.194V19.77C336.194 19.494 336.179 19.257 336.149 19.059C336.125 18.861 336.074 18.696 335.996 18.564C335.924 18.432 335.822 18.336 335.69 18.276C335.564 18.21 335.399 18.177 335.195 18.177C334.913 18.177 334.679 18.216 334.493 18.294C334.313 18.366 334.19 18.432 334.124 18.492C334.172 18.648 334.208 18.819 334.232 19.005C334.256 19.191 334.268 19.386 334.268 19.59V22.218H333.431V19.77C333.431 19.494 333.416 19.257 333.386 19.059C333.356 18.861 333.302 18.696 333.224 18.564C333.152 18.432 333.05 18.336 332.918 18.276C332.792 18.21 332.63 18.177 332.432 18.177C332.348 18.177 332.258 18.18 332.162 18.186C332.066 18.192 331.973 18.201 331.883 18.213C331.799 18.219 331.721 18.228 331.649 18.24C331.577 18.252 331.529 18.261 331.505 18.267V22.218H330.668V17.673Z" fill="#ADADAD"/>
<defs>
<clipPath id="clip0">
<rect width="7.70642" height="7.70642" fill="white" transform="translate(7 17)"/>
</clipPath>
<clipPath id="clip1">
<rect width="7.70642" height="7.70642" fill="white" transform="translate(30.1193 17)"/>
</clipPath>
</defs>
</svg>
