<svg width="400" height="40" viewBox="0 0 400 40" fill="none" xmlns="http://www.w3.org/2000/svg">
<rect width="400" height="40" fill="white"/>
<path d="M201.004 22.5V23.508H196V15.192H197.164V22.5H201.004Z" fill="#C4C4C4"/>
<path d="M201.348 19.344C201.348 18.632 201.452 18.004 201.66 17.46C201.876 16.916 202.164 16.464 202.524 16.104C202.892 15.736 203.316 15.46 203.796 15.276C204.284 15.092 204.8 15 205.344 15C205.88 15 206.384 15.092 206.856 15.276C207.336 15.46 207.756 15.736 208.116 16.104C208.476 16.464 208.76 16.916 208.968 17.46C209.184 18.004 209.292 18.632 209.292 19.344C209.292 20.056 209.184 20.684 208.968 21.228C208.76 21.772 208.476 22.228 208.116 22.596C207.756 22.956 207.336 23.228 206.856 23.412C206.384 23.596 205.88 23.688 205.344 23.688C204.8 23.688 204.284 23.596 203.796 23.412C203.316 23.228 202.892 22.956 202.524 22.596C202.164 22.228 201.876 21.772 201.66 21.228C201.452 20.684 201.348 20.056 201.348 19.344ZM202.572 19.344C202.572 19.848 202.636 20.308 202.764 20.724C202.892 21.132 203.072 21.48 203.304 21.768C203.544 22.056 203.832 22.28 204.168 22.44C204.512 22.592 204.896 22.668 205.32 22.668C205.744 22.668 206.124 22.592 206.46 22.44C206.796 22.28 207.08 22.056 207.312 21.768C207.552 21.48 207.736 21.132 207.864 20.724C207.992 20.308 208.056 19.848 208.056 19.344C208.056 18.84 207.992 18.384 207.864 17.976C207.736 17.56 207.552 17.208 207.312 16.92C207.08 16.632 206.796 16.412 206.46 16.26C206.124 16.1 205.744 16.02 205.32 16.02C204.896 16.02 204.512 16.1 204.168 16.26C203.832 16.412 203.544 16.632 203.304 16.92C203.072 17.208 202.892 17.56 202.764 17.976C202.636 18.384 202.572 18.84 202.572 19.344Z" fill="#C4C4C4"/>
<path d="M216.099 19.416H217.263V23.304C217.167 23.336 217.027 23.372 216.843 23.412C216.667 23.452 216.459 23.492 216.219 23.532C215.987 23.572 215.731 23.604 215.451 23.628C215.171 23.66 214.887 23.676 214.599 23.676C214.015 23.676 213.483 23.58 213.003 23.388C212.523 23.196 212.111 22.916 211.767 22.548C211.423 22.18 211.155 21.728 210.963 21.192C210.779 20.656 210.687 20.04 210.687 19.344C210.687 18.648 210.791 18.032 210.999 17.496C211.215 16.952 211.503 16.496 211.863 16.128C212.223 15.76 212.643 15.48 213.123 15.288C213.611 15.096 214.131 15 214.683 15C215.059 15 215.391 15.024 215.679 15.072C215.975 15.12 216.227 15.176 216.435 15.24C216.643 15.304 216.811 15.368 216.939 15.432C217.075 15.496 217.167 15.544 217.215 15.576L216.843 16.548C216.611 16.396 216.303 16.272 215.919 16.176C215.535 16.072 215.143 16.02 214.743 16.02C214.319 16.02 213.931 16.096 213.579 16.248C213.235 16.4 212.939 16.62 212.691 16.908C212.451 17.196 212.263 17.548 212.127 17.964C211.991 18.372 211.923 18.832 211.923 19.344C211.923 19.84 211.979 20.292 212.091 20.7C212.211 21.108 212.387 21.46 212.619 21.756C212.859 22.044 213.151 22.268 213.495 22.428C213.847 22.588 214.259 22.668 214.731 22.668C215.067 22.668 215.351 22.652 215.583 22.62C215.823 22.58 215.995 22.544 216.099 22.512V19.416Z" fill="#C4C4C4"/>
<path d="M218.75 19.344C218.75 18.632 218.854 18.004 219.062 17.46C219.278 16.916 219.566 16.464 219.926 16.104C220.294 15.736 220.718 15.46 221.198 15.276C221.686 15.092 222.202 15 222.746 15C223.282 15 223.786 15.092 224.258 15.276C224.738 15.46 225.158 15.736 225.518 16.104C225.878 16.464 226.162 16.916 226.37 17.46C226.586 18.004 226.694 18.632 226.694 19.344C226.694 20.056 226.586 20.684 226.37 21.228C226.162 21.772 225.878 22.228 225.518 22.596C225.158 22.956 224.738 23.228 224.258 23.412C223.786 23.596 223.282 23.688 222.746 23.688C222.202 23.688 221.686 23.596 221.198 23.412C220.718 23.228 220.294 22.956 219.926 22.596C219.566 22.228 219.278 21.772 219.062 21.228C218.854 20.684 218.75 20.056 218.75 19.344ZM219.974 19.344C219.974 19.848 220.038 20.308 220.166 20.724C220.294 21.132 220.474 21.48 220.706 21.768C220.946 22.056 221.234 22.28 221.57 22.44C221.914 22.592 222.298 22.668 222.722 22.668C223.146 22.668 223.526 22.592 223.862 22.44C224.198 22.28 224.482 22.056 224.714 21.768C224.954 21.48 225.138 21.132 225.266 20.724C225.394 20.308 225.458 19.848 225.458 19.344C225.458 18.84 225.394 18.384 225.266 17.976C225.138 17.56 224.954 17.208 224.714 16.92C224.482 16.632 224.198 16.412 223.862 16.26C223.526 16.1 223.146 16.02 222.722 16.02C222.298 16.02 221.914 16.1 221.57 16.26C221.234 16.412 220.946 16.632 220.706 16.92C220.474 17.208 220.294 17.56 220.166 17.976C220.038 18.384 219.974 18.84 219.974 19.344Z" fill="#C4C4C4"/>
<g clip-path="url(#clip0)">
<path d="M364.163 16.6875H378.225C378.484 16.6875 378.694 16.4775 378.694 16.2188C378.694 15.96 378.484 15.75 378.225 15.75H364.163C363.904 15.75 363.694 15.96 363.694 16.2188C363.694 16.4775 363.904 16.6875 364.163 16.6875Z" fill="#C4C4C4"/>
<path d="M378.225 19.0313H364.163C363.904 19.0313 363.694 19.2413 363.694 19.5C363.694 19.7587 363.904 19.9687 364.163 19.9687H378.225C378.484 19.9687 378.694 19.7587 378.694 19.5C378.694 19.2413 378.484 19.0313 378.225 19.0313Z" fill="#C4C4C4"/>
<path d="M378.225 22.3125H368.85C368.591 22.3125 368.381 22.5225 368.381 22.7812C368.381 23.04 368.591 23.25 368.85 23.25H378.225C378.484 23.25 378.694 23.04 378.694 22.7812C378.694 22.5225 378.484 22.3125 378.225 22.3125Z" fill="#C4C4C4"/>
</g>
<path fill-rule="evenodd" clip-rule="evenodd" d="M101 15H60.9266V25.789H101V15ZM73.2569 18.0826V21.8836H74.6186C75.0357 21.8836 75.3583 21.7861 75.5866 21.5912C75.8149 21.3963 75.9291 21.1282 75.9291 20.7871C75.9291 20.5644 75.8671 20.3729 75.743 20.2128C75.6208 20.0509 75.4536 19.9413 75.2415 19.8839C75.4213 19.809 75.5633 19.7037 75.6675 19.568C75.7718 19.4305 75.8239 19.273 75.8239 19.0955C75.8239 18.7613 75.7161 18.509 75.5003 18.3384C75.2864 18.1678 74.9665 18.0826 74.5404 18.0826H73.2569ZM73.7746 21.4737V20.1058H74.6375C75.1516 20.1058 75.4087 20.3346 75.4087 20.7923C75.4087 21.0047 75.3386 21.1718 75.1983 21.2936C75.0599 21.4137 74.8703 21.4737 74.6294 21.4737H73.7746ZM74.5566 19.7037H73.7746V18.495H74.5404C74.7975 18.495 74.9889 18.5429 75.1148 18.6386C75.2406 18.7326 75.3035 18.884 75.3035 19.0929C75.3035 19.2808 75.2352 19.4296 75.0986 19.5393C74.9638 19.6489 74.7831 19.7037 74.5566 19.7037ZM77.5658 21.9358C77.9415 21.9358 78.2264 21.8253 78.4206 21.6042L78.4314 21.8836H78.906V19.0589H78.4071V21.1134C78.2813 21.3884 78.0278 21.5259 77.6467 21.5259C77.2872 21.5259 77.1074 21.3119 77.1074 20.8837V19.0589H76.6086V20.8968C76.6104 21.2396 76.6922 21.4989 76.854 21.6747C77.0175 21.8488 77.2548 21.9358 77.5658 21.9358ZM80.3432 18.375V19.0589H80.8878V19.4322H80.3432V21.1839C80.3432 21.2971 80.3674 21.3823 80.416 21.4398C80.4645 21.4955 80.5472 21.5233 80.664 21.5233C80.7216 21.5233 80.8006 21.5129 80.9013 21.492V21.8836C80.7701 21.9184 80.6425 21.9358 80.5184 21.9358C80.2955 21.9358 80.1274 21.8705 80.0142 21.74C79.9009 21.6095 79.8443 21.4241 79.8443 21.1839V19.4322H79.3131V19.0589H79.8443V18.375H80.3432ZM82.1498 19.0589V18.375H81.6509V19.0589H81.1197V19.4322H81.6509V21.1839C81.6509 21.4241 81.7076 21.6095 81.8208 21.74C81.9341 21.8705 82.1021 21.9358 82.325 21.9358C82.4491 21.9358 82.5767 21.9184 82.7079 21.8836V21.492C82.6073 21.5129 82.5282 21.5233 82.4706 21.5233C82.3538 21.5233 82.2711 21.4955 82.2226 21.4398C82.174 21.3823 82.1498 21.2971 82.1498 21.1839V19.4322H82.6944V19.0589H82.1498ZM83.0935 20.4451C83.0935 20.1684 83.1492 19.9195 83.2607 19.6985C83.3739 19.4775 83.5303 19.3069 83.7299 19.1868C83.9312 19.0668 84.1604 19.0067 84.4175 19.0067C84.8147 19.0067 85.1356 19.1399 85.3801 19.4061C85.6264 19.6724 85.7495 20.0266 85.7495 20.4686V20.5026C85.7495 20.7776 85.6947 21.0247 85.585 21.244C85.4772 21.4615 85.3217 21.6312 85.1185 21.753C84.9172 21.8749 84.6853 21.9358 84.4229 21.9358C84.0274 21.9358 83.7065 21.8026 83.4602 21.5364C83.2158 21.2701 83.0935 20.9177 83.0935 20.4791V20.4451ZM83.5951 20.5026C83.5951 20.8158 83.6697 21.0673 83.8189 21.257C83.9699 21.4467 84.1712 21.5416 84.4229 21.5416C84.6763 21.5416 84.8777 21.4459 85.0269 21.2544C85.1761 21.0612 85.2507 20.7915 85.2507 20.4451C85.2507 20.1354 85.1743 19.8847 85.0215 19.6933C84.8705 19.5001 84.6691 19.4035 84.4175 19.4035C84.1712 19.4035 83.9726 19.4984 83.8216 19.6881C83.6706 19.8778 83.5951 20.1493 83.5951 20.5026ZM86.8631 19.414L86.847 19.0589H86.3751V21.8836H86.8739V19.8708C86.9422 19.7351 87.0375 19.6254 87.1597 19.5419C87.282 19.4583 87.424 19.4166 87.5858 19.4166C87.7853 19.4166 87.9318 19.4653 88.0253 19.5628C88.1206 19.6602 88.1691 19.8108 88.1709 20.0144V21.8836H88.6698V20.017C88.6644 19.3435 88.3534 19.0067 87.7368 19.0067C87.3773 19.0067 87.086 19.1425 86.8631 19.414Z" fill="#C4C4C4"/>
<g clip-path="url(#clip1)">
<path d="M23.5776 16.5413H18.1289C17.5065 16.5413 17 17.0477 17 17.6702V23.1188C17 23.7412 17.5065 24.2477 18.1289 24.2477H20.4017V21.5234H19.4986V20.1687H20.4017V19.2506C20.4017 18.5036 21.0093 17.8959 21.7563 17.8959H23.126V19.2506H21.7563V20.1687H23.126L22.9002 21.5234H21.7563V24.2477H23.5776C24.2 24.2477 24.7064 23.7412 24.7064 23.1188V17.6702C24.7064 17.0477 24.2 16.5413 23.5776 16.5413Z" fill="#C4C4C4"/>
</g>
<g clip-path="url(#clip2)">
<path d="M44.6498 20.3945C44.6498 20.7685 44.3465 21.0718 43.9725 21.0718C43.5984 21.0718 43.2952 20.7685 43.2952 20.3945C43.2952 20.0204 43.5984 19.7172 43.9725 19.7172C44.3465 19.7172 44.6498 20.0204 44.6498 20.3945Z" fill="#C4C4C4"/>
<path d="M45.1164 18.3475H42.8286C42.3306 18.3475 41.9255 18.7526 41.9255 19.2506V21.5384C41.9255 22.0364 42.3306 22.4415 42.8286 22.4415H45.1164C45.6144 22.4415 46.0195 22.0364 46.0195 21.5384V19.2506C46.0195 18.7526 45.6144 18.3475 45.1164 18.3475ZM43.9725 21.5234C43.35 21.5234 42.8436 21.017 42.8436 20.3945C42.8436 19.772 43.35 19.2656 43.9725 19.2656C44.595 19.2656 45.1014 19.772 45.1014 20.3945C45.1014 21.017 44.595 21.5234 43.9725 21.5234ZM45.2669 19.3258C45.1422 19.3258 45.0412 19.2248 45.0412 19.1001C45.0412 18.9754 45.1422 18.8743 45.2669 18.8743C45.3916 18.8743 45.4927 18.9754 45.4927 19.1001C45.4927 19.2248 45.3916 19.3258 45.2669 19.3258Z" fill="#C4C4C4"/>
<path d="M45.7937 16.5413H42.1512C41.0308 16.5413 40.1193 17.4528 40.1193 18.5732V22.2157C40.1193 23.3361 41.0308 24.2477 42.1512 24.2477H45.7937C46.9141 24.2477 47.8257 23.3361 47.8257 22.2157V18.5732C47.8257 17.4528 46.9141 16.5413 45.7937 16.5413ZM46.471 21.5384C46.471 22.2854 45.8633 22.8931 45.1164 22.8931H42.8286C42.0816 22.8931 41.4739 22.2854 41.4739 21.5384V19.2506C41.4739 18.5036 42.0816 17.8959 42.8286 17.8959H45.1164C45.8633 17.8959 46.471 18.5036 46.471 19.2506V21.5384Z" fill="#C4C4C4"/>
</g>
<defs>
<clipPath id="clip0">
<rect width="15" height="15" fill="white" transform="translate(363.694 12)"/>
</clipPath>
<clipPath id="clip1">
<rect width="7.70642" height="7.70642" fill="white" transform="translate(17 16.5413)"/>
</clipPath>
<clipPath id="clip2">
<rect width="7.70642" height="7.70642" fill="white" transform="translate(40.1193 16.5413)"/>
</clipPath>
</defs>
</svg>
