<svg width="400" height="40" viewBox="0 0 400 40" fill="none" xmlns="http://www.w3.org/2000/svg">
<rect width="400" height="40" fill="white"/>
<path d="M18.004 22.5V23.508H13V15.192H14.164V22.5H18.004Z" fill="#C4C4C4"/>
<path d="M18.3476 19.344C18.3476 18.632 18.4516 18.004 18.6596 17.46C18.8756 16.916 19.1636 16.464 19.5236 16.104C19.8916 15.736 20.3156 15.46 20.7956 15.276C21.2836 15.092 21.7996 15 22.3436 15C22.8796 15 23.3836 15.092 23.8556 15.276C24.3356 15.46 24.7556 15.736 25.1156 16.104C25.4756 16.464 25.7596 16.916 25.9676 17.46C26.1836 18.004 26.2916 18.632 26.2916 19.344C26.2916 20.056 26.1836 20.684 25.9676 21.228C25.7596 21.772 25.4756 22.228 25.1156 22.596C24.7556 22.956 24.3356 23.228 23.8556 23.412C23.3836 23.596 22.8796 23.688 22.3436 23.688C21.7996 23.688 21.2836 23.596 20.7956 23.412C20.3156 23.228 19.8916 22.956 19.5236 22.596C19.1636 22.228 18.8756 21.772 18.6596 21.228C18.4516 20.684 18.3476 20.056 18.3476 19.344ZM19.5716 19.344C19.5716 19.848 19.6356 20.308 19.7636 20.724C19.8916 21.132 20.0716 21.48 20.3036 21.768C20.5436 22.056 20.8316 22.28 21.1676 22.44C21.5116 22.592 21.8956 22.668 22.3196 22.668C22.7436 22.668 23.1236 22.592 23.4596 22.44C23.7956 22.28 24.0796 22.056 24.3116 21.768C24.5516 21.48 24.7356 21.132 24.8636 20.724C24.9916 20.308 25.0556 19.848 25.0556 19.344C25.0556 18.84 24.9916 18.384 24.8636 17.976C24.7356 17.56 24.5516 17.208 24.3116 16.92C24.0796 16.632 23.7956 16.412 23.4596 16.26C23.1236 16.1 22.7436 16.02 22.3196 16.02C21.8956 16.02 21.5116 16.1 21.1676 16.26C20.8316 16.412 20.5436 16.632 20.3036 16.92C20.0716 17.208 19.8916 17.56 19.7636 17.976C19.6356 18.384 19.5716 18.84 19.5716 19.344Z" fill="#C4C4C4"/>
<path d="M33.0994 19.416H34.2634V23.304C34.1674 23.336 34.0274 23.372 33.8434 23.412C33.6674 23.452 33.4594 23.492 33.2194 23.532C32.9874 23.572 32.7314 23.604 32.4514 23.628C32.1714 23.66 31.8874 23.676 31.5994 23.676C31.0154 23.676 30.4834 23.58 30.0034 23.388C29.5234 23.196 29.1114 22.916 28.7674 22.548C28.4234 22.18 28.1554 21.728 27.9634 21.192C27.7794 20.656 27.6874 20.04 27.6874 19.344C27.6874 18.648 27.7914 18.032 27.9994 17.496C28.2154 16.952 28.5034 16.496 28.8634 16.128C29.2234 15.76 29.6434 15.48 30.1234 15.288C30.6114 15.096 31.1314 15 31.6834 15C32.0594 15 32.3914 15.024 32.6794 15.072C32.9754 15.12 33.2274 15.176 33.4354 15.24C33.6434 15.304 33.8114 15.368 33.9394 15.432C34.0754 15.496 34.1674 15.544 34.2154 15.576L33.8434 16.548C33.6114 16.396 33.3034 16.272 32.9194 16.176C32.5354 16.072 32.1434 16.02 31.7434 16.02C31.3194 16.02 30.9314 16.096 30.5794 16.248C30.2354 16.4 29.9394 16.62 29.6914 16.908C29.4514 17.196 29.2634 17.548 29.1274 17.964C28.9914 18.372 28.9234 18.832 28.9234 19.344C28.9234 19.84 28.9794 20.292 29.0914 20.7C29.2114 21.108 29.3874 21.46 29.6194 21.756C29.8594 22.044 30.1514 22.268 30.4954 22.428C30.8474 22.588 31.2594 22.668 31.7314 22.668C32.0674 22.668 32.3514 22.652 32.5834 22.62C32.8234 22.58 32.9954 22.544 33.0994 22.512V19.416Z" fill="#C4C4C4"/>
<path d="M35.7499 19.344C35.7499 18.632 35.8539 18.004 36.0619 17.46C36.2779 16.916 36.5659 16.464 36.9259 16.104C37.2939 15.736 37.7179 15.46 38.1979 15.276C38.6859 15.092 39.2019 15 39.7459 15C40.2819 15 40.7859 15.092 41.2579 15.276C41.7379 15.46 42.1579 15.736 42.5179 16.104C42.8779 16.464 43.1619 16.916 43.3699 17.46C43.5859 18.004 43.6939 18.632 43.6939 19.344C43.6939 20.056 43.5859 20.684 43.3699 21.228C43.1619 21.772 42.8779 22.228 42.5179 22.596C42.1579 22.956 41.7379 23.228 41.2579 23.412C40.7859 23.596 40.2819 23.688 39.7459 23.688C39.2019 23.688 38.6859 23.596 38.1979 23.412C37.7179 23.228 37.2939 22.956 36.9259 22.596C36.5659 22.228 36.2779 21.772 36.0619 21.228C35.8539 20.684 35.7499 20.056 35.7499 19.344ZM36.9739 19.344C36.9739 19.848 37.0379 20.308 37.1659 20.724C37.2939 21.132 37.4739 21.48 37.7059 21.768C37.9459 22.056 38.2339 22.28 38.5699 22.44C38.9139 22.592 39.2979 22.668 39.7219 22.668C40.1459 22.668 40.5259 22.592 40.8619 22.44C41.1979 22.28 41.4819 22.056 41.7139 21.768C41.9539 21.48 42.1379 21.132 42.2659 20.724C42.3939 20.308 42.4579 19.848 42.4579 19.344C42.4579 18.84 42.3939 18.384 42.2659 17.976C42.1379 17.56 41.9539 17.208 41.7139 16.92C41.4819 16.632 41.1979 16.412 40.8619 16.26C40.5259 16.1 40.1459 16.02 39.7219 16.02C39.2979 16.02 38.9139 16.1 38.5699 16.26C38.2339 16.412 37.9459 16.632 37.7059 16.92C37.4739 17.208 37.2939 17.56 37.1659 17.976C37.0379 18.384 36.9739 18.84 36.9739 19.344Z" fill="#C4C4C4"/>
<path d="M67.941 21.984C67.839 21.714 67.743 21.45 67.653 21.192C67.563 20.928 67.47 20.661 67.374 20.391H64.548L63.981 21.984H63.072C63.312 21.324 63.537 20.715 63.747 20.157C63.957 19.593 64.161 19.059 64.359 18.555C64.563 18.051 64.764 17.571 64.962 17.115C65.16 16.653 65.367 16.197 65.583 15.747H66.384C66.6 16.197 66.807 16.653 67.005 17.115C67.203 17.571 67.401 18.051 67.599 18.555C67.803 19.059 68.01 19.593 68.22 20.157C68.43 20.715 68.655 21.324 68.895 21.984H67.941ZM67.122 19.671C66.93 19.149 66.738 18.645 66.546 18.159C66.36 17.667 66.165 17.196 65.961 16.746C65.751 17.196 65.55 17.667 65.358 18.159C65.172 18.645 64.986 19.149 64.8 19.671H67.122Z" fill="#ADADAD"/>
<path d="M70.5878 17.439C70.7798 17.391 71.0348 17.34 71.3528 17.286C71.6708 17.232 72.0368 17.205 72.4508 17.205C72.8228 17.205 73.1318 17.259 73.3778 17.367C73.6238 17.469 73.8188 17.616 73.9628 17.808C74.1128 17.994 74.2178 18.219 74.2778 18.483C74.3378 18.747 74.3678 19.038 74.3678 19.356V21.984H73.5308V19.536C73.5308 19.248 73.5098 19.002 73.4678 18.798C73.4318 18.594 73.3688 18.429 73.2788 18.303C73.1888 18.177 73.0688 18.087 72.9188 18.033C72.7688 17.973 72.5828 17.943 72.3608 17.943C72.2708 17.943 72.1778 17.946 72.0818 17.952C71.9858 17.958 71.8928 17.967 71.8028 17.979C71.7188 17.985 71.6408 17.994 71.5688 18.006C71.5028 18.018 71.4548 18.027 71.4248 18.033V21.984H70.5878V17.439Z" fill="#ADADAD"/>
<path d="M78.2397 21.381C78.4377 21.381 78.6117 21.378 78.7617 21.372C78.9177 21.36 79.0467 21.342 79.1487 21.318V19.923C79.0887 19.893 78.9897 19.869 78.8517 19.851C78.7197 19.827 78.5577 19.815 78.3657 19.815C78.2397 19.815 78.1047 19.824 77.9607 19.842C77.8227 19.86 77.6937 19.899 77.5737 19.959C77.4597 20.013 77.3637 20.091 77.2857 20.193C77.2077 20.289 77.1687 20.418 77.1687 20.58C77.1687 20.88 77.2647 21.09 77.4567 21.21C77.6487 21.324 77.9097 21.381 78.2397 21.381ZM78.1677 17.187C78.5037 17.187 78.7857 17.232 79.0137 17.322C79.2477 17.406 79.4337 17.529 79.5717 17.691C79.7157 17.847 79.8177 18.036 79.8777 18.258C79.9377 18.474 79.9677 18.714 79.9677 18.978V21.903C79.8957 21.915 79.7937 21.933 79.6617 21.957C79.5357 21.975 79.3917 21.993 79.2297 22.011C79.0677 22.029 78.8907 22.044 78.6987 22.056C78.5127 22.074 78.3267 22.083 78.1407 22.083C77.8767 22.083 77.6337 22.056 77.4117 22.002C77.1897 21.948 76.9977 21.864 76.8357 21.75C76.6737 21.63 76.5477 21.474 76.4577 21.282C76.3677 21.09 76.3227 20.859 76.3227 20.589C76.3227 20.331 76.3737 20.109 76.4757 19.923C76.5837 19.737 76.7277 19.587 76.9077 19.473C77.0877 19.359 77.2977 19.275 77.5377 19.221C77.7777 19.167 78.0297 19.14 78.2937 19.14C78.3777 19.14 78.4647 19.146 78.5547 19.158C78.6447 19.164 78.7287 19.176 78.8067 19.194C78.8907 19.206 78.9627 19.218 79.0227 19.23C79.0827 19.242 79.1247 19.251 79.1487 19.257V19.023C79.1487 18.885 79.1337 18.75 79.1037 18.618C79.0737 18.48 79.0197 18.36 78.9417 18.258C78.8637 18.15 78.7557 18.066 78.6177 18.006C78.4857 17.94 78.3117 17.907 78.0957 17.907C77.8197 17.907 77.5767 17.928 77.3667 17.97C77.1627 18.006 77.0097 18.045 76.9077 18.087L76.8087 17.394C76.9167 17.346 77.0967 17.301 77.3487 17.259C77.6007 17.211 77.8737 17.187 78.1677 17.187Z" fill="#ADADAD"/>
<path d="M83.3469 21.381C83.6889 21.381 83.9409 21.336 84.1029 21.246C84.2709 21.156 84.3549 21.012 84.3549 20.814C84.3549 20.61 84.2739 20.448 84.1119 20.328C83.9499 20.208 83.6829 20.073 83.3109 19.923C83.1309 19.851 82.9569 19.779 82.7889 19.707C82.6269 19.629 82.4859 19.539 82.3659 19.437C82.2459 19.335 82.1499 19.212 82.0779 19.068C82.0059 18.924 81.9699 18.747 81.9699 18.537C81.9699 18.123 82.1229 17.796 82.4289 17.556C82.7349 17.31 83.1519 17.187 83.6799 17.187C83.8119 17.187 83.9439 17.196 84.0759 17.214C84.2079 17.226 84.3309 17.244 84.4449 17.268C84.5589 17.286 84.6579 17.307 84.7419 17.331C84.8319 17.355 84.9009 17.376 84.9489 17.394L84.7959 18.114C84.7059 18.066 84.5649 18.018 84.3729 17.97C84.1809 17.916 83.9499 17.889 83.6799 17.889C83.4459 17.889 83.2419 17.937 83.0679 18.033C82.8939 18.123 82.8069 18.267 82.8069 18.465C82.8069 18.567 82.8249 18.657 82.8609 18.735C82.9029 18.813 82.9629 18.885 83.0409 18.951C83.1249 19.011 83.2269 19.068 83.3469 19.122C83.4669 19.176 83.6109 19.233 83.7789 19.293C84.0009 19.377 84.1989 19.461 84.3729 19.545C84.5469 19.623 84.6939 19.716 84.8139 19.824C84.9399 19.932 85.0359 20.064 85.1019 20.22C85.1679 20.37 85.2009 20.556 85.2009 20.778C85.2009 21.21 85.0389 21.537 84.7149 21.759C84.3969 21.981 83.9409 22.092 83.3469 22.092C82.9329 22.092 82.6089 22.056 82.3749 21.984C82.1409 21.918 81.9819 21.867 81.8979 21.831L82.0509 21.111C82.1469 21.147 82.2999 21.201 82.5099 21.273C82.7199 21.345 82.9989 21.381 83.3469 21.381Z" fill="#ADADAD"/>
<path d="M88.7585 21.381C88.9565 21.381 89.1305 21.378 89.2805 21.372C89.4365 21.36 89.5655 21.342 89.6675 21.318V19.923C89.6075 19.893 89.5085 19.869 89.3705 19.851C89.2385 19.827 89.0765 19.815 88.8845 19.815C88.7585 19.815 88.6235 19.824 88.4795 19.842C88.3415 19.86 88.2125 19.899 88.0925 19.959C87.9785 20.013 87.8825 20.091 87.8045 20.193C87.7265 20.289 87.6875 20.418 87.6875 20.58C87.6875 20.88 87.7835 21.09 87.9755 21.21C88.1675 21.324 88.4285 21.381 88.7585 21.381ZM88.6865 17.187C89.0225 17.187 89.3045 17.232 89.5325 17.322C89.7665 17.406 89.9525 17.529 90.0905 17.691C90.2345 17.847 90.3365 18.036 90.3965 18.258C90.4565 18.474 90.4865 18.714 90.4865 18.978V21.903C90.4145 21.915 90.3125 21.933 90.1805 21.957C90.0545 21.975 89.9105 21.993 89.7485 22.011C89.5865 22.029 89.4095 22.044 89.2175 22.056C89.0315 22.074 88.8455 22.083 88.6595 22.083C88.3955 22.083 88.1525 22.056 87.9305 22.002C87.7085 21.948 87.5165 21.864 87.3545 21.75C87.1925 21.63 87.0665 21.474 86.9765 21.282C86.8865 21.09 86.8415 20.859 86.8415 20.589C86.8415 20.331 86.8925 20.109 86.9945 19.923C87.1025 19.737 87.2465 19.587 87.4265 19.473C87.6065 19.359 87.8165 19.275 88.0565 19.221C88.2965 19.167 88.5485 19.14 88.8125 19.14C88.8965 19.14 88.9835 19.146 89.0735 19.158C89.1635 19.164 89.2475 19.176 89.3255 19.194C89.4095 19.206 89.4815 19.218 89.5415 19.23C89.6015 19.242 89.6435 19.251 89.6675 19.257V19.023C89.6675 18.885 89.6525 18.75 89.6225 18.618C89.5925 18.48 89.5385 18.36 89.4605 18.258C89.3825 18.15 89.2745 18.066 89.1365 18.006C89.0045 17.94 88.8305 17.907 88.6145 17.907C88.3385 17.907 88.0955 17.928 87.8855 17.97C87.6815 18.006 87.5285 18.045 87.4265 18.087L87.3275 17.394C87.4355 17.346 87.6155 17.301 87.8675 17.259C88.1195 17.211 88.3925 17.187 88.6865 17.187Z" fill="#ADADAD"/>
<path d="M92.0958 22.857C92.1618 22.887 92.2458 22.914 92.3478 22.938C92.4558 22.968 92.5608 22.983 92.6628 22.983C92.9928 22.983 93.2508 22.908 93.4368 22.758C93.6228 22.614 93.7908 22.377 93.9408 22.047C93.5628 21.327 93.2088 20.565 92.8788 19.761C92.5548 18.951 92.2848 18.132 92.0688 17.304H92.9688C93.0348 17.574 93.1128 17.865 93.2028 18.177C93.2988 18.489 93.4038 18.81 93.5178 19.14C93.6318 19.47 93.7548 19.8 93.8868 20.13C94.0188 20.46 94.1568 20.778 94.3008 21.084C94.5288 20.454 94.7268 19.83 94.8948 19.212C95.0628 18.594 95.2218 17.958 95.3718 17.304H96.2358C96.0198 18.186 95.7798 19.035 95.5158 19.851C95.2518 20.661 94.9668 21.42 94.6608 22.128C94.5408 22.398 94.4148 22.629 94.2828 22.821C94.1568 23.019 94.0158 23.181 93.8598 23.307C93.7038 23.433 93.5268 23.526 93.3288 23.586C93.1368 23.646 92.9178 23.676 92.6718 23.676C92.6058 23.676 92.5368 23.67 92.4648 23.658C92.3928 23.652 92.3208 23.64 92.2488 23.622C92.1828 23.61 92.1198 23.595 92.0598 23.577C92.0058 23.559 91.9668 23.544 91.9428 23.532L92.0958 22.857Z" fill="#ADADAD"/>
<path d="M99.8454 15C100.091 15 100.301 15.018 100.475 15.054C100.655 15.09 100.781 15.123 100.853 15.153L100.7 15.873C100.628 15.837 100.526 15.804 100.394 15.774C100.262 15.738 100.1 15.72 99.9084 15.72C99.5184 15.72 99.2454 15.828 99.0894 16.044C98.9334 16.254 98.8554 16.539 98.8554 16.899V17.304H100.655V18.006H98.8554V21.984H98.0184V16.881C98.0184 16.281 98.1654 15.819 98.4594 15.495C98.7534 15.165 99.2154 15 99.8454 15Z" fill="#ADADAD"/>
<path d="M103.974 21.381C104.172 21.381 104.346 21.378 104.496 21.372C104.652 21.36 104.781 21.342 104.883 21.318V19.923C104.823 19.893 104.724 19.869 104.586 19.851C104.454 19.827 104.292 19.815 104.1 19.815C103.974 19.815 103.839 19.824 103.695 19.842C103.557 19.86 103.428 19.899 103.308 19.959C103.194 20.013 103.098 20.091 103.02 20.193C102.942 20.289 102.903 20.418 102.903 20.58C102.903 20.88 102.999 21.09 103.191 21.21C103.383 21.324 103.644 21.381 103.974 21.381ZM103.902 17.187C104.238 17.187 104.52 17.232 104.748 17.322C104.982 17.406 105.168 17.529 105.306 17.691C105.45 17.847 105.552 18.036 105.612 18.258C105.672 18.474 105.702 18.714 105.702 18.978V21.903C105.63 21.915 105.528 21.933 105.396 21.957C105.27 21.975 105.126 21.993 104.964 22.011C104.802 22.029 104.625 22.044 104.433 22.056C104.247 22.074 104.061 22.083 103.875 22.083C103.611 22.083 103.368 22.056 103.146 22.002C102.924 21.948 102.732 21.864 102.57 21.75C102.408 21.63 102.282 21.474 102.192 21.282C102.102 21.09 102.057 20.859 102.057 20.589C102.057 20.331 102.108 20.109 102.21 19.923C102.318 19.737 102.462 19.587 102.642 19.473C102.822 19.359 103.032 19.275 103.272 19.221C103.512 19.167 103.764 19.14 104.028 19.14C104.112 19.14 104.199 19.146 104.289 19.158C104.379 19.164 104.463 19.176 104.541 19.194C104.625 19.206 104.697 19.218 104.757 19.23C104.817 19.242 104.859 19.251 104.883 19.257V19.023C104.883 18.885 104.868 18.75 104.838 18.618C104.808 18.48 104.754 18.36 104.676 18.258C104.598 18.15 104.49 18.066 104.352 18.006C104.22 17.94 104.046 17.907 103.83 17.907C103.554 17.907 103.311 17.928 103.101 17.97C102.897 18.006 102.744 18.045 102.642 18.087L102.543 17.394C102.651 17.346 102.831 17.301 103.083 17.259C103.335 17.211 103.608 17.187 103.902 17.187Z" fill="#ADADAD"/>
<path d="M63 23.442H106.368V24.153H63V23.442Z" fill="#ADADAD"/>
<path d="M123.024 15.927C123.9 15.927 124.572 16.095 125.04 16.431C125.514 16.761 125.751 17.256 125.751 17.916C125.751 18.276 125.685 18.585 125.553 18.843C125.427 19.095 125.241 19.302 124.995 19.464C124.755 19.62 124.461 19.734 124.113 19.806C123.765 19.878 123.372 19.914 122.934 19.914H122.241V22.227H121.368V16.08C121.614 16.02 121.887 15.981 122.187 15.963C122.493 15.939 122.772 15.927 123.024 15.927ZM123.096 16.692C122.724 16.692 122.439 16.701 122.241 16.719V19.167H122.898C123.198 19.167 123.468 19.149 123.708 19.113C123.948 19.071 124.149 19.005 124.311 18.915C124.479 18.819 124.608 18.69 124.698 18.528C124.788 18.366 124.833 18.159 124.833 17.907C124.833 17.667 124.785 17.469 124.689 17.313C124.599 17.157 124.473 17.034 124.311 16.944C124.155 16.848 123.972 16.782 123.762 16.746C123.552 16.71 123.33 16.692 123.096 16.692Z" fill="#ADADAD"/>
<path d="M129.418 17.448C129.49 17.448 129.571 17.454 129.661 17.466C129.757 17.472 129.85 17.484 129.94 17.502C130.03 17.514 130.111 17.529 130.183 17.547C130.261 17.559 130.318 17.571 130.354 17.583L130.21 18.312C130.144 18.288 130.033 18.261 129.877 18.231C129.727 18.195 129.532 18.177 129.292 18.177C129.136 18.177 128.98 18.195 128.824 18.231C128.674 18.261 128.575 18.282 128.527 18.294V22.227H127.69V17.745C127.888 17.673 128.134 17.607 128.428 17.547C128.722 17.481 129.052 17.448 129.418 17.448Z" fill="#ADADAD"/>
<path d="M136.192 19.887C136.192 20.259 136.138 20.595 136.03 20.895C135.922 21.195 135.769 21.453 135.571 21.669C135.379 21.885 135.148 22.053 134.878 22.173C134.608 22.287 134.314 22.344 133.996 22.344C133.678 22.344 133.384 22.287 133.114 22.173C132.844 22.053 132.61 21.885 132.412 21.669C132.22 21.453 132.07 21.195 131.962 20.895C131.854 20.595 131.8 20.259 131.8 19.887C131.8 19.521 131.854 19.188 131.962 18.888C132.07 18.582 132.22 18.321 132.412 18.105C132.61 17.889 132.844 17.724 133.114 17.61C133.384 17.49 133.678 17.43 133.996 17.43C134.314 17.43 134.608 17.49 134.878 17.61C135.148 17.724 135.379 17.889 135.571 18.105C135.769 18.321 135.922 18.582 136.03 18.888C136.138 19.188 136.192 19.521 136.192 19.887ZM135.319 19.887C135.319 19.359 135.199 18.942 134.959 18.636C134.725 18.324 134.404 18.168 133.996 18.168C133.588 18.168 133.264 18.324 133.024 18.636C132.79 18.942 132.673 19.359 132.673 19.887C132.673 20.415 132.79 20.835 133.024 21.147C133.264 21.453 133.588 21.606 133.996 21.606C134.404 21.606 134.725 21.453 134.959 21.147C135.199 20.835 135.319 20.415 135.319 19.887Z" fill="#ADADAD"/>
<path d="M137.505 23.91C137.433 23.91 137.34 23.901 137.226 23.883C137.112 23.865 137.016 23.841 136.938 23.811L137.046 23.127C137.106 23.145 137.175 23.16 137.253 23.172C137.331 23.184 137.403 23.19 137.469 23.19C137.757 23.19 137.961 23.1 138.081 22.92C138.207 22.746 138.27 22.488 138.27 22.146V17.547H139.107V22.137C139.107 22.737 138.969 23.181 138.693 23.469C138.423 23.763 138.027 23.91 137.505 23.91ZM138.684 16.701C138.534 16.701 138.405 16.653 138.297 16.557C138.195 16.455 138.144 16.32 138.144 16.152C138.144 15.984 138.195 15.852 138.297 15.756C138.405 15.654 138.534 15.603 138.684 15.603C138.834 15.603 138.96 15.654 139.062 15.756C139.17 15.852 139.224 15.984 139.224 16.152C139.224 16.32 139.17 16.455 139.062 16.557C138.96 16.653 138.834 16.701 138.684 16.701Z" fill="#ADADAD"/>
<path d="M141.185 19.896C141.185 19.482 141.245 19.122 141.365 18.816C141.485 18.504 141.644 18.246 141.842 18.042C142.04 17.838 142.268 17.685 142.526 17.583C142.784 17.481 143.048 17.43 143.318 17.43C143.948 17.43 144.431 17.628 144.767 18.024C145.103 18.414 145.271 19.011 145.271 19.815C145.271 19.851 145.271 19.899 145.271 19.959C145.271 20.013 145.268 20.064 145.262 20.112H142.058C142.094 20.598 142.235 20.967 142.481 21.219C142.727 21.471 143.111 21.597 143.633 21.597C143.927 21.597 144.173 21.573 144.371 21.525C144.575 21.471 144.728 21.42 144.83 21.372L144.947 22.074C144.845 22.128 144.665 22.185 144.407 22.245C144.155 22.305 143.867 22.335 143.543 22.335C143.135 22.335 142.781 22.275 142.481 22.155C142.187 22.029 141.944 21.858 141.752 21.642C141.56 21.426 141.416 21.171 141.32 20.877C141.23 20.577 141.185 20.25 141.185 19.896ZM144.398 19.437C144.404 19.059 144.308 18.75 144.11 18.51C143.918 18.264 143.651 18.141 143.309 18.141C143.117 18.141 142.946 18.18 142.796 18.258C142.652 18.33 142.529 18.426 142.427 18.546C142.325 18.666 142.244 18.804 142.184 18.96C142.13 19.116 142.094 19.275 142.076 19.437H144.398Z" fill="#ADADAD"/>
<path d="M148.778 22.317C148.262 22.305 147.896 22.194 147.68 21.984C147.464 21.774 147.356 21.447 147.356 21.003V15.387L148.193 15.243V20.868C148.193 21.006 148.205 21.12 148.229 21.21C148.253 21.3 148.292 21.372 148.346 21.426C148.4 21.48 148.472 21.522 148.562 21.552C148.652 21.576 148.763 21.597 148.895 21.615L148.778 22.317Z" fill="#ADADAD"/>
<path d="M150.474 19.896C150.474 19.482 150.534 19.122 150.654 18.816C150.774 18.504 150.933 18.246 151.131 18.042C151.329 17.838 151.557 17.685 151.815 17.583C152.073 17.481 152.337 17.43 152.607 17.43C153.237 17.43 153.72 17.628 154.056 18.024C154.392 18.414 154.56 19.011 154.56 19.815C154.56 19.851 154.56 19.899 154.56 19.959C154.56 20.013 154.557 20.064 154.551 20.112H151.347C151.383 20.598 151.524 20.967 151.77 21.219C152.016 21.471 152.4 21.597 152.922 21.597C153.216 21.597 153.462 21.573 153.66 21.525C153.864 21.471 154.017 21.42 154.119 21.372L154.236 22.074C154.134 22.128 153.954 22.185 153.696 22.245C153.444 22.305 153.156 22.335 152.832 22.335C152.424 22.335 152.07 22.275 151.77 22.155C151.476 22.029 151.233 21.858 151.041 21.642C150.849 21.426 150.705 21.171 150.609 20.877C150.519 20.577 150.474 20.25 150.474 19.896ZM153.687 19.437C153.693 19.059 153.597 18.75 153.399 18.51C153.207 18.264 152.94 18.141 152.598 18.141C152.406 18.141 152.235 18.18 152.085 18.258C151.941 18.33 151.818 18.426 151.716 18.546C151.614 18.666 151.533 18.804 151.473 18.96C151.419 19.116 151.383 19.275 151.365 19.437H153.687Z" fill="#ADADAD"/>
<path d="M158.39 17.448C158.462 17.448 158.543 17.454 158.633 17.466C158.729 17.472 158.822 17.484 158.912 17.502C159.002 17.514 159.083 17.529 159.155 17.547C159.233 17.559 159.29 17.571 159.326 17.583L159.182 18.312C159.116 18.288 159.005 18.261 158.849 18.231C158.699 18.195 158.504 18.177 158.264 18.177C158.108 18.177 157.952 18.195 157.796 18.231C157.646 18.261 157.547 18.282 157.499 18.294V22.227H156.662V17.745C156.86 17.673 157.106 17.607 157.4 17.547C157.694 17.481 158.024 17.448 158.39 17.448Z" fill="#ADADAD"/>
<path d="M161.871 22.227H161.034V17.547H161.871V22.227ZM161.448 16.701C161.298 16.701 161.169 16.653 161.061 16.557C160.959 16.455 160.908 16.32 160.908 16.152C160.908 15.984 160.959 15.852 161.061 15.756C161.169 15.654 161.298 15.603 161.448 15.603C161.598 15.603 161.724 15.654 161.826 15.756C161.934 15.852 161.988 15.984 161.988 16.152C161.988 16.32 161.934 16.455 161.826 16.557C161.724 16.653 161.598 16.701 161.448 16.701Z" fill="#ADADAD"/>
<path d="M164.21 17.682C164.402 17.634 164.654 17.583 164.966 17.529C165.284 17.475 165.65 17.448 166.064 17.448C166.364 17.448 166.616 17.49 166.82 17.574C167.024 17.652 167.195 17.769 167.333 17.925C167.375 17.895 167.441 17.853 167.531 17.799C167.621 17.745 167.732 17.694 167.864 17.646C167.996 17.592 168.143 17.547 168.305 17.511C168.467 17.469 168.641 17.448 168.827 17.448C169.187 17.448 169.481 17.502 169.709 17.61C169.937 17.712 170.114 17.859 170.24 18.051C170.372 18.243 170.459 18.471 170.501 18.735C170.549 18.999 170.573 19.287 170.573 19.599V22.227H169.736V19.779C169.736 19.503 169.721 19.266 169.691 19.068C169.667 18.87 169.616 18.705 169.538 18.573C169.466 18.441 169.364 18.345 169.232 18.285C169.106 18.219 168.941 18.186 168.737 18.186C168.455 18.186 168.221 18.225 168.035 18.303C167.855 18.375 167.732 18.441 167.666 18.501C167.714 18.657 167.75 18.828 167.774 19.014C167.798 19.2 167.81 19.395 167.81 19.599V22.227H166.973V19.779C166.973 19.503 166.958 19.266 166.928 19.068C166.898 18.87 166.844 18.705 166.766 18.573C166.694 18.441 166.592 18.345 166.46 18.285C166.334 18.219 166.172 18.186 165.974 18.186C165.89 18.186 165.8 18.189 165.704 18.195C165.608 18.201 165.515 18.21 165.425 18.222C165.341 18.228 165.263 18.237 165.191 18.249C165.119 18.261 165.071 18.27 165.047 18.276V22.227H164.21V17.682Z" fill="#ADADAD"/>
<path d="M173.699 22.227H172.862V17.547H173.699V22.227ZM173.276 16.701C173.126 16.701 172.997 16.653 172.889 16.557C172.787 16.455 172.736 16.32 172.736 16.152C172.736 15.984 172.787 15.852 172.889 15.756C172.997 15.654 173.126 15.603 173.276 15.603C173.426 15.603 173.552 15.654 173.654 15.756C173.762 15.852 173.816 15.984 173.816 16.152C173.816 16.32 173.762 16.455 173.654 16.557C173.552 16.653 173.426 16.701 173.276 16.701Z" fill="#ADADAD"/>
<path d="M179.143 18.177C179.017 18.315 178.849 18.51 178.639 18.762C178.435 19.014 178.213 19.293 177.973 19.599C177.739 19.905 177.502 20.226 177.262 20.562C177.028 20.898 176.821 21.219 176.641 21.525H179.215V22.227H175.642V21.669C175.786 21.405 175.963 21.114 176.173 20.796C176.383 20.478 176.602 20.163 176.83 19.851C177.064 19.533 177.289 19.236 177.505 18.96C177.727 18.678 177.919 18.441 178.081 18.249H175.768V17.547H179.143V18.177Z" fill="#ADADAD"/>
<path d="M194.215 15.981H195.088V22.218H194.215V15.981Z" fill="#ADADAD"/>
<path d="M198.882 22.308C198.366 22.296 198 22.185 197.784 21.975C197.568 21.765 197.46 21.438 197.46 20.994V15.378L198.297 15.234V20.859C198.297 20.997 198.309 21.111 198.333 21.201C198.357 21.291 198.396 21.363 198.45 21.417C198.504 21.471 198.576 21.513 198.666 21.543C198.756 21.567 198.867 21.588 198.999 21.606L198.882 22.308Z" fill="#ADADAD"/>
<path d="M200.578 19.887C200.578 19.473 200.638 19.113 200.758 18.807C200.878 18.495 201.037 18.237 201.235 18.033C201.433 17.829 201.661 17.676 201.919 17.574C202.177 17.472 202.441 17.421 202.711 17.421C203.341 17.421 203.824 17.619 204.16 18.015C204.496 18.405 204.664 19.002 204.664 19.806C204.664 19.842 204.664 19.89 204.664 19.95C204.664 20.004 204.661 20.055 204.655 20.103H201.451C201.487 20.589 201.628 20.958 201.874 21.21C202.12 21.462 202.504 21.588 203.026 21.588C203.32 21.588 203.566 21.564 203.764 21.516C203.968 21.462 204.121 21.411 204.223 21.363L204.34 22.065C204.238 22.119 204.058 22.176 203.8 22.236C203.548 22.296 203.26 22.326 202.936 22.326C202.528 22.326 202.174 22.266 201.874 22.146C201.58 22.02 201.337 21.849 201.145 21.633C200.953 21.417 200.809 21.162 200.713 20.868C200.623 20.568 200.578 20.241 200.578 19.887ZM203.791 19.428C203.797 19.05 203.701 18.741 203.503 18.501C203.311 18.255 203.044 18.132 202.702 18.132C202.51 18.132 202.339 18.171 202.189 18.249C202.045 18.321 201.922 18.417 201.82 18.537C201.718 18.657 201.637 18.795 201.577 18.951C201.523 19.107 201.487 19.266 201.469 19.428H203.791Z" fill="#ADADAD"/>
<path d="M207.55 17.538H209.323V18.24H207.55V20.4C207.55 20.634 207.568 20.829 207.604 20.985C207.64 21.135 207.694 21.255 207.766 21.345C207.838 21.429 207.928 21.489 208.036 21.525C208.144 21.561 208.27 21.579 208.414 21.579C208.666 21.579 208.867 21.552 209.017 21.498C209.173 21.438 209.281 21.396 209.341 21.372L209.503 22.065C209.419 22.107 209.272 22.158 209.062 22.218C208.852 22.284 208.612 22.317 208.342 22.317C208.024 22.317 207.76 22.278 207.55 22.2C207.346 22.116 207.181 21.993 207.055 21.831C206.929 21.669 206.839 21.471 206.785 21.237C206.737 20.997 206.713 20.721 206.713 20.409V16.233L207.55 16.089V17.538Z" fill="#ADADAD"/>
<path d="M212.125 22.218H211.288V17.538H212.125V22.218ZM211.702 16.692C211.552 16.692 211.423 16.644 211.315 16.548C211.213 16.446 211.162 16.311 211.162 16.143C211.162 15.975 211.213 15.843 211.315 15.747C211.423 15.645 211.552 15.594 211.702 15.594C211.852 15.594 211.978 15.645 212.08 15.747C212.188 15.843 212.242 15.975 212.242 16.143C212.242 16.311 212.188 16.446 212.08 16.548C211.978 16.644 211.852 16.692 211.702 16.692Z" fill="#ADADAD"/>
<path d="M215.553 21.615C215.895 21.615 216.147 21.57 216.309 21.48C216.477 21.39 216.561 21.246 216.561 21.048C216.561 20.844 216.48 20.682 216.318 20.562C216.156 20.442 215.889 20.307 215.517 20.157C215.337 20.085 215.163 20.013 214.995 19.941C214.833 19.863 214.692 19.773 214.572 19.671C214.452 19.569 214.356 19.446 214.284 19.302C214.212 19.158 214.176 18.981 214.176 18.771C214.176 18.357 214.329 18.03 214.635 17.79C214.941 17.544 215.358 17.421 215.886 17.421C216.018 17.421 216.15 17.43 216.282 17.448C216.414 17.46 216.537 17.478 216.651 17.502C216.765 17.52 216.864 17.541 216.948 17.565C217.038 17.589 217.107 17.61 217.155 17.628L217.002 18.348C216.912 18.3 216.771 18.252 216.579 18.204C216.387 18.15 216.156 18.123 215.886 18.123C215.652 18.123 215.448 18.171 215.274 18.267C215.1 18.357 215.013 18.501 215.013 18.699C215.013 18.807 215.031 18.9 215.067 18.978C215.109 19.05 215.169 19.116 215.247 19.176C215.331 19.236 215.433 19.296 215.553 19.356C215.673 19.41 215.817 19.467 215.985 19.527C216.201 19.611 216.396 19.695 216.57 19.779C216.744 19.857 216.894 19.95 217.02 20.058C217.146 20.166 217.242 20.298 217.308 20.454C217.374 20.604 217.407 20.79 217.407 21.012C217.407 21.384 217.287 21.678 217.047 21.894C216.807 22.11 216.462 22.245 216.012 22.299C215.988 22.347 215.964 22.392 215.94 22.434C215.922 22.476 215.907 22.515 215.895 22.551C216.069 22.635 216.195 22.725 216.273 22.821C216.351 22.923 216.39 23.07 216.39 23.262C216.39 23.328 216.375 23.4 216.345 23.478C216.315 23.556 216.264 23.628 216.192 23.694C216.12 23.76 216.024 23.814 215.904 23.856C215.784 23.898 215.637 23.919 215.463 23.919C215.307 23.919 215.163 23.907 215.031 23.883C214.905 23.859 214.803 23.832 214.725 23.802L214.824 23.289C214.896 23.313 214.971 23.334 215.049 23.352C215.133 23.37 215.226 23.379 215.328 23.379C215.544 23.379 215.652 23.31 215.652 23.172C215.652 23.106 215.619 23.049 215.553 23.001C215.487 22.959 215.394 22.914 215.274 22.866L215.211 22.839C215.235 22.767 215.265 22.683 215.301 22.587C215.343 22.497 215.385 22.41 215.427 22.326C215.049 22.314 214.752 22.278 214.536 22.218C214.326 22.152 214.182 22.101 214.104 22.065L214.257 21.345C214.353 21.381 214.506 21.435 214.716 21.507C214.926 21.579 215.205 21.615 215.553 21.615Z" fill="#ADADAD"/>
<path d="M220.218 22.218H219.381V17.538H220.218V22.218ZM219.795 16.692C219.645 16.692 219.516 16.644 219.408 16.548C219.306 16.446 219.255 16.311 219.255 16.143C219.255 15.975 219.306 15.843 219.408 15.747C219.516 15.645 219.645 15.594 219.795 15.594C219.945 15.594 220.071 15.645 220.173 15.747C220.281 15.843 220.335 15.975 220.335 16.143C220.335 16.311 220.281 16.446 220.173 16.548C220.071 16.644 219.945 16.692 219.795 16.692Z" fill="#ADADAD"/>
<path d="M222.557 17.673C222.749 17.625 223.001 17.574 223.313 17.52C223.631 17.466 223.997 17.439 224.411 17.439C224.711 17.439 224.963 17.481 225.167 17.565C225.371 17.643 225.542 17.76 225.68 17.916C225.722 17.886 225.788 17.844 225.878 17.79C225.968 17.736 226.079 17.685 226.211 17.637C226.343 17.583 226.49 17.538 226.652 17.502C226.814 17.46 226.988 17.439 227.174 17.439C227.534 17.439 227.828 17.493 228.056 17.601C228.284 17.703 228.461 17.85 228.587 18.042C228.719 18.234 228.806 18.462 228.848 18.726C228.896 18.99 228.92 19.278 228.92 19.59V22.218H228.083V19.77C228.083 19.494 228.068 19.257 228.038 19.059C228.014 18.861 227.963 18.696 227.885 18.564C227.813 18.432 227.711 18.336 227.579 18.276C227.453 18.21 227.288 18.177 227.084 18.177C226.802 18.177 226.568 18.216 226.382 18.294C226.202 18.366 226.079 18.432 226.013 18.492C226.061 18.648 226.097 18.819 226.121 19.005C226.145 19.191 226.157 19.386 226.157 19.59V22.218H225.32V19.77C225.32 19.494 225.305 19.257 225.275 19.059C225.245 18.861 225.191 18.696 225.113 18.564C225.041 18.432 224.939 18.336 224.807 18.276C224.681 18.21 224.519 18.177 224.321 18.177C224.237 18.177 224.147 18.18 224.051 18.186C223.955 18.192 223.862 18.201 223.772 18.213C223.688 18.219 223.61 18.228 223.538 18.24C223.466 18.252 223.418 18.261 223.394 18.267V22.218H222.557V17.673Z" fill="#ADADAD"/>
<path fill-rule="evenodd" clip-rule="evenodd" d="M386 15H345.927V25.789H386V15ZM358.257 18.0826V21.8836H359.619C360.036 21.8836 360.358 21.7861 360.587 21.5912C360.815 21.3963 360.929 21.1282 360.929 20.7871C360.929 20.5644 360.867 20.3729 360.743 20.2128C360.621 20.0509 360.454 19.9413 360.241 19.8839C360.421 19.809 360.563 19.7037 360.667 19.568C360.772 19.4305 360.824 19.273 360.824 19.0955C360.824 18.7613 360.716 18.509 360.5 18.3384C360.286 18.1678 359.966 18.0826 359.54 18.0826H358.257ZM358.775 21.4737V20.1058H359.637C360.152 20.1058 360.409 20.3346 360.409 20.7923C360.409 21.0047 360.339 21.1718 360.198 21.2936C360.06 21.4137 359.87 21.4737 359.629 21.4737H358.775ZM359.557 19.7037H358.775V18.495H359.54C359.797 18.495 359.989 18.5429 360.115 18.6386C360.241 18.7326 360.303 18.884 360.303 19.0929C360.303 19.2808 360.235 19.4296 360.099 19.5393C359.964 19.6489 359.783 19.7037 359.557 19.7037ZM362.566 21.9358C362.941 21.9358 363.226 21.8253 363.421 21.6042L363.431 21.8836H363.906V19.0589H363.407V21.1134C363.281 21.3884 363.028 21.5259 362.647 21.5259C362.287 21.5259 362.107 21.3119 362.107 20.8837V19.0589H361.609V20.8968C361.61 21.2396 361.692 21.4989 361.854 21.6747C362.018 21.8488 362.255 21.9358 362.566 21.9358ZM365.343 18.375V19.0589H365.888V19.4322H365.343V21.1839C365.343 21.2971 365.367 21.3823 365.416 21.4398C365.464 21.4955 365.547 21.5233 365.664 21.5233C365.722 21.5233 365.801 21.5129 365.901 21.492V21.8836C365.77 21.9184 365.642 21.9358 365.518 21.9358C365.295 21.9358 365.127 21.8705 365.014 21.74C364.901 21.6095 364.844 21.4241 364.844 21.1839V19.4322H364.313V19.0589H364.844V18.375H365.343ZM367.15 19.0589V18.375H366.651V19.0589H366.12V19.4322H366.651V21.1839C366.651 21.4241 366.708 21.6095 366.821 21.74C366.934 21.8705 367.102 21.9358 367.325 21.9358C367.449 21.9358 367.577 21.9184 367.708 21.8836V21.492C367.607 21.5129 367.528 21.5233 367.471 21.5233C367.354 21.5233 367.271 21.4955 367.223 21.4398C367.174 21.3823 367.15 21.2971 367.15 21.1839V19.4322H367.694V19.0589H367.15ZM368.093 20.4451C368.093 20.1684 368.149 19.9195 368.261 19.6985C368.374 19.4775 368.53 19.3069 368.73 19.1868C368.931 19.0668 369.16 19.0067 369.417 19.0067C369.815 19.0067 370.136 19.1399 370.38 19.4061C370.626 19.6724 370.749 20.0266 370.749 20.4686V20.5026C370.749 20.7776 370.695 21.0247 370.585 21.244C370.477 21.4615 370.322 21.6312 370.119 21.753C369.917 21.8749 369.685 21.9358 369.423 21.9358C369.027 21.9358 368.706 21.8026 368.46 21.5364C368.216 21.2701 368.093 20.9177 368.093 20.4791V20.4451ZM368.595 20.5026C368.595 20.8158 368.67 21.0673 368.819 21.257C368.97 21.4467 369.171 21.5416 369.423 21.5416C369.676 21.5416 369.878 21.4459 370.027 21.2544C370.176 21.0612 370.251 20.7915 370.251 20.4451C370.251 20.1354 370.174 19.8847 370.021 19.6933C369.87 19.5001 369.669 19.4035 369.417 19.4035C369.171 19.4035 368.973 19.4984 368.822 19.6881C368.671 19.8778 368.595 20.1493 368.595 20.5026ZM371.863 19.414L371.847 19.0589H371.375V21.8836H371.874V19.8708C371.942 19.7351 372.037 19.6254 372.16 19.5419C372.282 19.4583 372.424 19.4166 372.586 19.4166C372.785 19.4166 372.932 19.4653 373.025 19.5628C373.121 19.6602 373.169 19.8108 373.171 20.0144V21.8836H373.67V20.017C373.664 19.3435 373.353 19.0067 372.737 19.0067C372.377 19.0067 372.086 19.1425 371.863 19.414Z" fill="#C4C4C4"/>
<g clip-path="url(#clip0)">
<path d="M308.578 16.5413H303.129C302.506 16.5413 302 17.0477 302 17.6702V23.1188C302 23.7412 302.506 24.2477 303.129 24.2477H305.402V21.5234H304.499V20.1687H305.402V19.2506C305.402 18.5036 306.009 17.8959 306.756 17.8959H308.126V19.2506H306.756V20.1687H308.126L307.9 21.5234H306.756V24.2477H308.578C309.2 24.2477 309.706 23.7412 309.706 23.1188V17.6702C309.706 17.0477 309.2 16.5413 308.578 16.5413Z" fill="#C4C4C4"/>
</g>
<g clip-path="url(#clip1)">
<path d="M329.65 20.3945C329.65 20.7685 329.347 21.0718 328.972 21.0718C328.598 21.0718 328.295 20.7685 328.295 20.3945C328.295 20.0204 328.598 19.7172 328.972 19.7172C329.347 19.7172 329.65 20.0204 329.65 20.3945Z" fill="#C4C4C4"/>
<path d="M330.116 18.3475H327.829C327.331 18.3475 326.925 18.7526 326.925 19.2506V21.5384C326.925 22.0364 327.331 22.4415 327.829 22.4415H330.116C330.614 22.4415 331.019 22.0364 331.019 21.5384V19.2506C331.019 18.7526 330.614 18.3475 330.116 18.3475ZM328.972 21.5234C328.35 21.5234 327.844 21.017 327.844 20.3945C327.844 19.772 328.35 19.2656 328.972 19.2656C329.595 19.2656 330.101 19.772 330.101 20.3945C330.101 21.017 329.595 21.5234 328.972 21.5234ZM330.267 19.3258C330.142 19.3258 330.041 19.2248 330.041 19.1001C330.041 18.9754 330.142 18.8743 330.267 18.8743C330.392 18.8743 330.493 18.9754 330.493 19.1001C330.493 19.2248 330.392 19.3258 330.267 19.3258Z" fill="#C4C4C4"/>
<path d="M330.794 16.5413H327.151C326.031 16.5413 325.119 17.4528 325.119 18.5732V22.2157C325.119 23.3361 326.031 24.2477 327.151 24.2477H330.794C331.914 24.2477 332.826 23.3361 332.826 22.2157V18.5732C332.826 17.4528 331.914 16.5413 330.794 16.5413ZM331.471 21.5384C331.471 22.2854 330.863 22.8931 330.116 22.8931H327.829C327.082 22.8931 326.474 22.2854 326.474 21.5384V19.2506C326.474 18.5036 327.082 17.8959 327.829 17.8959H330.116C330.863 17.8959 331.471 18.5036 331.471 19.2506V21.5384Z" fill="#C4C4C4"/>
</g>
<defs>
<clipPath id="clip0">
<rect width="7.70642" height="7.70642" fill="white" transform="translate(302 16.5413)"/>
</clipPath>
<clipPath id="clip1">
<rect width="7.70642" height="7.70642" fill="white" transform="translate(325.119 16.5413)"/>
</clipPath>
</defs>
</svg>
