<svg width="200" height="40" viewBox="0 0 200 40" fill="none" xmlns="http://www.w3.org/2000/svg">
<rect width="200" height="40" fill="white"/>
<path d="M89.004 23.5V24.508H84V16.192H85.164V23.5H89.004Z" fill="#C4C4C4"/>
<path d="M89.3476 20.344C89.3476 19.632 89.4516 19.004 89.6596 18.46C89.8756 17.916 90.1636 17.464 90.5236 17.104C90.8916 16.736 91.3156 16.46 91.7956 16.276C92.2836 16.092 92.7996 16 93.3436 16C93.8796 16 94.3836 16.092 94.8556 16.276C95.3356 16.46 95.7556 16.736 96.1156 17.104C96.4756 17.464 96.7596 17.916 96.9676 18.46C97.1836 19.004 97.2916 19.632 97.2916 20.344C97.2916 21.056 97.1836 21.684 96.9676 22.228C96.7596 22.772 96.4756 23.228 96.1156 23.596C95.7556 23.956 95.3356 24.228 94.8556 24.412C94.3836 24.596 93.8796 24.688 93.3436 24.688C92.7996 24.688 92.2836 24.596 91.7956 24.412C91.3156 24.228 90.8916 23.956 90.5236 23.596C90.1636 23.228 89.8756 22.772 89.6596 22.228C89.4516 21.684 89.3476 21.056 89.3476 20.344ZM90.5716 20.344C90.5716 20.848 90.6356 21.308 90.7636 21.724C90.8916 22.132 91.0716 22.48 91.3036 22.768C91.5436 23.056 91.8316 23.28 92.1676 23.44C92.5116 23.592 92.8956 23.668 93.3196 23.668C93.7436 23.668 94.1236 23.592 94.4596 23.44C94.7956 23.28 95.0796 23.056 95.3116 22.768C95.5516 22.48 95.7356 22.132 95.8636 21.724C95.9916 21.308 96.0556 20.848 96.0556 20.344C96.0556 19.84 95.9916 19.384 95.8636 18.976C95.7356 18.56 95.5516 18.208 95.3116 17.92C95.0796 17.632 94.7956 17.412 94.4596 17.26C94.1236 17.1 93.7436 17.02 93.3196 17.02C92.8956 17.02 92.5116 17.1 92.1676 17.26C91.8316 17.412 91.5436 17.632 91.3036 17.92C91.0716 18.208 90.8916 18.56 90.7636 18.976C90.6356 19.384 90.5716 19.84 90.5716 20.344Z" fill="#C4C4C4"/>
<path d="M104.099 20.416H105.263V24.304C105.167 24.336 105.027 24.372 104.843 24.412C104.667 24.452 104.459 24.492 104.219 24.532C103.987 24.572 103.731 24.604 103.451 24.628C103.171 24.66 102.887 24.676 102.599 24.676C102.015 24.676 101.483 24.58 101.003 24.388C100.523 24.196 100.111 23.916 99.7674 23.548C99.4234 23.18 99.1554 22.728 98.9634 22.192C98.7794 21.656 98.6874 21.04 98.6874 20.344C98.6874 19.648 98.7914 19.032 98.9994 18.496C99.2154 17.952 99.5034 17.496 99.8634 17.128C100.223 16.76 100.643 16.48 101.123 16.288C101.611 16.096 102.131 16 102.683 16C103.059 16 103.391 16.024 103.679 16.072C103.975 16.12 104.227 16.176 104.435 16.24C104.643 16.304 104.811 16.368 104.939 16.432C105.075 16.496 105.167 16.544 105.215 16.576L104.843 17.548C104.611 17.396 104.303 17.272 103.919 17.176C103.535 17.072 103.143 17.02 102.743 17.02C102.319 17.02 101.931 17.096 101.579 17.248C101.235 17.4 100.939 17.62 100.691 17.908C100.451 18.196 100.263 18.548 100.127 18.964C99.9914 19.372 99.9234 19.832 99.9234 20.344C99.9234 20.84 99.9794 21.292 100.091 21.7C100.211 22.108 100.387 22.46 100.619 22.756C100.859 23.044 101.151 23.268 101.495 23.428C101.847 23.588 102.259 23.668 102.731 23.668C103.067 23.668 103.351 23.652 103.583 23.62C103.823 23.58 103.995 23.544 104.099 23.512V20.416Z" fill="#C4C4C4"/>
<path d="M106.75 20.344C106.75 19.632 106.854 19.004 107.062 18.46C107.278 17.916 107.566 17.464 107.926 17.104C108.294 16.736 108.718 16.46 109.198 16.276C109.686 16.092 110.202 16 110.746 16C111.282 16 111.786 16.092 112.258 16.276C112.738 16.46 113.158 16.736 113.518 17.104C113.878 17.464 114.162 17.916 114.37 18.46C114.586 19.004 114.694 19.632 114.694 20.344C114.694 21.056 114.586 21.684 114.37 22.228C114.162 22.772 113.878 23.228 113.518 23.596C113.158 23.956 112.738 24.228 112.258 24.412C111.786 24.596 111.282 24.688 110.746 24.688C110.202 24.688 109.686 24.596 109.198 24.412C108.718 24.228 108.294 23.956 107.926 23.596C107.566 23.228 107.278 22.772 107.062 22.228C106.854 21.684 106.75 21.056 106.75 20.344ZM107.974 20.344C107.974 20.848 108.038 21.308 108.166 21.724C108.294 22.132 108.474 22.48 108.706 22.768C108.946 23.056 109.234 23.28 109.57 23.44C109.914 23.592 110.298 23.668 110.722 23.668C111.146 23.668 111.526 23.592 111.862 23.44C112.198 23.28 112.482 23.056 112.714 22.768C112.954 22.48 113.138 22.132 113.266 21.724C113.394 21.308 113.458 20.848 113.458 20.344C113.458 19.84 113.394 19.384 113.266 18.976C113.138 18.56 112.954 18.208 112.714 17.92C112.482 17.632 112.198 17.412 111.862 17.26C111.526 17.1 111.146 17.02 110.722 17.02C110.298 17.02 109.914 17.1 109.57 17.26C109.234 17.412 108.946 17.632 108.706 17.92C108.474 18.208 108.294 18.56 108.166 18.976C108.038 19.384 107.974 19.84 107.974 20.344Z" fill="#C4C4C4"/>
<g clip-path="url(#clip0)">
<path d="M168.163 17.6875H182.225C182.484 17.6875 182.694 17.4775 182.694 17.2188C182.694 16.96 182.484 16.75 182.225 16.75H168.163C167.904 16.75 167.694 16.96 167.694 17.2188C167.694 17.4775 167.904 17.6875 168.163 17.6875Z" fill="#C4C4C4"/>
<path d="M182.225 20.0313H168.163C167.904 20.0313 167.694 20.2413 167.694 20.5C167.694 20.7587 167.904 20.9687 168.163 20.9687H182.225C182.484 20.9687 182.694 20.7587 182.694 20.5C182.694 20.2413 182.484 20.0313 182.225 20.0313Z" fill="#C4C4C4"/>
<path d="M182.225 23.3125H172.85C172.591 23.3125 172.381 23.5225 172.381 23.7812C172.381 24.04 172.591 24.25 172.85 24.25H182.225C182.484 24.25 182.694 24.04 182.694 23.7812C182.694 23.5225 182.484 23.3125 182.225 23.3125Z" fill="#C4C4C4"/>
</g>
<path d="M23.5352 16H16.4648C15.6572 16 15 16.6572 15 17.4648V24.5352C15 25.3428 15.6572 26 16.4648 26H19.4141V22.4648H18.2422V20.707H19.4141V19.5156C19.4141 18.5463 20.2026 17.7578 21.1719 17.7578H22.9492V19.5156H21.1719V20.707H22.9492L22.6562 22.4648H21.1719V26H23.5352C24.3428 26 25 25.3428 25 24.5352V17.4648C25 16.6572 24.3428 16 23.5352 16Z" fill="#C4C4C4"/>
<path d="M40.8789 21C40.8789 21.4854 40.4854 21.8789 40 21.8789C39.5146 21.8789 39.1211 21.4854 39.1211 21C39.1211 20.5146 39.5146 20.1211 40 20.1211C40.4854 20.1211 40.8789 20.5146 40.8789 21Z" fill="#C4C4C4"/>
<path d="M41.4844 18.3438H38.5156C37.8694 18.3438 37.3438 18.8694 37.3438 19.5156V22.4844C37.3438 23.1306 37.8694 23.6562 38.5156 23.6562H41.4844C42.1306 23.6562 42.6562 23.1306 42.6562 22.4844V19.5156C42.6562 18.8694 42.1306 18.3438 41.4844 18.3438ZM40 22.4648C39.1923 22.4648 38.5352 21.8077 38.5352 21C38.5352 20.1923 39.1923 19.5352 40 19.5352C40.8077 19.5352 41.4648 20.1923 41.4648 21C41.4648 21.8077 40.8077 22.4648 40 22.4648ZM41.6797 19.6133C41.5179 19.6133 41.3867 19.4821 41.3867 19.3203C41.3867 19.1585 41.5179 19.0273 41.6797 19.0273C41.8415 19.0273 41.9727 19.1585 41.9727 19.3203C41.9727 19.4821 41.8415 19.6133 41.6797 19.6133Z" fill="#C4C4C4"/>
<path d="M42.3633 16H37.6367C36.1829 16 35 17.1829 35 18.6367V23.3633C35 24.8171 36.1829 26 37.6367 26H42.3633C43.8171 26 45 24.8171 45 23.3633V18.6367C45 17.1829 43.8171 16 42.3633 16ZM43.2422 22.4844C43.2422 23.4536 42.4536 24.2422 41.4844 24.2422H38.5156C37.5464 24.2422 36.7578 23.4536 36.7578 22.4844V19.5156C36.7578 18.5464 37.5464 17.7578 38.5156 17.7578H41.4844C42.4536 17.7578 43.2422 18.5464 43.2422 19.5156V22.4844Z" fill="#C4C4C4"/>
<defs>
<clipPath id="clip0">
<rect width="15" height="15" fill="white" transform="translate(167.694 13)"/>
</clipPath>
</defs>
</svg>
