<svg width="200" height="40" viewBox="0 0 200 40" fill="none" xmlns="http://www.w3.org/2000/svg">
<rect width="200" height="40" fill="white"/>
<path d="M22.004 23.5V24.508H17V16.192H18.164V23.5H22.004Z" fill="#C4C4C4"/>
<path d="M22.3476 20.344C22.3476 19.632 22.4516 19.004 22.6596 18.46C22.8756 17.916 23.1636 17.464 23.5236 17.104C23.8916 16.736 24.3156 16.46 24.7956 16.276C25.2836 16.092 25.7996 16 26.3436 16C26.8796 16 27.3836 16.092 27.8556 16.276C28.3356 16.46 28.7556 16.736 29.1156 17.104C29.4756 17.464 29.7596 17.916 29.9676 18.46C30.1836 19.004 30.2916 19.632 30.2916 20.344C30.2916 21.056 30.1836 21.684 29.9676 22.228C29.7596 22.772 29.4756 23.228 29.1156 23.596C28.7556 23.956 28.3356 24.228 27.8556 24.412C27.3836 24.596 26.8796 24.688 26.3436 24.688C25.7996 24.688 25.2836 24.596 24.7956 24.412C24.3156 24.228 23.8916 23.956 23.5236 23.596C23.1636 23.228 22.8756 22.772 22.6596 22.228C22.4516 21.684 22.3476 21.056 22.3476 20.344ZM23.5716 20.344C23.5716 20.848 23.6356 21.308 23.7636 21.724C23.8916 22.132 24.0716 22.48 24.3036 22.768C24.5436 23.056 24.8316 23.28 25.1676 23.44C25.5116 23.592 25.8956 23.668 26.3196 23.668C26.7436 23.668 27.1236 23.592 27.4596 23.44C27.7956 23.28 28.0796 23.056 28.3116 22.768C28.5516 22.48 28.7356 22.132 28.8636 21.724C28.9916 21.308 29.0556 20.848 29.0556 20.344C29.0556 19.84 28.9916 19.384 28.8636 18.976C28.7356 18.56 28.5516 18.208 28.3116 17.92C28.0796 17.632 27.7956 17.412 27.4596 17.26C27.1236 17.1 26.7436 17.02 26.3196 17.02C25.8956 17.02 25.5116 17.1 25.1676 17.26C24.8316 17.412 24.5436 17.632 24.3036 17.92C24.0716 18.208 23.8916 18.56 23.7636 18.976C23.6356 19.384 23.5716 19.84 23.5716 20.344Z" fill="#C4C4C4"/>
<path d="M37.0994 20.416H38.2634V24.304C38.1674 24.336 38.0274 24.372 37.8434 24.412C37.6674 24.452 37.4594 24.492 37.2194 24.532C36.9874 24.572 36.7314 24.604 36.4514 24.628C36.1714 24.66 35.8874 24.676 35.5994 24.676C35.0154 24.676 34.4834 24.58 34.0034 24.388C33.5234 24.196 33.1114 23.916 32.7674 23.548C32.4234 23.18 32.1554 22.728 31.9634 22.192C31.7794 21.656 31.6874 21.04 31.6874 20.344C31.6874 19.648 31.7914 19.032 31.9994 18.496C32.2154 17.952 32.5034 17.496 32.8634 17.128C33.2234 16.76 33.6434 16.48 34.1234 16.288C34.6114 16.096 35.1314 16 35.6834 16C36.0594 16 36.3914 16.024 36.6794 16.072C36.9754 16.12 37.2274 16.176 37.4354 16.24C37.6434 16.304 37.8114 16.368 37.9394 16.432C38.0754 16.496 38.1674 16.544 38.2154 16.576L37.8434 17.548C37.6114 17.396 37.3034 17.272 36.9194 17.176C36.5354 17.072 36.1434 17.02 35.7434 17.02C35.3194 17.02 34.9314 17.096 34.5794 17.248C34.2354 17.4 33.9394 17.62 33.6914 17.908C33.4514 18.196 33.2634 18.548 33.1274 18.964C32.9914 19.372 32.9234 19.832 32.9234 20.344C32.9234 20.84 32.9794 21.292 33.0914 21.7C33.2114 22.108 33.3874 22.46 33.6194 22.756C33.8594 23.044 34.1514 23.268 34.4954 23.428C34.8474 23.588 35.2594 23.668 35.7314 23.668C36.0674 23.668 36.3514 23.652 36.5834 23.62C36.8234 23.58 36.9954 23.544 37.0994 23.512V20.416Z" fill="#C4C4C4"/>
<path d="M39.7499 20.344C39.7499 19.632 39.8539 19.004 40.0619 18.46C40.2779 17.916 40.5659 17.464 40.9259 17.104C41.2939 16.736 41.7179 16.46 42.1979 16.276C42.6859 16.092 43.2019 16 43.7459 16C44.2819 16 44.7859 16.092 45.2579 16.276C45.7379 16.46 46.1579 16.736 46.5179 17.104C46.8779 17.464 47.1619 17.916 47.3699 18.46C47.5859 19.004 47.6939 19.632 47.6939 20.344C47.6939 21.056 47.5859 21.684 47.3699 22.228C47.1619 22.772 46.8779 23.228 46.5179 23.596C46.1579 23.956 45.7379 24.228 45.2579 24.412C44.7859 24.596 44.2819 24.688 43.7459 24.688C43.2019 24.688 42.6859 24.596 42.1979 24.412C41.7179 24.228 41.2939 23.956 40.9259 23.596C40.5659 23.228 40.2779 22.772 40.0619 22.228C39.8539 21.684 39.7499 21.056 39.7499 20.344ZM40.9739 20.344C40.9739 20.848 41.0379 21.308 41.1659 21.724C41.2939 22.132 41.4739 22.48 41.7059 22.768C41.9459 23.056 42.2339 23.28 42.5699 23.44C42.9139 23.592 43.2979 23.668 43.7219 23.668C44.1459 23.668 44.5259 23.592 44.8619 23.44C45.1979 23.28 45.4819 23.056 45.7139 22.768C45.9539 22.48 46.1379 22.132 46.2659 21.724C46.3939 21.308 46.4579 20.848 46.4579 20.344C46.4579 19.84 46.3939 19.384 46.2659 18.976C46.1379 18.56 45.9539 18.208 45.7139 17.92C45.4819 17.632 45.1979 17.412 44.8619 17.26C44.5259 17.1 44.1459 17.02 43.7219 17.02C43.2979 17.02 42.9139 17.1 42.5699 17.26C42.2339 17.412 41.9459 17.632 41.7059 17.92C41.4739 18.208 41.2939 18.56 41.1659 18.976C41.0379 19.384 40.9739 19.84 40.9739 20.344Z" fill="#C4C4C4"/>
<g clip-path="url(#clip0)">
<path d="M168.163 17.6875H182.225C182.484 17.6875 182.694 17.4775 182.694 17.2188C182.694 16.96 182.484 16.75 182.225 16.75H168.163C167.904 16.75 167.694 16.96 167.694 17.2188C167.694 17.4775 167.904 17.6875 168.163 17.6875Z" fill="#C4C4C4"/>
<path d="M182.225 20.0313H168.163C167.904 20.0313 167.694 20.2413 167.694 20.5C167.694 20.7587 167.904 20.9687 168.163 20.9687H182.225C182.484 20.9687 182.694 20.7587 182.694 20.5C182.694 20.2413 182.484 20.0313 182.225 20.0313Z" fill="#C4C4C4"/>
<path d="M182.225 23.3125H172.85C172.591 23.3125 172.381 23.5225 172.381 23.7812C172.381 24.04 172.591 24.25 172.85 24.25H182.225C182.484 24.25 182.694 24.04 182.694 23.7812C182.694 23.5225 182.484 23.3125 182.225 23.3125Z" fill="#C4C4C4"/>
</g>
<defs>
<clipPath id="clip0">
<rect width="15" height="15" fill="white" transform="translate(167.694 13)"/>
</clipPath>
</defs>
</svg>
