<svg width="200" height="40" viewBox="0 0 200 40" fill="none" xmlns="http://www.w3.org/2000/svg">
<rect width="200" height="40" fill="white"/>
<path d="M16.4687 17.6875H30.5312C30.79 17.6875 31 17.4775 31 17.2188C31 16.96 30.7899 16.75 30.5312 16.75H16.4687C16.21 16.75 16 16.96 16 17.2188C16 17.4775 16.21 17.6875 16.4687 17.6875Z" fill="#C4C4C4"/>
<path d="M30.5312 20.0313H16.4687C16.21 20.0313 16 20.2413 16 20.5C16 20.7587 16.21 20.9687 16.4687 20.9687H30.5312C30.79 20.9687 31 20.7587 31 20.5C31 20.2413 30.79 20.0313 30.5312 20.0313Z" fill="#C4C4C4"/>
<path d="M30.5312 23.3125H21.1562C20.8975 23.3125 20.6875 23.5225 20.6875 23.7812C20.6875 24.04 20.8975 24.25 21.1562 24.25H30.5312C30.79 24.25 31 24.04 31 23.7812C31 23.5225 30.79 23.3125 30.5312 23.3125Z" fill="#C4C4C4"/>
<path d="M82.004 23.656V24.664H77V16.348H78.164V23.656H82.004Z" fill="#C4C4C4"/>
<path d="M82.3476 20.5C82.3476 19.788 82.4516 19.16 82.6596 18.616C82.8756 18.072 83.1636 17.62 83.5236 17.26C83.8916 16.892 84.3156 16.616 84.7956 16.432C85.2836 16.248 85.7996 16.156 86.3436 16.156C86.8796 16.156 87.3836 16.248 87.8556 16.432C88.3356 16.616 88.7556 16.892 89.1156 17.26C89.4756 17.62 89.7596 18.072 89.9676 18.616C90.1836 19.16 90.2916 19.788 90.2916 20.5C90.2916 21.212 90.1836 21.84 89.9676 22.384C89.7596 22.928 89.4756 23.384 89.1156 23.752C88.7556 24.112 88.3356 24.384 87.8556 24.568C87.3836 24.752 86.8796 24.844 86.3436 24.844C85.7996 24.844 85.2836 24.752 84.7956 24.568C84.3156 24.384 83.8916 24.112 83.5236 23.752C83.1636 23.384 82.8756 22.928 82.6596 22.384C82.4516 21.84 82.3476 21.212 82.3476 20.5ZM83.5716 20.5C83.5716 21.004 83.6356 21.464 83.7636 21.88C83.8916 22.288 84.0716 22.636 84.3036 22.924C84.5436 23.212 84.8316 23.436 85.1676 23.596C85.5116 23.748 85.8956 23.824 86.3196 23.824C86.7436 23.824 87.1236 23.748 87.4596 23.596C87.7956 23.436 88.0796 23.212 88.3116 22.924C88.5516 22.636 88.7356 22.288 88.8636 21.88C88.9916 21.464 89.0556 21.004 89.0556 20.5C89.0556 19.996 88.9916 19.54 88.8636 19.132C88.7356 18.716 88.5516 18.364 88.3116 18.076C88.0796 17.788 87.7956 17.568 87.4596 17.416C87.1236 17.256 86.7436 17.176 86.3196 17.176C85.8956 17.176 85.5116 17.256 85.1676 17.416C84.8316 17.568 84.5436 17.788 84.3036 18.076C84.0716 18.364 83.8916 18.716 83.7636 19.132C83.6356 19.54 83.5716 19.996 83.5716 20.5Z" fill="#C4C4C4"/>
<path d="M97.0994 20.572H98.2634V24.46C98.1674 24.492 98.0274 24.528 97.8434 24.568C97.6674 24.608 97.4594 24.648 97.2194 24.688C96.9874 24.728 96.7314 24.76 96.4514 24.784C96.1714 24.816 95.8874 24.832 95.5994 24.832C95.0154 24.832 94.4834 24.736 94.0034 24.544C93.5234 24.352 93.1114 24.072 92.7674 23.704C92.4234 23.336 92.1554 22.884 91.9634 22.348C91.7794 21.812 91.6874 21.196 91.6874 20.5C91.6874 19.804 91.7914 19.188 91.9994 18.652C92.2154 18.108 92.5034 17.652 92.8634 17.284C93.2234 16.916 93.6434 16.636 94.1234 16.444C94.6114 16.252 95.1314 16.156 95.6834 16.156C96.0594 16.156 96.3914 16.18 96.6794 16.228C96.9754 16.276 97.2274 16.332 97.4354 16.396C97.6434 16.46 97.8114 16.524 97.9394 16.588C98.0754 16.652 98.1674 16.7 98.2154 16.732L97.8434 17.704C97.6114 17.552 97.3034 17.428 96.9194 17.332C96.5354 17.228 96.1434 17.176 95.7434 17.176C95.3194 17.176 94.9314 17.252 94.5794 17.404C94.2354 17.556 93.9394 17.776 93.6914 18.064C93.4514 18.352 93.2634 18.704 93.1274 19.12C92.9914 19.528 92.9234 19.988 92.9234 20.5C92.9234 20.996 92.9794 21.448 93.0914 21.856C93.2114 22.264 93.3874 22.616 93.6194 22.912C93.8594 23.2 94.1514 23.424 94.4954 23.584C94.8474 23.744 95.2594 23.824 95.7314 23.824C96.0674 23.824 96.3514 23.808 96.5834 23.776C96.8234 23.736 96.9954 23.7 97.0994 23.668V20.572Z" fill="#C4C4C4"/>
<path d="M99.7499 20.5C99.7499 19.788 99.8539 19.16 100.062 18.616C100.278 18.072 100.566 17.62 100.926 17.26C101.294 16.892 101.718 16.616 102.198 16.432C102.686 16.248 103.202 16.156 103.746 16.156C104.282 16.156 104.786 16.248 105.258 16.432C105.738 16.616 106.158 16.892 106.518 17.26C106.878 17.62 107.162 18.072 107.37 18.616C107.586 19.16 107.694 19.788 107.694 20.5C107.694 21.212 107.586 21.84 107.37 22.384C107.162 22.928 106.878 23.384 106.518 23.752C106.158 24.112 105.738 24.384 105.258 24.568C104.786 24.752 104.282 24.844 103.746 24.844C103.202 24.844 102.686 24.752 102.198 24.568C101.718 24.384 101.294 24.112 100.926 23.752C100.566 23.384 100.278 22.928 100.062 22.384C99.8539 21.84 99.7499 21.212 99.7499 20.5ZM100.974 20.5C100.974 21.004 101.038 21.464 101.166 21.88C101.294 22.288 101.474 22.636 101.706 22.924C101.946 23.212 102.234 23.436 102.57 23.596C102.914 23.748 103.298 23.824 103.722 23.824C104.146 23.824 104.526 23.748 104.862 23.596C105.198 23.436 105.482 23.212 105.714 22.924C105.954 22.636 106.138 22.288 106.266 21.88C106.394 21.464 106.458 21.004 106.458 20.5C106.458 19.996 106.394 19.54 106.266 19.132C106.138 18.716 105.954 18.364 105.714 18.076C105.482 17.788 105.198 17.568 104.862 17.416C104.526 17.256 104.146 17.176 103.722 17.176C103.298 17.176 102.914 17.256 102.57 17.416C102.234 17.568 101.946 17.788 101.706 18.076C101.474 18.364 101.294 18.716 101.166 19.132C101.038 19.54 100.974 19.996 100.974 20.5Z" fill="#C4C4C4"/>
<g clip-path="url(#clip0)">
<path d="M162.229 15.5H155.159C154.351 15.5 153.694 16.1572 153.694 16.9648V24.0352C153.694 24.8428 154.351 25.5 155.159 25.5H158.108V21.9648H156.936V20.207H158.108V19.0156C158.108 18.0463 158.897 17.2578 159.866 17.2578H161.643V19.0156H159.866V20.207H161.643L161.35 21.9648H159.866V25.5H162.229C163.037 25.5 163.694 24.8428 163.694 24.0352V16.9648C163.694 16.1572 163.037 15.5 162.229 15.5Z" fill="#C4C4C4"/>
</g>
<g clip-path="url(#clip1)">
<path d="M179.573 20.5C179.573 20.9854 179.179 21.3789 178.694 21.3789C178.209 21.3789 177.815 20.9854 177.815 20.5C177.815 20.0146 178.209 19.6211 178.694 19.6211C179.179 19.6211 179.573 20.0146 179.573 20.5Z" fill="#C4C4C4"/>
<path d="M180.178 17.8438H177.21C176.563 17.8438 176.038 18.3694 176.038 19.0156V21.9844C176.038 22.6306 176.563 23.1562 177.21 23.1562H180.178C180.825 23.1562 181.35 22.6306 181.35 21.9844V19.0156C181.35 18.3694 180.825 17.8438 180.178 17.8438ZM178.694 21.9648C177.886 21.9648 177.229 21.3077 177.229 20.5C177.229 19.6923 177.886 19.0352 178.694 19.0352C179.502 19.0352 180.159 19.6923 180.159 20.5C180.159 21.3077 179.502 21.9648 178.694 21.9648ZM180.374 19.1133C180.212 19.1133 180.081 18.9821 180.081 18.8203C180.081 18.6585 180.212 18.5273 180.374 18.5273C180.535 18.5273 180.667 18.6585 180.667 18.8203C180.667 18.9821 180.535 19.1133 180.374 19.1133Z" fill="#C4C4C4"/>
<path d="M181.057 15.5H176.331C174.877 15.5 173.694 16.6829 173.694 18.1367V22.8633C173.694 24.3171 174.877 25.5 176.331 25.5H181.057C182.511 25.5 183.694 24.3171 183.694 22.8633V18.1367C183.694 16.6829 182.511 15.5 181.057 15.5ZM181.936 21.9844C181.936 22.9536 181.148 23.7422 180.178 23.7422H177.21C176.24 23.7422 175.452 22.9536 175.452 21.9844V19.0156C175.452 18.0464 176.24 17.2578 177.21 17.2578H180.178C181.148 17.2578 181.936 18.0464 181.936 19.0156V21.9844Z" fill="#C4C4C4"/>
</g>
<defs>
<clipPath id="clip0">
<rect width="10" height="10" fill="white" transform="translate(153.694 15.5)"/>
</clipPath>
<clipPath id="clip1">
<rect width="10" height="10" fill="white" transform="translate(173.694 15.5)"/>
</clipPath>
</defs>
</svg>
